ply
format ascii 1.0
comment VCGLIB generated
element vertex 773
property float x
property float y
property float z
element face 1438
property list uchar int vertex_indices
end_header
-1.65874e-14 -0.012 -0.011 
-0.0042165 -0.0112348 -0.011 
0.00615479 -0.0103014 -0.011 
-0.00789526 -0.00903686 -0.011 
0.0052066 0.0108116 -0.011 
-0.0100149 0.00661076 -0.011 
-0.0114127 -0.0037082 -0.011 
-0.00705342 0.0097082 -0.011 
-0.0052066 0.0108116 -0.011 
0.00705342 0.0097082 -0.011 
0.00867354 0.00829275 -0.011 
0.0100149 0.00661076 -0.011 
0.0116991 0.00267025 -0.011 
0.0119879 0.000538378 -0.011 
0.0118914 -0.0016108 -0.011 
-0.0110343 0.0047163 -0.011 
0.0105671 -0.00568642 -0.011 
0.00938198 -0.00748188 -0.011 
0.00789526 -0.00903686 -0.011 
0.000753486 -0.0119763 -2.65523e-17 
0.00214268 -0.0118072 -0.011 
0.00224858 -0.0117874 -4.17825e-17 
0.0042165 -0.0112348 -0.011 
0.0037082 -0.0114127 -5.67915e-17 
0.00788435 -0.00902523 -1.00701e-16 
0.00764909 -0.00924616 -9.81637e-17 
0.00642992 -0.0101319 -8.52061e-17 
0.00510935 -0.0108579 -7.13425e-17 
0.00874762 -0.00821456 -1.10011e-16 
0.0097082 -0.00705342 -1.20561e-16 
0.0105157 -0.00578104 -1.29647e-16 
0.0114127 -0.0037082 -0.011 
0.011623 -0.00298428 -1.42882e-16 
0.0113902 -0.00370089 -1.40004e-16 
0.0111573 -0.00441749 -1.37127e-16 
0.012 4.70928e-16 -1.48882e-16 
0.0119054 -0.001504 -1.46821e-16 
0.0119662 0.000537013 -1.48936e-16 
0.0119054 0.001504 -1.49033e-16 
0.0116835 0.00266726 -1.47649e-16 
0.011623 0.00298428 -1.47272e-16 
0.0111573 0.00441749 -1.43625e-16 
0.0105157 0.00578104 -1.38152e-16 
0.0110343 0.0047163 -0.011 
0.0110199 0.00470951 -1.42453e-16 
0.00866924 0.00828817 -1.21358e-16 
0.00874762 0.00821456 -1.22095e-16 
0.0097082 0.00705342 -1.30937e-16 
0.00999652 0.00659911 -1.33513e-16 
0.00764909 0.00924616 -1.11765e-16 
0.00642992 0.0101319 -1.00111e-16 
0.00520358 0.0108061 -8.82279e-17 
0.00510935 0.0108579 -8.7315e-17 
0.00319244 0.0115676 -0.011 
0.0037082 0.0114127 -7.358e-17 
-0.00107367 0.0119359 -2.56972e-17 
-0.000753486 0.0119763 -2.89588e-17 
-0.00107567 0.0119517 -0.011 
0.00107567 0.0119517 -0.011 
0.000753486 0.0119763 -4.417e-17 
0.00224858 0.0117874 -5.91223e-17 
-0.00224858 0.0117874 -1.37287e-17 
-0.0037082 0.0114127 1.28031e-18 
-0.00319244 0.0115676 -0.011 
-0.00510935 0.0108579 1.58314e-17 
-0.00764909 0.00924616 4.26525e-17 
-0.00642992 0.0101319 2.96949e-17 
-0.0097082 0.00705342 6.505e-17 
-0.00874762 0.00821456 5.44998e-17 
-0.00866924 0.00828817 5.36544e-17 
-0.00867354 0.00829275 -0.011 
-0.0105157 0.00578104 7.41363e-17 
-0.0110199 0.00470951 8.00139e-17 
-0.0111573 0.00441749 8.16157e-17 
-0.0116991 0.00267025 -0.011 
-0.0119879 0.000538378 -0.011 
-0.0119054 0.001504 9.13097e-17 
-0.011623 0.00298428 8.73705e-17 
-0.0118914 -0.0016108 -0.011 
-0.0119054 -0.001504 9.35222e-17 
-0.012 -4.23051e-16 9.33708e-17 
-0.0118852 -0.00160962 9.33963e-17 
-0.011623 -0.00298428 9.17605e-17 
-0.0113902 -0.00370089 8.99374e-17 
-0.0105671 -0.00568642 -0.011 
-0.0111573 -0.00441749 8.8114e-17 
-0.0105157 -0.00578104 8.26405e-17 
-0.0097082 -0.00705342 7.54259e-17 
-0.00874762 -0.00821456 6.65838e-17 
-0.00936522 -0.00746802 7.22685e-17 
-0.00938198 -0.00748188 -0.011 
-0.00614711 -0.0102874 4.18592e-17 
-0.00642992 -0.0101319 4.45994e-17 
-0.00615479 -0.0103014 -0.011 
-0.00764909 -0.00924616 5.6254e-17 
-0.00788435 -0.00902523 5.84664e-17 
-0.00510935 -0.0108579 3.18039e-17 
-0.0037082 -0.0114127 1.80689e-17 
-1.64773e-14 -0.012 -1.89293e-17 
-1.65903e-14 -0.012 -0.011 
-0.000753486 -0.0119763 -1.13411e-17 
-0.00214268 -0.0118072 -0.011 
-0.0021419 -0.0118009 2.54424e-18 
-0.00224858 -0.0117874 3.61118e-18 
-0.011623 -0.00298428 9.17374e-17 
0.0111573 -0.00441749 -1.38545e-16 
0.011623 -0.00298428 -1.44328e-16 
-0.00134487 0.00053247 0.0119125 
-0.000271036 -0.00142082 0.0119125 
0.000921996 0.0011145 0.0119125 
-0.001401 0.000359715 0.0119125 
-0.00251657 0.00138349 0.0116513 
-0.00267012 0.00105718 0.0116513 
0.00105441 0.000990156 0.0119125 
-0.00131495 -0.00404699 0.0112202 
-0.000887431 -0.00273123 0.0116513 
-0.00344258 0.00250118 0.0112202 
-0.00126753 0.000696828 0.0119125 
0.00232333 0.00168799 0.0116513 
0.00372891 0.00204999 0.0112202 
0.00117019 0.000850196 0.0119125 
0.0027124 -0.00327873 0.0112202 
0.00209344 -0.00196587 0.0116513 
-0.000446975 -0.00137565 0.0119125 
-0.00310195 0.00291293 0.0112202 
-0.00232333 0.00168799 0.0116513 
-0.00117019 0.000850196 0.0119125 
-0.00209344 0.00196587 0.0116513 
-0.00105441 0.000990156 0.0119125 
0.00395644 0.00156647 0.0112202 
0.00251657 0.00138349 0.0116513 
0.00126753 0.000696828 0.0119125 
-0.00298813 -0.00470854 0.0106255 
-0.0018118 -0.00385027 0.0112202 
-0.00228008 -0.00359283 0.0112202 
-0.00122275 -0.00259847 0.0116513 
-0.00153878 -0.00242473 0.0116513 
-0.000615864 -0.00130878 0.0119125 
-0.00406522 0.0038175 0.0106255 
-0.00355471 0.0042969 0.0106255 
-0.00183055 0.00221275 0.0116513 
-0.000921996 0.0011145 0.0119125 
0.00660262 0.00169526 0.00987581 
0.00540148 0.00138686 0.0106255 
0.00518506 0.00205291 0.0106255 
0.00412157 0.00105824 0.0112202 
0.00267012 0.00105718 0.0116513 
0.00278157 0.000714185 0.0116513 
0.00134487 0.00053247 0.0119125 
-0.00365261 -0.00575559 0.00987581 
-0.00355471 -0.0042969 0.0106255 
-0.00183055 -0.00221275 0.0116513 
-0.000775041 -0.00122127 0.0119125 
-0.00426383 0.00671872 0.00898213 
-0.00507228 0.00613134 0.00898213 
-0.00434518 0.00525242 0.00987581 
-0.0027124 0.00327873 0.0112202 
-0.00228008 0.00359283 0.0112202 
0.00789472 0.000997336 0.00898213 
0.0055327 0.000698943 0.0106255 
0.001401 0.000359715 0.0119125 
0.00580075 -0.00544726 0.00898213 
-0.00580075 -0.00544726 0.00898213 
-0.00434518 -0.00525242 0.00987581 
-0.00310195 -0.00291293 0.0112202 
-0.0027124 -0.00327873 0.0112202 
-0.00209344 -0.00196587 0.0116513 
-0.00105441 -0.000990156 0.0119125 
-0.000921996 -0.0011145 0.0119125 
-0.0038244 0.00812727 0.00795747 
-0.00365261 0.00575559 0.00987581 
-0.00290244 0.006168 0.00987581 
-0.00298813 0.00470854 0.0106255 
-0.00153878 0.00242473 0.0116513 
-0.00122275 0.00259847 0.0116513 
-0.000775041 0.00122127 0.0119125 
-0.000615864 0.00130878 0.0119125 
0.00676302 0.000854369 0.00987581 
0.00681678 2.72065e-16 0.00987581 
0.0042217 0.000533325 0.0112202 
0.00425526 1.78765e-16 0.0112202 
0.00287179 1.28157e-16 0.0116513 
0.00284914 0.00035993 0.0116513 
0.00143503 0.000181287 0.0119125 
-0.00654769 -0.00614869 0.00795747 
-0.00496922 -0.0046664 0.00987581 
-0.00406522 -0.0038175 0.0106255 
-0.00551489 -0.0040068 0.00987581 
-0.00344258 -0.00250118 0.0112202 
-0.00232333 -0.00168799 0.0116513 
-0.00305179 0.00939245 0.00681678 
-0.00338813 0.00720014 0.00898213 
-0.00172329 0.00530374 0.0106255 
-0.00237443 0.00504593 0.0106255 
-0.0018118 0.00385027 0.0112202 
-0.000887431 0.00273123 0.0116513 
0.0105417 -0.00133172 0.00557668 
0.00987581 3.82417e-16 0.00681678 
0.00898213 3.5036e-16 0.00795747 
0.00795747 3.13396e-16 0.00898213 
0.00676302 -0.000854369 0.00987581 
0.00557668 2.26969e-16 0.0106255 
0.00144644 7.58827e-17 0.0119125 
-0.00931117 -0.00511886 0.00557668 
-0.00865423 -0.00475771 0.00681678 
-0.0079897 -0.00580485 0.00681678 
-0.0072667 -0.00527956 0.00795747 
-0.00643773 -0.00467728 0.00898213 
-0.00451163 -0.00327789 0.0106255 
-0.00488688 -0.00268659 0.0106255 
-0.00126753 -0.000696828 0.0119125 
-0.00117019 -0.000850196 0.0119125 
0.0102917 -0.00264245 0.00557668 
0.00979793 -0.00123777 0.00681678 
0.0089113 -0.00112576 0.00795747 
0.00789472 -0.000997336 0.00898213 
0.0055327 -0.000698943 0.0106255 
0.0042217 -0.000533325 0.0112202 
0.00412157 -0.00105824 0.0112202 
0.00284914 -0.00035993 0.0116513 
0.00143503 -0.000181287 0.0119125 
0.001401 -0.000359715 0.0119125 
-0.0078711 -0.00432717 0.00795747 
-0.00835137 -0.00330654 0.00795747 
-0.00697319 -0.00383354 0.00898213 
-0.00597359 -0.00328401 0.00987581 
-0.00518506 -0.00205291 0.0106255 
-0.00372891 -0.00204999 0.0112202 
-0.00251657 -0.00138349 0.0116513 
-0.00134487 -0.00053247 0.0119125 
-0.000704522 0.0111981 0.00425526 
-0.00210245 0.0110215 0.00425526 
0.0104323 -0.00413043 0.00425526 
0.00956554 -0.00245601 0.00681678 
0.00869994 -0.00223376 0.00795747 
0.00770747 -0.00197894 0.00898213 
0.00739867 -0.00292934 0.00898213 
0.00660262 -0.00169526 0.00987581 
0.00633808 -0.00250942 0.00987581 
0.00540148 -0.00138686 0.0106255 
0.00518506 -0.00205291 0.0106255 
0.00395644 -0.00156647 0.0112202 
0.00278157 -0.000714185 0.0116513 
0.00267012 -0.00105718 0.0116513 
-0.0108677 -0.00279035 0.00425526 
-0.0102917 -0.00264245 0.00557668 
-0.00987931 -0.0039115 0.00557668 
-0.00956554 -0.00245601 0.00681678 
-0.00918229 -0.00363553 0.00681678 
-0.00739867 -0.00292934 0.00898213 
-0.00869994 -0.00223376 0.00795747 
-0.00633808 -0.00250942 0.00987581 
-0.00660262 -0.00169526 0.00987581 
-0.00540148 -0.00138686 0.0106255 
-0.00395644 -0.00156647 0.0112202 
-0.00267012 -0.00105718 0.0116513 
-0.00412157 -0.00105824 0.0112202 
-0.00278157 -0.000714185 0.0116513 
0.0108331 -0.00428913 0.00287179 
0.00983233 -0.00540537 0.00425526 
0.00987931 -0.0039115 0.00557668 
0.00918229 -0.00363553 0.00681678 
0.00931117 -0.00511886 0.00557668 
0.00835137 -0.00330654 0.00795747 
0.0078711 -0.00432717 0.00795747 
0.00697319 -0.00383354 0.00898213 
0.00134487 -0.00053247 0.0119125 
-0.0112853 -0.00289756 0.00287179 
-0.0115594 -0.0014603 0.00287179 
-0.0105417 -0.00133172 0.00557668 
-0.00979793 -0.00123777 0.00681678 
-0.00770747 -0.00197894 0.00898213 
-0.0055327 -0.000698943 0.0106255 
-0.0042217 -0.000533325 0.0112202 
-0.001401 -0.000359715 0.0119125 
-0.00143503 -0.000181287 0.0119125 
-0.0115383 0.00296252 0.00144644 
-0.0115594 0.0014603 0.00287179 
-0.0102101 0.00561306 0.00287179 
-0.0108331 0.00428913 0.00287179 
-0.0102917 0.00264245 0.00557668 
-0.00979793 0.00123777 0.00681678 
-0.00963742 0.007002 0.00144644 
-0.00868384 0.00815467 0.00144644 
-0.00983233 0.00540537 0.00425526 
-0.0104323 0.00413043 0.00425526 
-0.00898213 -3.08156e-16 0.00795747 
-0.00742682 0.00897748 0.00287179 
-0.00817917 0.00768075 0.00425526 
-0.00865423 0.00475771 0.00681678 
-0.0079897 0.00580485 0.00681678 
-0.00835137 0.00330654 0.00795747 
-0.00770747 0.00197894 0.00898213 
-0.00660262 0.00169526 0.00987581 
-0.00676302 0.000854369 0.00987581 
-0.0055327 0.000698943 0.0106255 
-0.0037082 0.0114127 7.72512e-19 
-0.0050721 0.0107788 0.00144644 
-0.00496088 0.0105424 0.00287179 
-0.00624308 0.00983752 0.00287179 
-0.00715202 0.00864531 0.00425526 
-0.00774564 0.00727364 0.00557668 
-0.00677293 0.00818707 0.00557668 
-0.0072667 0.00527956 0.00795747 
-0.0078711 0.00432717 0.00795747 
-0.00697319 0.00383354 0.00898213 
-0.00739867 0.00292934 0.00898213 
-0.00540148 0.00138686 0.0106255 
-0.00425526 -1.33205e-16 0.0112202 
-0.000747992 0.011889 0.00144644 
-0.00218324 0.0114449 0.00287179 
-0.00346723 0.010671 0.00425526 
-0.00569341 0.00897138 0.00557668 
-0.00629508 0.00760944 0.00681678 
-0.00529172 0.00833842 0.00681678 
-0.00551489 0.0040068 0.00987581 
-0.00518506 0.00205291 0.0106255 
-0.00488688 0.00268659 0.0106255 
-0.00395644 0.00156647 0.0112202 
-0.00412157 0.00105824 0.0112202 
-0.00284914 0.00035993 0.0116513 
-0.00199101 0.0104373 0.00557668 
0.00510935 0.0108579 -8.83626e-17 
0.0050721 0.0107788 0.00144644 
0.00218324 0.0114449 0.00287179 
0.000704522 0.0111981 0.00425526 
0.000667179 0.0106045 0.00557668 
-0.000667179 0.0106045 0.00557668 
-0.000620107 0.00985632 0.00681678 
-0.00168308 0.00882303 0.00795747 
0.00868384 0.00815467 0.00144644 
0.00742682 0.00897748 0.00287179 
0.00601208 0.00947352 0.00425526 
0.00452411 0.00961422 0.00557668 
0.00305179 0.00939245 0.00681678 
0.000563993 0.0089644 0.00795747 
0.000499654 0.00794177 0.00898213 
-0.000428029 0.00680333 0.00987581 
0.00963742 0.007002 0.00144644 
0.00569341 0.00897138 0.00557668 
0.00420491 0.0089359 0.00681678 
0.00277563 0.00854251 0.00795747 
0.00168308 0.00882303 0.00795747 
0.000428029 0.00680333 0.00987581 
-0.000350163 0.00556567 0.0106255 
-0.00104497 0.0054779 0.0106255 
0.0102101 0.00561306 0.00287179 
0.010439 0.00573889 0.00144644 
0.00907733 0.00659506 0.00425526 
0.00817917 0.00768075 0.00425526 
0.00629508 0.00760944 0.00681678 
0.00481287 0.00758386 0.00795747 
0.00529172 0.00833842 0.00681678 
0.0038244 0.00812727 0.00795747 
0.00338813 0.00720014 0.00898213 
0.00245899 0.00756801 0.00898213 
0.00104497 0.0054779 0.0106255 
0.00127734 0.00669603 0.00987581 
0.000350163 0.00556567 0.0106255 
0.00026719 0.00424686 0.0112202 
-0.00026719 0.00424686 0.0112202 
-0.000180321 0.00286612 0.0116513 
-0.000538119 0.00282092 0.0116513 
-0.000271036 0.00142082 0.0119125 
0.0021065 0.00648314 0.00987581 
0.00426383 0.00671872 0.00898213 
0.00572542 0.00692085 0.00795747 
0.00774564 0.00727364 0.00557668 
0.011076 0.00438529 0.00144644 
0.011623 0.00298428 -1.48718e-16 
0.0115383 0.00296252 0.00144644 
0.0119125 4.53437e-16 0.00144644 
0.0115594 0.0014603 0.00287179 
0.0104323 0.00413043 0.00425526 
0.00931117 0.00511886 0.00557668 
0.00654769 0.00614869 0.00795747 
0.00580075 0.00544726 0.00898213 
0.00434518 0.00525242 0.00987581 
0.00298813 0.00470854 0.0106255 
0.000538119 0.00282092 0.0116513 
0.000271036 0.00142082 0.0119125 
-1.65747e-14 2.27041e-17 0.012 
9.08227e-05 0.00144359 0.0119125 
0.0118852 -0.00160962 -1.4654e-16 
0.0116513 4.4487e-16 0.00287179 
0.0111317 0.00140626 0.00425526 
0.0102917 0.00264245 0.00557668 
0.0108677 0.00279035 0.00425526 
0.00918229 0.00363553 0.00681678 
0.00987931 0.0039115 0.00557668 
0.00865423 0.00475771 0.00681678 
0.0072667 0.00527956 0.00795747 
0.00496922 0.0046664 0.00987581 
0.00228008 0.00359283 0.0112202 
0.0018118 0.00385027 0.0112202 
0.000887431 0.00273123 0.0116513 
0.000446975 0.00137565 0.0119125 
0.00224858 -0.0117874 -4.26549e-17 
0.00223218 -0.0117015 0.00144644 
0.00360045 -0.011081 0.00287179 
0.000731591 -0.0116283 0.00287179 
0.00199101 -0.0104373 0.00557668 
0.00210245 -0.0110215 0.00425526 
0.00328345 -0.0101054 0.00557668 
0.00305179 -0.00939245 0.00681678 
0.00420491 -0.0089359 0.00681678 
0.0038244 -0.00812727 0.00795747 
0.00426383 -0.00671872 0.00898213 
-0.000704522 -0.0111981 0.00425526 
-0.000731591 -0.0116283 0.00287179 
0.000667179 -0.0106045 0.00557668 
0.000704522 -0.0111981 0.00425526 
0.00185054 -0.00970088 0.00681678 
0.00338813 -0.00720014 0.00898213 
0.00355471 -0.0042969 0.0106255 
0.00434518 -0.00525242 0.00987581 
0.00406522 -0.0038175 0.0106255 
-0.00496088 -0.0105424 0.00287179 
-0.00360045 -0.011081 0.00287179 
-0.00346723 -0.010671 0.00425526 
-0.00210245 -0.0110215 0.00425526 
-0.00199101 -0.0104373 0.00557668 
-0.000667179 -0.0106045 0.00557668 
0.000620107 -0.00985632 0.00681678 
0.000563993 -0.0089644 0.00795747 
0.00168308 -0.00882303 0.00795747 
0.00149108 -0.00781652 0.00898213 
0.0021065 -0.00648314 0.00987581 
0.00228008 -0.00359283 0.0112202 
0.000921996 -0.0011145 0.0119125 
0.00153878 -0.00242473 0.0116513 
0.00183055 -0.00221275 0.0116513 
0.0018118 -0.00385027 0.0112202 
0.00237443 -0.00504593 0.0106255 
0.00172329 -0.00530374 0.0106255 
0.000499654 -0.00794177 0.00898213 
-0.000620107 -0.00985632 0.00681678 
-0.00328345 -0.0101054 0.00557668 
-0.00477733 -0.0101523 0.00425526 
-0.00624308 -0.00983752 0.00287179 
-0.00759332 -0.00917874 0.00144644 
-0.00764909 -0.00924616 5.59876e-17 
-0.00715202 -0.00864531 0.00425526 
-0.00601208 -0.00947352 0.00425526 
-0.00277563 -0.00854251 0.00795747 
-0.00305179 -0.00939245 0.00681678 
-0.000499654 -0.00794177 0.00898213 
0.000428029 -0.00680333 0.00987581 
0.000350163 -0.00556567 0.0106255 
0.00104497 -0.0054779 0.0106255 
0.000797356 -0.00417989 0.0112202 
0.000887431 -0.00273123 0.0116513 
0.00131495 -0.00404699 0.0112202 
0.000615864 -0.00130878 0.0119125 
0.00122275 -0.00259847 0.0116513 
0.000775041 -0.00122127 0.0119125 
-0.0105615 -0.00568375 8.30309e-17 
-0.0105157 -0.00578104 8.25496e-17 
-0.010439 -0.00573889 0.00144644 
-0.00963742 -0.007002 0.00144644 
-0.0094261 -0.00684846 0.00287179 
-0.00849343 -0.00797587 0.00287179 
-0.00569341 -0.00897138 0.00557668 
-0.00420491 -0.0089359 0.00681678 
-0.00149108 -0.00781652 0.00898213 
-0.00245899 -0.00756801 0.00898213 
-0.000428029 -0.00680333 0.00987581 
0.000446975 -0.00137565 0.0119125 
-0.0106255 -3.69896e-16 0.00557668 
-0.0116513 -4.09333e-16 0.00287179 
-0.0119125 -4.19916e-16 0.00144644 
-0.0119662 0.000537013 9.26348e-17 
-0.0111573 0.00441749 8.15643e-17 
-0.011623 0.00298428 8.73474e-17 
-0.0116835 0.00266726 8.82139e-17 
-0.0119054 0.001504 9.13038e-17 
-0.0118186 0.00149303 0.00144644 
-0.0105417 0.00133172 0.00557668 
-0.0111317 0.00140626 0.00425526 
-0.0108677 0.00279035 0.00425526 
-0.0112853 0.00289756 0.00287179 
-0.011076 0.00438529 0.00144644 
-0.010439 0.00573889 0.00144644 
-0.00874762 0.00821456 5.43005e-17 
-0.0097082 0.00705342 6.49096e-17 
-0.00999652 0.00659911 6.82941e-17 
-0.0105157 0.00578104 7.40454e-17 
-0.00764909 0.00924616 4.23861e-17 
-0.0094261 0.00684846 0.00287179 
-0.00907733 0.00659506 0.00425526 
-0.00931117 0.00511886 0.00557668 
-0.00918229 0.00363553 0.00681678 
-0.00987931 0.0039115 0.00557668 
-0.00956554 0.00245601 0.00681678 
-0.00869994 0.00223376 0.00795747 
-0.0089113 0.00112576 0.00795747 
-0.00789472 0.000997336 0.00898213 
-0.00795747 -2.69998e-16 0.00898213 
-0.00859619 0.0062455 0.00557668 
-0.00849343 0.00797587 0.00287179 
-0.00759332 0.00917874 0.00144644 
-0.00510935 0.0108579 1.54094e-17 
-0.00638304 0.0100581 0.00144644 
-0.00520358 0.0108061 1.68205e-17 
-0.00642992 0.0101319 2.93539e-17 
-0.0070395 0.00968905 3.61737e-17 
-0.00287179 -8.23851e-17 0.0116513 
-0.0042217 0.000533325 0.0112202 
-0.00633808 0.00250942 0.00987581 
-0.00597359 0.00328401 0.00987581 
-0.00643773 0.00467728 0.00898213 
-0.00719915 0.00676045 0.00681678 
-0.00654769 0.00614869 0.00795747 
-0.00477733 0.0101523 0.00425526 
-0.00601208 0.00947352 0.00425526 
-0.00368117 0.0113295 0.00144644 
-0.00360045 0.011081 0.00287179 
-0.00318703 0.0115465 -4.07876e-18 
-0.000753486 0.0119763 -2.96475e-17 
-0.00223218 0.0117015 0.00144644 
-0.00224858 0.0117874 -1.43258e-17 
-0.000731591 0.0116283 0.00287179 
0.000731591 0.0116283 0.00287179 
0.000747992 0.011889 0.00144644 
0.00368117 0.0113295 0.00144644 
0.0037082 0.0114127 -7.45418e-17 
0.00223218 0.0117015 0.00144644 
0.00318703 0.0115465 -6.84178e-17 
0.00224858 0.0117874 -5.99948e-17 
0.00107367 0.0119359 -4.73722e-17 
0.00642992 0.0101319 -1.01239e-16 
0.00638304 0.0100581 0.00144644 
0.00496088 0.0105424 0.00287179 
0.00346723 0.010671 0.00425526 
0.00360045 0.011081 0.00287179 
0.00210245 0.0110215 0.00425526 
0.00199101 0.0104373 0.00557668 
0.000620107 0.00985632 0.00681678 
-0.000499654 0.00794177 0.00898213 
-0.000563993 0.0089644 0.00795747 
0.00185054 0.00970088 0.00681678 
0.00328345 0.0101054 0.00557668 
0.00477733 0.0101523 0.00425526 
0.00624308 0.00983752 0.00287179 
0.0097082 0.00705342 -1.32266e-16 
0.00874762 0.00821456 -1.23365e-16 
0.00759332 0.00917874 0.00144644 
0.00764909 0.00924616 -1.12968e-16 
0.0070395 0.00968905 -1.05938e-16 
0.00149108 0.00781652 0.00898213 
0.00677293 0.00818707 0.00557668 
0.00715202 0.00864531 0.00425526 
0.0094261 0.00684846 0.00287179 
0.00849343 0.00797587 0.00287179 
0.0111573 0.00441749 -1.45043e-16 
0.0105157 0.00578104 -1.3953e-16 
-9.08227e-05 0.00144359 0.0119125 
0.000180321 0.00286612 0.0116513 
0.000797356 0.00417989 0.0112202 
0.00131495 0.00404699 0.0112202 
0.00172329 0.00530374 0.0106255 
0.00237443 0.00504593 0.0106255 
0.00290244 0.006168 0.00987581 
0.00365261 0.00575559 0.00987581 
0.00507228 0.00613134 0.00898213 
0.00719915 0.00676045 0.00681678 
0.00859619 0.0062455 0.00557668 
0.0079897 0.00580485 0.00681678 
0.00983233 0.00540537 0.00425526 
0.0108331 0.00428913 0.00287179 
0.0112853 0.00289756 0.00287179 
0.0118186 0.00149303 0.00144644 
-0.00185054 0.00970088 0.00681678 
-0.00277563 0.00854251 0.00795747 
-0.00245899 0.00756801 0.00898213 
-0.00149108 0.00781652 0.00898213 
-0.0021065 0.00648314 0.00987581 
-0.00127734 0.00669603 0.00987581 
-0.00131495 0.00404699 0.0112202 
-0.000797356 0.00417989 0.0112202 
-0.000446975 0.00137565 0.0119125 
0.0119054 -0.001504 -1.48285e-16 
0.012 4.55594e-16 -1.50352e-16 
0.0119054 0.001504 -1.50497e-16 
0.0115383 -0.00296252 0.00144644 
0.0118186 -0.00149303 0.00144644 
0.0115594 -0.0014603 0.00287179 
0.0105417 0.00133172 0.00557668 
0.0078711 0.00432717 0.00795747 
0.00643773 0.00467728 0.00898213 
0.00551489 0.0040068 0.00987581 
0.00355471 0.0042969 0.0106255 
0.00406522 0.0038175 0.0106255 
0.0027124 0.00327873 0.0112202 
0.00122275 0.00259847 0.0116513 
0.000615864 0.00130878 0.0119125 
0.011076 -0.00438529 0.00144644 
0.0112853 -0.00289756 0.00287179 
0.0112202 4.30019e-16 0.00425526 
0.00979793 0.00123777 0.00681678 
0.00956554 0.00245601 0.00681678 
0.00869994 0.00223376 0.00795747 
0.00739867 0.00292934 0.00898213 
0.00835137 0.00330654 0.00795747 
0.00697319 0.00383354 0.00898213 
0.00183055 0.00221275 0.0116513 
0.00153878 0.00242473 0.0116513 
0.000775041 0.00122127 0.0119125 
0.0105615 -0.00568375 -1.30181e-16 
0.0108677 -0.00279035 0.00425526 
0.0111317 -0.00140626 0.00425526 
0.0106255 4.09099e-16 0.00557668 
0.0089113 0.00112576 0.00795747 
0.00770747 0.00197894 0.00898213 
0.00633808 0.00250942 0.00987581 
0.00597359 0.00328401 0.00987581 
0.00488688 0.00268659 0.0106255 
0.00451163 0.00327789 0.0106255 
0.00344258 0.00250118 0.0112202 
0.00310195 0.00291293 0.0112202 
0.00209344 0.00196587 0.0116513 
0.00126753 -0.000696828 0.0119125 
0.00232333 -0.00168799 0.0116513 
0.00251657 -0.00138349 0.0116513 
0.00372891 -0.00204999 0.0112202 
0.00488688 -0.00268659 0.0106255 
0.00597359 -0.00328401 0.00987581 
0.00643773 -0.00467728 0.00898213 
0.00865423 -0.00475771 0.00681678 
0.0094261 -0.00684846 0.00287179 
0.0102101 -0.00561306 0.00287179 
0.00963742 -0.007002 0.00144644 
0.0097082 -0.00705342 -1.2189e-16 
0.010439 -0.00573889 0.00144644 
0.0105157 -0.00578104 -1.31026e-16 
0.00868384 -0.00815467 0.00144644 
0.00629508 -0.00760944 0.00681678 
0.00774564 -0.00727364 0.00557668 
0.00817917 -0.00768075 0.00425526 
0.00742682 -0.00897748 0.00287179 
0.00849343 -0.00797587 0.00287179 
0.00874762 -0.00821456 -1.11281e-16 
0.00677293 -0.00818707 0.00557668 
0.00715202 -0.00864531 0.00425526 
0.00624308 -0.00983752 0.00287179 
0.00638304 -0.0100581 0.00144644 
0.00759332 -0.00917874 0.00144644 
0.00642992 -0.0101319 -8.63345e-17 
0.00764909 -0.00924616 -9.93669e-17 
0.00569341 -0.00897138 0.00557668 
0.00477733 -0.0101523 0.00425526 
0.00601208 -0.00947352 0.00425526 
0.00496088 -0.0105424 0.00287179 
0.0037082 -0.0114127 -5.77533e-17 
0.00368117 -0.0113295 0.00144644 
0.00420849 -0.0112146 -6.19869e-17 
0.00510935 -0.0108579 -7.23901e-17 
0.0050721 -0.0107788 0.00144644 
0.00614711 -0.0102874 -8.22371e-17 
0.000753486 -0.0119763 -2.73332e-17 
0.000747992 -0.011889 0.00144644 
0.0021419 -0.0118009 -4.06957e-17 
0.00572542 -0.00692085 0.00795747 
0.00654769 -0.00614869 0.00795747 
0.00507228 -0.00613134 0.00898213 
0.00481287 -0.00758386 0.00795747 
0.00529172 -0.00833842 0.00681678 
0.00452411 -0.00961422 0.00557668 
0.00346723 -0.010671 0.00425526 
0.00218324 -0.0114449 0.00287179 
-1.64765e-14 -0.012 -1.89293e-17 
-0.0037082 -0.0114127 1.75611e-17 
-0.00223218 -0.0117015 0.00144644 
-0.00224858 -0.0117874 3.01408e-18 
-0.000753486 -0.0119763 -1.20298e-17 
-0.000747992 -0.011889 0.00144644 
0.00298813 -0.00470854 0.0106255 
0.00365261 -0.00575559 0.00987581 
0.00290244 -0.006168 0.00987581 
0.00245899 -0.00756801 0.00898213 
0.00277563 -0.00854251 0.00795747 
-0.00218324 -0.0114449 0.00287179 
-0.00368117 -0.0113295 0.00144644 
-0.00420849 -0.0112146 2.2973e-17 
-0.00638304 -0.0100581 0.00144644 
-0.00642992 -0.0101319 4.42584e-17 
-0.0050721 -0.0107788 0.00144644 
-0.00510935 -0.0108579 3.13819e-17 
0.00127734 -0.00669603 0.00987581 
-0.000563993 -0.0089644 0.00795747 
-0.00168308 -0.00882303 0.00795747 
-0.00185054 -0.00970088 0.00681678 
-0.00452411 -0.00961422 0.00557668 
-0.00742682 -0.00897748 0.00287179 
0.00105441 -0.000990156 0.0119125 
0.00936522 -0.00746802 -1.16794e-16 
0.00907733 -0.00659506 0.00425526 
0.00859619 -0.0062455 0.00557668 
0.00719915 -0.00676045 0.00681678 
0.0079897 -0.00580485 0.00681678 
0.0072667 -0.00527956 0.00795747 
0.00496922 -0.0046664 0.00987581 
0.00551489 -0.0040068 0.00987581 
0.00451163 -0.00327789 0.0106255 
0.00344258 -0.00250118 0.0112202 
0.00310195 -0.00291293 0.0112202 
0.00117019 -0.000850196 0.0119125 
-0.0097082 -0.00705342 7.52855e-17 
-0.00868384 -0.00815467 0.00144644 
-0.00874762 -0.00821456 6.63845e-17 
-0.0111573 -0.00441749 8.80626e-17 
-0.011076 -0.00438529 0.00144644 
-0.00907733 -0.00659506 0.00425526 
-0.00774564 -0.00727364 0.00557668 
-0.00817917 -0.00768075 0.00425526 
-0.00677293 -0.00818707 0.00557668 
-0.00529172 -0.00833842 0.00681678 
-0.0038244 -0.00812727 0.00795747 
-0.0021065 -0.00648314 0.00987581 
-0.00127734 -0.00669603 0.00987581 
-0.000350163 -0.00556567 0.0106255 
0.00026719 -0.00424686 0.0112202 
-0.00026719 -0.00424686 0.0112202 
0.000538119 -0.00282092 0.0116513 
0.000271036 -0.00142082 0.0119125 
-0.0102101 -0.00561306 0.00287179 
-0.00859619 -0.0062455 0.00557668 
-0.00629508 -0.00760944 0.00681678 
-0.00719915 -0.00676045 0.00681678 
-0.00481287 -0.00758386 0.00795747 
-0.00338813 -0.00720014 0.00898213 
-0.00290244 -0.006168 0.00987581 
-0.00104497 -0.0054779 0.0106255 
-0.000797356 -0.00417989 0.0112202 
0.000180321 -0.00286612 0.0116513 
-0.000180321 -0.00286612 0.0116513 
9.08227e-05 -0.00144359 0.0119125 
-0.0119054 -0.001504 9.35162e-17 
-0.0118186 -0.00149303 0.00144644 
-0.0115383 -0.00296252 0.00144644 
-0.0108331 -0.00428913 0.00287179 
-0.0104323 -0.00413043 0.00425526 
-0.00983233 -0.00540537 0.00425526 
-0.00507228 -0.00613134 0.00898213 
-0.00572542 -0.00692085 0.00795747 
-0.00426383 -0.00671872 0.00898213 
-0.00237443 -0.00504593 0.0106255 
-0.00172329 -0.00530374 0.0106255 
-0.000538119 -0.00282092 0.0116513 
-9.08227e-05 -0.00144359 0.0119125 
-0.00144644 -3.01616e-17 0.0119125 
-0.00284914 -0.00035993 0.0116513 
-0.00557668 -1.8188e-16 0.0106255 
-0.00681678 -2.277e-16 0.00987581 
-0.00676302 -0.000854369 0.00987581 
-0.00789472 -0.000997336 0.00898213 
-0.0089113 -0.00112576 0.00795747 
-0.00987581 -3.41618e-16 0.00681678 
-0.0112202 -3.92578e-16 0.00425526 
-0.0111317 -0.00140626 0.00425526 
-0.012 -4.24174e-16 9.33708e-17 
0.000753486 0.0119763 -4.49509e-17 
-0.00328345 0.0101054 0.00557668 
-0.00452411 0.00961422 0.00557668 
-0.00420491 0.0089359 0.00681678 
-0.00481287 0.00758386 0.00795747 
-0.00572542 0.00692085 0.00795747 
-0.00580075 0.00544726 0.00898213 
-0.00496922 0.0046664 0.00987581 
-0.00451163 0.00327789 0.0106255 
-0.00372891 0.00204999 0.0112202 
-0.00278157 0.000714185 0.0116513 
-0.00143503 0.000181287 0.0119125 
3 20 0 4 
3 4 0 101 
3 4 101 1 
3 12 4 9 
3 18 2 4 
3 4 2 22 
3 4 22 20 
3 1 93 4 
3 4 93 3 
3 4 3 90 
3 15 5 4 
3 4 5 70 
3 4 70 7 
3 63 57 58 
3 90 84 4 
3 4 84 6 
3 4 6 78 
3 7 8 4 
3 4 8 63 
3 4 63 53 
3 53 63 58 
3 9 10 12 
3 12 10 11 
3 12 11 43 
3 12 13 4 
3 4 13 14 
3 4 14 31 
3 78 75 4 
3 4 75 74 
3 4 74 15 
3 31 16 4 
3 4 16 17 
3 4 17 18 
3 661 19 20 
3 20 19 99 
3 661 20 21 
3 21 20 22 
3 21 22 23 
3 2 27 22 
3 22 27 655 
3 22 655 23 
3 24 25 18 
3 18 25 26 
3 18 26 2 
3 2 26 658 
3 2 658 27 
3 24 18 28 
3 28 18 17 
3 28 17 695 
3 695 17 29 
3 29 17 16 
3 29 16 30 
3 31 34 16 
3 16 34 608 
3 16 608 30 
3 14 32 31 
3 31 32 33 
3 31 33 34 
3 37 35 13 
3 13 35 36 
3 13 36 14 
3 14 36 383 
3 14 383 32 
3 37 13 38 
3 38 13 12 
3 38 12 39 
3 39 12 40 
3 40 12 43 
3 40 43 41 
3 11 42 43 
3 43 42 44 
3 43 44 41 
3 45 46 10 
3 10 46 47 
3 10 47 11 
3 11 47 48 
3 11 48 42 
3 45 10 49 
3 49 10 9 
3 49 9 548 
3 548 9 50 
3 50 9 4 
3 50 4 51 
3 51 4 52 
3 52 4 53 
3 52 53 54 
3 58 60 53 
3 53 60 527 
3 53 527 54 
3 55 56 57 
3 57 56 59 
3 57 59 58 
3 58 59 529 
3 58 529 60 
3 55 57 61 
3 61 57 63 
3 61 63 517 
3 517 63 62 
3 62 63 8 
3 62 8 64 
3 7 66 8 
3 8 66 503 
3 8 503 64 
3 70 65 7 
3 7 65 505 
3 7 505 66 
3 485 67 5 
3 5 67 68 
3 5 68 70 
3 70 68 69 
3 70 69 65 
3 485 5 71 
3 71 5 15 
3 71 15 72 
3 72 15 73 
3 73 15 74 
3 73 74 77 
3 75 76 74 
3 74 76 474 
3 74 474 77 
3 81 79 78 
3 78 79 80 
3 78 80 75 
3 75 80 471 
3 75 471 76 
3 81 78 82 
3 82 78 6 
3 82 6 83 
3 83 6 85 
3 85 6 84 
3 85 84 456 
3 456 84 86 
3 86 84 90 
3 86 90 87 
3 3 88 90 
3 90 88 89 
3 90 89 87 
3 91 92 93 
3 93 92 94 
3 93 94 3 
3 3 94 95 
3 3 95 88 
3 91 93 96 
3 96 93 1 
3 96 1 683 
3 683 1 97 
3 97 1 101 
3 97 101 103 
3 19 98 99 
3 99 98 100 
3 99 100 101 
3 101 100 102 
3 101 102 103 
3 81 104 739 
3 83 710 711 
3 670 659 660 
3 695 632 631 
3 608 105 596 
3 33 106 584 
3 548 530 531 
3 505 487 500 
3 749 108 748 
3 109 113 620 
3 110 107 112 
3 108 749 381 
3 113 109 381 
3 107 110 381 
3 320 506 750 
3 770 112 111 
3 111 112 107 
3 111 107 117 
3 117 107 381 
3 618 620 118 
3 118 620 113 
3 118 113 120 
3 120 113 381 
3 114 748 115 
3 115 748 108 
3 115 108 123 
3 123 108 381 
3 769 770 116 
3 116 770 111 
3 116 111 125 
3 125 111 117 
3 125 117 126 
3 126 117 381 
3 360 579 362 
3 616 618 119 
3 119 618 118 
3 119 118 130 
3 130 118 120 
3 130 120 131 
3 131 120 381 
3 121 705 122 
3 746 114 133 
3 133 114 115 
3 133 115 135 
3 135 115 123 
3 135 123 137 
3 137 123 381 
3 768 769 138 
3 138 769 116 
3 138 116 124 
3 124 116 125 
3 124 125 127 
3 127 125 126 
3 127 126 128 
3 128 126 381 
3 614 616 144 
3 144 616 119 
3 144 119 129 
3 129 119 130 
3 129 130 146 
3 146 130 131 
3 146 131 148 
3 148 131 381 
3 149 746 132 
3 132 746 133 
3 132 133 134 
3 134 133 135 
3 134 135 136 
3 136 135 137 
3 136 137 152 
3 152 137 381 
3 294 753 752 
3 154 768 155 
3 155 768 138 
3 155 138 139 
3 139 138 124 
3 139 124 156 
3 156 124 127 
3 156 127 140 
3 140 127 128 
3 140 128 141 
3 141 128 381 
3 613 614 142 
3 142 614 144 
3 142 144 143 
3 143 144 129 
3 143 129 145 
3 145 129 146 
3 145 146 147 
3 147 146 148 
3 147 148 160 
3 160 148 381 
3 743 149 163 
3 163 149 132 
3 163 132 150 
3 150 132 134 
3 150 134 165 
3 165 134 136 
3 165 136 151 
3 151 136 152 
3 151 152 168 
3 168 152 381 
3 765 154 153 
3 153 154 155 
3 153 155 170 
3 170 155 139 
3 170 139 172 
3 172 139 156 
3 172 156 157 
3 157 156 140 
3 157 140 173 
3 173 140 141 
3 173 141 175 
3 175 141 381 
3 538 575 577 
3 612 613 158 
3 158 613 142 
3 158 142 177 
3 177 142 143 
3 177 143 159 
3 159 143 145 
3 159 145 179 
3 179 145 147 
3 179 147 182 
3 182 147 160 
3 182 160 183 
3 183 160 381 
3 664 161 701 
3 184 743 162 
3 162 743 163 
3 162 163 185 
3 185 163 150 
3 185 150 186 
3 186 150 165 
3 186 165 164 
3 164 165 151 
3 164 151 166 
3 166 151 168 
3 166 168 167 
3 167 168 381 
3 764 765 169 
3 169 765 153 
3 169 153 191 
3 191 153 170 
3 191 170 171 
3 171 170 172 
3 171 172 193 
3 193 172 157 
3 193 157 194 
3 194 157 173 
3 194 173 174 
3 174 173 175 
3 174 175 176 
3 176 175 381 
3 197 612 198 
3 198 612 158 
3 198 158 199 
3 199 158 177 
3 199 177 178 
3 178 177 159 
3 178 159 201 
3 201 159 179 
3 201 179 180 
3 180 179 182 
3 180 182 181 
3 181 182 183 
3 181 183 202 
3 202 183 381 
3 205 184 206 
3 206 184 162 
3 206 162 207 
3 207 162 185 
3 207 185 187 
3 187 185 186 
3 187 186 208 
3 208 186 164 
3 208 164 188 
3 188 164 166 
3 188 166 189 
3 189 166 167 
3 189 167 211 
3 211 167 381 
3 762 764 190 
3 190 764 169 
3 190 169 573 
3 573 169 191 
3 573 191 574 
3 574 191 171 
3 574 171 576 
3 576 171 193 
3 576 193 192 
3 192 193 194 
3 192 194 578 
3 578 194 174 
3 578 174 195 
3 195 174 176 
3 195 176 580 
3 580 176 381 
3 196 197 213 
3 213 197 198 
3 213 198 214 
3 214 198 199 
3 214 199 215 
3 215 199 178 
3 215 178 200 
3 200 178 201 
3 200 201 216 
3 216 201 180 
3 216 180 217 
3 217 180 181 
3 217 181 219 
3 219 181 202 
3 219 202 220 
3 220 202 381 
3 203 205 204 
3 204 205 206 
3 204 206 222 
3 222 206 207 
3 222 207 224 
3 224 207 187 
3 224 187 225 
3 225 187 208 
3 225 208 209 
3 209 208 188 
3 209 188 227 
3 227 188 189 
3 227 189 228 
3 228 189 211 
3 228 211 210 
3 210 211 381 
3 477 468 757 
3 609 196 212 
3 212 196 213 
3 212 213 233 
3 233 213 214 
3 233 214 234 
3 234 214 215 
3 234 215 235 
3 235 215 200 
3 235 200 237 
3 237 200 216 
3 237 216 239 
3 239 216 217 
3 239 217 218 
3 218 217 219 
3 218 219 242 
3 242 219 220 
3 242 220 221 
3 221 220 381 
3 741 203 246 
3 246 203 204 
3 246 204 248 
3 248 204 222 
3 248 222 223 
3 223 222 224 
3 223 224 249 
3 249 224 225 
3 249 225 251 
3 251 225 209 
3 251 209 226 
3 226 209 227 
3 226 227 254 
3 254 227 228 
3 254 228 255 
3 255 228 210 
3 255 210 229 
3 229 210 381 
3 230 231 321 
3 258 609 232 
3 232 609 212 
3 232 212 260 
3 260 212 233 
3 260 233 261 
3 261 233 234 
3 261 234 263 
3 263 234 235 
3 263 235 236 
3 236 235 237 
3 236 237 238 
3 238 237 239 
3 238 239 240 
3 240 239 218 
3 240 218 241 
3 241 218 242 
3 241 242 243 
3 243 242 221 
3 243 221 266 
3 266 221 381 
3 267 741 244 
3 244 741 246 
3 244 246 245 
3 245 246 248 
3 245 248 247 
3 247 248 223 
3 247 223 250 
3 250 223 249 
3 250 249 271 
3 271 249 251 
3 271 251 252 
3 252 251 226 
3 252 226 253 
3 253 226 254 
3 253 254 256 
3 256 254 255 
3 256 255 257 
3 257 255 229 
3 257 229 274 
3 274 229 381 
3 633 258 630 
3 630 258 232 
3 630 232 259 
3 259 232 260 
3 259 260 262 
3 262 260 261 
3 262 261 628 
3 628 261 263 
3 628 263 264 
3 264 263 236 
3 264 236 265 
3 265 236 238 
3 265 238 626 
3 626 238 240 
3 626 240 625 
3 625 240 241 
3 625 241 624 
3 624 241 243 
3 624 243 623 
3 623 243 266 
3 623 266 621 
3 621 266 381 
3 738 267 268 
3 268 267 244 
3 268 244 759 
3 759 244 245 
3 759 245 269 
3 269 245 247 
3 269 247 270 
3 270 247 250 
3 270 250 756 
3 756 250 271 
3 756 271 755 
3 755 271 252 
3 755 252 754 
3 754 252 253 
3 754 253 272 
3 272 253 256 
3 272 256 273 
3 273 256 257 
3 273 257 751 
3 751 257 274 
3 751 274 275 
3 275 274 381 
3 276 476 277 
3 72 472 481 
3 481 472 276 
3 481 276 480 
3 480 276 277 
3 480 277 478 
3 282 482 278 
3 278 482 279 
3 278 279 285 
3 285 279 479 
3 285 479 280 
3 280 479 477 
3 280 477 281 
3 281 477 757 
3 281 757 286 
3 69 483 283 
3 283 483 282 
3 283 282 488 
3 488 282 278 
3 488 278 284 
3 284 278 285 
3 284 285 492 
3 492 285 280 
3 492 280 493 
3 493 280 281 
3 493 281 495 
3 495 281 286 
3 495 286 497 
3 297 502 299 
3 299 502 287 
3 299 287 300 
3 300 287 288 
3 300 288 301 
3 301 288 498 
3 301 498 290 
3 290 498 289 
3 290 289 304 
3 304 289 291 
3 304 291 306 
3 306 291 292 
3 306 292 293 
3 293 292 294 
3 293 294 295 
3 295 294 752 
3 295 752 308 
3 517 296 515 
3 515 296 297 
3 515 297 298 
3 298 297 299 
3 298 299 514 
3 514 299 300 
3 514 300 302 
3 302 300 301 
3 302 301 511 
3 511 301 290 
3 511 290 303 
3 303 290 304 
3 303 304 305 
3 305 304 306 
3 305 306 508 
3 508 306 293 
3 508 293 307 
3 307 293 295 
3 307 295 507 
3 507 295 308 
3 507 308 506 
3 309 519 310 
3 310 519 516 
3 310 516 311 
3 311 516 513 
3 311 513 763 
3 763 513 312 
3 763 312 314 
3 314 312 313 
3 314 313 766 
3 766 313 512 
3 766 512 767 
3 767 512 510 
3 767 510 315 
3 315 510 509 
3 315 509 317 
3 317 509 316 
3 317 316 318 
3 318 316 319 
3 318 319 771 
3 771 319 320 
3 771 320 772 
3 772 320 750 
3 772 750 381 
3 524 526 324 
3 324 526 522 
3 324 522 325 
3 325 522 230 
3 325 230 327 
3 327 230 321 
3 327 321 572 
3 51 322 323 
3 323 322 524 
3 323 524 534 
3 534 524 324 
3 534 324 535 
3 535 324 325 
3 535 325 326 
3 326 325 327 
3 326 327 328 
3 328 327 572 
3 328 572 329 
3 330 546 331 
3 331 546 543 
3 331 543 332 
3 332 543 542 
3 332 542 333 
3 333 542 541 
3 333 541 334 
3 334 541 540 
3 334 540 342 
3 342 540 335 
3 342 335 336 
3 336 335 538 
3 336 538 337 
3 337 538 577 
3 337 577 345 
3 48 544 338 
3 338 544 330 
3 338 330 553 
3 553 330 331 
3 553 331 551 
3 551 331 332 
3 551 332 339 
3 339 332 333 
3 339 333 340 
3 340 333 334 
3 340 334 341 
3 341 334 342 
3 341 342 549 
3 549 342 336 
3 549 336 343 
3 343 336 337 
3 343 337 344 
3 344 337 345 
3 344 345 579 
3 368 347 346 
3 346 347 552 
3 346 552 348 
3 348 552 349 
3 348 349 367 
3 367 349 550 
3 367 550 350 
3 350 550 352 
3 350 352 351 
3 351 352 353 
3 351 353 354 
3 354 353 355 
3 354 355 364 
3 364 355 357 
3 364 357 356 
3 356 357 358 
3 356 358 359 
3 359 358 360 
3 359 360 361 
3 361 360 362 
3 361 362 363 
3 363 556 361 
3 361 556 557 
3 361 557 359 
3 359 557 558 
3 359 558 356 
3 356 558 560 
3 356 560 364 
3 364 560 562 
3 364 562 354 
3 354 562 365 
3 354 365 351 
3 351 365 366 
3 351 366 350 
3 350 366 565 
3 350 565 367 
3 367 565 566 
3 367 566 348 
3 348 566 568 
3 348 568 346 
3 346 568 569 
3 346 569 368 
3 368 569 370 
3 368 370 369 
3 369 370 39 
3 371 571 372 
3 372 571 570 
3 372 570 387 
3 387 570 373 
3 387 373 389 
3 389 373 374 
3 389 374 390 
3 390 374 567 
3 390 567 391 
3 391 567 375 
3 391 375 376 
3 376 375 564 
3 376 564 377 
3 377 564 563 
3 377 563 378 
3 378 563 561 
3 378 561 394 
3 394 561 559 
3 394 559 395 
3 395 559 379 
3 395 379 380 
3 380 379 382 
3 380 382 381 
3 556 381 382 
3 383 581 585 
3 585 581 371 
3 585 371 384 
3 384 371 372 
3 384 372 385 
3 385 372 387 
3 385 387 386 
3 386 387 389 
3 386 389 388 
3 388 389 390 
3 388 390 588 
3 588 390 391 
3 588 391 589 
3 589 391 376 
3 589 376 392 
3 392 376 377 
3 392 377 591 
3 591 377 378 
3 591 378 393 
3 393 378 394 
3 393 394 594 
3 594 394 395 
3 594 395 396 
3 396 395 380 
3 396 380 381 
3 654 657 652 
3 661 397 398 
3 398 397 654 
3 398 654 399 
3 399 654 652 
3 399 652 650 
3 672 675 409 
3 409 675 400 
3 409 400 411 
3 411 400 402 
3 411 402 401 
3 401 402 403 
3 401 403 404 
3 404 403 405 
3 404 405 406 
3 406 405 665 
3 406 665 407 
3 407 665 664 
3 407 664 415 
3 415 664 701 
3 415 701 416 
3 683 671 682 
3 682 671 672 
3 682 672 681 
3 681 672 409 
3 681 409 408 
3 408 409 411 
3 408 411 410 
3 410 411 401 
3 410 401 412 
3 412 401 404 
3 412 404 680 
3 680 404 406 
3 680 406 413 
3 413 406 407 
3 413 407 677 
3 677 407 415 
3 677 415 414 
3 414 415 416 
3 414 416 705 
3 684 686 417 
3 417 686 418 
3 417 418 419 
3 419 418 420 
3 419 420 421 
3 421 420 422 
3 421 422 436 
3 436 422 423 
3 436 423 424 
3 424 423 425 
3 424 425 426 
3 426 425 679 
3 426 679 427 
3 427 679 678 
3 427 678 433 
3 433 678 676 
3 433 676 428 
3 428 676 121 
3 428 121 431 
3 431 121 122 
3 431 122 694 
3 694 429 431 
3 431 429 430 
3 431 430 428 
3 428 430 432 
3 428 432 433 
3 433 432 434 
3 433 434 427 
3 427 434 688 
3 427 688 426 
3 426 688 435 
3 426 435 424 
3 424 435 689 
3 424 689 436 
3 436 689 691 
3 436 691 421 
3 421 691 437 
3 421 437 419 
3 419 437 438 
3 419 438 417 
3 417 438 439 
3 417 439 684 
3 684 439 440 
3 684 440 441 
3 441 440 95 
3 459 708 461 
3 461 708 693 
3 461 693 442 
3 442 693 443 
3 442 443 462 
3 462 443 692 
3 462 692 463 
3 463 692 445 
3 463 445 444 
3 444 445 690 
3 444 690 464 
3 464 690 446 
3 464 446 466 
3 466 446 447 
3 466 447 448 
3 448 447 449 
3 448 449 450 
3 450 449 452 
3 450 452 451 
3 451 452 454 
3 451 454 453 
3 453 454 455 
3 453 455 381 
3 429 381 455 
3 456 457 458 
3 458 457 459 
3 458 459 460 
3 460 459 461 
3 460 461 714 
3 714 461 442 
3 714 442 715 
3 715 442 462 
3 715 462 716 
3 716 462 463 
3 716 463 717 
3 717 463 444 
3 717 444 465 
3 465 444 464 
3 465 464 719 
3 719 464 466 
3 719 466 720 
3 720 466 448 
3 720 448 721 
3 721 448 450 
3 721 450 723 
3 723 450 451 
3 723 451 467 
3 467 451 453 
3 467 453 381 
3 468 478 758 
3 758 478 277 
3 758 277 469 
3 469 277 476 
3 469 476 470 
3 470 476 471 
3 470 471 760 
3 472 473 276 
3 276 473 474 
3 276 474 476 
3 476 474 475 
3 476 475 471 
3 468 477 478 
3 478 477 479 
3 478 479 480 
3 480 479 279 
3 480 279 481 
3 481 279 482 
3 481 482 72 
3 483 484 282 
3 282 484 485 
3 282 485 482 
3 482 485 486 
3 482 486 72 
3 487 69 500 
3 500 69 283 
3 500 283 499 
3 499 283 488 
3 499 488 489 
3 489 488 284 
3 489 284 490 
3 490 284 492 
3 490 492 491 
3 491 492 493 
3 491 493 494 
3 494 493 495 
3 494 495 496 
3 496 495 497 
3 496 497 753 
3 753 294 496 
3 496 294 292 
3 496 292 494 
3 494 292 291 
3 494 291 491 
3 491 291 289 
3 491 289 490 
3 490 289 498 
3 490 498 489 
3 489 498 288 
3 489 288 499 
3 499 288 287 
3 499 287 500 
3 500 287 502 
3 500 502 505 
3 296 501 297 
3 297 501 503 
3 297 503 502 
3 502 503 504 
3 502 504 505 
3 506 320 507 
3 507 320 319 
3 507 319 307 
3 307 319 316 
3 307 316 508 
3 508 316 509 
3 508 509 305 
3 305 509 510 
3 305 510 303 
3 303 510 512 
3 303 512 511 
3 511 512 313 
3 511 313 302 
3 302 313 312 
3 302 312 514 
3 514 312 513 
3 514 513 298 
3 298 513 516 
3 298 516 515 
3 515 516 519 
3 515 519 517 
3 761 518 309 
3 309 518 55 
3 309 55 519 
3 519 55 520 
3 519 520 517 
3 231 230 521 
3 521 230 522 
3 521 522 523 
3 523 522 526 
3 523 526 529 
3 322 525 524 
3 524 525 527 
3 524 527 526 
3 526 527 528 
3 526 528 529 
3 530 51 531 
3 531 51 323 
3 531 323 532 
3 532 323 534 
3 532 534 533 
3 533 534 535 
3 533 535 536 
3 536 535 326 
3 536 326 537 
3 537 326 328 
3 537 328 539 
3 539 328 329 
3 539 329 575 
3 575 538 539 
3 539 538 335 
3 539 335 537 
3 537 335 540 
3 537 540 536 
3 536 540 541 
3 536 541 533 
3 533 541 542 
3 533 542 532 
3 532 542 543 
3 532 543 531 
3 531 543 546 
3 531 546 548 
3 544 545 330 
3 330 545 45 
3 330 45 546 
3 546 45 547 
3 546 547 548 
3 579 360 344 
3 344 360 358 
3 344 358 343 
3 343 358 357 
3 343 357 549 
3 549 357 355 
3 549 355 341 
3 341 355 353 
3 341 353 340 
3 340 353 352 
3 340 352 339 
3 339 352 550 
3 339 550 551 
3 551 550 349 
3 551 349 553 
3 553 349 552 
3 553 552 338 
3 338 552 347 
3 338 347 48 
3 369 554 368 
3 368 554 44 
3 368 44 347 
3 347 44 555 
3 347 555 48 
3 556 382 557 
3 557 382 379 
3 557 379 558 
3 558 379 559 
3 558 559 560 
3 560 559 561 
3 560 561 562 
3 562 561 563 
3 562 563 365 
3 365 563 564 
3 365 564 366 
3 366 564 375 
3 366 375 565 
3 565 375 567 
3 565 567 566 
3 566 567 374 
3 566 374 568 
3 568 374 373 
3 568 373 569 
3 569 373 570 
3 569 570 370 
3 370 570 571 
3 370 571 39 
3 363 381 556 
3 231 762 321 
3 321 762 190 
3 321 190 572 
3 572 190 573 
3 572 573 329 
3 329 573 574 
3 329 574 575 
3 575 574 576 
3 575 576 577 
3 577 576 192 
3 577 192 345 
3 345 192 578 
3 345 578 579 
3 579 578 195 
3 579 195 362 
3 362 195 580 
3 362 580 363 
3 363 580 381 
3 581 582 371 
3 371 582 37 
3 371 37 571 
3 571 37 583 
3 571 583 39 
3 106 383 584 
3 584 383 585 
3 584 585 586 
3 586 585 384 
3 586 384 598 
3 598 384 385 
3 598 385 587 
3 587 385 386 
3 587 386 600 
3 600 386 388 
3 600 388 603 
3 603 388 588 
3 603 588 604 
3 604 588 589 
3 604 589 590 
3 590 589 392 
3 590 392 592 
3 592 392 591 
3 592 591 593 
3 593 591 393 
3 593 393 606 
3 606 393 594 
3 606 594 595 
3 595 594 396 
3 595 396 381 
3 105 33 596 
3 596 33 584 
3 596 584 597 
3 597 584 586 
3 597 586 610 
3 610 586 598 
3 610 598 611 
3 611 598 587 
3 611 587 599 
3 599 587 600 
3 599 600 601 
3 601 600 603 
3 601 603 602 
3 602 603 604 
3 602 604 615 
3 615 604 590 
3 615 590 617 
3 617 590 592 
3 617 592 619 
3 619 592 593 
3 619 593 605 
3 605 593 606 
3 605 606 607 
3 607 606 595 
3 607 595 381 
3 634 608 633 
3 633 608 596 
3 633 596 258 
3 258 596 597 
3 258 597 609 
3 609 597 610 
3 609 610 196 
3 196 610 611 
3 196 611 197 
3 197 611 599 
3 197 599 612 
3 612 599 601 
3 612 601 613 
3 613 601 602 
3 613 602 614 
3 614 602 615 
3 614 615 616 
3 616 615 617 
3 616 617 618 
3 618 617 619 
3 618 619 620 
3 620 619 605 
3 620 605 109 
3 109 605 607 
3 109 607 381 
3 381 706 621 
3 621 706 622 
3 621 622 623 
3 623 622 704 
3 623 704 624 
3 624 704 703 
3 624 703 625 
3 625 703 702 
3 625 702 626 
3 626 702 627 
3 626 627 265 
3 265 627 700 
3 265 700 264 
3 264 700 699 
3 264 699 628 
3 628 699 697 
3 628 697 262 
3 262 697 696 
3 262 696 259 
3 259 696 629 
3 259 629 630 
3 630 629 631 
3 630 631 633 
3 633 631 632 
3 633 632 634 
3 635 641 695 
3 646 648 24 
3 663 636 698 
3 698 636 642 
3 698 642 637 
3 637 642 643 
3 637 643 638 
3 638 643 639 
3 638 639 640 
3 640 639 646 
3 640 646 635 
3 635 646 24 
3 635 24 641 
3 636 649 642 
3 642 649 651 
3 642 651 643 
3 643 651 644 
3 643 644 639 
3 639 644 645 
3 639 645 646 
3 646 645 647 
3 646 647 648 
3 649 650 651 
3 651 650 652 
3 651 652 644 
3 644 652 657 
3 644 657 645 
3 645 657 658 
3 645 658 647 
3 397 653 654 
3 654 653 655 
3 654 655 657 
3 657 655 656 
3 657 656 658 
3 659 661 660 
3 660 661 398 
3 660 398 669 
3 669 398 399 
3 669 399 668 
3 668 399 650 
3 668 650 667 
3 667 650 649 
3 667 649 666 
3 666 649 636 
3 666 636 662 
3 662 636 663 
3 662 663 161 
3 161 664 662 
3 662 664 665 
3 662 665 666 
3 666 665 405 
3 666 405 667 
3 667 405 403 
3 667 403 668 
3 668 403 402 
3 668 402 669 
3 669 402 400 
3 669 400 660 
3 660 400 675 
3 660 675 670 
3 671 673 672 
3 672 673 102 
3 672 102 675 
3 675 102 674 
3 675 674 670 
3 705 121 414 
3 414 121 676 
3 414 676 677 
3 677 676 678 
3 677 678 413 
3 413 678 679 
3 413 679 680 
3 680 679 425 
3 680 425 412 
3 412 425 423 
3 412 423 410 
3 410 423 422 
3 410 422 408 
3 408 422 420 
3 408 420 681 
3 681 420 418 
3 681 418 682 
3 682 418 686 
3 682 686 683 
3 441 685 684 
3 684 685 91 
3 684 91 686 
3 686 91 687 
3 686 687 683 
3 429 455 430 
3 430 455 454 
3 430 454 432 
3 432 454 452 
3 432 452 434 
3 434 452 449 
3 434 449 688 
3 688 449 447 
3 688 447 435 
3 435 447 446 
3 435 446 689 
3 689 446 690 
3 689 690 691 
3 691 690 445 
3 691 445 437 
3 437 445 692 
3 437 692 438 
3 438 692 443 
3 438 443 439 
3 439 443 693 
3 439 693 440 
3 440 693 708 
3 440 708 95 
3 694 381 429 
3 695 631 635 
3 635 631 629 
3 635 629 640 
3 640 629 696 
3 640 696 638 
3 638 696 697 
3 638 697 637 
3 637 697 699 
3 637 699 698 
3 698 699 700 
3 698 700 663 
3 663 700 627 
3 663 627 161 
3 161 627 702 
3 161 702 701 
3 701 702 703 
3 701 703 416 
3 416 703 704 
3 416 704 705 
3 705 704 622 
3 705 622 122 
3 122 622 706 
3 122 706 694 
3 694 706 381 
3 457 707 459 
3 459 707 89 
3 459 89 708 
3 708 89 709 
3 708 709 95 
3 710 456 711 
3 711 456 458 
3 711 458 725 
3 725 458 460 
3 725 460 712 
3 712 460 714 
3 712 714 713 
3 713 714 715 
3 713 715 727 
3 727 715 716 
3 727 716 729 
3 729 716 717 
3 729 717 730 
3 730 717 465 
3 730 465 718 
3 718 465 719 
3 718 719 732 
3 732 719 720 
3 732 720 722 
3 722 720 721 
3 722 721 734 
3 734 721 723 
3 734 723 724 
3 724 723 467 
3 724 467 381 
3 104 83 739 
3 739 83 711 
3 739 711 740 
3 740 711 725 
3 740 725 742 
3 742 725 712 
3 742 712 726 
3 726 712 713 
3 726 713 728 
3 728 713 727 
3 728 727 744 
3 744 727 729 
3 744 729 745 
3 745 729 730 
3 745 730 731 
3 731 730 718 
3 731 718 747 
3 747 718 732 
3 747 732 733 
3 733 732 722 
3 733 722 735 
3 735 722 734 
3 735 734 736 
3 736 734 724 
3 736 724 381 
3 737 81 738 
3 738 81 739 
3 738 739 267 
3 267 739 740 
3 267 740 741 
3 741 740 742 
3 741 742 203 
3 203 742 726 
3 203 726 205 
3 205 726 728 
3 205 728 184 
3 184 728 744 
3 184 744 743 
3 743 744 745 
3 743 745 149 
3 149 745 731 
3 149 731 746 
3 746 731 747 
3 746 747 114 
3 114 747 733 
3 114 733 748 
3 748 733 735 
3 748 735 749 
3 749 735 736 
3 749 736 381 
3 381 750 275 
3 275 750 506 
3 275 506 751 
3 751 506 308 
3 751 308 273 
3 273 308 752 
3 273 752 272 
3 272 752 753 
3 272 753 754 
3 754 753 497 
3 754 497 755 
3 755 497 286 
3 755 286 756 
3 756 286 757 
3 756 757 270 
3 270 757 468 
3 270 468 269 
3 269 468 758 
3 269 758 759 
3 759 758 469 
3 759 469 268 
3 268 469 470 
3 268 470 738 
3 738 470 760 
3 738 760 737 
3 529 761 523 
3 523 761 309 
3 523 309 521 
3 521 309 310 
3 521 310 231 
3 231 310 311 
3 231 311 762 
3 762 311 763 
3 762 763 764 
3 764 763 314 
3 764 314 765 
3 765 314 766 
3 765 766 154 
3 154 766 767 
3 154 767 768 
3 768 767 315 
3 768 315 769 
3 769 315 317 
3 769 317 770 
3 770 317 318 
3 770 318 112 
3 112 318 771 
3 112 771 110 
3 110 771 772 
3 110 772 381 
