ply
format ascii 1.0
comment VCGLIB generated
element vertex 77
property float x
property float y
property float z
element face 150
property list uchar int vertex_indices
end_header
-7.31463e-15 -0.01145 0.0439 
0.0048 -0.01085 0.0472 
0.0048 0.01095 0.0472 
-0.0048 -0.01085 0.0472 
-0.0048 0.01095 0.0472 
0.0048 0.01345 0.0304 
-0.0048 0.01345 0.0304 
0.00955528 -0.01085 0.0437451 
0.0098 -0.01085 0.0422 
0.0098 0.01095 0.0422 
0.00955528 0.01095 0.0437451 
0.0098 0.01345 0.0254 
0.0098 0.01345 0.0077 
0.0098 -0.01355 0.0077 
0.0098 -0.01355 0.0254 
0.00357798 0.01345 -0.00394057 
0.00569949 -0.01355 -0.00219949 
0.00357798 -0.01355 -0.00394057 
0.00569949 0.01345 -0.00219949 
0.00115757 -0.01355 -0.00523431 
0.00115757 0.01345 -0.00523431 
-0.00955528 -0.01085 0.0437451 
-0.0098 0.01095 0.0422 
-0.0098 -0.01085 0.0422 
-0.00955528 0.01095 0.0437451 
-0.00884509 0.01095 0.0451389 
-0.00884509 -0.01085 0.0451389 
0.00634508 -0.01085 0.0469553 
0.00634508 -0.01355 0.0301553 
0.0048 -0.01355 0.0304 
-0.0098 0.01345 0.0254 
-0.0098 -0.01355 0.0254 
-0.0098 -0.01355 -0.0033 
-0.0098 0.01345 -0.0033 
0.00884509 -0.01085 0.0451389 
0.00884509 0.01095 0.0451389 
0.00773893 0.01095 0.0462451 
0.00773893 -0.01085 0.0462451 
0.00953099 0.01345 0.00496874 
0.00953099 -0.01355 0.00496874 
0.00873431 -0.01355 0.00234243 
0.00873431 0.01345 0.00234243 
-0.00146874 0.01345 -0.00603099 
-0.00146874 -0.01355 -0.00603099 
-0.0042 -0.01355 -0.0063 
-0.0042 0.01345 -0.0063 
0.00744057 0.01345 -7.79833e-05 
0.00744057 -0.01355 -7.79833e-05 
-0.00634508 -0.01085 0.0469553 
-0.0048 -0.01355 0.0304 
-0.00634508 -0.01355 0.0301553 
-0.00634508 0.01095 0.0469553 
0.00634508 0.01095 0.0469553 
0.00634508 0.01345 0.0301553 
-0.00892132 0.01345 -0.00542132 
-0.00892132 -0.01355 -0.00542132 
-0.00794805 -0.01355 -0.00607164 
-0.00794805 0.01345 -0.00607164 
0.00884509 -0.01355 0.0283389 
-0.00957164 -0.01355 -0.00444805 
-0.00773893 -0.01355 0.0294451 
0.00773893 -0.01355 0.0294451 
-0.00955528 -0.01355 0.0269451 
0.00955528 -0.01355 0.0269451 
-0.0068 -0.01355 -0.0063 
-0.00884509 -0.01355 0.0283389 
-0.0068 0.01345 -0.0063 
-0.00773893 -0.01085 0.0462451 
-0.00773893 0.01095 0.0462451 
-0.00957164 0.01345 -0.00444805 
-0.00634508 0.01345 0.0301553 
-0.00773893 0.01345 0.0294451 
-0.00884509 0.01345 0.0283389 
0.00955528 0.01345 0.0269451 
0.00773893 0.01345 0.0294451 
0.00884509 0.01345 0.0283389 
-0.00955528 0.01345 0.0269451 
3 35 10 75 
3 7 8 14 
3 7 63 14 
3 11 10 9 
3 21 31 62 
3 21 31 23 
3 27 28 61 
3 27 61 37 
3 30 24 22 
3 34 61 37 
3 73 10 75 
3 73 11 10 
3 0 1 3 
3 0 49 29 
3 0 1 29 
3 0 49 3 
3 65 60 26 
3 65 21 26 
3 65 21 62 
3 48 60 50 
3 74 35 36 
3 74 35 75 
3 74 52 53 
3 74 52 36 
3 72 24 25 
3 58 34 61 
3 58 34 7 
3 58 7 63 
3 67 60 26 
3 67 48 60 
3 76 30 24 
3 76 72 24 
3 71 68 25 
3 71 72 25 
3 71 68 51 
3 70 71 51 
3 1 3 4 
3 1 2 4 
3 5 2 4 
3 5 4 6 
3 7 8 9 
3 7 10 9 
3 11 12 13 
3 11 8 9 
3 11 8 14 
3 11 13 14 
3 15 16 17 
3 15 18 16 
3 15 19 17 
3 15 19 20 
3 21 22 23 
3 21 24 22 
3 21 24 25 
3 21 26 25 
3 27 28 29 
3 27 1 29 
3 30 31 32 
3 30 22 23 
3 30 31 23 
3 30 33 32 
3 34 35 36 
3 34 37 36 
3 34 7 10 
3 34 35 10 
3 38 39 40 
3 38 40 41 
3 38 12 13 
3 38 39 13 
3 42 43 19 
3 42 19 20 
3 42 43 44 
3 42 45 44 
3 46 47 40 
3 46 40 41 
3 46 18 16 
3 46 47 16 
3 48 49 50 
3 48 49 3 
3 48 3 4 
3 48 51 4 
3 52 5 2 
3 52 53 5 
3 52 37 36 
3 52 27 37 
3 52 1 2 
3 52 27 1 
3 54 55 56 
3 54 56 57 
3 58 59 55 
3 58 31 32 
3 58 16 17 
3 58 55 56 
3 58 19 17 
3 58 47 16 
3 58 13 14 
3 58 60 50 
3 58 28 61 
3 58 31 62 
3 58 43 19 
3 58 28 29 
3 58 63 14 
3 58 49 50 
3 58 39 13 
3 58 43 44 
3 58 47 40 
3 58 49 29 
3 58 64 56 
3 58 65 60 
3 58 39 40 
3 58 64 44 
3 58 65 62 
3 58 59 32 
3 66 64 56 
3 66 56 57 
3 66 45 44 
3 66 64 44 
3 67 26 25 
3 67 68 25 
3 67 48 51 
3 67 68 51 
3 69 33 32 
3 69 59 32 
3 69 59 55 
3 69 54 55 
3 70 53 5 
3 70 11 12 
3 70 71 72 
3 70 15 18 
3 70 73 11 
3 70 42 45 
3 70 5 6 
3 70 66 45 
3 70 74 53 
3 70 38 12 
3 70 15 20 
3 70 46 18 
3 70 30 33 
3 70 73 75 
3 70 38 41 
3 70 42 20 
3 70 46 41 
3 70 74 75 
3 70 76 72 
3 70 54 57 
3 70 66 57 
3 70 76 30 
3 70 69 54 
3 70 69 33 
3 70 4 6 
3 70 51 4 
