ply
format ascii 1.0
comment VCGLIB generated
element vertex 99
property float x
property float y
property float z
element face 194
property list uchar int vertex_indices
end_header
9.83767e-16 -0.01145 -0.0055 
-0.00955528 -0.01085 -0.00534509 
-0.00955528 0.01095 -0.00534509 
-0.00884509 0.01095 -0.00673893 
-0.00884509 -0.01085 -0.00673893 
-0.0098 0.01095 -0.0038 
-0.0098 -0.01085 -0.0038 
0.00955528 0.01095 -0.00534509 
0.0098 0.01095 -0.0038 
0.0098 -0.01085 -0.0038 
0.00955528 -0.01085 -0.00534509 
0.00634508 0.01095 -0.00855528 
0.00634508 -0.01085 -0.00855528 
0.00773893 -0.01085 -0.00784509 
0.00773893 0.01095 -0.00784509 
-0.0048 0.01345 0.008 
0.0048 0.01345 0.008 
0.0048 0.01095 -0.0088 
-0.0048 0.01095 -0.0088 
-0.00634508 -0.01085 -0.00855528 
-0.00634508 0.01095 -0.00855528 
-0.0048 -0.01085 -0.0088 
-0.0048 -0.01355 0.008 
-0.00634508 -0.01355 0.00824472 
0.00634508 -0.01355 0.0457553 
0.00773893 -0.01355 0.0450451 
0.00634508 -0.01085 0.0625553 
0.00773893 -0.01085 0.0618451 
0.00773893 -0.01355 0.00895492 
0.00634508 -0.01355 0.00824472 
0.0048 -0.01085 -0.0088 
0.00634508 0.01345 0.00824472 
0.00773893 0.01345 0.00895492 
-0.00773893 -0.01085 -0.00784509 
-0.00773893 0.01095 -0.00784509 
0.0048 -0.01355 0.008 
0.00884509 -0.01355 0.0100611 
0.00884509 -0.01085 -0.00673893 
0.00884509 0.01095 -0.00673893 
0.00884509 0.01345 0.0100611 
0.0098 0.01345 0.041 
0.0098 0.01095 0.0578 
0.0098 -0.01085 0.0578 
0.0098 -0.01355 0.013 
0.0098 -0.01355 0.041 
0.0098 0.01345 0.013 
-0.00634508 -0.01085 0.0625553 
-0.00634508 -0.01355 0.0457553 
-0.00773893 -0.01355 0.0450451 
-0.00773893 -0.01085 0.0618451 
-0.000689333 -0.01145 0.0594566 
0.0048 -0.01355 0.046 
-0.0048 -0.01355 0.046 
0.000689333 -0.01145 0.0594566 
-0.0048 -0.01085 0.0628 
0.0048 -0.01085 0.0628 
-0.00884509 0.01345 0.0100611 
-0.00773893 0.01345 0.00895492 
-0.00634508 0.01345 0.00824472 
-0.00773893 -0.01355 0.00895492 
0.00955528 -0.01355 0.0425451 
-0.00955528 -0.01355 0.0114549 
-0.00884509 -0.01355 0.0100611 
0.00955528 -0.01355 0.0114549 
0.00884509 -0.01355 0.0439389 
-0.00884509 -0.01355 0.0439389 
-0.0098 -0.01355 0.013 
-0.0098 -0.01355 0.041 
-0.00955528 -0.01355 0.0425451 
0.0048 0.01095 0.0628 
0.00634508 0.01095 0.0625553 
-0.0098 0.01095 0.0578 
-0.0098 -0.01085 0.0578 
-0.0098 0.01345 0.013 
-0.0098 0.01345 0.041 
-0.00955528 -0.01085 0.0593451 
-0.00955528 0.01095 0.0593451 
-0.00884509 0.01095 0.0607389 
-0.00884509 -0.01085 0.0607389 
-0.0048 0.01095 0.0628 
-0.00634508 0.01095 0.0625553 
0.0048 0.01345 0.046 
-0.0048 0.01345 0.046 
0.00955528 0.01095 0.0593451 
0.00955528 -0.01085 0.0593451 
0.00884509 -0.01085 0.0607389 
0.00884509 0.01095 0.0607389 
-0.00773893 0.01095 0.0618451 
-0.00634508 0.01345 0.0457553 
-0.00773893 0.01345 0.0450451 
0.00773893 0.01345 0.0450451 
0.00955528 0.01345 0.0114549 
0.00955528 0.01345 0.0425451 
-0.00884509 0.01345 0.0439389 
-0.00955528 0.01345 0.0114549 
0.00634508 0.01345 0.0457553 
-0.00955528 0.01345 0.0425451 
0.00884509 0.01345 0.0439389 
0.00773893 0.01095 0.0618451 
3 94 2 3 
3 10 63 9 
3 61 1 4 
3 61 62 4 
3 61 1 6 
3 84 60 64 
3 84 44 42 
3 84 60 44 
3 26 51 55 
3 25 27 64 
3 43 63 9 
3 91 8 45 
3 5 94 2 
3 37 10 63 
3 7 91 8 
3 22 21 0 
3 85 27 64 
3 85 84 64 
3 24 26 51 
3 65 48 49 
3 65 75 68 
3 53 51 55 
3 67 75 68 
3 67 75 72 
3 30 21 0 
3 35 22 0 
3 35 30 0 
3 36 37 63 
3 38 39 91 
3 38 7 91 
3 73 5 94 
3 46 47 52 
3 46 54 52 
3 78 65 49 
3 78 65 75 
3 50 54 52 
3 66 61 6 
3 56 94 3 
3 71 76 74 
3 96 76 74 
3 96 76 93 
3 77 76 93 
3 79 80 82 
3 81 69 70 
3 81 95 70 
3 83 40 41 
3 83 40 92 
3 97 83 86 
3 97 83 92 
3 88 80 82 
3 87 89 93 
3 87 77 93 
3 98 90 97 
3 98 97 86 
3 1 2 3 
3 1 4 3 
3 5 1 2 
3 5 1 6 
3 7 8 9 
3 7 10 9 
3 11 12 13 
3 11 14 13 
3 15 17 16 
3 15 17 18 
3 19 20 18 
3 19 21 18 
3 22 19 23 
3 22 19 21 
3 24 26 27 
3 24 25 27 
3 28 12 13 
3 28 12 29 
3 30 17 18 
3 30 21 18 
3 30 11 12 
3 30 11 17 
3 31 17 16 
3 31 11 17 
3 31 11 14 
3 31 32 14 
3 33 4 3 
3 33 34 3 
3 33 19 20 
3 33 34 20 
3 35 12 29 
3 35 30 12 
3 36 28 13 
3 36 37 13 
3 38 39 32 
3 38 32 14 
3 38 14 13 
3 38 37 13 
3 38 7 10 
3 38 37 10 
3 40 41 42 
3 40 43 44 
3 40 44 42 
3 40 8 9 
3 40 8 45 
3 40 43 9 
3 46 47 48 
3 46 48 49 
3 50 51 52 
3 50 53 51 
3 50 54 55 
3 50 53 55 
3 56 34 3 
3 56 57 34 
3 58 15 18 
3 58 20 18 
3 58 34 20 
3 58 57 34 
3 59 60 44 
3 59 28 29 
3 59 51 52 
3 59 61 62 
3 59 43 63 
3 59 60 64 
3 59 36 28 
3 59 65 48 
3 59 66 67 
3 59 25 64 
3 59 43 44 
3 59 24 25 
3 59 47 48 
3 59 22 23 
3 59 24 51 
3 59 35 22 
3 59 47 52 
3 59 65 68 
3 59 67 68 
3 59 35 29 
3 59 36 63 
3 59 66 61 
3 59 33 4 
3 59 62 4 
3 59 19 23 
3 59 33 19 
3 69 70 26 
3 69 26 55 
3 71 67 72 
3 71 66 6 
3 71 5 6 
3 71 73 5 
3 71 73 74 
3 71 66 67 
3 71 75 72 
3 71 76 75 
3 77 76 75 
3 77 78 75 
3 79 46 80 
3 79 46 54 
3 79 54 55 
3 79 69 55 
3 81 79 69 
3 81 79 82 
3 83 41 42 
3 83 84 42 
3 83 85 84 
3 83 86 85 
3 87 88 89 
3 87 88 80 
3 87 46 49 
3 87 46 80 
3 87 77 78 
3 87 78 49 
3 90 58 57 
3 90 73 74 
3 90 31 32 
3 90 91 45 
3 90 39 91 
3 90 15 16 
3 90 39 32 
3 90 56 57 
3 90 40 92 
3 90 31 16 
3 90 89 93 
3 90 40 45 
3 90 73 94 
3 90 81 95 
3 90 56 94 
3 90 58 15 
3 90 96 93 
3 90 88 89 
3 90 96 74 
3 90 81 82 
3 90 97 92 
3 90 88 82 
3 98 90 95 
3 98 95 70 
3 98 26 27 
3 98 70 26 
3 98 86 85 
3 98 85 27 
