ply
format ascii 1.0
comment VCGLIB generated
element vertex 90
property float x
property float y
property float z
element face 176
property list uchar int vertex_indices
end_header
0.00470228 0.0501944 -0.00171244 
0.00166329 0.0515423 -0.00183037 
0.00795618 0.0445799 -0.00122124 
0.0069282 0.0477316 -0.00149698 
0.00782518 0.00166329 0.0011 
-0.0145 0.0388182 -0.000114861 
-0.0145 0.0487801 -0.000986419 
0.008 0.0437469 -0.00114836 
0.00760845 0.0412841 -0.000932896 
0.00647214 0.00470228 0.0011 
0.004 0.0069282 0.0011 
0.00594516 0.0384142 -0.000681808 
-0.0145 -0.0388182 -0.000114861 
0.00782518 -0.0420899 -0.00100339 
0.00782518 -0.0454038 -0.00129332 
0.00782518 -0.00166329 0.0011 
0.008 9.08688e-17 0.0011 
-0.0145 -0.0487801 -0.000986419 
0.004 -0.0506487 -0.00175219 
0.000836228 -0.0516728 -0.00184178 
0.00647214 -0.0484313 -0.00155819 
0.00647214 -0.00470228 0.0011 
0.004 -0.0069282 0.0011 
0.00647214 -0.0390625 -0.000738526 
-0.0295 0.0532188 -0.0410158 
0.0113 0.0532188 -0.0410158 
0.0113 0.0539757 -0.03798 
-0.0295 0.0539757 -0.03798 
0.0113 0.0285489 -0.095 
-0.0295 0.0285489 -0.095 
-0.0295 -0.028 -0.095 
0.0113 -0.028 -0.095 
0.0113 0.0567385 -0.00640064 
-0.0295 0.0567385 -0.00640064 
-0.0295 -0.0450342 -0.0794131 
0.0113 -0.0450342 -0.0794131 
-0.0295 -0.0566111 -0.00523706 
0.0113 -0.0560481 -0.00421081 
0.0113 -0.0566111 -0.00523706 
-0.0295 -0.0560481 -0.00421081 
0.0113 -0.0567385 -0.00640064 
-0.0295 -0.0567385 -0.00640064 
0.0083 -0.0537813 -0.0402021 
-0.0265 -0.0537813 -0.0402021 
-0.027 -0.0098 0.0017 
-0.0295 -0.018 4.44089e-16 
-0.0295 0.018 4.61853e-16 
-0.027 0.0098 0.0017 
-0.0295 -0.0482551 -0.0756504 
-0.0295 -0.0504527 -0.0712116 
0.0113 -0.0504527 -0.0712116 
0.0113 -0.0482551 -0.0756504 
0.0113 -0.051492 -0.0663689 
-0.0295 -0.051492 -0.0663689 
0.0113 -0.0540114 -0.00315059 
0.0113 0.0566111 -0.00523706 
0.0113 0.0551352 -0.00347814 
0.0113 0.0540114 -0.00315059 
0.0113 -0.0551352 -0.00347814 
0.0113 -0.018 -1.77636e-17 
0.0113 0.018 0 
0.0113 0.0560481 -0.00421081 
-0.016 0.0363277 0.000103028 
-0.0215 0.0512706 -0.00120431 
-0.0215 0.0363277 0.000103028 
-0.016 0.0512706 -0.00120431 
-0.0215 0.0535619 -0.00140477 
-0.0295 0.0560481 -0.00421081 
-0.027 0.0535619 -0.00140477 
-0.0295 0.0566111 -0.00523706 
-0.0295 -0.0540114 -0.00315059 
-0.0295 0.0540114 -0.00315059 
-0.0295 -0.0551352 -0.00347814 
-0.0295 0.0551352 -0.00347814 
-0.0215 -0.0535619 -0.00140477 
-0.027 -0.0535619 -0.00140477 
-0.0215 -0.0340364 0.000303486 
-0.0215 -0.0098 0.0017 
-0.027 -0.0340364 0.000303486 
-0.0215 -0.0363277 0.000103028 
-0.016 -0.0363277 0.000103028 
-0.0215 0.0340364 0.000303486 
-0.027 0.0340364 0.000303486 
-0.016 -0.0512706 -0.00120431 
-0.0215 -0.0512706 -0.00120431 
-0.0215 0.0098 0.0017 
-0.016 -0.0075 0.0017 
-0.016 0.0075 0.0017 
-0.0145 0.005 0.0017 
-0.0145 -0.005 0.0017 
3 53 43 41 
3 71 68 46 
3 70 45 75 
3 16 59 60 
3 16 59 15 
3 7 57 60 
3 7 57 2 
3 82 64 68 
3 82 46 47 
3 82 68 46 
3 63 64 68 
3 52 42 40 
3 72 75 39 
3 72 70 75 
3 54 14 59 
3 78 44 45 
3 78 45 75 
3 3 57 2 
3 3 0 57 
3 3 0 65 
3 1 0 65 
3 1 56 57 
3 1 0 57 
3 66 56 61 
3 66 1 56 
3 66 1 65 
3 73 67 68 
3 73 71 68 
3 4 16 60 
3 4 9 60 
3 11 9 10 
3 74 37 58 
3 13 14 59 
3 79 78 75 
3 76 80 77 
3 6 62 65 
3 6 7 2 
3 6 3 65 
3 6 3 2 
3 88 4 9 
3 88 4 16 
3 8 7 60 
3 8 9 60 
3 8 11 9 
3 19 54 58 
3 19 74 58 
3 21 22 23 
3 21 59 15 
3 21 13 59 
3 21 13 23 
3 84 79 75 
3 5 6 7 
3 5 6 62 
3 5 8 7 
3 5 11 62 
3 5 8 11 
3 87 9 10 
3 87 88 9 
3 87 11 10 
3 87 11 62 
3 20 54 14 
3 20 17 14 
3 12 13 14 
3 12 17 14 
3 12 17 80 
3 12 23 80 
3 12 13 23 
3 89 21 15 
3 89 16 15 
3 89 88 16 
3 83 20 17 
3 83 17 80 
3 85 81 62 
3 85 87 62 
3 18 19 54 
3 18 20 54 
3 18 83 20 
3 18 83 74 
3 18 19 74 
3 86 80 77 
3 86 21 22 
3 86 89 21 
3 86 23 80 
3 86 22 23 
3 24 25 26 
3 24 27 26 
3 28 29 30 
3 28 31 30 
3 28 24 29 
3 28 24 25 
3 32 27 33 
3 32 27 26 
3 34 31 30 
3 34 35 31 
3 36 37 38 
3 36 37 39 
3 40 36 38 
3 40 36 41 
3 42 40 41 
3 42 43 41 
3 44 45 46 
3 44 46 47 
3 48 49 50 
3 48 51 50 
3 48 34 35 
3 48 51 35 
3 52 42 43 
3 52 53 43 
3 52 49 50 
3 52 53 49 
3 54 25 26 
3 54 55 32 
3 54 28 25 
3 54 28 31 
3 54 56 57 
3 54 35 31 
3 54 51 35 
3 54 52 40 
3 54 32 26 
3 54 37 38 
3 54 37 58 
3 54 40 38 
3 54 59 60 
3 54 51 50 
3 54 55 61 
3 54 57 60 
3 54 56 61 
3 54 52 50 
3 62 63 64 
3 62 63 65 
3 66 67 61 
3 66 67 68 
3 66 63 65 
3 66 63 68 
3 69 32 33 
3 69 55 32 
3 69 29 30 
3 69 24 27 
3 69 27 33 
3 69 45 46 
3 69 36 41 
3 69 24 29 
3 69 70 45 
3 69 53 41 
3 69 34 30 
3 69 36 39 
3 69 71 46 
3 69 53 49 
3 69 48 34 
3 69 72 70 
3 69 48 49 
3 69 73 67 
3 69 72 39 
3 69 73 71 
3 69 55 61 
3 69 67 61 
3 74 37 39 
3 74 75 39 
3 76 44 77 
3 76 78 44 
3 76 79 80 
3 76 79 78 
3 81 62 64 
3 81 82 64 
3 83 74 75 
3 83 84 75 
3 83 79 80 
3 83 84 79 
3 85 81 82 
3 85 82 47 
3 86 44 47 
3 86 44 77 
3 86 87 88 
3 86 89 88 
3 86 85 87 
3 86 85 47 
