ply
format ascii 1.0
comment VCGLIB generated
element vertex 75
property float x
property float y
property float z
element face 146
property list uchar int vertex_indices
end_header
8.98908e-16 -0.01135 -0.0055 
0.00944899 0.01355 0.0468153 
0.00944899 -0.01345 0.0468153 
0.00841356 -0.01345 0.0497744 
0.00841356 0.01355 0.0497744 
0.0098 0.01355 0.0437 
0.0098 -0.01345 0.0437 
-0.0098 -0.01075 -0.0038 
-0.0098 0.01105 -0.0038 
-0.00955528 0.01105 -0.00534509 
-0.00955528 -0.01075 -0.00534509 
0.0098 0.01105 -0.0038 
0.0098 -0.01075 -0.0038 
0.00955528 -0.01075 -0.00534509 
0.00955528 0.01105 -0.00534509 
-0.00957164 -0.01345 0.0558481 
-0.0098 0.01355 0.0547 
-0.00957164 0.01355 0.0558481 
-0.0098 -0.01345 0.0547 
-0.0042 -0.01345 0.0577 
-0.0042 0.01355 0.0577 
-0.0068 0.01355 0.0577 
-0.0068 -0.01345 0.0577 
-0.00108471 0.01355 0.057349 
-0.00108471 -0.01345 0.057349 
0.00187437 0.01355 0.0563136 
0.00187437 -0.01345 0.0563136 
-0.0098 -0.01345 0.013 
-0.0098 0.01355 0.013 
0.00634508 -0.01075 -0.00855528 
0.00773893 0.01105 -0.00784509 
0.00634508 0.01105 -0.00855528 
0.00773893 -0.01075 -0.00784509 
-0.00773893 -0.01345 0.00895492 
-0.00634508 -0.01345 0.00824472 
-0.00773893 -0.01075 -0.00784509 
-0.00634508 -0.01075 -0.00855528 
0.0098 0.01355 0.013 
0.0098 -0.01345 0.013 
-0.00892132 0.01355 0.0568213 
-0.00892132 -0.01345 0.0568213 
-0.00794805 -0.01345 0.0574716 
-0.00794805 0.01355 0.0574716 
0.00452886 -0.01345 0.0546456 
0.00452886 0.01355 0.0546456 
0.00674564 0.01355 0.0524289 
0.00674564 -0.01345 0.0524289 
0.00884509 0.01105 -0.00673893 
0.00884509 -0.01075 -0.00673893 
0.00773893 0.01355 0.00895492 
0.00634508 0.01355 0.00824472 
-0.00634508 0.01105 -0.00855528 
-0.00634508 0.01355 0.00824472 
-0.00773893 0.01355 0.00895492 
-0.00773893 0.01105 -0.00784509 
-0.0048 0.01355 0.008 
-0.0048 0.01105 -0.0088 
-0.00884509 0.01105 -0.00673893 
-0.00884509 -0.01075 -0.00673893 
-0.00884509 0.01355 0.0100611 
-0.00884509 -0.01345 0.0100611 
-0.0048 -0.01075 -0.0088 
-0.0048 -0.01345 0.008 
0.00634508 -0.01345 0.00824472 
0.0048 -0.01345 0.008 
0.0048 -0.01075 -0.0088 
0.00773893 -0.01345 0.00895492 
0.00884509 0.01355 0.0100611 
-0.00955528 0.01355 0.0114549 
0.00955528 0.01355 0.0114549 
0.0048 0.01355 0.008 
0.0048 0.01105 -0.0088 
0.00884509 -0.01345 0.0100611 
-0.00955528 -0.01345 0.0114549 
0.00955528 -0.01345 0.0114549 
3 0 64 65 
3 7 73 10 
3 11 69 14 
3 27 7 73 
3 68 8 28 
3 68 9 8 
3 58 73 10 
3 62 0 64 
3 37 11 69 
3 47 69 14 
3 57 59 68 
3 57 68 9 
3 60 58 73 
3 61 62 0 
3 61 0 65 
3 74 12 38 
3 74 12 13 
3 74 48 13 
3 67 47 69 
3 72 74 48 
3 1 2 3 
3 1 3 4 
3 1 5 6 
3 1 2 6 
3 7 9 10 
3 7 9 8 
3 11 13 14 
3 11 12 13 
3 15 16 17 
3 15 16 18 
3 19 20 21 
3 19 21 22 
3 19 20 23 
3 19 24 23 
3 25 24 26 
3 25 24 23 
3 27 16 28 
3 27 8 28 
3 27 16 18 
3 27 7 8 
3 29 30 31 
3 29 30 32 
3 33 35 36 
3 33 34 36 
3 37 6 38 
3 37 5 6 
3 37 12 38 
3 37 11 12 
3 39 15 40 
3 39 15 17 
3 41 42 21 
3 41 21 22 
3 41 39 42 
3 41 39 40 
3 43 25 44 
3 43 25 26 
3 45 3 4 
3 45 46 3 
3 45 43 46 
3 45 43 44 
3 47 13 14 
3 47 48 13 
3 47 30 32 
3 47 48 32 
3 49 50 31 
3 49 30 31 
3 51 52 53 
3 51 53 54 
3 51 52 55 
3 51 56 55 
3 51 35 36 
3 51 35 54 
3 57 35 54 
3 57 58 35 
3 57 9 10 
3 57 58 10 
3 57 59 53 
3 57 53 54 
3 60 33 35 
3 60 58 35 
3 61 34 36 
3 61 62 34 
3 61 51 56 
3 61 51 36 
3 63 64 65 
3 63 29 65 
3 63 29 32 
3 63 66 32 
3 67 45 44 
3 67 16 17 
3 67 20 21 
3 67 49 50 
3 67 25 44 
3 67 42 21 
3 67 1 5 
3 67 16 28 
3 67 20 23 
3 67 39 42 
3 67 1 4 
3 67 52 53 
3 67 37 5 
3 67 25 23 
3 67 52 55 
3 67 68 28 
3 67 59 68 
3 67 37 69 
3 67 39 17 
3 67 45 4 
3 67 59 53 
3 67 70 50 
3 67 70 55 
3 67 47 30 
3 67 49 30 
3 71 50 31 
3 71 70 50 
3 71 56 55 
3 71 70 55 
3 71 29 31 
3 71 29 65 
3 71 61 56 
3 71 61 65 
3 72 41 40 
3 72 2 6 
3 72 24 26 
3 72 6 38 
3 72 62 34 
3 72 19 24 
3 72 33 34 
3 72 60 33 
3 72 15 40 
3 72 2 3 
3 72 27 18 
3 72 15 18 
3 72 19 22 
3 72 46 3 
3 72 27 73 
3 72 43 46 
3 72 62 64 
3 72 63 66 
3 72 41 22 
3 72 43 26 
3 72 60 73 
3 72 63 64 
3 72 74 38 
3 72 48 32 
3 72 66 32 
