ply
format ascii 1.0
comment VCGLIB generated
element vertex 699
property float x
property float y
property float z
element face 1394
property list uchar int vertex_indices
end_header
-0.00874762 0.00821456 -2.17367e-15 
-0.00817917 -0.00768075 0.00425526 
0.00874762 0.00821456 2.16405e-15 
-0.0105157 0.00578104 -2.61093e-15 
-0.0097082 0.00705342 -2.41131e-15 
-0.0111573 0.00441749 -2.76937e-15 
-0.00642992 0.0101319 -1.59983e-15 
-0.00520358 0.0108061 -1.29603e-15 
-0.00859619 0.0062455 0.00557668 
-0.00305179 0.00939245 0.00681678 
-0.00185054 0.00970088 0.00681678 
-0.0119054 -0.001504 -2.95189e-15 
-0.00715202 -0.00864531 0.00425526 
-0.00859619 -0.0062455 0.00557668 
-0.0079897 -0.00580485 0.00681678 
-0.00907733 -0.00659506 0.00425526 
-0.00983233 -0.00540537 0.00425526 
-0.0108677 -0.00279035 0.00425526 
-0.0104323 -0.00413043 0.00425526 
0.0113902 -0.00370089 2.82675e-15 
0.011623 -0.00298428 2.88414e-15 
0.0108677 -0.00279035 0.00425526 
0.0108331 -0.00428913 0.00287179 
0.00865423 0.00475771 0.00681678 
0.00859619 0.0062455 0.00557668 
0.00931117 0.00511886 0.00557668 
0.00199101 0.0104373 0.00557668 
0.00739867 -0.00292934 0.00898213 
0.00676302 -0.000854369 0.00987581 
0.00660262 -0.00169526 0.00987581 
-0.001401 0.000359715 0.0119125 
-0.0072667 -0.00527956 0.00795747 
-0.000921996 0.0011145 0.0119125 
-0.00105441 0.000990156 0.0119125 
-0.00232333 0.00168799 0.0116513 
-0.0102101 0.00561306 0.00287179 
-0.010439 0.00573889 0.00144644 
-0.011623 0.00298428 -2.88414e-15 
-0.00983233 0.00540537 0.00425526 
-0.00624308 0.00983752 0.00287179 
-0.00638304 0.0100581 0.00144644 
-0.00764909 0.00924616 -1.90201e-15 
-0.00452411 0.00961422 0.00557668 
-0.00601208 0.00947352 0.00425526 
-0.00529172 0.00833842 0.00681678 
-0.00569341 0.00897138 0.00557668 
-0.00677293 0.00818707 0.00557668 
-0.00774564 0.00727364 0.00557668 
-0.00719915 0.00676045 0.00681678 
-0.00629508 0.00760944 0.00681678 
-0.00572542 0.00692085 0.00795747 
-0.00420491 0.0089359 0.00681678 
-0.0108331 -0.00428913 0.00287179 
-0.0115383 -0.00296252 0.00144644 
-0.0113902 -0.00370089 -2.82299e-15 
-0.011623 -0.00298428 -2.8811e-15 
-0.00629508 -0.00760944 0.00681678 
-0.00719915 -0.00676045 0.00681678 
-0.00569341 -0.00897138 0.00557668 
-0.00677293 -0.00818707 0.00557668 
-0.00774564 -0.00727364 0.00557668 
0.000753486 -0.0119763 1.92176e-16 
0.00224858 -0.0117874 5.63658e-16 
0.0021419 -0.0118009 5.37207e-16 
0.0050721 -0.0107788 0.00144644 
0.00223218 -0.0117015 0.00144644 
0.0037082 -0.0114127 9.24508e-16 
-0.00874762 -0.00821456 -2.16552e-15 
-0.00849343 -0.00797587 0.00287179 
-0.00868384 -0.00815467 0.00144644 
-0.00788435 -0.00902523 -1.95081e-15 
-0.00918229 -0.00363553 0.00681678 
-0.00865423 -0.00475771 0.00681678 
-0.0102917 -0.00264245 0.00557668 
-0.00987931 -0.0039115 0.00557668 
-0.00931117 -0.00511886 0.00557668 
0.00614711 -0.0102874 1.52977e-15 
0.00642992 -0.0101319 1.59983e-15 
0.00510935 -0.0108579 1.27269e-15 
0.0115383 -0.00296252 0.00144644 
0.0119054 -0.001504 2.95342e-15 
0.00677293 0.00818707 0.00557668 
0.00774564 0.00727364 0.00557668 
0.00569341 0.00897138 0.00557668 
0.00849343 0.00797587 0.00287179 
0.00868384 0.00815467 0.00144644 
0.00817917 0.00768075 0.00425526 
0.00907733 0.00659506 0.00425526 
0.0118186 0.00149303 0.00144644 
0.0119054 0.001504 2.95189e-15 
0.0119125 2.05271e-16 0.00144644 
0.012 2.21449e-16 2.97612e-15 
0.00346723 0.010671 0.00425526 
0.00360045 0.011081 0.00287179 
0.00759332 0.00917874 0.00144644 
0.0050721 0.0107788 0.00144644 
0.00642992 0.0101319 1.58954e-15 
0.00764909 0.00924616 1.89235e-15 
0.00520358 0.0108061 1.28505e-15 
0.00510935 0.0108579 1.26061e-15 
0.00719915 0.00676045 0.00681678 
0.0072667 0.00527956 0.00795747 
0.0079897 0.00580485 0.00681678 
0.00739867 0.00292934 0.00898213 
0.0078711 0.00432717 0.00795747 
0.00835137 0.00330654 0.00795747 
0.00697319 0.00383354 0.00898213 
0.00643773 0.00467728 0.00898213 
0.00580075 0.00544726 0.00898213 
0.00434518 0.00525242 0.00987581 
0.00496922 0.0046664 0.00987581 
0.0104323 -0.00413043 0.00425526 
0.00223218 0.0117015 0.00144644 
0.00368117 0.0113295 0.00144644 
0.0037082 0.0114127 9.13873e-16 
0.00224858 0.0117874 5.5168e-16 
0.00107367 0.0119359 2.60217e-16 
0.00697319 -0.00383354 0.00898213 
0.0055327 -0.000698943 0.0106255 
-0.00660262 -0.00169526 0.00987581 
-0.00540148 -0.00138686 0.0106255 
-0.00518506 -0.00205291 0.0106255 
-0.00633808 -0.00250942 0.00987581 
-0.00739867 -0.00292934 0.00898213 
-0.0078711 -0.00432717 0.00795747 
-0.00835137 -0.00330654 0.00795747 
-0.00572542 -0.00692085 0.00795747 
-0.00126753 0.000696828 0.0119125 
-0.00117019 0.000850196 0.0119125 
-0.00134487 0.00053247 0.0119125 
-0.0055327 -0.000698943 0.0106255 
-0.00676302 -0.000854369 0.00987581 
-0.00681678 -1.26308e-16 0.00987581 
0.00305179 0.00939245 0.00681678 
0.00328345 0.0101054 0.00557668 
0.00452411 0.00961422 0.00557668 
0.00168308 0.00882303 0.00795747 
0.00277563 0.00854251 0.00795747 
0.00185054 0.00970088 0.00681678 
0.00218324 0.0114449 0.00287179 
-0.00224858 0.0117874 -5.63658e-16 
-0.00107367 0.0119359 -2.72346e-16 
-0.00849343 0.00797587 0.00287179 
-0.00907733 0.00659506 0.00425526 
-0.0094261 0.00684846 0.00287179 
-0.00817917 0.00768075 0.00425526 
-0.00963742 0.007002 0.00144644 
-0.00868384 0.00815467 0.00144644 
-0.00759332 0.00917874 0.00144644 
-0.00742682 0.00897748 0.00287179 
-0.00715202 0.00864531 0.00425526 
-0.00918229 0.00363553 0.00681678 
-0.00865423 0.00475771 0.00681678 
-0.00956554 0.00245601 0.00681678 
-0.00987931 0.0039115 0.00557668 
-0.00931117 0.00511886 0.00557668 
-0.0072667 0.00527956 0.00795747 
-0.0078711 0.00432717 0.00795747 
-0.0079897 0.00580485 0.00681678 
-0.00580075 0.00544726 0.00898213 
-0.00654769 0.00614869 0.00795747 
-0.00643773 0.00467728 0.00898213 
-0.0038244 0.00812727 0.00795747 
0.00149108 0.00781652 0.00898213 
0.0021065 0.00648314 0.00987581 
0.00245899 0.00756801 0.00898213 
-0.00963742 -0.007002 0.00144644 
-0.0102101 -0.00561306 0.00287179 
-0.0094261 -0.00684846 0.00287179 
0.00245899 -0.00756801 0.00898213 
0.00199101 -0.0104373 0.00557668 
-0.00420491 -0.0089359 0.00681678 
-0.00305179 -0.00939245 0.00681678 
-0.00529172 -0.00833842 0.00681678 
0.00360045 -0.011081 0.00287179 
0.00368117 -0.0113295 0.00144644 
0.00496088 -0.0105424 0.00287179 
0.00346723 -0.010671 0.00425526 
0.00218324 -0.0114449 0.00287179 
0.00210245 -0.0110215 0.00425526 
-3.33861e-14 -0.012 6.09699e-18 
-0.00614711 -0.0102874 -1.51932e-15 
-0.00642992 -0.0101319 -1.58954e-15 
-0.00764909 -0.00924616 -1.89235e-15 
-0.00759332 -0.00917874 0.00144644 
-0.00742682 -0.00897748 0.00287179 
-0.00601208 -0.00947352 0.00425526 
-0.00452411 -0.00961422 0.00557668 
0.00477733 -0.0101523 0.00425526 
0.00529172 -0.00833842 0.00681678 
0.00601208 -0.00947352 0.00425526 
0.0111573 -0.00441749 2.76937e-15 
0.0115594 -0.0014603 0.00287179 
0.0118186 -0.00149303 0.00144644 
0.0116513 2.01282e-16 0.00287179 
0.0112853 -0.00289756 0.00287179 
0.0115594 0.0014603 0.00287179 
0.0102917 0.00264245 0.00557668 
0.0104323 0.00413043 0.00425526 
0.00987931 0.0039115 0.00557668 
0.0108677 0.00279035 0.00425526 
0.0111317 0.00140626 0.00425526 
0.00918229 0.00363553 0.00681678 
0.0111573 0.00441749 2.76488e-15 
0.011623 0.00298428 2.8811e-15 
0.0115383 0.00296252 0.00144644 
0.0112853 0.00289756 0.00287179 
0.00983233 0.00540537 0.00425526 
0.0108331 0.00428913 0.00287179 
0.00624308 0.00983752 0.00287179 
0.00638304 0.0100581 0.00144644 
0.00742682 0.00897748 0.00287179 
0.00715202 0.00864531 0.00425526 
0.00601208 0.00947352 0.00425526 
0.00496088 0.0105424 0.00287179 
0.00477733 0.0101523 0.00425526 
0.00338813 0.00720014 0.00898213 
0.0038244 0.00812727 0.00795747 
0.00426383 0.00671872 0.00898213 
0.00420491 0.0089359 0.00681678 
0.00529172 0.00833842 0.00681678 
0.00681678 1.17608e-16 0.00987581 
0.00983233 -0.00540537 0.00425526 
0.00987931 -0.0039115 0.00557668 
0.00795747 1.37736e-16 0.00898213 
0.00789472 -0.000997336 0.00898213 
0.00770747 -0.00197894 0.00898213 
0.00835137 -0.00330654 0.00795747 
0.0111317 -0.00140626 0.00425526 
0.0112202 1.94206e-16 0.00425526 
0.0038244 -0.00812727 0.00795747 
0.00481287 -0.00758386 0.00795747 
0.00104497 -0.0054779 0.0106255 
0.00127734 -0.00669603 0.00987581 
0.0021065 -0.00648314 0.00987581 
0.00677293 -0.00818707 0.00557668 
0.00569341 -0.00897138 0.00557668 
0.00488688 -0.00268659 0.0106255 
0.00518506 -0.00205291 0.0106255 
0.00633808 -0.00250942 0.00987581 
0.00597359 -0.00328401 0.00987581 
0.00412157 -0.00105824 0.0112202 
0.00540148 -0.00138686 0.0106255 
-0.00372891 -0.00204999 0.0112202 
-0.00488688 -0.00268659 0.0106255 
-0.00434518 -0.00525242 0.00987581 
-0.0027124 -0.00327873 0.0112202 
-0.00310195 -0.00291293 0.0112202 
-0.00697319 -0.00383354 0.00898213 
-0.00597359 -0.00328401 0.00987581 
-0.00451163 -0.00327789 0.0106255 
-0.00406522 -0.0038175 0.0106255 
-0.00580075 -0.00544726 0.00898213 
-0.00507228 -0.00613134 0.00898213 
-0.00496922 -0.0046664 0.00987581 
-0.00551489 -0.0040068 0.00987581 
-0.00643773 -0.00467728 0.00898213 
-0.00654769 -0.00614869 0.00795747 
-0.00298813 0.00470854 0.0106255 
-0.00355471 0.0042969 0.0106255 
-0.00434518 0.00525242 0.00987581 
-0.00496922 0.0046664 0.00987581 
-0.00551489 0.0040068 0.00987581 
0.00551489 0.0040068 0.00987581 
0.00597359 0.00328401 0.00987581 
0.00372891 0.00204999 0.0112202 
0.00451163 0.00327789 0.0106255 
0.00232333 0.00168799 0.0116513 
-0.00153878 0.00242473 0.0116513 
-0.00228008 0.00359283 0.0112202 
-0.000538119 0.00282092 0.0116513 
-0.0119054 0.001504 -2.95342e-15 
-0.0112853 -0.00289756 0.00287179 
-0.0115383 0.00296252 0.00144644 
-0.0104323 0.00413043 0.00425526 
-0.0108331 0.00428913 0.00287179 
-0.011076 0.00438529 0.00144644 
-0.0108677 0.00279035 0.00425526 
-0.0102917 0.00264245 0.00557668 
-0.0112853 0.00289756 0.00287179 
-0.00557668 -1.0393e-16 0.0106255 
-0.00267012 0.00105718 0.0116513 
-0.00251657 0.00138349 0.0116513 
-0.00869994 0.00223376 0.00795747 
-0.00987581 -1.82124e-16 0.00681678 
-0.00979793 0.00123777 0.00681678 
0.00344258 0.00250118 0.0112202 
0.00406522 0.0038175 0.0106255 
0.00365261 0.00575559 0.00987581 
0.00290244 0.006168 0.00987581 
0.00210245 0.0110215 0.00425526 
-0.00223218 0.0117015 0.00144644 
-0.0037082 0.0114127 -9.2547e-16 
-0.00510935 0.0108579 -1.27269e-15 
-0.0050721 0.0107788 0.00144644 
-0.00199101 0.0104373 0.00557668 
-0.00328345 0.0101054 0.00557668 
-0.00426383 0.00671872 0.00898213 
-0.00507228 0.00613134 0.00898213 
-0.00481287 0.00758386 0.00795747 
-0.00338813 0.00720014 0.00898213 
-0.00365261 0.00575559 0.00987581 
-0.0021065 0.00648314 0.00987581 
-0.00290244 0.006168 0.00987581 
-0.00149108 0.00781652 0.00898213 
-0.00245899 0.00756801 0.00898213 
-0.00277563 0.00854251 0.00795747 
-0.00168308 0.00882303 0.00795747 
-0.00131495 0.00404699 0.0112202 
-0.0018118 0.00385027 0.0112202 
-0.00237443 0.00504593 0.0106255 
-0.0105157 -0.00578104 -2.60506e-15 
-0.0097082 -0.00705342 -2.40415e-15 
-0.010439 -0.00573889 0.00144644 
-0.0111573 -0.00441749 -2.76493e-15 
-0.011076 -0.00438529 0.00144644 
-0.00149108 -0.00781652 0.00898213 
-0.00168308 -0.00882303 0.00795747 
-0.0021065 -0.00648314 0.00987581 
-0.00338813 -0.00720014 0.00898213 
-0.00245899 -0.00756801 0.00898213 
-0.00426383 -0.00671872 0.00898213 
-0.00481287 -0.00758386 0.00795747 
-0.0038244 -0.00812727 0.00795747 
-0.00277563 -0.00854251 0.00795747 
0.00149108 -0.00781652 0.00898213 
0.00168308 -0.00882303 0.00795747 
-0.00104497 -0.0054779 0.0106255 
-0.00127734 -0.00669603 0.00987581 
-0.0021419 -0.0118009 -5.25216e-16 
-0.00224858 -0.0117874 -5.5168e-16 
-0.000753486 -0.0119763 -1.80787e-16 
0.00305179 -0.00939245 0.00681678 
0.00328345 -0.0101054 0.00557668 
0.00185054 -0.00970088 0.00681678 
0.00277563 -0.00854251 0.00795747 
0.00420491 -0.0089359 0.00681678 
0.00452411 -0.00961422 0.00557668 
0.00817917 -0.00768075 0.00425526 
0.00907733 -0.00659506 0.00425526 
0.010439 -0.00573889 0.00144644 
0.0102101 -0.00561306 0.00287179 
0.011076 -0.00438529 0.00144644 
0.0105157 -0.00578104 2.61093e-15 
0.0094261 -0.00684846 0.00287179 
0.010439 0.00573889 0.00144644 
0.011076 0.00438529 0.00144644 
0.0105157 0.00578104 2.60506e-15 
0.0102101 0.00561306 0.00287179 
0.0097082 0.00705342 2.40415e-15 
0.00963742 0.007002 0.00144644 
0.0094261 0.00684846 0.00287179 
0.00572542 0.00692085 0.00795747 
0.00654769 0.00614869 0.00795747 
0.00507228 0.00613134 0.00898213 
0.00481287 0.00758386 0.00795747 
0.00629508 0.00760944 0.00681678 
0.00412157 0.00105824 0.0112202 
0.00987581 1.7125e-16 0.00681678 
0.0105417 0.00133172 0.00557668 
0.0106255 1.84146e-16 0.00557668 
0.0089113 0.00112576 0.00795747 
0.00898213 1.55704e-16 0.00795747 
0.00789472 0.000997336 0.00898213 
0.00770747 0.00197894 0.00898213 
0.00869994 0.00223376 0.00795747 
0.00979793 0.00123777 0.00681678 
0.00956554 0.00245601 0.00681678 
0.00956554 -0.00245601 0.00681678 
0.00869994 -0.00223376 0.00795747 
0.00918229 -0.00363553 0.00681678 
0.0102917 -0.00264245 0.00557668 
0.0089113 -0.00112576 0.00795747 
0.00979793 -0.00123777 0.00681678 
0.0105417 -0.00133172 0.00557668 
0.00290244 -0.006168 0.00987581 
0.00338813 -0.00720014 0.00898213 
0.00426383 -0.00671872 0.00898213 
0.00365261 -0.00575559 0.00987581 
0.00496922 -0.0046664 0.00987581 
0.00551489 -0.0040068 0.00987581 
0.00434518 -0.00525242 0.00987581 
0.00172329 -0.00530374 0.0106255 
0.00774564 -0.00727364 0.00557668 
0.00859619 -0.0062455 0.00557668 
0.00931117 -0.00511886 0.00557668 
0.00865423 -0.00475771 0.00681678 
0.0078711 -0.00432717 0.00795747 
0.00654769 -0.00614869 0.00795747 
0.00629508 -0.00760944 0.00681678 
0.00572542 -0.00692085 0.00795747 
0.00719915 -0.00676045 0.00681678 
0.0079897 -0.00580485 0.00681678 
0.0072667 -0.00527956 0.00795747 
0.00507228 -0.00613134 0.00898213 
0.00580075 -0.00544726 0.00898213 
0.00643773 -0.00467728 0.00898213 
0.00278157 0.000714185 0.0116513 
0.001401 0.000359715 0.0119125 
-0.00105441 -0.000990156 0.0119125 
-0.000921996 -0.0011145 0.0119125 
-0.00153878 -0.00242473 0.0116513 
-0.00183055 -0.00221275 0.0116513 
-0.000775041 -0.00122127 0.0119125 
-0.00232333 -0.00168799 0.0116513 
-0.00209344 -0.00196587 0.0116513 
-0.00344258 -0.00250118 0.0112202 
-0.00117019 -0.000850196 0.0119125 
-0.00251657 -0.00138349 0.0116513 
-0.00134487 -0.00053247 0.0119125 
-0.00126753 -0.000696828 0.0119125 
-0.00310195 0.00291293 0.0112202 
-0.00406522 0.0038175 0.0106255 
-0.00344258 0.00250118 0.0112202 
-0.0027124 0.00327873 0.0112202 
-0.00209344 0.00196587 0.0116513 
-0.00183055 0.00221275 0.0116513 
0.00126753 0.000696828 0.0119125 
0.00134487 0.00053247 0.0119125 
0.00117019 0.000850196 0.0119125 
0.00251657 0.00138349 0.0116513 
0.00267012 0.00105718 0.0116513 
-0.000615864 0.00130878 0.0119125 
-0.00122275 0.00259847 0.0116513 
-0.000887431 0.00273123 0.0116513 
-0.000446975 0.00137565 0.0119125 
-0.000775041 0.00122127 0.0119125 
0.000446975 0.00137565 0.0119125 
-0.012 -2.22144e-16 -2.97612e-15 
-0.0106255 -1.96052e-16 0.00557668 
-0.0105417 0.00133172 0.00557668 
-0.0111317 0.00140626 0.00425526 
-0.0105417 -0.00133172 0.00557668 
-0.0111317 -0.00140626 0.00425526 
-0.00540148 0.00138686 0.0106255 
-0.0055327 0.000698943 0.0106255 
-0.00412157 0.00105824 0.0112202 
-0.00660262 0.00169526 0.00987581 
-0.00488688 0.00268659 0.0106255 
-0.00451163 0.00327789 0.0106255 
-0.00372891 0.00204999 0.0112202 
-0.00395644 0.00156647 0.0112202 
-0.00518506 0.00205291 0.0106255 
-0.00597359 0.00328401 0.00987581 
-0.00789472 0.000997336 0.00898213 
-0.0089113 0.00112576 0.00795747 
-0.00795747 -1.46996e-16 0.00898213 
-0.00676302 0.000854369 0.00987581 
-0.00739867 0.00292934 0.00898213 
-0.00697319 0.00383354 0.00898213 
-0.00835137 0.00330654 0.00795747 
-0.00770747 0.00197894 0.00898213 
-0.00633808 0.00250942 0.00987581 
-0.0089113 -0.00112576 0.00795747 
-0.00898213 -1.65693e-16 0.00795747 
-0.00979793 -0.00123777 0.00681678 
-0.00956554 -0.00245601 0.00681678 
-0.00869994 -0.00223376 0.00795747 
-0.00789472 -0.000997336 0.00898213 
-0.00770747 -0.00197894 0.00898213 
0.00310195 0.00291293 0.0112202 
0.00209344 0.00196587 0.0116513 
0.00105441 0.000990156 0.0119125 
0.000921996 0.0011145 0.0119125 
-0.00360045 0.011081 0.00287179 
-0.00368117 0.0113295 0.00144644 
-0.00218324 0.0114449 0.00287179 
-0.00210245 0.0110215 0.00425526 
-0.00346723 0.010671 0.00425526 
-0.00496088 0.0105424 0.00287179 
-0.00477733 0.0101523 0.00425526 
0.00172329 0.00530374 0.0106255 
0.000538119 0.00282092 0.0116513 
-0.00104497 0.0054779 0.0106255 
-0.00172329 0.00530374 0.0106255 
-0.000797356 0.00417989 0.0112202 
-0.00127734 0.00669603 0.00987581 
0.000797356 0.00417989 0.0112202 
0.00104497 0.0054779 0.0106255 
0.00127734 0.00669603 0.00987581 
-0.00185054 -0.00970088 0.00681678 
-0.000797356 -0.00417989 0.0112202 
-0.00122275 -0.00259847 0.0116513 
-0.00172329 -0.00530374 0.0106255 
-0.0018118 -0.00385027 0.0112202 
-0.00131495 -0.00404699 0.0112202 
-0.00510935 -0.0108579 -1.26208e-15 
-0.0037082 -0.0114127 -9.14381e-16 
-0.00223218 -0.0117015 0.00144644 
-0.00496088 -0.0105424 0.00287179 
-0.00477733 -0.0101523 0.00425526 
-0.00368117 -0.0113295 0.00144644 
-0.0050721 -0.0107788 0.00144644 
-0.00624308 -0.00983752 0.00287179 
-0.00638304 -0.0100581 0.00144644 
0.00874762 -0.00821456 2.17367e-15 
0.00963742 -0.007002 0.00144644 
0.0097082 -0.00705342 2.41131e-15 
0.00518506 0.00205291 0.0106255 
0.00488688 0.00268659 0.0106255 
0.00395644 0.00156647 0.0112202 
0.00633808 0.00250942 0.00987581 
0.0055327 0.000698943 0.0106255 
0.00557668 9.56134e-17 0.0106255 
0.00540148 0.00138686 0.0106255 
0.00676302 0.000854369 0.00987581 
0.00660262 0.00169526 0.00987581 
0.00451163 -0.00327789 0.0106255 
0.00372891 -0.00204999 0.0112202 
0.00237443 -0.00504593 0.0106255 
0.00298813 -0.00470854 0.0106255 
0.00355471 -0.0042969 0.0106255 
0.0018118 -0.00385027 0.0112202 
0.00284914 -0.00035993 0.0116513 
0.00284914 0.00035993 0.0116513 
0.0042217 0.000533325 0.0112202 
0.00425526 7.20725e-17 0.0112202 
0.0042217 -0.000533325 0.0112202 
-0.000538119 -0.00282092 0.0116513 
-0.00412157 -0.00105824 0.0112202 
-0.00395644 -0.00156647 0.0112202 
-0.00267012 -0.00105718 0.0116513 
-0.001401 -0.000359715 0.0119125 
-0.000271036 0.00142082 0.0119125 
-0.0116513 -2.15623e-16 0.00287179 
-0.0112202 -2.07273e-16 0.00425526 
-0.0115594 0.0014603 0.00287179 
-0.0118186 0.00149303 0.00144644 
-0.0119125 -2.2098e-16 0.00144644 
-0.0115594 -0.0014603 0.00287179 
-0.0118186 -0.00149303 0.00144644 
0.00298813 0.00470854 0.0106255 
0.00237443 0.00504593 0.0106255 
0.0027124 0.00327873 0.0112202 
0.00355471 0.0042969 0.0106255 
0.00183055 0.00221275 0.0116513 
0.00122275 0.00259847 0.0116513 
0.00131495 0.00404699 0.0112202 
0.000887431 0.00273123 0.0116513 
0.0018118 0.00385027 0.0112202 
0.000615864 0.00130878 0.0119125 
0.00228008 0.00359283 0.0112202 
0.00153878 0.00242473 0.0116513 
0.000775041 0.00122127 0.0119125 
-0.00210245 -0.0110215 0.00425526 
-0.00346723 -0.010671 0.00425526 
-0.00328345 -0.0101054 0.00557668 
-0.00199101 -0.0104373 0.00557668 
-0.00360045 -0.011081 0.00287179 
-0.00218324 -0.0114449 0.00287179 
-0.00298813 -0.00470854 0.0106255 
-0.00228008 -0.00359283 0.0112202 
-0.00355471 -0.0042969 0.0106255 
-0.00237443 -0.00504593 0.0106255 
-0.00365261 -0.00575559 0.00987581 
-0.00290244 -0.006168 0.00987581 
0.00788435 -0.00902523 1.95998e-15 
0.00764909 -0.00924616 1.90175e-15 
0.00868384 -0.00815467 0.00144644 
0.00406522 -0.0038175 0.0106255 
0.00267012 -0.00105718 0.0116513 
0.00278157 -0.000714185 0.0116513 
0.00395644 -0.00156647 0.0112202 
0.001401 -0.000359715 0.0119125 
0.00134487 -0.00053247 0.0119125 
0.00126753 -0.000696828 0.0119125 
0.00232333 -0.00168799 0.0116513 
0.00117019 -0.000850196 0.0119125 
0.00251657 -0.00138349 0.0116513 
0.00344258 -0.00250118 0.0112202 
0.00209344 -0.00196587 0.0116513 
0.00310195 -0.00291293 0.0112202 
0.0027124 -0.00327873 0.0112202 
0.00131495 -0.00404699 0.0112202 
0.000538119 -0.00282092 0.0116513 
0.000797356 -0.00417989 0.0112202 
0.00144644 2.17431e-17 0.0119125 
0.00287179 4.73288e-17 0.0116513 
0.00143503 -0.000181287 0.0119125 
0.00143503 0.000181287 0.0119125 
-0.000446975 -0.00137565 0.0119125 
-0.000615864 -0.00130878 0.0119125 
-0.000271036 -0.00142082 0.0119125 
-0.000887431 -0.00273123 0.0116513 
-0.00425526 -8.01884e-17 0.0112202 
-0.00144644 -3.00131e-17 0.0119125 
0.000271036 0.00142082 0.0119125 
0.00742682 -0.00897748 0.00287179 
0.00638304 -0.0100581 0.00144644 
0.00624308 -0.00983752 0.00287179 
0.00759332 -0.00917874 0.00144644 
0.00715202 -0.00864531 0.00425526 
0.00849343 -0.00797587 0.00287179 
0.000921996 -0.0011145 0.0119125 
0.00105441 -0.000990156 0.0119125 
0.00153878 -0.00242473 0.0116513 
0.00122275 -0.00259847 0.0116513 
0.000775041 -0.00122127 0.0119125 
0.00183055 -0.00221275 0.0116513 
0.00228008 -0.00359283 0.0112202 
0.000446975 -0.00137565 0.0119125 
0.000887431 -0.00273123 0.0116513 
0.000615864 -0.00130878 0.0119125 
0.000271036 -0.00142082 0.0119125 
-3.63574e-14 -4.31135e-18 0.012 
-0.00284914 0.00035993 0.0116513 
-0.0042217 0.000533325 0.0112202 
-0.00278157 0.000714185 0.0116513 
-0.00143503 0.000181287 0.0119125 
-0.00284914 -0.00035993 0.0116513 
-0.00278157 -0.000714185 0.0116513 
-0.0042217 -0.000533325 0.0112202 
-0.00287179 -5.5429e-17 0.0116513 
-0.00143503 -0.000181287 0.0119125 
-0.000753486 0.0119763 -1.92957e-16 
-0.00107567 0.0119517 -0.011 
0.00107567 0.0119517 -0.011 
0.000753486 0.0119763 1.80787e-16 
0.000747992 0.011889 0.00144644 
-0.000747992 0.011889 0.00144644 
0.000731591 -0.0116283 0.00287179 
-0.000731591 -0.0116283 0.00287179 
-0.000747992 -0.011889 0.00144644 
0.000747992 -0.011889 0.00144644 
0.000620107 0.00985632 0.00681678 
-0.000667179 0.0106045 0.00557668 
-0.000620107 0.00985632 0.00681678 
0.000667179 0.0106045 0.00557668 
-0.000563993 0.0089644 0.00795747 
0.000563993 0.0089644 0.00795747 
0.000499654 0.00794177 0.00898213 
-0.000499654 0.00794177 0.00898213 
-0.0105671 -0.00568642 -0.011 
-0.0052066 0.0108116 -0.011 
-0.00319244 0.0115676 -0.011 
-0.00615479 -0.0103014 -0.011 
-0.0042165 -0.0112348 -0.011 
-0.0116991 0.00267025 -0.011 
-0.0110343 0.0047163 -0.011 
-0.0118914 -0.0016108 -0.011 
-0.0114127 -0.0037082 -0.011 
0.0118914 -0.0016108 -0.011 
0.0114127 -0.0037082 -0.011 
-0.0100149 0.00661076 -0.011 
-0.00867354 0.00829275 -0.011 
0.00705342 0.0097082 -0.011 
0.0052066 0.0108116 -0.011 
-0.00214268 -0.0118072 -0.011 
0.00319244 0.0115676 -0.011 
0.00214268 -0.0118072 -0.011 
0.0042165 -0.0112348 -0.011 
-0.0119879 0.000538378 -0.011 
0.0100149 0.00661076 -0.011 
0.0110343 0.0047163 -0.011 
0.00615479 -0.0103014 -0.011 
-3.0655e-14 -0.012 -0.011 
0.0119879 0.000538378 -0.011 
-0.00705342 0.0097082 -0.011 
0.00867354 0.00829275 -0.011 
0.0116991 0.00267025 -0.011 
0.0105671 -0.00568642 -0.011 
0.00938198 -0.00748188 -0.011 
0.00789526 -0.00903686 -0.011 
-0.00938198 -0.00748188 -0.011 
-0.00789526 -0.00903686 -0.011 
-0.000428029 -0.00680333 0.00987581 
0.000350163 -0.00556567 0.0106255 
-0.000350163 -0.00556567 0.0106255 
0.000428029 -0.00680333 0.00987581 
0.000731591 0.0116283 0.00287179 
-0.000731591 0.0116283 0.00287179 
0.000499654 -0.00794177 0.00898213 
-0.000499654 -0.00794177 0.00898213 
0.000180321 0.00286612 0.0116513 
-0.000180321 0.00286612 0.0116513 
-0.00026719 0.00424686 0.0112202 
0.00026719 0.00424686 0.0112202 
0.000704522 0.0111981 0.00425526 
-0.000704522 0.0111981 0.00425526 
0.000563993 -0.0089644 0.00795747 
-0.000563993 -0.0089644 0.00795747 
-0.000620107 -0.00985632 0.00681678 
0.000620107 -0.00985632 0.00681678 
-0.000667179 -0.0106045 0.00557668 
0.000667179 -0.0106045 0.00557668 
0.00026719 -0.00424686 0.0112202 
-0.00026719 -0.00424686 0.0112202 
-0.000180321 -0.00286612 0.0116513 
0.000180321 -0.00286612 0.0116513 
-0.000428029 0.00680333 0.00987581 
0.000428029 0.00680333 0.00987581 
0.000350163 0.00556567 0.0106255 
-0.000350163 0.00556567 0.0106255 
-0.000704522 -0.0111981 0.00425526 
0.000704522 -0.0111981 0.00425526 
9.08227e-05 0.00144359 0.0119125 
-9.08227e-05 0.00144359 0.0119125 
9.08227e-05 -0.00144359 0.0119125 
-9.08227e-05 -0.00144359 0.0119125 
3 638 5 3 
3 641 656 91 
3 644 4 0 
3 648 115 616 
3 645 97 658 
3 276 5 3 
3 140 615 634 
3 6 633 657 
3 180 622 623 
3 16 167 52 
3 16 167 168 
3 12 1 60 
3 12 59 60 
3 66 649 650 
3 20 641 642 
3 643 644 4 
3 643 638 3 
3 643 4 3 
3 652 349 658 
3 2 97 658 
3 2 349 658 
3 659 204 653 
3 89 656 91 
3 89 659 656 
3 89 659 204 
3 347 652 653 
3 347 652 349 
3 114 648 646 
3 114 646 99 
3 114 648 115 
3 96 645 646 
3 96 645 97 
3 147 4 0 
3 146 147 4 
3 271 637 651 
3 271 651 428 
3 292 140 634 
3 292 633 634 
3 292 633 293 
3 41 6 657 
3 41 644 657 
3 41 644 0 
3 41 147 0 
3 7 633 293 
3 7 6 633 
3 143 144 38 
3 143 8 38 
3 47 158 8 
3 47 143 8 
3 639 651 428 
3 639 11 428 
3 663 67 664 
3 459 125 457 
3 459 125 123 
3 257 14 31 
3 124 14 31 
3 68 12 185 
3 68 12 1 
3 68 166 168 
3 68 166 69 
3 62 66 649 
3 58 173 187 
3 58 186 187 
3 58 12 186 
3 58 12 59 
3 15 1 60 
3 15 16 168 
3 15 68 168 
3 15 68 1 
3 75 16 74 
3 18 16 74 
3 18 16 52 
3 18 52 272 
3 18 73 74 
3 80 641 91 
3 80 20 641 
3 87 207 351 
3 229 194 196 
3 213 83 135 
3 25 207 199 
3 25 102 23 
3 81 356 82 
3 81 356 83 
3 85 2 97 
3 85 2 349 
3 203 204 653 
3 203 347 653 
3 28 224 225 
3 28 226 225 
3 28 226 29 
3 387 227 117 
3 141 614 619 
3 141 614 615 
3 141 140 615 
3 113 114 99 
3 290 134 26 
3 290 26 627 
3 138 134 26 
3 116 618 617 
3 116 617 616 
3 116 115 616 
3 98 646 99 
3 98 96 646 
3 396 387 117 
3 396 387 393 
3 239 226 29 
3 36 146 144 
3 36 276 3 
3 36 4 3 
3 36 146 4 
3 37 276 5 
3 37 271 637 
3 37 637 638 
3 37 638 5 
3 530 11 428 
3 530 53 272 
3 530 53 11 
3 432 433 73 
3 432 456 73 
3 220 356 83 
3 220 83 135 
3 220 219 135 
3 150 47 46 
3 150 39 149 
3 150 43 39 
3 40 41 6 
3 40 7 6 
3 40 39 149 
3 40 7 293 
3 40 469 39 
3 155 158 8 
3 155 8 38 
3 155 154 38 
3 44 42 51 
3 48 47 158 
3 299 44 51 
3 9 10 296 
3 9 42 296 
3 9 42 51 
3 9 306 51 
3 9 306 10 
3 307 10 626 
3 307 306 10 
3 295 10 626 
3 295 625 626 
3 295 10 296 
3 55 639 11 
3 55 53 11 
3 55 639 640 
3 57 14 60 
3 57 257 14 
3 312 663 67 
3 312 69 67 
3 312 166 69 
3 61 649 655 
3 61 180 655 
3 61 180 623 
3 178 620 623 
3 487 647 636 
3 183 635 664 
3 183 635 182 
3 493 12 185 
3 493 12 186 
3 72 124 14 
3 72 75 14 
3 13 14 60 
3 13 75 14 
3 13 15 60 
3 13 15 16 
3 13 75 16 
3 17 433 73 
3 17 18 73 
3 17 433 272 
3 17 18 272 
3 334 335 326 
3 188 176 589 
3 588 176 589 
3 588 176 64 
3 495 661 662 
3 78 588 64 
3 78 66 650 
3 78 654 650 
3 19 20 342 
3 19 191 342 
3 19 20 642 
3 19 191 642 
3 660 191 642 
3 79 20 342 
3 79 195 342 
3 79 80 20 
3 21 195 228 
3 21 195 111 
3 21 371 228 
3 21 371 111 
3 22 195 342 
3 22 195 111 
3 22 341 342 
3 222 22 111 
3 222 22 341 
3 222 341 344 
3 86 87 82 
3 198 207 199 
3 205 89 204 
3 202 25 199 
3 202 25 23 
3 202 367 365 
3 92 290 93 
3 92 290 134 
3 214 113 93 
3 104 102 101 
3 104 102 23 
3 104 202 23 
3 364 501 103 
3 107 104 101 
3 110 354 108 
3 100 356 82 
3 100 102 82 
3 24 102 82 
3 24 25 102 
3 24 87 82 
3 24 87 207 
3 24 25 207 
3 94 85 97 
3 350 85 349 
3 221 28 503 
3 221 28 224 
3 370 387 386 
3 370 387 227 
3 366 367 359 
3 139 290 93 
3 139 113 93 
3 624 26 627 
3 624 138 26 
3 522 613 604 
3 522 409 604 
3 27 239 117 
3 27 239 226 
3 27 227 117 
3 27 226 227 
3 380 396 117 
3 118 28 503 
3 118 28 29 
3 118 242 29 
3 238 562 242 
3 238 239 29 
3 238 242 29 
3 398 418 604 
3 410 407 604 
3 410 409 604 
3 585 613 604 
3 585 608 604 
3 30 607 608 
3 30 129 604 
3 30 608 604 
3 30 129 281 
3 30 607 281 
3 256 124 31 
3 256 257 31 
3 282 34 413 
3 282 440 413 
3 128 33 604 
3 128 282 34 
3 32 426 604 
3 32 33 604 
3 32 416 426 
3 32 416 33 
3 415 416 33 
3 415 128 34 
3 415 128 33 
3 415 34 413 
3 35 144 38 
3 35 36 144 
3 35 275 38 
3 35 275 276 
3 35 36 276 
3 273 37 276 
3 273 37 271 
3 153 283 445 
3 449 262 161 
3 449 161 157 
3 449 450 157 
3 430 153 278 
3 274 154 278 
3 274 277 278 
3 274 154 38 
3 274 275 38 
3 137 219 217 
3 137 216 217 
3 137 165 216 
3 137 165 163 
3 294 40 293 
3 294 40 469 
3 470 43 39 
3 470 469 39 
3 470 42 43 
3 470 42 296 
3 466 670 619 
3 145 47 143 
3 145 150 47 
3 148 40 149 
3 148 40 41 
3 148 41 147 
3 152 158 157 
3 152 155 158 
3 45 44 42 
3 45 42 43 
3 45 150 46 
3 45 150 43 
3 49 299 50 
3 49 299 44 
3 49 45 46 
3 49 45 44 
3 49 47 46 
3 49 48 47 
3 160 48 158 
3 160 49 50 
3 160 49 48 
3 301 259 260 
3 298 299 50 
3 298 301 260 
3 298 160 50 
3 298 260 261 
3 162 299 51 
3 162 306 51 
3 630 629 163 
3 474 310 303 
3 628 307 626 
3 315 52 272 
3 315 53 272 
3 315 167 52 
3 315 55 53 
3 632 314 640 
3 632 312 663 
3 54 314 640 
3 54 55 640 
3 54 315 314 
3 54 315 55 
3 325 335 326 
3 480 681 317 
3 480 324 317 
3 480 324 172 
3 446 447 132 
3 56 257 126 
3 56 57 257 
3 56 322 173 
3 56 322 126 
3 56 58 173 
3 56 58 59 
3 56 59 60 
3 56 57 60 
3 63 62 649 
3 63 61 649 
3 63 61 623 
3 65 62 66 
3 65 178 623 
3 65 63 623 
3 65 63 62 
3 175 176 64 
3 175 65 178 
3 175 65 66 
3 175 78 64 
3 175 78 66 
3 179 620 694 
3 179 178 620 
3 179 684 694 
3 179 684 170 
3 330 487 647 
3 486 487 636 
3 486 635 636 
3 70 67 664 
3 70 183 664 
3 70 69 67 
3 184 68 185 
3 184 68 69 
3 184 70 69 
3 184 70 183 
3 71 124 125 
3 71 72 124 
3 71 125 457 
3 71 456 457 
3 71 73 74 
3 71 456 73 
3 71 75 74 
3 71 72 75 
3 333 334 170 
3 333 188 177 
3 333 179 177 
3 333 179 170 
3 190 188 589 
3 557 654 662 
3 557 654 77 
3 557 588 77 
3 76 588 77 
3 76 78 588 
3 76 654 77 
3 76 78 654 
3 497 660 661 
3 497 495 661 
3 193 79 80 
3 193 80 91 
3 193 90 91 
3 193 90 194 
3 193 79 195 
3 339 222 384 
3 339 383 384 
3 339 383 338 
3 339 222 344 
3 212 81 82 
3 212 86 82 
3 212 213 83 
3 212 81 83 
3 84 94 211 
3 84 94 85 
3 84 212 211 
3 84 212 86 
3 84 350 351 
3 84 350 85 
3 84 87 351 
3 84 86 87 
3 200 198 206 
3 208 198 206 
3 208 198 207 
3 88 205 89 
3 88 206 196 
3 88 205 206 
3 88 194 196 
3 88 90 194 
3 88 89 91 
3 88 90 91 
3 95 113 99 
3 95 214 113 
3 215 213 135 
3 215 92 93 
3 215 214 93 
3 215 134 135 
3 215 92 134 
3 210 94 211 
3 210 95 214 
3 210 96 97 
3 210 94 97 
3 210 98 96 
3 210 98 99 
3 210 95 99 
3 105 364 365 
3 105 364 103 
3 105 202 365 
3 105 104 202 
3 218 216 288 
3 218 354 288 
3 353 354 108 
3 353 100 356 
3 353 107 101 
3 353 107 108 
3 353 102 101 
3 353 100 102 
3 106 501 264 
3 106 501 103 
3 106 107 104 
3 106 105 103 
3 106 105 104 
3 263 110 287 
3 263 106 264 
3 263 106 107 
3 263 107 108 
3 263 110 108 
3 109 534 287 
3 109 110 287 
3 109 534 288 
3 109 354 288 
3 109 110 354 
3 421 398 418 
3 515 516 503 
3 499 501 264 
3 506 364 501 
3 223 371 111 
3 223 370 371 
3 223 222 111 
3 372 226 225 
3 360 229 359 
3 231 394 390 
3 509 510 375 
3 389 189 236 
3 389 231 390 
3 389 231 189 
3 112 139 113 
3 112 114 115 
3 112 113 114 
3 112 139 618 
3 112 116 115 
3 112 116 618 
3 240 380 507 
3 240 239 117 
3 240 380 117 
3 517 118 242 
3 517 516 503 
3 517 118 503 
3 246 551 552 
3 666 233 232 
3 666 233 668 
3 666 575 232 
3 665 667 328 
3 665 672 328 
3 131 119 130 
3 131 446 132 
3 131 446 458 
3 131 458 459 
3 131 119 459 
3 120 119 121 
3 120 119 130 
3 120 520 121 
3 120 519 520 
3 122 459 123 
3 122 119 459 
3 122 119 121 
3 405 406 247 
3 611 120 130 
3 611 120 519 
3 244 520 121 
3 244 250 249 
3 244 122 121 
3 244 122 249 
3 248 122 123 
3 248 122 249 
3 248 256 124 
3 248 125 123 
3 248 124 125 
3 253 257 126 
3 253 322 126 
3 253 321 322 
3 253 321 554 
3 258 301 259 
3 258 310 303 
3 258 301 303 
3 439 440 413 
3 286 461 267 
3 127 128 282 
3 127 129 281 
3 127 282 281 
3 127 129 604 
3 127 128 604 
3 443 449 452 
3 443 449 262 
3 443 439 262 
3 280 611 584 
3 280 611 130 
3 280 131 132 
3 280 131 130 
3 280 447 132 
3 280 435 447 
3 437 435 447 
3 429 284 432 
3 429 284 430 
3 455 432 456 
3 455 284 432 
3 285 430 153 
3 285 284 430 
3 285 153 445 
3 133 137 219 
3 133 137 138 
3 133 138 134 
3 133 219 135 
3 133 134 135 
3 136 629 163 
3 136 137 163 
3 136 137 138 
3 136 624 629 
3 136 624 138 
3 533 534 287 
3 669 139 618 
3 669 139 290 
3 291 292 140 
3 291 466 619 
3 291 141 619 
3 291 141 140 
3 468 470 296 
3 142 143 144 
3 142 145 143 
3 142 146 144 
3 142 146 147 
3 142 148 149 
3 142 148 147 
3 142 150 149 
3 142 145 150 
3 151 450 157 
3 151 152 157 
3 151 283 450 
3 151 153 283 
3 151 154 278 
3 151 153 278 
3 151 155 154 
3 151 152 155 
3 156 161 157 
3 156 160 161 
3 156 158 157 
3 156 160 158 
3 159 160 161 
3 159 298 160 
3 159 298 261 
3 159 262 261 
3 159 262 161 
3 300 162 299 
3 300 303 305 
3 300 306 305 
3 300 162 306 
3 300 301 303 
3 479 630 163 
3 479 630 690 
3 479 165 163 
3 479 164 165 
3 471 479 478 
3 471 479 164 
3 289 216 288 
3 289 471 532 
3 289 471 164 
3 289 165 216 
3 289 164 165 
3 475 674 675 
3 313 312 166 
3 313 315 167 
3 313 167 168 
3 313 166 168 
3 169 376 335 
3 169 325 335 
3 169 376 375 
3 169 234 375 
3 169 325 233 
3 169 234 233 
3 671 233 668 
3 671 325 233 
3 680 681 317 
3 546 172 187 
3 546 480 172 
3 682 334 326 
3 682 334 170 
3 682 684 170 
3 171 324 172 
3 171 323 324 
3 171 173 187 
3 171 172 187 
3 171 322 173 
3 171 323 322 
3 174 175 176 
3 174 188 177 
3 174 188 176 
3 174 175 178 
3 174 179 177 
3 174 179 178 
3 331 647 655 
3 331 180 655 
3 331 180 622 
3 181 635 182 
3 181 486 635 
3 494 181 182 
3 494 183 182 
3 494 184 183 
3 494 493 185 
3 494 184 185 
3 494 181 486 
3 488 330 487 
3 490 493 186 
3 490 545 548 
3 490 186 187 
3 490 546 187 
3 490 545 546 
3 336 231 189 
3 337 333 188 
3 337 190 236 
3 337 190 188 
3 337 189 236 
3 337 336 189 
3 591 383 338 
3 591 190 589 
3 591 190 236 
3 556 495 662 
3 556 557 662 
3 343 660 191 
3 343 497 660 
3 343 191 342 
3 192 193 194 
3 192 229 228 
3 192 229 194 
3 192 195 228 
3 192 193 195 
3 201 206 196 
3 201 200 206 
3 201 229 196 
3 201 229 359 
3 197 367 359 
3 197 198 199 
3 197 200 198 
3 197 201 359 
3 197 201 200 
3 197 202 199 
3 197 202 367 
3 346 203 204 
3 346 205 204 
3 346 203 347 
3 346 205 206 
3 346 208 206 
3 348 207 351 
3 348 208 207 
3 348 346 208 
3 209 210 211 
3 209 212 211 
3 209 212 213 
3 209 210 214 
3 209 215 213 
3 209 215 214 
3 355 216 217 
3 355 218 216 
3 355 219 217 
3 355 220 219 
3 355 220 356 
3 355 218 354 
3 420 286 267 
3 420 421 500 
3 505 221 503 
3 505 221 224 
3 505 363 224 
3 505 363 364 
3 505 506 364 
3 385 222 384 
3 385 223 222 
3 385 370 386 
3 385 223 370 
3 362 224 225 
3 362 372 225 
3 362 363 224 
3 362 372 373 
3 369 226 227 
3 369 372 226 
3 369 370 227 
3 374 371 228 
3 374 229 228 
3 374 360 229 
3 377 231 376 
3 377 231 394 
3 395 380 396 
3 230 376 335 
3 230 231 376 
3 230 336 335 
3 230 336 231 
3 559 380 507 
3 382 575 232 
3 382 233 232 
3 382 234 233 
3 382 509 375 
3 382 234 375 
3 235 389 236 
3 235 389 383 
3 235 591 236 
3 235 591 383 
3 391 389 383 
3 237 238 239 
3 237 240 239 
3 237 240 507 
3 237 508 507 
3 237 238 562 
3 237 508 562 
3 241 562 242 
3 241 517 242 
3 241 561 562 
3 241 517 561 
3 513 517 561 
3 513 578 561 
3 686 667 481 
3 574 688 575 
3 574 688 603 
3 402 246 247 
3 402 405 247 
3 402 246 551 
3 408 410 407 
3 243 250 406 
3 243 244 250 
3 243 244 520 
3 243 408 520 
3 243 408 406 
3 245 552 554 
3 245 253 554 
3 245 253 254 
3 251 245 552 
3 251 245 254 
3 251 246 247 
3 251 246 552 
3 251 406 247 
3 251 250 406 
3 255 248 249 
3 255 248 256 
3 255 250 249 
3 255 251 250 
3 255 251 254 
3 252 253 254 
3 252 255 256 
3 252 255 254 
3 252 256 257 
3 252 253 257 
3 269 310 309 
3 269 258 310 
3 269 423 309 
3 269 414 259 
3 269 258 259 
3 269 414 416 
3 412 439 413 
3 412 414 259 
3 412 260 261 
3 412 259 260 
3 412 262 261 
3 412 439 262 
3 266 286 287 
3 266 263 287 
3 266 263 264 
3 266 499 264 
3 265 499 500 
3 265 420 500 
3 265 420 286 
3 265 266 499 
3 265 266 286 
3 419 462 604 
3 419 420 267 
3 419 461 267 
3 419 462 461 
3 268 416 426 
3 268 423 426 
3 268 269 416 
3 268 269 423 
3 425 523 604 
3 425 523 424 
3 270 523 424 
3 270 674 523 
3 270 475 424 
3 270 475 674 
3 527 273 271 
3 527 271 428 
3 529 433 272 
3 529 530 272 
3 279 527 526 
3 279 527 273 
3 279 274 275 
3 279 274 277 
3 279 275 276 
3 279 273 276 
3 431 277 278 
3 431 430 278 
3 431 279 277 
3 431 279 526 
3 606 280 584 
3 606 280 435 
3 606 436 607 
3 442 437 452 
3 441 607 281 
3 441 436 607 
3 441 282 281 
3 441 282 440 
3 451 283 445 
3 451 437 447 
3 451 283 450 
3 451 437 452 
3 454 455 284 
3 454 446 458 
3 454 285 445 
3 454 285 284 
3 460 286 461 
3 460 286 287 
3 460 533 287 
3 531 534 288 
3 531 289 288 
3 531 289 532 
3 677 669 290 
3 677 290 627 
3 465 291 292 
3 465 292 293 
3 465 294 293 
3 465 291 466 
3 465 294 469 
3 467 670 678 
3 467 466 670 
3 467 625 678 
3 467 295 625 
3 467 295 296 
3 467 468 296 
3 297 298 299 
3 297 300 299 
3 297 298 301 
3 297 300 301 
3 537 471 532 
3 302 474 303 
3 302 476 474 
3 302 303 305 
3 302 476 305 
3 304 476 305 
3 304 476 631 
3 304 306 305 
3 304 307 306 
3 304 628 631 
3 304 628 307 
3 692 475 675 
3 308 475 424 
3 308 423 309 
3 308 423 424 
3 308 475 474 
3 308 310 309 
3 308 474 310 
3 311 632 312 
3 311 313 312 
3 311 632 314 
3 311 315 314 
3 311 313 315 
3 316 672 328 
3 316 320 328 
3 316 680 317 
3 316 680 672 
3 316 324 317 
3 316 320 324 
3 318 320 328 
3 318 320 555 
3 318 483 328 
3 318 483 555 
3 319 320 555 
3 319 321 554 
3 319 555 554 
3 319 321 322 
3 319 323 322 
3 319 323 324 
3 319 320 324 
3 679 325 326 
3 679 671 325 
3 679 682 326 
3 327 667 481 
3 327 483 481 
3 327 667 328 
3 327 483 328 
3 484 482 551 
3 329 330 647 
3 329 331 647 
3 329 331 622 
3 329 488 622 
3 329 488 330 
3 492 494 486 
3 549 621 622 
3 549 488 622 
3 332 333 334 
3 332 334 335 
3 332 336 335 
3 332 337 333 
3 332 337 336 
3 592 591 338 
3 592 339 344 
3 592 339 338 
3 592 496 344 
3 340 341 342 
3 340 343 342 
3 340 341 344 
3 340 496 344 
3 340 343 497 
3 340 496 497 
3 345 346 347 
3 345 348 346 
3 345 347 349 
3 345 350 349 
3 345 350 351 
3 345 348 351 
3 352 353 354 
3 352 355 354 
3 352 353 356 
3 352 355 356 
3 397 515 514 
3 397 357 515 
3 397 421 398 
3 397 421 500 
3 397 357 500 
3 504 357 500 
3 504 357 515 
3 358 362 366 
3 358 362 373 
3 358 366 359 
3 358 360 359 
3 358 374 373 
3 358 374 360 
3 361 362 363 
3 361 364 365 
3 361 363 364 
3 361 362 366 
3 361 367 365 
3 361 366 367 
3 368 369 370 
3 368 370 371 
3 368 372 373 
3 368 369 372 
3 368 374 371 
3 368 374 373 
3 378 510 375 
3 378 376 375 
3 378 377 376 
3 378 377 394 
3 378 381 394 
3 511 559 572 
3 511 559 381 
3 511 378 510 
3 511 378 381 
3 379 559 380 
3 379 559 381 
3 379 395 380 
3 379 395 394 
3 379 381 394 
3 573 509 512 
3 573 382 509 
3 573 382 575 
3 392 383 384 
3 392 391 383 
3 392 385 386 
3 392 385 384 
3 392 387 386 
3 392 387 393 
3 388 389 390 
3 388 391 389 
3 388 392 393 
3 388 392 391 
3 388 394 390 
3 388 395 394 
3 388 396 393 
3 388 395 396 
3 579 397 514 
3 579 397 398 
3 579 398 604 
3 685 666 575 
3 685 688 575 
3 399 407 604 
3 399 400 604 
3 399 405 407 
3 399 402 405 
3 399 402 400 
3 403 581 604 
3 403 400 604 
3 403 402 400 
3 403 581 482 
3 583 518 481 
3 583 581 482 
3 687 686 481 
3 687 518 481 
3 401 482 551 
3 401 402 551 
3 401 403 482 
3 401 403 402 
3 404 405 406 
3 404 408 406 
3 404 405 407 
3 404 408 407 
3 521 408 520 
3 521 522 409 
3 521 410 409 
3 521 408 410 
3 411 412 413 
3 411 412 414 
3 411 415 413 
3 411 415 416 
3 411 414 416 
3 417 418 604 
3 417 419 604 
3 417 419 420 
3 417 421 418 
3 417 420 421 
3 540 427 604 
3 540 543 604 
3 540 538 427 
3 463 462 604 
3 463 543 604 
3 422 423 424 
3 422 425 424 
3 422 423 426 
3 422 426 604 
3 422 425 604 
3 586 673 472 
3 586 538 472 
3 586 538 427 
3 586 427 604 
3 528 530 428 
3 528 527 428 
3 525 429 430 
3 525 431 430 
3 525 432 433 
3 525 429 432 
3 525 529 433 
3 525 431 526 
3 434 606 435 
3 434 606 436 
3 434 437 435 
3 434 442 437 
3 434 441 436 
3 434 441 442 
3 438 439 440 
3 438 441 440 
3 438 441 442 
3 438 443 439 
3 438 443 452 
3 438 442 452 
3 444 451 445 
3 444 454 445 
3 444 454 446 
3 444 446 447 
3 444 451 447 
3 448 449 450 
3 448 451 450 
3 448 449 452 
3 448 451 452 
3 453 454 455 
3 453 456 457 
3 453 455 456 
3 453 454 458 
3 453 459 457 
3 453 458 459 
3 535 460 461 
3 535 460 533 
3 535 462 461 
3 535 463 462 
3 535 542 543 
3 535 463 543 
3 464 465 466 
3 464 467 466 
3 464 467 468 
3 464 465 469 
3 464 470 469 
3 464 468 470 
3 477 471 478 
3 477 537 471 
3 477 673 676 
3 477 673 472 
3 477 538 472 
3 477 537 538 
3 539 537 532 
3 473 476 474 
3 473 692 476 
3 473 475 474 
3 473 692 475 
3 689 692 476 
3 689 476 631 
3 691 477 478 
3 691 477 676 
3 691 479 478 
3 691 479 690 
3 547 683 681 
3 547 480 681 
3 547 546 480 
3 485 483 481 
3 485 583 481 
3 485 484 482 
3 485 583 482 
3 553 483 555 
3 553 484 551 
3 553 485 483 
3 553 485 484 
3 491 486 487 
3 491 492 486 
3 491 488 487 
3 491 549 548 
3 491 549 488 
3 489 490 548 
3 489 491 548 
3 489 491 492 
3 489 490 493 
3 489 494 493 
3 489 492 494 
3 558 556 495 
3 558 592 496 
3 558 497 495 
3 558 496 497 
3 498 499 500 
3 498 504 500 
3 498 499 501 
3 498 506 501 
3 498 504 506 
3 502 515 503 
3 502 504 515 
3 502 505 503 
3 502 505 506 
3 502 504 506 
3 569 559 507 
3 569 508 507 
3 568 508 562 
3 568 569 508 
3 599 509 512 
3 599 509 510 
3 599 511 510 
3 599 511 572 
3 602 597 604 
3 594 567 604 
3 594 570 567 
3 596 602 597 
3 596 573 512 
3 596 599 512 
3 577 513 578 
3 577 579 514 
3 577 515 516 
3 577 515 514 
3 577 517 516 
3 577 513 517 
3 563 578 561 
3 563 578 604 
3 563 564 604 
3 565 567 604 
3 565 564 604 
3 565 568 567 
3 582 583 518 
3 582 687 518 
3 610 611 519 
3 610 519 520 
3 610 521 520 
3 610 522 613 
3 610 521 522 
3 696 674 523 
3 696 523 604 
3 524 525 526 
3 524 527 526 
3 524 528 527 
3 524 525 529 
3 524 529 530 
3 524 528 530 
3 541 531 532 
3 541 539 532 
3 541 533 534 
3 541 531 534 
3 541 535 533 
3 541 535 542 
3 536 537 538 
3 536 539 537 
3 536 540 538 
3 536 541 542 
3 536 541 539 
3 536 542 543 
3 536 540 543 
3 544 545 546 
3 544 547 546 
3 544 693 683 
3 544 547 683 
3 544 545 548 
3 544 549 548 
3 544 693 621 
3 544 549 621 
3 550 551 552 
3 550 553 551 
3 550 552 554 
3 550 555 554 
3 550 553 555 
3 590 556 557 
3 590 558 556 
3 590 557 588 
3 590 558 592 
3 571 559 572 
3 571 569 559 
3 571 569 570 
3 560 561 562 
3 560 568 562 
3 560 563 561 
3 560 563 564 
3 560 565 564 
3 560 565 568 
3 566 570 567 
3 566 568 567 
3 566 569 570 
3 566 568 569 
3 598 594 570 
3 598 571 572 
3 598 571 570 
3 598 599 572 
3 601 596 573 
3 601 574 575 
3 601 573 575 
3 601 574 603 
3 601 596 602 
3 576 577 578 
3 576 577 579 
3 576 578 604 
3 576 579 604 
3 698 582 604 
3 698 582 687 
3 580 581 604 
3 580 582 604 
3 580 583 581 
3 580 582 583 
3 612 606 584 
3 612 611 584 
3 612 585 608 
3 612 585 613 
3 695 586 673 
3 695 586 604 
3 695 696 604 
3 587 588 589 
3 587 590 588 
3 587 591 589 
3 587 592 591 
3 587 590 592 
3 593 598 597 
3 593 598 594 
3 593 597 604 
3 593 594 604 
3 595 596 597 
3 595 598 597 
3 595 596 599 
3 595 598 599 
3 600 601 603 
3 600 601 602 
3 600 603 604 
3 600 602 604 
3 697 603 604 
3 697 698 604 
3 697 688 603 
3 605 606 607 
3 605 612 606 
3 605 607 608 
3 605 612 608 
3 609 610 611 
3 609 612 611 
3 609 610 613 
3 609 612 613 
3 614 615 616 
3 614 617 616 
3 618 614 617 
3 618 614 619 
3 620 621 622 
3 620 622 623 
3 624 625 626 
3 624 625 627 
3 628 624 626 
3 628 624 629 
3 628 630 631 
3 628 630 629 
3 632 633 634 
3 632 635 636 
3 632 637 638 
3 632 639 640 
3 632 641 642 
3 632 643 644 
3 632 645 646 
3 632 647 636 
3 632 648 646 
3 632 615 634 
3 632 649 650 
3 632 637 651 
3 632 652 653 
3 632 654 650 
3 632 615 616 
3 632 649 655 
3 632 641 656 
3 632 644 657 
3 632 648 616 
3 632 645 658 
3 632 633 657 
3 632 659 653 
3 632 660 661 
3 632 661 662 
3 632 643 638 
3 632 652 658 
3 632 659 656 
3 632 639 651 
3 632 663 664 
3 632 647 655 
3 632 635 664 
3 632 654 662 
3 632 660 642 
3 665 666 667 
3 665 666 668 
3 669 618 619 
3 669 670 619 
3 671 665 668 
3 671 665 672 
3 673 674 675 
3 673 676 675 
3 677 669 670 
3 677 670 678 
3 677 625 627 
3 677 625 678 
3 679 671 672 
3 679 680 672 
3 679 680 681 
3 679 682 681 
3 683 682 681 
3 683 682 684 
3 685 666 667 
3 685 686 667 
3 687 685 686 
3 687 685 688 
3 689 630 631 
3 689 630 690 
3 691 676 675 
3 691 692 675 
3 691 689 690 
3 691 689 692 
3 693 620 621 
3 693 620 694 
3 693 683 684 
3 693 684 694 
3 695 673 674 
3 695 696 674 
3 697 687 688 
3 697 698 687 
