ply
format ascii 1.0
comment VCGLIB generated
element vertex 54
property float x
property float y
property float z
element face 104
property list uchar int vertex_indices
end_header
-0.0098 -0.01345 0.0313 
0.0098 -0.01345 0.0313 
0.0098 0.01355 0.0313 
-0.0098 0.01355 0.0313 
-0.0098 -0.01075 -0.0038 
-0.0098 -0.01345 0.013 
-0.0098 0.01355 0.013 
-0.0098 0.01105 -0.0038 
0.0048 -0.01075 -0.0088 
0.0048 -0.01345 0.008 
0.00634508 -0.01345 0.00824472 
0.00634508 -0.01075 -0.00855528 
-0.000574906 -0.01135 -0.00546987 
0.000574906 -0.01135 -0.00546987 
-0.0048 -0.01075 -0.0088 
-0.0048 -0.01345 0.008 
0.00773893 -0.01345 0.00895492 
0.00773893 -0.01075 -0.00784509 
0.0048 0.01105 -0.0088 
0.00634508 0.01105 -0.00855528 
-0.0048 0.01105 -0.0088 
0.00773893 0.01105 -0.00784509 
0.00884509 0.01355 0.0100611 
0.00773893 0.01355 0.00895492 
0.00884509 0.01105 -0.00673893 
0.00884509 -0.01075 -0.00673893 
0.0098 0.01105 -0.0038 
0.0098 0.01355 0.013 
0.0098 -0.01345 0.013 
0.0098 -0.01075 -0.0038 
0.00884509 -0.01345 0.0100611 
0.0048 0.01355 0.008 
-0.0048 0.01355 0.008 
-0.00634508 0.01355 0.00824472 
-0.00634508 0.01105 -0.00855528 
0.00955528 0.01105 -0.00534509 
0.00955528 -0.01075 -0.00534509 
-0.00634508 -0.01075 -0.00855528 
-0.00634508 -0.01345 0.00824472 
-0.00773893 -0.01345 0.00895492 
-0.00773893 -0.01075 -0.00784509 
-0.00773893 0.01105 -0.00784509 
-0.00884509 -0.01345 0.0100611 
0.00955528 -0.01345 0.0114549 
-0.00955528 -0.01345 0.0114549 
-0.00955528 -0.01075 -0.00534509 
-0.00955528 0.01105 -0.00534509 
0.00634508 0.01355 0.00824472 
-0.00773893 0.01355 0.00895492 
0.00955528 0.01355 0.0114549 
-0.00955528 0.01355 0.0114549 
-0.00884509 0.01355 0.0100611 
-0.00884509 0.01105 -0.00673893 
-0.00884509 -0.01075 -0.00673893 
3 43 28 29 
3 43 29 36 
3 8 13 9 
3 12 15 14 
3 25 43 36 
3 22 24 49 
3 26 49 27 
3 44 4 5 
3 30 25 43 
3 35 24 49 
3 35 26 49 
3 45 44 4 
3 50 52 51 
3 50 46 52 
3 50 6 7 
3 50 46 7 
3 53 42 44 
3 53 45 44 
3 0 1 2 
3 0 3 2 
3 4 0 5 
3 4 6 3 
3 4 0 3 
3 4 6 7 
3 8 9 10 
3 8 11 10 
3 12 8 13 
3 12 8 14 
3 12 9 15 
3 12 13 9 
3 16 11 10 
3 16 17 11 
3 18 8 11 
3 18 11 19 
3 18 8 14 
3 18 20 14 
3 21 22 23 
3 21 22 24 
3 21 17 11 
3 21 11 19 
3 21 25 17 
3 21 25 24 
3 26 2 27 
3 26 1 2 
3 26 28 29 
3 26 28 1 
3 30 16 17 
3 30 25 17 
3 31 18 20 
3 31 32 20 
3 33 32 20 
3 33 20 34 
3 35 25 24 
3 35 25 36 
3 35 26 29 
3 35 29 36 
3 37 38 15 
3 37 15 14 
3 37 38 39 
3 37 39 40 
3 37 20 14 
3 37 20 34 
3 37 41 34 
3 37 41 40 
3 42 9 10 
3 42 0 1 
3 42 43 28 
3 42 0 5 
3 42 9 15 
3 42 28 1 
3 42 38 39 
3 42 30 16 
3 42 16 10 
3 42 38 15 
3 42 44 5 
3 42 30 43 
3 45 4 7 
3 45 46 7 
3 47 21 23 
3 47 21 19 
3 47 18 19 
3 47 31 18 
3 48 2 27 
3 48 3 2 
3 48 33 32 
3 48 31 32 
3 48 49 27 
3 48 6 3 
3 48 22 49 
3 48 22 23 
3 48 50 6 
3 48 47 31 
3 48 50 51 
3 48 47 23 
3 48 52 51 
3 48 41 52 
3 48 33 34 
3 48 41 34 
3 53 39 40 
3 53 42 39 
3 53 41 40 
3 53 41 52 
3 53 45 46 
3 53 46 52 
