ply
format ascii 1.0
comment VCGLIB generated
element vertex 77
property float x
property float y
property float z
end_header
-7.31463e-15 -0.01145 0.0439 
0.0048 -0.01085 0.0472 
0.0048 0.01095 0.0472 
-0.0048 -0.01085 0.0472 
-0.0048 0.01095 0.0472 
0.0048 0.01345 0.0304 
-0.0048 0.01345 0.0304 
0.00955528 -0.01085 0.0437451 
0.0098 -0.01085 0.0422 
0.0098 0.01095 0.0422 
0.00955528 0.01095 0.0437451 
0.0098 0.01345 0.0254 
0.0098 0.01345 0.0077 
0.0098 -0.01355 0.0077 
0.0098 -0.01355 0.0254 
0.00357798 0.01345 -0.00394057 
0.00569949 -0.01355 -0.00219949 
0.00357798 -0.01355 -0.00394057 
0.00569949 0.01345 -0.00219949 
0.00115757 -0.01355 -0.00523431 
0.00115757 0.01345 -0.00523431 
-0.00955528 -0.01085 0.0437451 
-0.0098 0.01095 0.0422 
-0.0098 -0.01085 0.0422 
-0.00955528 0.01095 0.0437451 
-0.00884509 0.01095 0.0451389 
-0.00884509 -0.01085 0.0451389 
0.00634508 -0.01085 0.0469553 
0.00634508 -0.01355 0.0301553 
0.0048 -0.01355 0.0304 
-0.0098 0.01345 0.0254 
-0.0098 -0.01355 0.0254 
-0.0098 -0.01355 -0.0033 
-0.0098 0.01345 -0.0033 
0.00884509 -0.01085 0.0451389 
0.00884509 0.01095 0.0451389 
0.00773893 0.01095 0.0462451 
0.00773893 -0.01085 0.0462451 
0.00953099 0.01345 0.00496874 
0.00953099 -0.01355 0.00496874 
0.00873431 -0.01355 0.00234243 
0.00873431 0.01345 0.00234243 
-0.00146874 0.01345 -0.00603099 
-0.00146874 -0.01355 -0.00603099 
-0.0042 -0.01355 -0.0063 
-0.0042 0.01345 -0.0063 
0.00744057 0.01345 -7.79833e-05 
0.00744057 -0.01355 -7.79833e-05 
-0.00634508 -0.01085 0.0469553 
-0.0048 -0.01355 0.0304 
-0.00634508 -0.01355 0.0301553 
-0.00634508 0.01095 0.0469553 
0.00634508 0.01095 0.0469553 
0.00634508 0.01345 0.0301553 
-0.00892132 0.01345 -0.00542132 
-0.00892132 -0.01355 -0.00542132 
-0.00794805 -0.01355 -0.00607164 
-0.00794805 0.01345 -0.00607164 
0.00884509 -0.01355 0.0283389 
-0.00957164 -0.01355 -0.00444805 
-0.00773893 -0.01355 0.0294451 
0.00773893 -0.01355 0.0294451 
-0.00955528 -0.01355 0.0269451 
0.00955528 -0.01355 0.0269451 
-0.0068 -0.01355 -0.0063 
-0.00884509 -0.01355 0.0283389 
-0.0068 0.01345 -0.0063 
-0.00773893 -0.01085 0.0462451 
-0.00773893 0.01095 0.0462451 
-0.00957164 0.01345 -0.00444805 
-0.00634508 0.01345 0.0301553 
-0.00773893 0.01345 0.0294451 
-0.00884509 0.01345 0.0283389 
0.00955528 0.01345 0.0269451 
0.00773893 0.01345 0.0294451 
0.00884509 0.01345 0.0283389 
-0.00955528 0.01345 0.0269451 