ply
format ascii 1.0
comment VCGLIB generated
element vertex 99
property float x
property float y
property float z
end_header
9.83767e-16 -0.01145 -0.0055 
-0.00955528 -0.01085 -0.00534509 
-0.00955528 0.01095 -0.00534509 
-0.00884509 0.01095 -0.00673893 
-0.00884509 -0.01085 -0.00673893 
-0.0098 0.01095 -0.0038 
-0.0098 -0.01085 -0.0038 
0.00955528 0.01095 -0.00534509 
0.0098 0.01095 -0.0038 
0.0098 -0.01085 -0.0038 
0.00955528 -0.01085 -0.00534509 
0.00634508 0.01095 -0.00855528 
0.00634508 -0.01085 -0.00855528 
0.00773893 -0.01085 -0.00784509 
0.00773893 0.01095 -0.00784509 
-0.0048 0.01345 0.008 
0.0048 0.01345 0.008 
0.0048 0.01095 -0.0088 
-0.0048 0.01095 -0.0088 
-0.00634508 -0.01085 -0.00855528 
-0.00634508 0.01095 -0.00855528 
-0.0048 -0.01085 -0.0088 
-0.0048 -0.01355 0.008 
-0.00634508 -0.01355 0.00824472 
0.00634508 -0.01355 0.0457553 
0.00773893 -0.01355 0.0450451 
0.00634508 -0.01085 0.0625553 
0.00773893 -0.01085 0.0618451 
0.00773893 -0.01355 0.00895492 
0.00634508 -0.01355 0.00824472 
0.0048 -0.01085 -0.0088 
0.00634508 0.01345 0.00824472 
0.00773893 0.01345 0.00895492 
-0.00773893 -0.01085 -0.00784509 
-0.00773893 0.01095 -0.00784509 
0.0048 -0.01355 0.008 
0.00884509 -0.01355 0.0100611 
0.00884509 -0.01085 -0.00673893 
0.00884509 0.01095 -0.00673893 
0.00884509 0.01345 0.0100611 
0.0098 0.01345 0.041 
0.0098 0.01095 0.0578 
0.0098 -0.01085 0.0578 
0.0098 -0.01355 0.013 
0.0098 -0.01355 0.041 
0.0098 0.01345 0.013 
-0.00634508 -0.01085 0.0625553 
-0.00634508 -0.01355 0.0457553 
-0.00773893 -0.01355 0.0450451 
-0.00773893 -0.01085 0.0618451 
-0.000689333 -0.01145 0.0594566 
0.0048 -0.01355 0.046 
-0.0048 -0.01355 0.046 
0.000689333 -0.01145 0.0594566 
-0.0048 -0.01085 0.0628 
0.0048 -0.01085 0.0628 
-0.00884509 0.01345 0.0100611 
-0.00773893 0.01345 0.00895492 
-0.00634508 0.01345 0.00824472 
-0.00773893 -0.01355 0.00895492 
0.00955528 -0.01355 0.0425451 
-0.00955528 -0.01355 0.0114549 
-0.00884509 -0.01355 0.0100611 
0.00955528 -0.01355 0.0114549 
0.00884509 -0.01355 0.0439389 
-0.00884509 -0.01355 0.0439389 
-0.0098 -0.01355 0.013 
-0.0098 -0.01355 0.041 
-0.00955528 -0.01355 0.0425451 
0.0048 0.01095 0.0628 
0.00634508 0.01095 0.0625553 
-0.0098 0.01095 0.0578 
-0.0098 -0.01085 0.0578 
-0.0098 0.01345 0.013 
-0.0098 0.01345 0.041 
-0.00955528 -0.01085 0.0593451 
-0.00955528 0.01095 0.0593451 
-0.00884509 0.01095 0.0607389 
-0.00884509 -0.01085 0.0607389 
-0.0048 0.01095 0.0628 
-0.00634508 0.01095 0.0625553 
0.0048 0.01345 0.046 
-0.0048 0.01345 0.046 
0.00955528 0.01095 0.0593451 
0.00955528 -0.01085 0.0593451 
0.00884509 -0.01085 0.0607389 
0.00884509 0.01095 0.0607389 
-0.00773893 0.01095 0.0618451 
-0.00634508 0.01345 0.0457553 
-0.00773893 0.01345 0.0450451 
0.00773893 0.01345 0.0450451 
0.00955528 0.01345 0.0114549 
0.00955528 0.01345 0.0425451 
-0.00884509 0.01345 0.0439389 
-0.00955528 0.01345 0.0114549 
0.00634508 0.01345 0.0457553 
-0.00955528 0.01345 0.0425451 
0.00884509 0.01345 0.0439389 
0.00773893 0.01095 0.0618451 