ply
format ascii 1.0
comment VCGLIB generated
element vertex 773
property float x
property float y
property float z
end_header
-1.65874e-14 -0.012 -0.011 
-0.0042165 -0.0112348 -0.011 
0.00615479 -0.0103014 -0.011 
-0.00789526 -0.00903686 -0.011 
0.0052066 0.0108116 -0.011 
-0.0100149 0.00661076 -0.011 
-0.0114127 -0.0037082 -0.011 
-0.00705342 0.0097082 -0.011 
-0.0052066 0.0108116 -0.011 
0.00705342 0.0097082 -0.011 
0.00867354 0.00829275 -0.011 
0.0100149 0.00661076 -0.011 
0.0116991 0.00267025 -0.011 
0.0119879 0.000538378 -0.011 
0.0118914 -0.0016108 -0.011 
-0.0110343 0.0047163 -0.011 
0.0105671 -0.00568642 -0.011 
0.00938198 -0.00748188 -0.011 
0.00789526 -0.00903686 -0.011 
0.000753486 -0.0119763 -2.65523e-17 
0.00214268 -0.0118072 -0.011 
0.00224858 -0.0117874 -4.17825e-17 
0.0042165 -0.0112348 -0.011 
0.0037082 -0.0114127 -5.67915e-17 
0.00788435 -0.00902523 -1.00701e-16 
0.00764909 -0.00924616 -9.81637e-17 
0.00642992 -0.0101319 -8.52061e-17 
0.00510935 -0.0108579 -7.13425e-17 
0.00874762 -0.00821456 -1.10011e-16 
0.0097082 -0.00705342 -1.20561e-16 
0.0105157 -0.00578104 -1.29647e-16 
0.0114127 -0.0037082 -0.011 
0.011623 -0.00298428 -1.42882e-16 
0.0113902 -0.00370089 -1.40004e-16 
0.0111573 -0.00441749 -1.37127e-16 
0.012 4.70928e-16 -1.48882e-16 
0.0119054 -0.001504 -1.46821e-16 
0.0119662 0.000537013 -1.48936e-16 
0.0119054 0.001504 -1.49033e-16 
0.0116835 0.00266726 -1.47649e-16 
0.011623 0.00298428 -1.47272e-16 
0.0111573 0.00441749 -1.43625e-16 
0.0105157 0.00578104 -1.38152e-16 
0.0110343 0.0047163 -0.011 
0.0110199 0.00470951 -1.42453e-16 
0.00866924 0.00828817 -1.21358e-16 
0.00874762 0.00821456 -1.22095e-16 
0.0097082 0.00705342 -1.30937e-16 
0.00999652 0.00659911 -1.33513e-16 
0.00764909 0.00924616 -1.11765e-16 
0.00642992 0.0101319 -1.00111e-16 
0.00520358 0.0108061 -8.82279e-17 
0.00510935 0.0108579 -8.7315e-17 
0.00319244 0.0115676 -0.011 
0.0037082 0.0114127 -7.358e-17 
-0.00107367 0.0119359 -2.56972e-17 
-0.000753486 0.0119763 -2.89588e-17 
-0.00107567 0.0119517 -0.011 
0.00107567 0.0119517 -0.011 
0.000753486 0.0119763 -4.417e-17 
0.00224858 0.0117874 -5.91223e-17 
-0.00224858 0.0117874 -1.37287e-17 
-0.0037082 0.0114127 1.28031e-18 
-0.00319244 0.0115676 -0.011 
-0.00510935 0.0108579 1.58314e-17 
-0.00764909 0.00924616 4.26525e-17 
-0.00642992 0.0101319 2.96949e-17 
-0.0097082 0.00705342 6.505e-17 
-0.00874762 0.00821456 5.44998e-17 
-0.00866924 0.00828817 5.36544e-17 
-0.00867354 0.00829275 -0.011 
-0.0105157 0.00578104 7.41363e-17 
-0.0110199 0.00470951 8.00139e-17 
-0.0111573 0.00441749 8.16157e-17 
-0.0116991 0.00267025 -0.011 
-0.0119879 0.000538378 -0.011 
-0.0119054 0.001504 9.13097e-17 
-0.011623 0.00298428 8.73705e-17 
-0.0118914 -0.0016108 -0.011 
-0.0119054 -0.001504 9.35222e-17 
-0.012 -4.23051e-16 9.33708e-17 
-0.0118852 -0.00160962 9.33963e-17 
-0.011623 -0.00298428 9.17605e-17 
-0.0113902 -0.00370089 8.99374e-17 
-0.0105671 -0.00568642 -0.011 
-0.0111573 -0.00441749 8.8114e-17 
-0.0105157 -0.00578104 8.26405e-17 
-0.0097082 -0.00705342 7.54259e-17 
-0.00874762 -0.00821456 6.65838e-17 
-0.00936522 -0.00746802 7.22685e-17 
-0.00938198 -0.00748188 -0.011 
-0.00614711 -0.0102874 4.18592e-17 
-0.00642992 -0.0101319 4.45994e-17 
-0.00615479 -0.0103014 -0.011 
-0.00764909 -0.00924616 5.6254e-17 
-0.00788435 -0.00902523 5.84664e-17 
-0.00510935 -0.0108579 3.18039e-17 
-0.0037082 -0.0114127 1.80689e-17 
-1.64773e-14 -0.012 -1.89293e-17 
-1.65903e-14 -0.012 -0.011 
-0.000753486 -0.0119763 -1.13411e-17 
-0.00214268 -0.0118072 -0.011 
-0.0021419 -0.0118009 2.54424e-18 
-0.00224858 -0.0117874 3.61118e-18 
-0.011623 -0.00298428 9.17374e-17 
0.0111573 -0.00441749 -1.38545e-16 
0.011623 -0.00298428 -1.44328e-16 
-0.00134487 0.00053247 0.0119125 
-0.000271036 -0.00142082 0.0119125 
0.000921996 0.0011145 0.0119125 
-0.001401 0.000359715 0.0119125 
-0.00251657 0.00138349 0.0116513 
-0.00267012 0.00105718 0.0116513 
0.00105441 0.000990156 0.0119125 
-0.00131495 -0.00404699 0.0112202 
-0.000887431 -0.00273123 0.0116513 
-0.00344258 0.00250118 0.0112202 
-0.00126753 0.000696828 0.0119125 
0.00232333 0.00168799 0.0116513 
0.00372891 0.00204999 0.0112202 
0.00117019 0.000850196 0.0119125 
0.0027124 -0.00327873 0.0112202 
0.00209344 -0.00196587 0.0116513 
-0.000446975 -0.00137565 0.0119125 
-0.00310195 0.00291293 0.0112202 
-0.00232333 0.00168799 0.0116513 
-0.00117019 0.000850196 0.0119125 
-0.00209344 0.00196587 0.0116513 
-0.00105441 0.000990156 0.0119125 
0.00395644 0.00156647 0.0112202 
0.00251657 0.00138349 0.0116513 
0.00126753 0.000696828 0.0119125 
-0.00298813 -0.00470854 0.0106255 
-0.0018118 -0.00385027 0.0112202 
-0.00228008 -0.00359283 0.0112202 
-0.00122275 -0.00259847 0.0116513 
-0.00153878 -0.00242473 0.0116513 
-0.000615864 -0.00130878 0.0119125 
-0.00406522 0.0038175 0.0106255 
-0.00355471 0.0042969 0.0106255 
-0.00183055 0.00221275 0.0116513 
-0.000921996 0.0011145 0.0119125 
0.00660262 0.00169526 0.00987581 
0.00540148 0.00138686 0.0106255 
0.00518506 0.00205291 0.0106255 
0.00412157 0.00105824 0.0112202 
0.00267012 0.00105718 0.0116513 
0.00278157 0.000714185 0.0116513 
0.00134487 0.00053247 0.0119125 
-0.00365261 -0.00575559 0.00987581 
-0.00355471 -0.0042969 0.0106255 
-0.00183055 -0.00221275 0.0116513 
-0.000775041 -0.00122127 0.0119125 
-0.00426383 0.00671872 0.00898213 
-0.00507228 0.00613134 0.00898213 
-0.00434518 0.00525242 0.00987581 
-0.0027124 0.00327873 0.0112202 
-0.00228008 0.00359283 0.0112202 
0.00789472 0.000997336 0.00898213 
0.0055327 0.000698943 0.0106255 
0.001401 0.000359715 0.0119125 
0.00580075 -0.00544726 0.00898213 
-0.00580075 -0.00544726 0.00898213 
-0.00434518 -0.00525242 0.00987581 
-0.00310195 -0.00291293 0.0112202 
-0.0027124 -0.00327873 0.0112202 
-0.00209344 -0.00196587 0.0116513 
-0.00105441 -0.000990156 0.0119125 
-0.000921996 -0.0011145 0.0119125 
-0.0038244 0.00812727 0.00795747 
-0.00365261 0.00575559 0.00987581 
-0.00290244 0.006168 0.00987581 
-0.00298813 0.00470854 0.0106255 
-0.00153878 0.00242473 0.0116513 
-0.00122275 0.00259847 0.0116513 
-0.000775041 0.00122127 0.0119125 
-0.000615864 0.00130878 0.0119125 
0.00676302 0.000854369 0.00987581 
0.00681678 2.72065e-16 0.00987581 
0.0042217 0.000533325 0.0112202 
0.00425526 1.78765e-16 0.0112202 
0.00287179 1.28157e-16 0.0116513 
0.00284914 0.00035993 0.0116513 
0.00143503 0.000181287 0.0119125 
-0.00654769 -0.00614869 0.00795747 
-0.00496922 -0.0046664 0.00987581 
-0.00406522 -0.0038175 0.0106255 
-0.00551489 -0.0040068 0.00987581 
-0.00344258 -0.00250118 0.0112202 
-0.00232333 -0.00168799 0.0116513 
-0.00305179 0.00939245 0.00681678 
-0.00338813 0.00720014 0.00898213 
-0.00172329 0.00530374 0.0106255 
-0.00237443 0.00504593 0.0106255 
-0.0018118 0.00385027 0.0112202 
-0.000887431 0.00273123 0.0116513 
0.0105417 -0.00133172 0.00557668 
0.00987581 3.82417e-16 0.00681678 
0.00898213 3.5036e-16 0.00795747 
0.00795747 3.13396e-16 0.00898213 
0.00676302 -0.000854369 0.00987581 
0.00557668 2.26969e-16 0.0106255 
0.00144644 7.58827e-17 0.0119125 
-0.00931117 -0.00511886 0.00557668 
-0.00865423 -0.00475771 0.00681678 
-0.0079897 -0.00580485 0.00681678 
-0.0072667 -0.00527956 0.00795747 
-0.00643773 -0.00467728 0.00898213 
-0.00451163 -0.00327789 0.0106255 
-0.00488688 -0.00268659 0.0106255 
-0.00126753 -0.000696828 0.0119125 
-0.00117019 -0.000850196 0.0119125 
0.0102917 -0.00264245 0.00557668 
0.00979793 -0.00123777 0.00681678 
0.0089113 -0.00112576 0.00795747 
0.00789472 -0.000997336 0.00898213 
0.0055327 -0.000698943 0.0106255 
0.0042217 -0.000533325 0.0112202 
0.00412157 -0.00105824 0.0112202 
0.00284914 -0.00035993 0.0116513 
0.00143503 -0.000181287 0.0119125 
0.001401 -0.000359715 0.0119125 
-0.0078711 -0.00432717 0.00795747 
-0.00835137 -0.00330654 0.00795747 
-0.00697319 -0.00383354 0.00898213 
-0.00597359 -0.00328401 0.00987581 
-0.00518506 -0.00205291 0.0106255 
-0.00372891 -0.00204999 0.0112202 
-0.00251657 -0.00138349 0.0116513 
-0.00134487 -0.00053247 0.0119125 
-0.000704522 0.0111981 0.00425526 
-0.00210245 0.0110215 0.00425526 
0.0104323 -0.00413043 0.00425526 
0.00956554 -0.00245601 0.00681678 
0.00869994 -0.00223376 0.00795747 
0.00770747 -0.00197894 0.00898213 
0.00739867 -0.00292934 0.00898213 
0.00660262 -0.00169526 0.00987581 
0.00633808 -0.00250942 0.00987581 
0.00540148 -0.00138686 0.0106255 
0.00518506 -0.00205291 0.0106255 
0.00395644 -0.00156647 0.0112202 
0.00278157 -0.000714185 0.0116513 
0.00267012 -0.00105718 0.0116513 
-0.0108677 -0.00279035 0.00425526 
-0.0102917 -0.00264245 0.00557668 
-0.00987931 -0.0039115 0.00557668 
-0.00956554 -0.00245601 0.00681678 
-0.00918229 -0.00363553 0.00681678 
-0.00739867 -0.00292934 0.00898213 
-0.00869994 -0.00223376 0.00795747 
-0.00633808 -0.00250942 0.00987581 
-0.00660262 -0.00169526 0.00987581 
-0.00540148 -0.00138686 0.0106255 
-0.00395644 -0.00156647 0.0112202 
-0.00267012 -0.00105718 0.0116513 
-0.00412157 -0.00105824 0.0112202 
-0.00278157 -0.000714185 0.0116513 
0.0108331 -0.00428913 0.00287179 
0.00983233 -0.00540537 0.00425526 
0.00987931 -0.0039115 0.00557668 
0.00918229 -0.00363553 0.00681678 
0.00931117 -0.00511886 0.00557668 
0.00835137 -0.00330654 0.00795747 
0.0078711 -0.00432717 0.00795747 
0.00697319 -0.00383354 0.00898213 
0.00134487 -0.00053247 0.0119125 
-0.0112853 -0.00289756 0.00287179 
-0.0115594 -0.0014603 0.00287179 
-0.0105417 -0.00133172 0.00557668 
-0.00979793 -0.00123777 0.00681678 
-0.00770747 -0.00197894 0.00898213 
-0.0055327 -0.000698943 0.0106255 
-0.0042217 -0.000533325 0.0112202 
-0.001401 -0.000359715 0.0119125 
-0.00143503 -0.000181287 0.0119125 
-0.0115383 0.00296252 0.00144644 
-0.0115594 0.0014603 0.00287179 
-0.0102101 0.00561306 0.00287179 
-0.0108331 0.00428913 0.00287179 
-0.0102917 0.00264245 0.00557668 
-0.00979793 0.00123777 0.00681678 
-0.00963742 0.007002 0.00144644 
-0.00868384 0.00815467 0.00144644 
-0.00983233 0.00540537 0.00425526 
-0.0104323 0.00413043 0.00425526 
-0.00898213 -3.08156e-16 0.00795747 
-0.00742682 0.00897748 0.00287179 
-0.00817917 0.00768075 0.00425526 
-0.00865423 0.00475771 0.00681678 
-0.0079897 0.00580485 0.00681678 
-0.00835137 0.00330654 0.00795747 
-0.00770747 0.00197894 0.00898213 
-0.00660262 0.00169526 0.00987581 
-0.00676302 0.000854369 0.00987581 
-0.0055327 0.000698943 0.0106255 
-0.0037082 0.0114127 7.72512e-19 
-0.0050721 0.0107788 0.00144644 
-0.00496088 0.0105424 0.00287179 
-0.00624308 0.00983752 0.00287179 
-0.00715202 0.00864531 0.00425526 
-0.00774564 0.00727364 0.00557668 
-0.00677293 0.00818707 0.00557668 
-0.0072667 0.00527956 0.00795747 
-0.0078711 0.00432717 0.00795747 
-0.00697319 0.00383354 0.00898213 
-0.00739867 0.00292934 0.00898213 
-0.00540148 0.00138686 0.0106255 
-0.00425526 -1.33205e-16 0.0112202 
-0.000747992 0.011889 0.00144644 
-0.00218324 0.0114449 0.00287179 
-0.00346723 0.010671 0.00425526 
-0.00569341 0.00897138 0.00557668 
-0.00629508 0.00760944 0.00681678 
-0.00529172 0.00833842 0.00681678 
-0.00551489 0.0040068 0.00987581 
-0.00518506 0.00205291 0.0106255 
-0.00488688 0.00268659 0.0106255 
-0.00395644 0.00156647 0.0112202 
-0.00412157 0.00105824 0.0112202 
-0.00284914 0.00035993 0.0116513 
-0.00199101 0.0104373 0.00557668 
0.00510935 0.0108579 -8.83626e-17 
0.0050721 0.0107788 0.00144644 
0.00218324 0.0114449 0.00287179 
0.000704522 0.0111981 0.00425526 
0.000667179 0.0106045 0.00557668 
-0.000667179 0.0106045 0.00557668 
-0.000620107 0.00985632 0.00681678 
-0.00168308 0.00882303 0.00795747 
0.00868384 0.00815467 0.00144644 
0.00742682 0.00897748 0.00287179 
0.00601208 0.00947352 0.00425526 
0.00452411 0.00961422 0.00557668 
0.00305179 0.00939245 0.00681678 
0.000563993 0.0089644 0.00795747 
0.000499654 0.00794177 0.00898213 
-0.000428029 0.00680333 0.00987581 
0.00963742 0.007002 0.00144644 
0.00569341 0.00897138 0.00557668 
0.00420491 0.0089359 0.00681678 
0.00277563 0.00854251 0.00795747 
0.00168308 0.00882303 0.00795747 
0.000428029 0.00680333 0.00987581 
-0.000350163 0.00556567 0.0106255 
-0.00104497 0.0054779 0.0106255 
0.0102101 0.00561306 0.00287179 
0.010439 0.00573889 0.00144644 
0.00907733 0.00659506 0.00425526 
0.00817917 0.00768075 0.00425526 
0.00629508 0.00760944 0.00681678 
0.00481287 0.00758386 0.00795747 
0.00529172 0.00833842 0.00681678 
0.0038244 0.00812727 0.00795747 
0.00338813 0.00720014 0.00898213 
0.00245899 0.00756801 0.00898213 
0.00104497 0.0054779 0.0106255 
0.00127734 0.00669603 0.00987581 
0.000350163 0.00556567 0.0106255 
0.00026719 0.00424686 0.0112202 
-0.00026719 0.00424686 0.0112202 
-0.000180321 0.00286612 0.0116513 
-0.000538119 0.00282092 0.0116513 
-0.000271036 0.00142082 0.0119125 
0.0021065 0.00648314 0.00987581 
0.00426383 0.00671872 0.00898213 
0.00572542 0.00692085 0.00795747 
0.00774564 0.00727364 0.00557668 
0.011076 0.00438529 0.00144644 
0.011623 0.00298428 -1.48718e-16 
0.0115383 0.00296252 0.00144644 
0.0119125 4.53437e-16 0.00144644 
0.0115594 0.0014603 0.00287179 
0.0104323 0.00413043 0.00425526 
0.00931117 0.00511886 0.00557668 
0.00654769 0.00614869 0.00795747 
0.00580075 0.00544726 0.00898213 
0.00434518 0.00525242 0.00987581 
0.00298813 0.00470854 0.0106255 
0.000538119 0.00282092 0.0116513 
0.000271036 0.00142082 0.0119125 
-1.65747e-14 2.27041e-17 0.012 
9.08227e-05 0.00144359 0.0119125 
0.0118852 -0.00160962 -1.4654e-16 
0.0116513 4.4487e-16 0.00287179 
0.0111317 0.00140626 0.00425526 
0.0102917 0.00264245 0.00557668 
0.0108677 0.00279035 0.00425526 
0.00918229 0.00363553 0.00681678 
0.00987931 0.0039115 0.00557668 
0.00865423 0.00475771 0.00681678 
0.0072667 0.00527956 0.00795747 
0.00496922 0.0046664 0.00987581 
0.00228008 0.00359283 0.0112202 
0.0018118 0.00385027 0.0112202 
0.000887431 0.00273123 0.0116513 
0.000446975 0.00137565 0.0119125 
0.00224858 -0.0117874 -4.26549e-17 
0.00223218 -0.0117015 0.00144644 
0.00360045 -0.011081 0.00287179 
0.000731591 -0.0116283 0.00287179 
0.00199101 -0.0104373 0.00557668 
0.00210245 -0.0110215 0.00425526 
0.00328345 -0.0101054 0.00557668 
0.00305179 -0.00939245 0.00681678 
0.00420491 -0.0089359 0.00681678 
0.0038244 -0.00812727 0.00795747 
0.00426383 -0.00671872 0.00898213 
-0.000704522 -0.0111981 0.00425526 
-0.000731591 -0.0116283 0.00287179 
0.000667179 -0.0106045 0.00557668 
0.000704522 -0.0111981 0.00425526 
0.00185054 -0.00970088 0.00681678 
0.00338813 -0.00720014 0.00898213 
0.00355471 -0.0042969 0.0106255 
0.00434518 -0.00525242 0.00987581 
0.00406522 -0.0038175 0.0106255 
-0.00496088 -0.0105424 0.00287179 
-0.00360045 -0.011081 0.00287179 
-0.00346723 -0.010671 0.00425526 
-0.00210245 -0.0110215 0.00425526 
-0.00199101 -0.0104373 0.00557668 
-0.000667179 -0.0106045 0.00557668 
0.000620107 -0.00985632 0.00681678 
0.000563993 -0.0089644 0.00795747 
0.00168308 -0.00882303 0.00795747 
0.00149108 -0.00781652 0.00898213 
0.0021065 -0.00648314 0.00987581 
0.00228008 -0.00359283 0.0112202 
0.000921996 -0.0011145 0.0119125 
0.00153878 -0.00242473 0.0116513 
0.00183055 -0.00221275 0.0116513 
0.0018118 -0.00385027 0.0112202 
0.00237443 -0.00504593 0.0106255 
0.00172329 -0.00530374 0.0106255 
0.000499654 -0.00794177 0.00898213 
-0.000620107 -0.00985632 0.00681678 
-0.00328345 -0.0101054 0.00557668 
-0.00477733 -0.0101523 0.00425526 
-0.00624308 -0.00983752 0.00287179 
-0.00759332 -0.00917874 0.00144644 
-0.00764909 -0.00924616 5.59876e-17 
-0.00715202 -0.00864531 0.00425526 
-0.00601208 -0.00947352 0.00425526 
-0.00277563 -0.00854251 0.00795747 
-0.00305179 -0.00939245 0.00681678 
-0.000499654 -0.00794177 0.00898213 
0.000428029 -0.00680333 0.00987581 
0.000350163 -0.00556567 0.0106255 
0.00104497 -0.0054779 0.0106255 
0.000797356 -0.00417989 0.0112202 
0.000887431 -0.00273123 0.0116513 
0.00131495 -0.00404699 0.0112202 
0.000615864 -0.00130878 0.0119125 
0.00122275 -0.00259847 0.0116513 
0.000775041 -0.00122127 0.0119125 
-0.0105615 -0.00568375 8.30309e-17 
-0.0105157 -0.00578104 8.25496e-17 
-0.010439 -0.00573889 0.00144644 
-0.00963742 -0.007002 0.00144644 
-0.0094261 -0.00684846 0.00287179 
-0.00849343 -0.00797587 0.00287179 
-0.00569341 -0.00897138 0.00557668 
-0.00420491 -0.0089359 0.00681678 
-0.00149108 -0.00781652 0.00898213 
-0.00245899 -0.00756801 0.00898213 
-0.000428029 -0.00680333 0.00987581 
0.000446975 -0.00137565 0.0119125 
-0.0106255 -3.69896e-16 0.00557668 
-0.0116513 -4.09333e-16 0.00287179 
-0.0119125 -4.19916e-16 0.00144644 
-0.0119662 0.000537013 9.26348e-17 
-0.0111573 0.00441749 8.15643e-17 
-0.011623 0.00298428 8.73474e-17 
-0.0116835 0.00266726 8.82139e-17 
-0.0119054 0.001504 9.13038e-17 
-0.0118186 0.00149303 0.00144644 
-0.0105417 0.00133172 0.00557668 
-0.0111317 0.00140626 0.00425526 
-0.0108677 0.00279035 0.00425526 
-0.0112853 0.00289756 0.00287179 
-0.011076 0.00438529 0.00144644 
-0.010439 0.00573889 0.00144644 
-0.00874762 0.00821456 5.43005e-17 
-0.0097082 0.00705342 6.49096e-17 
-0.00999652 0.00659911 6.82941e-17 
-0.0105157 0.00578104 7.40454e-17 
-0.00764909 0.00924616 4.23861e-17 
-0.0094261 0.00684846 0.00287179 
-0.00907733 0.00659506 0.00425526 
-0.00931117 0.00511886 0.00557668 
-0.00918229 0.00363553 0.00681678 
-0.00987931 0.0039115 0.00557668 
-0.00956554 0.00245601 0.00681678 
-0.00869994 0.00223376 0.00795747 
-0.0089113 0.00112576 0.00795747 
-0.00789472 0.000997336 0.00898213 
-0.00795747 -2.69998e-16 0.00898213 
-0.00859619 0.0062455 0.00557668 
-0.00849343 0.00797587 0.00287179 
-0.00759332 0.00917874 0.00144644 
-0.00510935 0.0108579 1.54094e-17 
-0.00638304 0.0100581 0.00144644 
-0.00520358 0.0108061 1.68205e-17 
-0.00642992 0.0101319 2.93539e-17 
-0.0070395 0.00968905 3.61737e-17 
-0.00287179 -8.23851e-17 0.0116513 
-0.0042217 0.000533325 0.0112202 
-0.00633808 0.00250942 0.00987581 
-0.00597359 0.00328401 0.00987581 
-0.00643773 0.00467728 0.00898213 
-0.00719915 0.00676045 0.00681678 
-0.00654769 0.00614869 0.00795747 
-0.00477733 0.0101523 0.00425526 
-0.00601208 0.00947352 0.00425526 
-0.00368117 0.0113295 0.00144644 
-0.00360045 0.011081 0.00287179 
-0.00318703 0.0115465 -4.07876e-18 
-0.000753486 0.0119763 -2.96475e-17 
-0.00223218 0.0117015 0.00144644 
-0.00224858 0.0117874 -1.43258e-17 
-0.000731591 0.0116283 0.00287179 
0.000731591 0.0116283 0.00287179 
0.000747992 0.011889 0.00144644 
0.00368117 0.0113295 0.00144644 
0.0037082 0.0114127 -7.45418e-17 
0.00223218 0.0117015 0.00144644 
0.00318703 0.0115465 -6.84178e-17 
0.00224858 0.0117874 -5.99948e-17 
0.00107367 0.0119359 -4.73722e-17 
0.00642992 0.0101319 -1.01239e-16 
0.00638304 0.0100581 0.00144644 
0.00496088 0.0105424 0.00287179 
0.00346723 0.010671 0.00425526 
0.00360045 0.011081 0.00287179 
0.00210245 0.0110215 0.00425526 
0.00199101 0.0104373 0.00557668 
0.000620107 0.00985632 0.00681678 
-0.000499654 0.00794177 0.00898213 
-0.000563993 0.0089644 0.00795747 
0.00185054 0.00970088 0.00681678 
0.00328345 0.0101054 0.00557668 
0.00477733 0.0101523 0.00425526 
0.00624308 0.00983752 0.00287179 
0.0097082 0.00705342 -1.32266e-16 
0.00874762 0.00821456 -1.23365e-16 
0.00759332 0.00917874 0.00144644 
0.00764909 0.00924616 -1.12968e-16 
0.0070395 0.00968905 -1.05938e-16 
0.00149108 0.00781652 0.00898213 
0.00677293 0.00818707 0.00557668 
0.00715202 0.00864531 0.00425526 
0.0094261 0.00684846 0.00287179 
0.00849343 0.00797587 0.00287179 
0.0111573 0.00441749 -1.45043e-16 
0.0105157 0.00578104 -1.3953e-16 
-9.08227e-05 0.00144359 0.0119125 
0.000180321 0.00286612 0.0116513 
0.000797356 0.00417989 0.0112202 
0.00131495 0.00404699 0.0112202 
0.00172329 0.00530374 0.0106255 
0.00237443 0.00504593 0.0106255 
0.00290244 0.006168 0.00987581 
0.00365261 0.00575559 0.00987581 
0.00507228 0.00613134 0.00898213 
0.00719915 0.00676045 0.00681678 
0.00859619 0.0062455 0.00557668 
0.0079897 0.00580485 0.00681678 
0.00983233 0.00540537 0.00425526 
0.0108331 0.00428913 0.00287179 
0.0112853 0.00289756 0.00287179 
0.0118186 0.00149303 0.00144644 
-0.00185054 0.00970088 0.00681678 
-0.00277563 0.00854251 0.00795747 
-0.00245899 0.00756801 0.00898213 
-0.00149108 0.00781652 0.00898213 
-0.0021065 0.00648314 0.00987581 
-0.00127734 0.00669603 0.00987581 
-0.00131495 0.00404699 0.0112202 
-0.000797356 0.00417989 0.0112202 
-0.000446975 0.00137565 0.0119125 
0.0119054 -0.001504 -1.48285e-16 
0.012 4.55594e-16 -1.50352e-16 
0.0119054 0.001504 -1.50497e-16 
0.0115383 -0.00296252 0.00144644 
0.0118186 -0.00149303 0.00144644 
0.0115594 -0.0014603 0.00287179 
0.0105417 0.00133172 0.00557668 
0.0078711 0.00432717 0.00795747 
0.00643773 0.00467728 0.00898213 
0.00551489 0.0040068 0.00987581 
0.00355471 0.0042969 0.0106255 
0.00406522 0.0038175 0.0106255 
0.0027124 0.00327873 0.0112202 
0.00122275 0.00259847 0.0116513 
0.000615864 0.00130878 0.0119125 
0.011076 -0.00438529 0.00144644 
0.0112853 -0.00289756 0.00287179 
0.0112202 4.30019e-16 0.00425526 
0.00979793 0.00123777 0.00681678 
0.00956554 0.00245601 0.00681678 
0.00869994 0.00223376 0.00795747 
0.00739867 0.00292934 0.00898213 
0.00835137 0.00330654 0.00795747 
0.00697319 0.00383354 0.00898213 
0.00183055 0.00221275 0.0116513 
0.00153878 0.00242473 0.0116513 
0.000775041 0.00122127 0.0119125 
0.0105615 -0.00568375 -1.30181e-16 
0.0108677 -0.00279035 0.00425526 
0.0111317 -0.00140626 0.00425526 
0.0106255 4.09099e-16 0.00557668 
0.0089113 0.00112576 0.00795747 
0.00770747 0.00197894 0.00898213 
0.00633808 0.00250942 0.00987581 
0.00597359 0.00328401 0.00987581 
0.00488688 0.00268659 0.0106255 
0.00451163 0.00327789 0.0106255 
0.00344258 0.00250118 0.0112202 
0.00310195 0.00291293 0.0112202 
0.00209344 0.00196587 0.0116513 
0.00126753 -0.000696828 0.0119125 
0.00232333 -0.00168799 0.0116513 
0.00251657 -0.00138349 0.0116513 
0.00372891 -0.00204999 0.0112202 
0.00488688 -0.00268659 0.0106255 
0.00597359 -0.00328401 0.00987581 
0.00643773 -0.00467728 0.00898213 
0.00865423 -0.00475771 0.00681678 
0.0094261 -0.00684846 0.00287179 
0.0102101 -0.00561306 0.00287179 
0.00963742 -0.007002 0.00144644 
0.0097082 -0.00705342 -1.2189e-16 
0.010439 -0.00573889 0.00144644 
0.0105157 -0.00578104 -1.31026e-16 
0.00868384 -0.00815467 0.00144644 
0.00629508 -0.00760944 0.00681678 
0.00774564 -0.00727364 0.00557668 
0.00817917 -0.00768075 0.00425526 
0.00742682 -0.00897748 0.00287179 
0.00849343 -0.00797587 0.00287179 
0.00874762 -0.00821456 -1.11281e-16 
0.00677293 -0.00818707 0.00557668 
0.00715202 -0.00864531 0.00425526 
0.00624308 -0.00983752 0.00287179 
0.00638304 -0.0100581 0.00144644 
0.00759332 -0.00917874 0.00144644 
0.00642992 -0.0101319 -8.63345e-17 
0.00764909 -0.00924616 -9.93669e-17 
0.00569341 -0.00897138 0.00557668 
0.00477733 -0.0101523 0.00425526 
0.00601208 -0.00947352 0.00425526 
0.00496088 -0.0105424 0.00287179 
0.0037082 -0.0114127 -5.77533e-17 
0.00368117 -0.0113295 0.00144644 
0.00420849 -0.0112146 -6.19869e-17 
0.00510935 -0.0108579 -7.23901e-17 
0.0050721 -0.0107788 0.00144644 
0.00614711 -0.0102874 -8.22371e-17 
0.000753486 -0.0119763 -2.73332e-17 
0.000747992 -0.011889 0.00144644 
0.0021419 -0.0118009 -4.06957e-17 
0.00572542 -0.00692085 0.00795747 
0.00654769 -0.00614869 0.00795747 
0.00507228 -0.00613134 0.00898213 
0.00481287 -0.00758386 0.00795747 
0.00529172 -0.00833842 0.00681678 
0.00452411 -0.00961422 0.00557668 
0.00346723 -0.010671 0.00425526 
0.00218324 -0.0114449 0.00287179 
-1.64765e-14 -0.012 -1.89293e-17 
-0.0037082 -0.0114127 1.75611e-17 
-0.00223218 -0.0117015 0.00144644 
-0.00224858 -0.0117874 3.01408e-18 
-0.000753486 -0.0119763 -1.20298e-17 
-0.000747992 -0.011889 0.00144644 
0.00298813 -0.00470854 0.0106255 
0.00365261 -0.00575559 0.00987581 
0.00290244 -0.006168 0.00987581 
0.00245899 -0.00756801 0.00898213 
0.00277563 -0.00854251 0.00795747 
-0.00218324 -0.0114449 0.00287179 
-0.00368117 -0.0113295 0.00144644 
-0.00420849 -0.0112146 2.2973e-17 
-0.00638304 -0.0100581 0.00144644 
-0.00642992 -0.0101319 4.42584e-17 
-0.0050721 -0.0107788 0.00144644 
-0.00510935 -0.0108579 3.13819e-17 
0.00127734 -0.00669603 0.00987581 
-0.000563993 -0.0089644 0.00795747 
-0.00168308 -0.00882303 0.00795747 
-0.00185054 -0.00970088 0.00681678 
-0.00452411 -0.00961422 0.00557668 
-0.00742682 -0.00897748 0.00287179 
0.00105441 -0.000990156 0.0119125 
0.00936522 -0.00746802 -1.16794e-16 
0.00907733 -0.00659506 0.00425526 
0.00859619 -0.0062455 0.00557668 
0.00719915 -0.00676045 0.00681678 
0.0079897 -0.00580485 0.00681678 
0.0072667 -0.00527956 0.00795747 
0.00496922 -0.0046664 0.00987581 
0.00551489 -0.0040068 0.00987581 
0.00451163 -0.00327789 0.0106255 
0.00344258 -0.00250118 0.0112202 
0.00310195 -0.00291293 0.0112202 
0.00117019 -0.000850196 0.0119125 
-0.0097082 -0.00705342 7.52855e-17 
-0.00868384 -0.00815467 0.00144644 
-0.00874762 -0.00821456 6.63845e-17 
-0.0111573 -0.00441749 8.80626e-17 
-0.011076 -0.00438529 0.00144644 
-0.00907733 -0.00659506 0.00425526 
-0.00774564 -0.00727364 0.00557668 
-0.00817917 -0.00768075 0.00425526 
-0.00677293 -0.00818707 0.00557668 
-0.00529172 -0.00833842 0.00681678 
-0.0038244 -0.00812727 0.00795747 
-0.0021065 -0.00648314 0.00987581 
-0.00127734 -0.00669603 0.00987581 
-0.000350163 -0.00556567 0.0106255 
0.00026719 -0.00424686 0.0112202 
-0.00026719 -0.00424686 0.0112202 
0.000538119 -0.00282092 0.0116513 
0.000271036 -0.00142082 0.0119125 
-0.0102101 -0.00561306 0.00287179 
-0.00859619 -0.0062455 0.00557668 
-0.00629508 -0.00760944 0.00681678 
-0.00719915 -0.00676045 0.00681678 
-0.00481287 -0.00758386 0.00795747 
-0.00338813 -0.00720014 0.00898213 
-0.00290244 -0.006168 0.00987581 
-0.00104497 -0.0054779 0.0106255 
-0.000797356 -0.00417989 0.0112202 
0.000180321 -0.00286612 0.0116513 
-0.000180321 -0.00286612 0.0116513 
9.08227e-05 -0.00144359 0.0119125 
-0.0119054 -0.001504 9.35162e-17 
-0.0118186 -0.00149303 0.00144644 
-0.0115383 -0.00296252 0.00144644 
-0.0108331 -0.00428913 0.00287179 
-0.0104323 -0.00413043 0.00425526 
-0.00983233 -0.00540537 0.00425526 
-0.00507228 -0.00613134 0.00898213 
-0.00572542 -0.00692085 0.00795747 
-0.00426383 -0.00671872 0.00898213 
-0.00237443 -0.00504593 0.0106255 
-0.00172329 -0.00530374 0.0106255 
-0.000538119 -0.00282092 0.0116513 
-9.08227e-05 -0.00144359 0.0119125 
-0.00144644 -3.01616e-17 0.0119125 
-0.00284914 -0.00035993 0.0116513 
-0.00557668 -1.8188e-16 0.0106255 
-0.00681678 -2.277e-16 0.00987581 
-0.00676302 -0.000854369 0.00987581 
-0.00789472 -0.000997336 0.00898213 
-0.0089113 -0.00112576 0.00795747 
-0.00987581 -3.41618e-16 0.00681678 
-0.0112202 -3.92578e-16 0.00425526 
-0.0111317 -0.00140626 0.00425526 
-0.012 -4.24174e-16 9.33708e-17 
0.000753486 0.0119763 -4.49509e-17 
-0.00328345 0.0101054 0.00557668 
-0.00452411 0.00961422 0.00557668 
-0.00420491 0.0089359 0.00681678 
-0.00481287 0.00758386 0.00795747 
-0.00572542 0.00692085 0.00795747 
-0.00580075 0.00544726 0.00898213 
-0.00496922 0.0046664 0.00987581 
-0.00451163 0.00327789 0.0106255 
-0.00372891 0.00204999 0.0112202 
-0.00278157 0.000714185 0.0116513 
-0.00143503 0.000181287 0.0119125 