ply
format ascii 1.0
comment VCGLIB generated
element vertex 90
property float x
property float y
property float z
end_header
0.00470228 0.0501944 -0.00171244 
0.00166329 0.0515423 -0.00183037 
0.00795618 0.0445799 -0.00122124 
0.0069282 0.0477316 -0.00149698 
0.00782518 0.00166329 0.0011 
-0.0145 0.0388182 -0.000114861 
-0.0145 0.0487801 -0.000986419 
0.008 0.0437469 -0.00114836 
0.00760845 0.0412841 -0.000932896 
0.00647214 0.00470228 0.0011 
0.004 0.0069282 0.0011 
0.00594516 0.0384142 -0.000681808 
-0.0145 -0.0388182 -0.000114861 
0.00782518 -0.0420899 -0.00100339 
0.00782518 -0.0454038 -0.00129332 
0.00782518 -0.00166329 0.0011 
0.008 9.08688e-17 0.0011 
-0.0145 -0.0487801 -0.000986419 
0.004 -0.0506487 -0.00175219 
0.000836228 -0.0516728 -0.00184178 
0.00647214 -0.0484313 -0.00155819 
0.00647214 -0.00470228 0.0011 
0.004 -0.0069282 0.0011 
0.00647214 -0.0390625 -0.000738526 
-0.0295 0.0532188 -0.0410158 
0.0113 0.0532188 -0.0410158 
0.0113 0.0539757 -0.03798 
-0.0295 0.0539757 -0.03798 
0.0113 0.0285489 -0.095 
-0.0295 0.0285489 -0.095 
-0.0295 -0.028 -0.095 
0.0113 -0.028 -0.095 
0.0113 0.0567385 -0.00640064 
-0.0295 0.0567385 -0.00640064 
-0.0295 -0.0450342 -0.0794131 
0.0113 -0.0450342 -0.0794131 
-0.0295 -0.0566111 -0.00523706 
0.0113 -0.0560481 -0.00421081 
0.0113 -0.0566111 -0.00523706 
-0.0295 -0.0560481 -0.00421081 
0.0113 -0.0567385 -0.00640064 
-0.0295 -0.0567385 -0.00640064 
0.0083 -0.0537813 -0.0402021 
-0.0265 -0.0537813 -0.0402021 
-0.027 -0.0098 0.0017 
-0.0295 -0.018 4.44089e-16 
-0.0295 0.018 4.61853e-16 
-0.027 0.0098 0.0017 
-0.0295 -0.0482551 -0.0756504 
-0.0295 -0.0504527 -0.0712116 
0.0113 -0.0504527 -0.0712116 
0.0113 -0.0482551 -0.0756504 
0.0113 -0.051492 -0.0663689 
-0.0295 -0.051492 -0.0663689 
0.0113 -0.0540114 -0.00315059 
0.0113 0.0566111 -0.00523706 
0.0113 0.0551352 -0.00347814 
0.0113 0.0540114 -0.00315059 
0.0113 -0.0551352 -0.00347814 
0.0113 -0.018 -1.77636e-17 
0.0113 0.018 0 
0.0113 0.0560481 -0.00421081 
-0.016 0.0363277 0.000103028 
-0.0215 0.0512706 -0.00120431 
-0.0215 0.0363277 0.000103028 
-0.016 0.0512706 -0.00120431 
-0.0215 0.0535619 -0.00140477 
-0.0295 0.0560481 -0.00421081 
-0.027 0.0535619 -0.00140477 
-0.0295 0.0566111 -0.00523706 
-0.0295 -0.0540114 -0.00315059 
-0.0295 0.0540114 -0.00315059 
-0.0295 -0.0551352 -0.00347814 
-0.0295 0.0551352 -0.00347814 
-0.0215 -0.0535619 -0.00140477 
-0.027 -0.0535619 -0.00140477 
-0.0215 -0.0340364 0.000303486 
-0.0215 -0.0098 0.0017 
-0.027 -0.0340364 0.000303486 
-0.0215 -0.0363277 0.000103028 
-0.016 -0.0363277 0.000103028 
-0.0215 0.0340364 0.000303486 
-0.027 0.0340364 0.000303486 
-0.016 -0.0512706 -0.00120431 
-0.0215 -0.0512706 -0.00120431 
-0.0215 0.0098 0.0017 
-0.016 -0.0075 0.0017 
-0.016 0.0075 0.0017 
-0.0145 0.005 0.0017 
-0.0145 -0.005 0.0017