ply
format ascii 1.0
comment VCGLIB generated
element vertex 54
property float x
property float y
property float z
end_header
-0.0098 -0.01345 0.0313 
0.0098 -0.01345 0.0313 
0.0098 0.01355 0.0313 
-0.0098 0.01355 0.0313 
-0.0098 -0.01075 -0.0038 
-0.0098 -0.01345 0.013 
-0.0098 0.01355 0.013 
-0.0098 0.01105 -0.0038 
0.0048 -0.01075 -0.0088 
0.0048 -0.01345 0.008 
0.00634508 -0.01345 0.00824472 
0.00634508 -0.01075 -0.00855528 
-0.000574906 -0.01135 -0.00546987 
0.000574906 -0.01135 -0.00546987 
-0.0048 -0.01075 -0.0088 
-0.0048 -0.01345 0.008 
0.00773893 -0.01345 0.00895492 
0.00773893 -0.01075 -0.00784509 
0.0048 0.01105 -0.0088 
0.00634508 0.01105 -0.00855528 
-0.0048 0.01105 -0.0088 
0.00773893 0.01105 -0.00784509 
0.00884509 0.01355 0.0100611 
0.00773893 0.01355 0.00895492 
0.00884509 0.01105 -0.00673893 
0.00884509 -0.01075 -0.00673893 
0.0098 0.01105 -0.0038 
0.0098 0.01355 0.013 
0.0098 -0.01345 0.013 
0.0098 -0.01075 -0.0038 
0.00884509 -0.01345 0.0100611 
0.0048 0.01355 0.008 
-0.0048 0.01355 0.008 
-0.00634508 0.01355 0.00824472 
-0.00634508 0.01105 -0.00855528 
0.00955528 0.01105 -0.00534509 
0.00955528 -0.01075 -0.00534509 
-0.00634508 -0.01075 -0.00855528 
-0.00634508 -0.01345 0.00824472 
-0.00773893 -0.01345 0.00895492 
-0.00773893 -0.01075 -0.00784509 
-0.00773893 0.01105 -0.00784509 
-0.00884509 -0.01345 0.0100611 
0.00955528 -0.01345 0.0114549 
-0.00955528 -0.01345 0.0114549 
-0.00955528 -0.01075 -0.00534509 
-0.00955528 0.01105 -0.00534509 
0.00634508 0.01355 0.00824472 
-0.00773893 0.01355 0.00895492 
0.00955528 0.01355 0.0114549 
-0.00955528 0.01355 0.0114549 
-0.00884509 0.01355 0.0100611 
-0.00884509 0.01105 -0.00673893 
-0.00884509 -0.01075 -0.00673893 