ply
format ascii 1.0
comment VCGLIB generated
element vertex 75
property float x
property float y
property float z
end_header
8.98908e-16 -0.01135 -0.0055 
0.00944899 0.01355 0.0468153 
0.00944899 -0.01345 0.0468153 
0.00841356 -0.01345 0.0497744 
0.00841356 0.01355 0.0497744 
0.0098 0.01355 0.0437 
0.0098 -0.01345 0.0437 
-0.0098 -0.01075 -0.0038 
-0.0098 0.01105 -0.0038 
-0.00955528 0.01105 -0.00534509 
-0.00955528 -0.01075 -0.00534509 
0.0098 0.01105 -0.0038 
0.0098 -0.01075 -0.0038 
0.00955528 -0.01075 -0.00534509 
0.00955528 0.01105 -0.00534509 
-0.00957164 -0.01345 0.0558481 
-0.0098 0.01355 0.0547 
-0.00957164 0.01355 0.0558481 
-0.0098 -0.01345 0.0547 
-0.0042 -0.01345 0.0577 
-0.0042 0.01355 0.0577 
-0.0068 0.01355 0.0577 
-0.0068 -0.01345 0.0577 
-0.00108471 0.01355 0.057349 
-0.00108471 -0.01345 0.057349 
0.00187437 0.01355 0.0563136 
0.00187437 -0.01345 0.0563136 
-0.0098 -0.01345 0.013 
-0.0098 0.01355 0.013 
0.00634508 -0.01075 -0.00855528 
0.00773893 0.01105 -0.00784509 
0.00634508 0.01105 -0.00855528 
0.00773893 -0.01075 -0.00784509 
-0.00773893 -0.01345 0.00895492 
-0.00634508 -0.01345 0.00824472 
-0.00773893 -0.01075 -0.00784509 
-0.00634508 -0.01075 -0.00855528 
0.0098 0.01355 0.013 
0.0098 -0.01345 0.013 
-0.00892132 0.01355 0.0568213 
-0.00892132 -0.01345 0.0568213 
-0.00794805 -0.01345 0.0574716 
-0.00794805 0.01355 0.0574716 
0.00452886 -0.01345 0.0546456 
0.00452886 0.01355 0.0546456 
0.00674564 0.01355 0.0524289 
0.00674564 -0.01345 0.0524289 
0.00884509 0.01105 -0.00673893 
0.00884509 -0.01075 -0.00673893 
0.00773893 0.01355 0.00895492 
0.00634508 0.01355 0.00824472 
-0.00634508 0.01105 -0.00855528 
-0.00634508 0.01355 0.00824472 
-0.00773893 0.01355 0.00895492 
-0.00773893 0.01105 -0.00784509 
-0.0048 0.01355 0.008 
-0.0048 0.01105 -0.0088 
-0.00884509 0.01105 -0.00673893 
-0.00884509 -0.01075 -0.00673893 
-0.00884509 0.01355 0.0100611 
-0.00884509 -0.01345 0.0100611 
-0.0048 -0.01075 -0.0088 
-0.0048 -0.01345 0.008 
0.00634508 -0.01345 0.00824472 
0.0048 -0.01345 0.008 
0.0048 -0.01075 -0.0088 
0.00773893 -0.01345 0.00895492 
0.00884509 0.01355 0.0100611 
-0.00955528 0.01355 0.0114549 
0.00955528 0.01355 0.0114549 
0.0048 0.01355 0.008 
0.0048 0.01105 -0.0088 
0.00884509 -0.01345 0.0100611 
-0.00955528 -0.01345 0.0114549 
0.00955528 -0.01345 0.0114549 