ply
format ascii 1.0
comment VCGLIB generated
element vertex 152
property float x
property float y
property float z
element face 300
property list uchar int vertex_indices
end_header
-0.0315655 -0.0245684 -0.0209998 
-0.0270913 -0.0294288 -0.016 
-0.0270913 -0.0294288 -0.0209998 
-0.0315655 -0.0245684 -0.016 
-0.0315655 0.0245684 -0.0209998 
-0.0270913 0.0294288 -0.016 
-0.0270913 0.0294288 -0.0209998 
-0.0315655 0.0245684 -0.016 
-0.0394544 -0.00658375 -0.016 
-0.0394544 -0.00658375 -0.0209998 
-0.0378326 -0.012988 -0.0209998 
-0.0378326 -0.012988 -0.016 
-0.04 0 -0.0209998 
-0.04 0 -0.016 
-0.0351788 -0.0190378 -0.016 
-0.0351788 -0.0190378 -0.0209998 
-0.0394544 0.00658375 -0.0209998 
-0.0394544 0.00658375 -0.016 
-0.0378326 0.012988 -0.0209998 
-0.0378326 0.012988 -0.016 
0.0315655 -0.0245684 -0.0209998 
0.0270913 -0.0294288 -0.016 
0.0270913 -0.0294288 -0.0209998 
0.0315655 -0.0245684 -0.016 
0.0394544 -0.00658375 -0.016 
0.0394544 -0.00658375 -0.0209998 
0.0378326 -0.012988 -0.0209998 
0.0378326 -0.012988 -0.016 
-0.00330317 -0.0398632 -0.016 
-0.00330317 -0.0398632 -0.0209998 
-0.00981939 -0.038776 -0.0209998 
-0.00981939 -0.038776 -0.016 
0.00330317 -0.0398632 -0.0209998 
0.00330317 -0.0398632 -0.016 
0.00290638 -0.0313656 0 
-0.00290638 -0.0313656 0 
-0.0351788 0.0190379 -0.016 
-0.0351788 0.0190379 -0.0209998 
-0.0218779 -0.0334867 -0.016 
-0.0218779 -0.0334867 -0.0209998 
0.0351788 -0.0190378 -0.0209998 
0.0351788 -0.0190378 -0.016 
0.04 0 -0.016 
0.04 0 -0.0209998 
0.00981939 -0.038776 -0.016 
0.00981939 -0.038776 -0.0209998 
0.0160678 -0.0366308 -0.0209998 
0.0160678 -0.0366308 -0.016 
-0.00330317 0.0398632 -0.016 
-0.00330317 0.0398632 -0.0209998 
-0.00981939 0.038776 -0.0209998 
-0.00981939 0.038776 -0.016 
0.00330317 0.0398632 -0.0209998 
0.00330317 0.0398632 -0.016 
0.00290638 0.0313656 0 
-0.00290638 0.0313656 0 
-0.0218779 0.0334866 -0.016 
-0.0218779 0.0334866 -0.0209998 
-0.0160678 -0.0366308 -0.016 
-0.0160678 -0.0366308 -0.0209998 
0.0218779 -0.0334867 -0.016 
0.0218779 -0.0334867 -0.0209998 
0.0315655 0.0245684 -0.0209998 
0.0270913 0.0294288 -0.0209998 
0.0270913 0.0294288 -0.016 
0.0315655 0.0245684 -0.016 
0.0394544 0.00658375 -0.016 
0.0394544 0.00658375 -0.0209998 
0.0378326 0.012988 -0.0209998 
0.0378326 0.012988 -0.016 
0.0351788 0.0190379 -0.016 
0.0351788 0.0190379 -0.0209998 
0.00981939 0.038776 -0.016 
0.00981939 0.038776 -0.0209998 
0.0160678 0.0366308 -0.0209998 
0.0160678 0.0366308 -0.016 
-0.0160678 0.0366308 -0.016 
-0.0160678 0.0366308 -0.0209998 
0.0218779 0.0334866 -0.016 
0.0218779 0.0334866 -0.0209998 
0.0182137 0.0256138 0 
0.00862038 -0.0302973 0 
-0.0182137 0.0256138 0 
-0.0189828 0.0251375 0 
-0.0309635 0.00578803 0 
-0.0293729 0.0113791 0 
0.0232788 -0.0212213 0 
0.0189828 -0.0251375 0 
-0.0309635 -0.00578803 0 
-0.0293729 -0.0113791 0 
-0.0267817 -0.0165825 0 
0.0309635 -0.00578803 0 
0.0293729 -0.0113791 0 
-0.0267817 0.0165825 0 
-0.0315 0 0 
-0.0232788 -0.0212213 0 
0.00862038 0.0302973 0 
-0.00883883 0.0302128 0 
-0.00862038 0.0302973 0 
0.0267817 -0.0165825 0 
-0.0232788 0.0212213 0 
0.0182137 -0.0256138 0 
-0.00862038 -0.0302973 0 
-0.0189828 -0.0251375 0 
-0.00883883 -0.0302128 0 
0.00883883 -0.0302128 0 
0.0140406 -0.0281976 0 
0.0309635 0.00578803 0 
0.0293729 0.0113791 0 
0.0267817 0.0165825 0 
-0.0140406 -0.0281976 0 
-0.0182137 -0.0256138 0 
0.0315 0 0 
0.0232788 0.0212213 0 
0.0189828 0.0251375 0 
-0.0140406 0.0281976 0 
0.0140406 0.0281976 0 
0.00883883 0.0302128 0 
-0.009812 -0.02835 -0.0309998 
0.021712 0.0207024 -0.0309998 
0.0252376 0.0162191 -0.0309998 
-0.0196458 -0.0226725 -0.0309998 
-0.0149999 -0.0259807 -0.0309998 
0.027851 0.0111498 -0.0309998 
-0.0235816 -0.0185447 -0.0309998 
0.0174017 0.0244371 -0.0309998 
0.0294577 0.00567752 -0.0309998 
-0.026665 -0.0137467 -0.0309998 
0.0124623 0.0272889 -0.0309998 
0.03 0 -0.0309998 
-0.0287848 -0.00845194 -0.0309998 
0.00707269 0.0291543 -0.0309998 
0.0294577 -0.00567752 -0.0309998 
-0.0298641 -0.00285167 -0.0309998 
0.00142741 0.0299659 -0.0309998 
-0.03 0 -0.0309998 
0.027851 -0.0111498 -0.0309998 
-0.00426942 0.0296945 -0.0309998 
0.0252376 -0.0162191 -0.0309998 
-0.009812 0.02835 -0.0309998 
0.021712 -0.0207024 -0.0309998 
-0.0149999 0.0259807 -0.0309998 
0.0174017 -0.0244371 -0.0309998 
-0.0196458 0.0226725 -0.0309998 
0.0124623 -0.0272889 -0.0309998 
-0.0235816 0.0185447 -0.0309998 
0.00707269 -0.0291543 -0.0309998 
-0.026665 0.0137467 -0.0309998 
0.00142741 -0.0299659 -0.0309998 
-0.0287848 0.00845194 -0.0309998 
-0.00426942 -0.0296945 -0.0309998 
-0.0298641 0.00285167 -0.0309998 
3 1 3 95 
3 88 89 11 
3 90 3 95 
3 17 13 94 
3 5 7 100 
3 93 7 100 
3 8 88 11 
3 8 88 94 
3 8 13 94 
3 14 90 3 
3 14 90 89 
3 14 89 11 
3 84 17 94 
3 84 85 19 
3 84 17 19 
3 102 35 31 
3 103 1 95 
3 92 41 27 
3 28 35 31 
3 36 93 7 
3 36 93 85 
3 36 85 19 
3 98 55 51 
3 83 5 100 
3 38 103 1 
3 99 92 41 
3 99 41 23 
3 42 24 112 
3 91 24 112 
3 91 24 27 
3 91 92 27 
3 105 81 47 
3 105 106 47 
3 44 81 47 
3 44 34 81 
3 44 34 33 
3 64 65 113 
3 107 108 69 
3 109 65 113 
3 114 64 113 
3 48 55 51 
3 56 83 5 
3 58 38 110 
3 58 104 110 
3 58 104 102 
3 58 102 31 
3 111 38 110 
3 111 38 103 
3 60 87 21 
3 60 106 47 
3 86 99 23 
3 86 21 23 
3 86 87 21 
3 66 107 69 
3 66 107 112 
3 66 42 112 
3 70 109 65 
3 70 109 108 
3 70 108 69 
3 116 117 75 
3 96 117 75 
3 72 96 75 
3 72 54 53 
3 72 96 54 
3 76 56 115 
3 76 97 115 
3 76 97 98 
3 76 98 51 
3 82 56 115 
3 82 56 83 
3 101 60 106 
3 101 60 87 
3 78 114 64 
3 78 116 75 
3 80 78 114 
3 80 78 116 
3 122 59 39 
3 120 62 71 
3 121 39 2 
3 121 122 39 
3 119 62 63 
3 119 120 62 
3 123 71 68 
3 123 120 71 
3 124 0 2 
3 124 121 2 
3 124 15 0 
3 125 79 63 
3 125 119 63 
3 126 67 68 
3 126 123 68 
3 127 15 10 
3 127 124 15 
3 128 79 74 
3 128 125 79 
3 129 67 43 
3 129 126 67 
3 129 25 43 
3 130 9 10 
3 130 127 10 
3 131 73 74 
3 131 128 74 
3 131 73 52 
3 132 25 26 
3 132 129 25 
3 133 130 9 
3 133 9 12 
3 133 135 12 
3 134 49 52 
3 134 131 52 
3 136 40 26 
3 136 132 26 
3 137 49 50 
3 137 134 49 
3 138 40 20 
3 138 136 40 
3 139 77 50 
3 139 137 50 
3 140 20 22 
3 140 138 20 
3 141 77 57 
3 141 139 77 
3 142 61 22 
3 142 140 22 
3 143 57 6 
3 143 141 57 
3 144 61 46 
3 144 142 61 
3 145 4 6 
3 145 143 6 
3 145 37 4 
3 146 45 46 
3 146 144 46 
3 146 45 32 
3 147 37 18 
3 147 145 37 
3 148 29 32 
3 148 146 32 
3 149 16 18 
3 149 147 18 
3 150 29 30 
3 150 148 29 
3 151 149 16 
3 151 16 12 
3 151 135 12 
3 118 59 30 
3 118 150 30 
3 118 122 59 
3 0 1 2 
3 0 1 3 
3 4 5 6 
3 4 5 7 
3 8 9 10 
3 8 10 11 
3 8 9 12 
3 8 13 12 
3 14 15 10 
3 14 10 11 
3 14 0 3 
3 14 15 0 
3 16 13 12 
3 16 17 13 
3 16 18 19 
3 16 17 19 
3 20 21 22 
3 20 21 23 
3 24 25 26 
3 24 26 27 
3 28 29 30 
3 28 30 31 
3 28 29 32 
3 28 33 32 
3 34 28 33 
3 34 28 35 
3 36 18 19 
3 36 37 18 
3 36 4 7 
3 36 37 4 
3 38 1 2 
3 38 39 2 
3 40 26 27 
3 40 41 27 
3 40 20 23 
3 40 41 23 
3 42 25 43 
3 42 24 25 
3 44 45 46 
3 44 46 47 
3 44 33 32 
3 44 45 32 
3 48 49 50 
3 48 50 51 
3 48 49 52 
3 48 53 52 
3 54 48 53 
3 54 48 55 
3 56 5 6 
3 56 57 6 
3 58 30 31 
3 58 59 30 
3 58 59 39 
3 58 38 39 
3 60 61 46 
3 60 46 47 
3 60 21 22 
3 60 61 22 
3 62 64 63 
3 62 64 65 
3 66 67 68 
3 66 68 69 
3 66 42 43 
3 66 67 43 
3 70 71 68 
3 70 68 69 
3 70 62 71 
3 70 62 65 
3 72 73 74 
3 72 74 75 
3 72 53 52 
3 72 73 52 
3 76 50 51 
3 76 77 50 
3 76 77 57 
3 76 56 57 
3 78 79 74 
3 78 74 75 
3 78 79 63 
3 78 64 63 
3 80 34 81 
3 80 82 83 
3 80 84 85 
3 80 86 87 
3 80 88 89 
3 80 90 89 
3 80 91 92 
3 80 93 85 
3 80 88 94 
3 80 90 95 
3 80 96 54 
3 80 97 98 
3 80 99 92 
3 80 93 100 
3 80 101 87 
3 80 84 94 
3 80 102 35 
3 80 103 95 
3 80 104 102 
3 80 105 106 
3 80 34 35 
3 80 107 108 
3 80 109 108 
3 80 98 55 
3 80 83 100 
3 80 104 110 
3 80 111 103 
3 80 91 112 
3 80 105 81 
3 80 86 99 
3 80 107 112 
3 80 109 113 
3 80 114 113 
3 80 54 55 
3 80 97 115 
3 80 111 110 
3 80 116 117 
3 80 96 117 
3 80 82 115 
3 80 101 106 
3 118 119 120 
3 118 121 122 
3 118 123 120 
3 118 124 121 
3 118 125 119 
3 118 126 123 
3 118 127 124 
3 118 128 125 
3 118 129 126 
3 118 130 127 
3 118 131 128 
3 118 132 129 
3 118 133 130 
3 118 134 131 
3 118 133 135 
3 118 136 132 
3 118 137 134 
3 118 138 136 
3 118 139 137 
3 118 140 138 
3 118 141 139 
3 118 142 140 
3 118 143 141 
3 118 144 142 
3 118 145 143 
3 118 146 144 
3 118 147 145 
3 118 148 146 
3 118 149 147 
3 118 150 148 
3 118 151 149 
3 118 151 135 
