ply
format ascii 1.0
comment VCGLIB generated
element vertex 800
property float x
property float y
property float z
element face 1596
property list uchar int vertex_indices
end_header
-0.000157942 0.0718189 -0.0306515 
0 -0.00730592 -0.0710568 
-0.0702492 0.00271189 0.0109046 
-0.000157942 0.0751498 -0.0233788 
0.047098 -0.017258 -0.051664 
0.0410546 -0.00730592 -0.0579964 
0.0478705 -0.00730592 -0.0525116 
0.0404217 -0.0455 -0.0443405 
-0.0682914 -0.017258 -0.0149559 
-0.0696117 -0.017258 -0.00645041 
-0.0707537 -0.00730592 -0.00655627 
-0.00676191 0.0495017 -0.0546077 
-0.0198773 0.0495017 -0.0513091 
-0.0134212 0.0495017 -0.0533631 
0.0329063 0.0573861 -0.0360964 
0.00787234 0.0672291 -0.0371841 
0.00787234 0.0713971 -0.030426 
-0.000157613 0.0573861 -0.0488347 
0 0.0573861 -0.0488443 
0.0391906 0.0224495 -0.0553629 
0.0252906 0.0126715 -0.0652829 
0.0331214 0.0126715 -0.0616801 
0.0256808 0.00271189 -0.0662899 
0.0336323 0.00271189 -0.0626316 
0 0.00271189 -0.0710905 
0.00873202 -0.00730592 -0.0705182 
0.00859105 -0.017258 -0.06938 
0.0256687 -0.00730592 -0.0662584 
0.0336165 -0.00730592 -0.0626019 
0.0173316 -0.00730592 -0.0689107 
0.0170519 -0.017258 -0.0677984 
0.0403921 -0.017258 -0.0570602 
0.0330739 -0.017258 -0.0615914 
0.0252542 -0.017258 -0.065189 
-0.0699774 0.0126715 0.0021559 
-0.0710568 0.00271189 0.00218916 
-0.0691821 0.0126715 0.0107389 
-0.0670277 0.0224495 0.0104045 
-0.067338 0.0126715 0.0191591 
-0.000157942 0.0775622 -0.0157524 
-0.0081858 0.078506 -0.00782454 
0.0543738 0.0495017 0.00844031 
-0.0389786 0.0573861 0.0294352 
-0.0378536 0.0610213 0.0250568 
-0.0531663 0.0126715 -0.0455501 
-0.0331214 0.0126715 -0.0616801 
-0.0160882 0.0756001 -0.0152622 
-0.0160882 0.0770121 -0.00764191 
-0.0081858 0.0770603 -0.0156269 
-0.0081858 0.0713627 -0.0304074 
-0.0081858 0.0746671 -0.0231929 
-0.0160882 0.0732628 -0.0226517 
-0.0378536 0.0657265 0.0129591 
-0.0081858 0.0712714 0.0305776 
-0.0237443 0.0731599 0.0148395 
-0.0378536 0.0637469 0.0191528 
-0.0237443 0.0677721 0.0286929 
-0.0310367 0.0647818 0.0270823 
-0.0310367 0.0677276 0.0207011 
-0.0237443 0.070893 0.0219323 
-0.0160882 0.0699464 0.029864 
-0.0490401 0.0319247 -0.0420149 
-0.0565435 0.0224495 -0.0374672 
-0.0630821 0.0319247 -0.0138152 
0.0537097 -0.0455 -0.0267442 
0.0699774 0.0126715 0.0021559 
0.0694446 0.00271189 -0.0152086 
0.0670175 -0.00730592 -0.0236161 
0.059233 -0.00730592 -0.0392493 
0.0636074 -0.00730592 -0.0316726 
0.0539608 -0.00730592 -0.0462308 
0.0404503 0.0126715 -0.0571424 
0.0410741 0.00271189 -0.0580238 
0.0478933 0.00271189 -0.0525364 
0.0549989 0.0495017 0.0016945 
0.0600337 0.0409794 -0.0055629 
0.0547901 0.0495017 -0.005077 
0 -0.017258 -0.0699099 
0.0500161 -0.0455 -0.0331419 
-0.00737327 -0.0455 -0.059545 
0.00737327 -0.0455 -0.059545 
0.0176446 0.0573861 -0.0455461 
-0.0500161 -0.0455 -0.0331419 
-0.0537097 -0.0455 -0.0267442 
-0.0404217 -0.0455 -0.0443405 
-0.0659359 -0.017258 -0.0232348 
-0.0605702 -0.0270211 -0.0301603 
-0.0564048 -0.0270211 -0.0373752 
-0.0625808 -0.017258 -0.0311614 
-0.0081858 0.0622335 -0.0433531 
-0.0119137 0.0573861 -0.0473692 
-0.00600237 0.0573861 -0.0484742 
-0.000157942 0.0626166 -0.0437009 
-0.000157942 0.06762 -0.0374599 
-0.0081858 0.0671972 -0.0371616 
-0.0233278 0.0319247 -0.0602163 
-0.0217795 0.0409794 -0.0562196 
-0.0245032 0.0224495 -0.0632501 
-0.0165446 0.0224495 -0.0657818 
-0.0457851 0.0409794 -0.0392264 
-0.0515108 0.0224495 -0.0441316 
-0.0176446 0.0573861 -0.0455461 
-0.026032 0.0495017 -0.0484776 
0.0157819 0.0611768 -0.0423932 
0.00787234 0.0747035 -0.0232068 
0.00787234 0.0770981 -0.0156364 
0.0157819 0.0756752 -0.0152811 
0.0078643 0.0573861 -0.0481262 
0.0119137 0.0573861 -0.0473692 
0.00787234 0.0622625 -0.0433792 
-0.0336165 -0.00730592 -0.0626019 
-0.0336323 0.00271189 -0.0626316 
-0.0252906 0.0126715 -0.0652829 
0.0320901 0.0224495 -0.0597594 
0.0245032 0.0224495 -0.0632501 
0.0348346 0.0409794 -0.0492092 
0.0373109 0.0319247 -0.0527077 
0.0217795 0.0409794 -0.0562196 
0.0233278 0.0319247 -0.0602163 
0.030551 0.0319247 -0.0568932 
0.0285233 0.0409794 -0.0531169 
0.0198773 0.0495017 -0.0513091 
0.00873619 0.00271189 -0.0705516 
0.0173399 0.00271189 -0.0689434 
0.0283855 -0.0455 -0.0528606 
0.0346663 -0.0455 -0.0489718 
0.0371779 -0.0364741 -0.0525197 
0.0390944 -0.0270211 -0.0552272 
-0.0675411 0.0224495 -0.00625855 
-0.0643017 0.0319247 -0.00595838 
-0.0645466 0.0319247 0.00198853 
-0.0677983 0.0224495 0.00208878 
-0.0662601 0.0224495 -0.0145111 
-0.069712 0.0126715 -0.00645965 
-0.0707873 0.00271189 -0.00655931 
-0.063813 0.0319247 0.00990552 
-0.0423005 0.0573861 0.0244221 
-0.0476529 0.0495017 0.0275125 
-0.0654676 0.00271189 0.02771 
-0.0698767 -0.017258 0.00215286 
-0.0710231 -0.00730592 0.00218815 
-0.0378536 0.0575913 0.0305813 
-0.0237443 0.0591694 0.0408146 
-0.0257133 0.0573861 0.0415284 
-0.0160882 0.0658584 0.0364482 
-0.0237443 0.0638444 0.035019 
-0.0289669 0.0495017 0.046783 
-0.0101107 0.0495017 0.0540879 
0.0157819 0.0610496 0.0425329 
0.0204149 0.0573861 0.0443734 
0.0157725 0.0573861 0.046172 
0.0482664 0.0573861 0.00749224 
0.0438582 0.0610083 0.0117654 
0.067338 0.0126715 0.0191591 
0.0624654 0.0224495 0.0264392 
0.0289669 0.0495017 0.046783 
0.0257133 0.0573861 0.0415284 
-0.000157942 0.0675076 0.0376186 
-0.0081858 0.0670857 0.0373194 
-0.000157942 0.0717269 0.0308229 
0.00787234 0.0671175 0.0373419 
-0.00897509 0.0573861 0.0480128 
-0.0081858 0.0621035 0.0434958 
0.00897509 0.0573861 0.0480128 
0.00787234 0.0621323 0.043522 
0.0148073 0.0573861 0.0465459 
0.00787234 0.0746337 0.0233871 
0.00787234 0.0713058 0.0305961 
0.0234499 0.0639379 0.0350854 
0.0157819 0.0700146 0.0299007 
0.0157819 0.0659215 0.0364931 
0.0234499 0.0592541 0.0408921 
-0.000157942 0.0790195 -0.00788724 
-0.000157942 0.0794997 9.72624e-05 
-0.059233 -0.00730592 -0.0392493 
-0.0636074 -0.00730592 -0.0316726 
-0.0582771 -0.017258 -0.0386158 
-0.0592612 0.00271189 -0.0392678 
-0.0602624 0.0409794 0.00185662 
-0.0310367 0.069909 -0.0138405 
-0.0237443 0.0732041 -0.0146637 
-0.0160882 0.0700356 -0.0296979 
-0.0237443 0.0678578 -0.0285332 
-0.0237443 0.0709585 -0.0217633 
-0.0231079 0.0573861 -0.0430324 
-0.0160882 0.0611194 -0.0423412 
-0.0160882 0.0659673 -0.0362943 
-0.028221 0.0573861 -0.0398666 
-0.0237443 0.063949 -0.0348711 
-0.0237443 0.0592914 -0.0406809 
-0.0237356 0.0573861 -0.0426439 
-0.0310367 0.0698673 0.0140066 
-0.0609062 0.0319247 -0.0214625 
-0.0538316 0.0319247 -0.0356702 
-0.058361 0.0126715 -0.0386714 
0.0487769 0.0573861 6.43606e-05 
0.0488213 0.0573861 0.00150412 
0.0438582 0.0621012 0.00596368 
0.0702492 0.00271189 0.0109046 
0.0710568 0.00271189 0.00218916 
0.0565891 -0.0455 -0.0199413 
0.059744 -0.0455 -0.00553608 
0.0586107 -0.0455 -0.0128359 
0.0640725 -0.0364741 -0.00593722 
0.0599715 -0.0455 0.00184768 
0.0660975 -0.0270211 -0.0144756 
0.0673754 -0.0270211 -0.00624317 
0.0628573 -0.0364741 -0.0137659 
0.0606892 -0.0364741 -0.0213859 
0.0659359 -0.017258 -0.0232348 
0.0638176 -0.0270211 -0.0224885 
0.0486359 0.0573861 -0.00450683 
0.048521 0.0573861 -0.00524831 
0.0588951 0.0409794 -0.0128981 
0.0609062 0.0319247 -0.0214625 
0.0630821 0.0319247 -0.0138152 
0.0662601 0.0224495 -0.0145111 
0.069712 0.0126715 -0.00645965 
0.0660308 0.0126715 -0.0232683 
0.0670493 0.00271189 -0.0236273 
0.0683898 0.0126715 -0.0149776 
0.0639746 0.0224495 -0.0225437 
0.0636376 0.00271189 -0.0316876 
0.0592612 0.00271189 -0.0392678 
0.0626709 0.0126715 -0.0312063 
0.0430343 0.0573861 -0.0229659 
0.0407167 0.0573861 -0.0269799 
0.0370926 0.0573861 -0.0317791 
0.0370701 0.0495017 -0.0406638 
0.0406178 0.0409794 -0.0445555 
0.0476374 0.0573861 -0.0107171 
0.0477135 0.0573861 -0.0104493 
0.0537511 0.0495017 -0.0117716 
0 -0.0364741 -0.064347 
0.00790745 -0.0364741 -0.0638593 
0 -0.0455 -0.0599999 
-0.00790745 -0.0364741 -0.0638593 
0.00831509 -0.0270211 -0.0671512 
0 -0.0270211 -0.067664 
-0.00831509 -0.0270211 -0.0671512 
0.0455643 -0.0455 -0.039037 
0 0.0409794 -0.0602909 
0.00676191 0.0495017 -0.0546077 
0.00600237 0.0573861 -0.0484742 
0 0.0495017 -0.055025 
0.0134212 0.0495017 -0.0533631 
0.00740904 0.0409794 -0.059834 
0.0147056 0.0409794 -0.05847 
-0.0478933 0.00271189 -0.0525364 
-0.0471658 0.0126715 -0.0517385 
-0.0539864 0.00271189 -0.0462526 
-0.0410741 0.00271189 -0.0580238 
-0.0539608 -0.00730592 -0.0462308 
-0.0478705 -0.00730592 -0.0525116 
-0.0410546 -0.00730592 -0.0579964 
-0.0638176 -0.0270211 -0.0224885 
-0.0576011 -0.0364741 -0.028682 
-0.0488653 -0.0364741 -0.0418652 
-0.0536397 -0.0364741 -0.0355431 
-0.0455643 -0.0455 -0.039037 
-0.0513843 -0.0270211 -0.0440235 
-0.0530898 -0.017258 -0.0454847 
-0.047098 -0.017258 -0.051664 
-0.0283855 -0.0455 -0.0528606 
-0.00793576 0.0319247 -0.0640877 
-0.0147056 0.0409794 -0.05847 
-0.00740904 0.0409794 -0.059834 
-0.0157512 0.0319247 -0.0626267 
0 0.0319247 -0.0645772 
-0.00833553 0.0224495 -0.0673164 
0.0438582 0.0592629 -0.0172548 
0.029326 0.0573861 -0.0389775 
0.0157819 0.0660306 -0.036339 
0.0157819 0.0733351 -0.0226793 
0.0157819 0.0701039 -0.0297344 
-0.0170766 0.0126715 -0.0678961 
-0.00860345 0.0126715 -0.0694799 
-0.00873619 0.00271189 -0.0705516 
0.0232447 -0.0364741 -0.0600019 
0.030442 -0.0364741 -0.0566906 
0.0216745 -0.0455 -0.0559482 
0.0146347 -0.0455 -0.0581878 
0.0156951 -0.0364741 -0.0624035 
0.016504 -0.0270211 -0.0656204 
0.024443 -0.0270211 -0.0630948 
0.0320113 -0.0270211 -0.0596129 
-0.0694446 0.00271189 -0.0152086 
-0.0636376 0.00271189 -0.0316876 
-0.0670175 -0.00730592 -0.0236161 
-0.0694117 -0.00730592 -0.0152013 
-0.0481131 0.0409794 0.0363334 
-0.0439109 0.0495017 0.0331599 
-0.062112 0.0319247 0.0176723 
-0.0683767 0.00271189 0.0194547 
-0.0376153 -0.0455 0.0467448 
-0.0310302 0.0573861 0.0376813 
-0.0310367 0.0610746 0.0330532 
-0.0306216 0.0573861 0.0380537 
-0.0350659 0.0573861 0.0340022 
-0.039503 0.0495017 0.0383046 
-0.0377977 0.0409794 0.0469714 
-0.0344963 0.0495017 0.0428689 
-0.0432836 0.0409794 0.0419706 
0.016681 0.0495017 0.0524355 
0.0101107 0.0495017 0.0540879 
0.0449811 0.0573861 0.0190389 
0.0438582 0.0592108 0.0173889 
0.0469798 0.0573861 0.0133668 
0.0555223 0.0409794 0.0235005 
0.0522135 0.0409794 0.0301455 
0.0594695 0.0319247 0.0251712 
0.062112 0.0319247 0.0176723 
0.0579893 0.0409794 0.0164993 
0.0529245 0.0495017 0.0150581 
0.0506727 0.0495017 0.0214478 
0.0476529 0.0495017 0.0275125 
0.0645466 0.0319247 0.00198853 
0.0602624 0.0409794 0.00185662 
0.0595775 0.0409794 0.00924808 
0.0643017 0.0319247 -0.00595838 
0.0675411 0.0224495 -0.00625855 
0.0670277 0.0224495 0.0104045 
0.063813 0.0319247 0.00990552 
0.0677983 0.0224495 0.00208878 
0.0652411 0.0224495 0.0185626 
0.0691821 0.0126715 0.0107389 
0.0389786 0.0573861 0.0294352 
0.0423005 0.0573861 0.0244221 
0.0350659 0.0573861 0.0340022 
0.0306216 0.0573861 0.0380537 
0.0229982 0.0495017 0.0499882 
-0.0160766 0.0573861 0.0460542 
-0.016681 0.0495017 0.0524355 
-0.0229982 0.0495017 0.0499882 
-0.0148073 0.0573861 0.0465459 
-0.0204149 0.0573861 0.0443734 
-0.0160882 0.0609924 0.0424805 
0.00787234 0.077051 0.0158238 
0.0375965 0.0671123 0.00659162 
0.0375965 0.0659043 0.013004 
0.00787234 0.0790214 9.65471e-05 
0.00787234 0.078521 0.00802094 
0.00787234 0.0785447 -0.00782919 
0.0157819 0.077089 -0.00765115 
-0.0310367 0.0677893 -0.0205417 
-0.0310367 0.0648627 -0.0269316 
-0.0600337 0.0409794 -0.0055629 
-0.0588951 0.0409794 -0.0128981 
-0.0310177 0.0573861 -0.0376162 
-0.029326 0.0573861 -0.0389775 
-0.0329063 0.0573861 -0.0360964 
-0.0370701 0.0495017 -0.0406638 
-0.057807 0.0319247 -0.0287845 
-0.0378536 0.063804 -0.0190053 
-0.0440908 0.0590117 0.0173114 
-0.0440908 0.060801 0.0117128 
-0.0310367 0.0716114 8.54607e-05 
-0.0378536 0.0669304 0.00656867 
-0.0310367 0.0711684 0.00709981 
-0.0310367 0.0711894 -0.00693005 
-0.0237443 0.0745608 -0.00734222 
-0.0237443 0.0750078 9.05867e-05 
-0.0237443 0.0745385 0.00752193 
-0.0440908 0.0590634 -0.0171779 
-0.0378536 0.0669498 -0.00641173 
-0.0378536 0.0657651 -0.0128056 
-0.0160882 0.0774774 9.42821e-05 
-0.0081858 0.0789824 9.65471e-05 
-0.0160882 0.0769889 0.00782901 
0.0707537 -0.00730592 -0.00655627 
0.0707873 0.00271189 -0.00655931 
0.0694117 -0.00730592 -0.0152013 
0.0682914 -0.017258 -0.0149559 
0.0683442 -0.00730592 0.0194455 
0.0683767 0.00271189 0.0194547 
0.0702159 -0.00730592 0.0108995 
0.0672411 -0.017258 0.0191317 
0.0605436 -0.017258 0.034955 
0.0643804 -0.017258 0.0272499 
0.0438582 0.0624732 7.18708e-05 
0.0375965 0.0675235 7.9381e-05 
0.0438582 0.0621188 -0.00582123 
0.0438582 0.0610433 -0.0116261 
0.0539864 0.00271189 -0.0462526 
0.0457851 0.0409794 -0.0392264 
0.0417862 0.0495017 -0.0358001 
0.057807 0.0319247 -0.0287845 
0.0492563 0.0495017 -0.0245267 
0.0460678 0.0573861 -0.0162337 
0.0437238 0.0573861 -0.0217717 
0.0518969 0.0495017 -0.0182876 
0.0458689 0.0495017 -0.0303937 
0.0502586 0.0409794 -0.0333027 
0.0539702 0.0409794 -0.0268739 
0.0568637 0.0409794 -0.0200379 
-0.0156951 -0.0364741 -0.0624035 
-0.016504 -0.0270211 -0.0656204 
-0.0216745 -0.0455 -0.0559482 
-0.0146347 -0.0455 -0.0581878 
0.0455849 -0.0270211 -0.0500044 
0.0433502 -0.0364741 -0.0475531 
0.0488653 -0.0364741 -0.0418652 
0.0530898 -0.017258 -0.0454847 
0.00833553 0.0224495 -0.0673164 
0.00793576 0.0319247 -0.0640877 
0 0.0224495 -0.0678306 
0.0157512 0.0319247 -0.0626267 
0.0165446 0.0224495 -0.0657818 
0 0.0126715 -0.0700107 
0.00860345 0.0126715 -0.0694799 
0.0170766 0.0126715 -0.0678961 
-0.0628573 -0.0364741 -0.0137659 
-0.0565891 -0.0455 -0.0199413 
-0.0586107 -0.0455 -0.0128359 
-0.0606892 -0.0364741 -0.0213859 
-0.059744 -0.0455 -0.00553608 
-0.0640725 -0.0364741 -0.00593722 
-0.0660975 -0.0270211 -0.0144756 
-0.0673754 -0.0270211 -0.00624317 
-0.0346663 -0.0455 -0.0489718 
-0.0348346 0.0409794 -0.0492092 
-0.0285233 0.0409794 -0.0531169 
-0.031792 0.0495017 -0.0449113 
-0.0406178 0.0409794 -0.0445555 
-0.030551 0.0319247 -0.0568932 
-0.0391906 0.0224495 -0.0553629 
-0.0456971 0.0224495 -0.0501273 
-0.0435054 0.0319247 -0.0477232 
-0.0373109 0.0319247 -0.0527077 
-0.0320901 0.0224495 -0.0597594 
-0.0404503 0.0126715 -0.0571424 
0.0375965 0.0659429 -0.0128499 
0.0234499 0.0733154 -0.0146916 
0.0375965 0.0671318 -0.00643402 
0.023445 0.0573861 -0.0428239 
0.0234499 0.0593762 -0.0407579 
0.0231079 0.0573861 -0.0430324 
0.028221 0.0573861 -0.0398666 
0.031792 0.0495017 -0.0449113 
0.026032 0.0495017 -0.0484776 
0.0234499 0.0679589 -0.0285873 
0.0375965 0.0612578 -0.0250039 
0.0234499 0.0640427 -0.0349373 
0.0307587 0.0612959 -0.0330002 
0.0375965 0.0578325 -0.0305579 
-0.0173316 -0.00730592 -0.0689107 
-0.0173399 0.00271189 -0.0689434 
-0.00873202 -0.00730592 -0.0705182 
-0.0256808 0.00271189 -0.0662899 
-0.0256687 -0.00730592 -0.0662584 
-0.00859105 -0.017258 -0.06938 
-0.0170519 -0.017258 -0.0677984 
-0.0660308 0.0126715 -0.0232683 
-0.0670493 0.00271189 -0.0236273 
-0.0683898 0.0126715 -0.0149776 
-0.0626709 0.0126715 -0.0312063 
-0.0639746 0.0224495 -0.0225437 
-0.0607194 0.0224495 -0.0302347 
-0.0624654 0.0224495 0.0264392 
-0.0652411 0.0224495 0.0185626 
-0.0644732 0.0126715 0.0272891 
-0.0559254 0.0319247 0.0322886 
-0.0594695 0.0319247 0.0251712 
-0.0587429 0.0224495 0.0339152 
-0.0515336 0.0319247 0.0389163 
-0.0522135 0.0409794 0.0301455 
-0.0599715 -0.0455 0.00184768 
-0.0702159 -0.00730592 0.0108995 
-0.0683442 -0.00730592 0.0194455 
-0.0557893 -0.017258 0.04213 
-0.050189 -0.017258 0.0486665 
-0.0485768 -0.0270211 0.0471031 
-0.0486962 0.0224495 0.047219 
-0.0463607 0.0319247 0.0449542 
-0.0541298 0.0224495 0.0408769 
-0.0251992 0.0409794 0.0547721 
-0.031739 0.0409794 0.0512604 
-0.0567045 -0.00730592 0.0428211 
-0.0558695 0.0126715 0.0421907 
-0.0615368 -0.00730592 0.0355284 
-0.0615662 0.00271189 0.0355452 
-0.0606309 0.0126715 0.0350053 
0.0439109 0.0495017 0.0331599 
0.0481131 0.0409794 0.0363334 
0.039503 0.0495017 0.0383046 
0.0344963 0.0495017 0.0428689 
0.0541298 0.0224495 0.0408769 
0.0587429 0.0224495 0.0339152 
0.0559254 0.0319247 0.0322886 
0.0515336 0.0319247 0.0389163 
0.0502613 0.0126715 0.0487368 
0.0558695 0.0126715 0.0421907 
0.0567045 -0.00730592 0.0428211 
0.0438913 0.0126715 0.0545439 
0.0307587 0.064914 0.0271535 
0.0375965 0.0611827 0.0251438 
0.0375965 0.0639177 0.0192193 
0.0307587 0.0678675 0.0207555 
0.0375965 0.0577408 0.0306875 
0.0307587 0.061197 0.0331402 
0.0234499 0.0678731 0.0287473 
-0.0378536 0.0576828 -0.0304522 
-0.0310367 0.0611733 -0.0329137 
-0.0370926 0.0573861 -0.0317791 
-0.0417862 0.0495017 -0.0358001 
-0.0492563 0.0495017 -0.0245267 
-0.0518969 0.0495017 -0.0182876 
-0.0568637 0.0409794 -0.0200379 
-0.0539702 0.0409794 -0.0268739 
-0.0502586 0.0409794 -0.0333027 
-0.0430343 0.0573861 -0.0229659 
-0.0458689 0.0495017 -0.0303937 
-0.0407167 0.0573861 -0.0269799 
-0.0437238 0.0573861 -0.0217717 
-0.0378536 0.0610963 -0.0249175 
-0.0529245 0.0495017 0.0150581 
-0.0469798 0.0573861 0.0133668 
-0.0449811 0.0573861 0.0190389 
-0.0506727 0.0495017 0.0214478 
-0.0555223 0.0409794 0.0235005 
-0.0579893 0.0409794 0.0164993 
-0.0595775 0.0409794 0.00924808 
-0.0378536 0.0673402 7.91426e-05 
-0.0081858 0.0770132 0.0158142 
-0.000157942 0.0775147 0.0159411 
-0.000157942 0.0789956 0.00808042 
-0.0081858 0.0784823 0.00801605 
-0.0081858 0.0745974 0.0233728 
-0.000157942 0.0750795 0.0235605 
-0.0160882 0.0755541 0.0154452 
-0.0160882 0.0731947 0.0228274 
0.0615662 0.00271189 0.0355452 
0.0644732 0.0126715 0.0272891 
0.0606309 0.0126715 0.0350053 
0.0654676 0.00271189 0.02771 
0.0567315 0.00271189 0.0428416 
0.0615368 -0.00730592 0.0355284 
0.0654366 -0.00730592 0.0276968 
0.0698767 -0.017258 0.00215286 
0.0696117 -0.017258 -0.00645041 
0.0690826 -0.017258 0.0107235 
0.0710231 -0.00730592 0.00218815 
0.0376153 -0.0455 0.0467448 
0.0430745 -0.0455 0.041768 
0.0557262 -0.0364741 0.0321735 
0.0519615 -0.0455 0.0299999 
0.0478809 -0.0455 0.036158 
0.0513499 -0.0364741 0.0387776 
0.0623121 -0.0270211 0.0263743 
0.0585986 -0.0270211 0.033832 
0.0315859 -0.0455 0.0510129 
-0.0250776 -0.0455 0.0545079 
0.0592574 -0.0364741 0.0250816 
0.0552543 -0.0455 0.0233871 
0.0577095 -0.0455 0.0164196 
0.0471658 0.0126715 -0.0517385 
0.0456971 0.0224495 -0.0501273 
0.0531663 0.0126715 -0.0455501 
0.0435054 0.0319247 -0.0477232 
0.0490401 0.0319247 -0.0420149 
0.0564048 -0.0270211 -0.0373752 
0.0513843 -0.0270211 -0.0440235 
0.0582771 -0.017258 -0.0386158 
0.0625808 -0.017258 -0.0311614 
0.0605702 -0.0270211 -0.0301603 
0.0536397 -0.0364741 -0.0355431 
0.0576011 -0.0364741 -0.028682 
-0.0455849 -0.0270211 -0.0500044 
-0.0433502 -0.0364741 -0.0475531 
-0.0371779 -0.0364741 -0.0525197 
0.0307587 0.0679294 -0.0205957 
0.0307587 0.0700547 -0.013877 
0.0234499 0.0710655 -0.0218046 
0.0307587 0.0649951 -0.0270025 
0.0375965 0.063975 -0.0190714 
-0.0430745 -0.0455 0.041768 
-0.0577095 -0.0455 0.0164196 
-0.0690826 -0.017258 0.0107235 
-0.0635855 -0.0364741 0.00987023 
-0.0592899 -0.0455 0.00920349 
-0.0643165 -0.0364741 0.00198156 
-0.067632 -0.0270211 0.00208366 
-0.0668632 -0.0270211 0.0103789 
-0.0643804 -0.017258 0.0272499 
-0.0605436 -0.017258 0.034955 
-0.0672411 -0.017258 0.0191317 
-0.0654366 -0.00730592 0.0276968 
-0.0618906 -0.0364741 0.0176093 
-0.065081 -0.0270211 0.018517 
-0.040485 0.0319247 0.0503108 
-0.0510367 0.00271189 0.0494885 
-0.0567315 0.00271189 0.0428416 
-0.0502613 0.0126715 0.0487368 
-0.0438913 0.0126715 0.0545439 
-0.0445683 0.00271189 0.0553852 
-0.0510124 -0.00730592 0.049465 
-0.0445472 -0.00730592 0.0553588 
-0.0438281 -0.017258 0.0544653 
-0.0403407 -0.0364741 0.0501314 
0.0445683 0.00271189 0.0553852 
0.0510367 0.00271189 0.0494885 
0.0510124 -0.00730592 0.049465 
0.0377977 0.0409794 0.0469714 
0.031739 0.0409794 0.0512604 
0.0432836 0.0409794 0.0419706 
0.0463607 0.0319247 0.0449542 
0.0486962 0.0224495 0.047219 
0.0425244 0.0224495 0.0528453 
0.0251992 0.0409794 0.0547721 
0.0234499 0.0732711 0.0148676 
0.0157819 0.0756292 0.015464 
0.0157819 0.0770658 0.00783867 
0.0234499 0.0709999 0.0219737 
0.0157819 0.0732669 0.0228555 
0.0307587 0.0700128 0.0140434 
0.0234499 0.0751225 9.07059e-05 
0.0307587 0.0713174 0.00711834 
0.0307587 0.0717615 8.56991e-05 
0.0234499 0.0746523 0.00753623 
0.0307587 0.0713385 -0.00694823 
0.0234499 0.0746746 -0.00735611 
0.0157819 0.0775549 9.44014e-05 
-0.0440908 0.0618892 0.00593716 
-0.0482664 0.0573861 0.00749224 
-0.0549989 0.0495017 0.0016945 
-0.0543738 0.0495017 0.00844031 
-0.0476374 0.0573861 -0.0107171 
-0.0460678 0.0573861 -0.0162337 
-0.0440908 0.0608358 -0.0115743 
-0.0477135 0.0573861 -0.0104493 
-0.0537511 0.0495017 -0.0117716 
0.0250776 -0.0455 0.0545079 
0.0338743 -0.0364741 0.0547088 
0.0485768 -0.0270211 0.0471031 
0.0461954 -0.0364741 0.0447941 
0.0403407 -0.0364741 0.0501314 
0.053997 -0.0270211 0.0407766 
0.0557893 -0.017258 0.04213 
0.050189 -0.017258 0.0486665 
-0.0315859 -0.0455 0.0510129 
0.0635855 -0.0364741 0.00987023 
0.0668632 -0.0270211 0.0103789 
0.065081 -0.0270211 0.018517 
0.0618906 -0.0364741 0.0176093 
0.067632 -0.0270211 0.00208366 
0.0643165 -0.0364741 0.00198156 
0.0592899 -0.0455 0.00920349 
0.0565435 0.0224495 -0.0374672 
0.0538316 0.0319247 -0.0356702 
0.0607194 0.0224495 -0.0302347 
0.0515108 0.0224495 -0.0441316 
0.058361 0.0126715 -0.0386714 
-0.0320113 -0.0270211 -0.0596129 
-0.0403921 -0.017258 -0.0570602 
-0.0330739 -0.017258 -0.0615914 
-0.0390944 -0.0270211 -0.0552272 
-0.0252542 -0.017258 -0.065189 
-0.024443 -0.0270211 -0.0630948 
-0.030442 -0.0364741 -0.0566906 
-0.0232447 -0.0364741 -0.0600019 
-0.0461954 -0.0364741 0.0447941 
-0.0425244 0.0224495 0.0528453 
-0.0339954 0.0319247 0.0549046 
-0.0424201 -0.0270211 0.0527156 
0.0438281 -0.017258 0.0544653 
0.0424201 -0.0270211 0.0527156 
0.0445472 -0.00730592 0.0553588 
0.040485 0.0319247 0.0503108 
-0.048521 0.0573861 -0.00524831 
-0.0440908 0.0619068 -0.00579524 
-0.0557262 -0.0364741 0.0321735 
-0.0478809 -0.0455 0.036158 
-0.0519615 -0.0455 0.0299999 
-0.0513499 -0.0364741 0.0387776 
-0.0552543 -0.0455 0.0233871 
-0.0592574 -0.0364741 0.0250816 
-0.0585986 -0.0270211 0.033832 
-0.0623121 -0.0270211 0.0263743 
-0.053997 -0.0270211 0.0407766 
-0.0338743 -0.0364741 0.0547088 
0.0339954 0.0319247 0.0549046 
-0.0487769 0.0573861 6.43606e-05 
-0.0488213 0.0573861 0.00150412 
-0.0440908 0.0622596 7.15132e-05 
-0.0486359 0.0573861 -0.00450683 
-0.0547901 0.0495017 -0.005077 
0.00300688 0.0573861 0.0487518 
0.00338727 0.0495017 0.0549206 
-0.00338727 0.0495017 0.0549206 
-0.00300688 0.0573861 0.0487518 
-0.000157942 0.0624854 0.0438446 
0.0371571 -0.0555 0.0334565 
0.0293893 -0.0555 -0.0404508 
0.0203367 -0.0555 -0.0456773 
-0.0433012 -0.0555 -0.025 
-0.0475528 -0.0555 -0.0154507 
0 -0.0555 0.05 
-0.0103955 -0.0555 0.0489072 
-0.0203367 -0.0555 -0.0456773 
-0.0293893 -0.0555 -0.0404508 
-0.0497259 -0.0555 -0.00522637 
-0.0497259 -0.0555 0.00522643 
-0.0371571 -0.0555 -0.0334566 
0.0475528 -0.0555 -0.0154507 
0.0497259 -0.0555 -0.00522637 
0.0371571 -0.0555 -0.0334566 
-0.0103955 -0.0555 -0.0489073 
0 -0.0555 -0.0499999 
0.0103955 -0.0555 -0.0489073 
0.0203367 -0.0555 0.0456772 
0.0293893 -0.0555 0.0404508 
0.0433012 -0.0555 -0.025 
0.0497259 -0.0555 0.00522643 
-0.0203367 -0.0555 0.0456772 
0.0103955 -0.0555 0.0489072 
0.0475528 -0.0555 0.0154506 
-0.0475528 -0.0555 0.0154506 
-0.0433012 -0.0555 0.0249998 
-0.0371571 -0.0555 0.0334565 
0.0433012 -0.0555 0.0249998 
-0.0293893 -0.0555 0.0404508 
0.0302925 0.0319211 0.057 
0.00482827 0.0462282 0.057 
0.00598597 0.0460554 0.057 
0.0100538 0.0451465 0.057 
0.0406103 0.0126684 0.057 
0.0415514 0.00901806 0.057 
-0.0195454 0.0409788 0.057 
-0.0179903 0.0419215 0.057 
-0.0247875 0.0373533 0.057 
-0.0280684 0.0343785 0.057 
-0.018735 -0.0455 0.057 
0.018735 -0.0455 0.057 
-0.0424532 0.00304562 0.057 
-0.0417727 0.00790161 0.057 
-0.0103433 0.0450634 0.057 
-0.0106572 0.0449536 0.057 
0.0418671 0.00738203 0.057 
-0.0262278 -0.0400884 0.057 
-0.0292409 -0.0371519 0.057 
-0.00734192 0.0458053 0.057 
-0.0142338 0.0437006 0.057 
0.0367536 0.0224481 0.057 
0.0386845 0.0183344 0.057 
0.0217107 -0.0436476 0.057 
0.0251942 -0.0410048 0.057 
0.0297894 -0.0364704 0.057 
0.0281425 -0.0382936 0.057 
-0.0224889 -0.0431044 0.057 
-0.0259929 -0.0403172 0.057 
-0.00327992 0.0464009 0.057 
0.000778153 0.0465401 0.057 
-0.0216042 0.0397307 0.057 
-0.00351602 0.0463663 0.057 
-0.0303001 0.0319217 0.057 
-0.0310754 0.0310679 0.057 
0.0140076 0.0437928 0.057 
0.0176542 0.0421004 0.057 
0.0181382 0.0418117 0.057 
0.0425054 0.00245678 0.057 
0.0426872 -0.00246948 0.057 
-0.041416 -0.0136344 0.057 
-0.0422586 -0.00879598 0.057 
0.036302 -0.0273153 0.057 
0.0338961 -0.031276 0.057 
-0.0411186 0.010913 0.057 
-0.042473 -0.00682032 0.057 
-0.0380464 -0.0238038 0.057 
-0.0384171 -0.0229597 0.057 
0.0214327 0.0398463 0.057 
0.0424724 0.00271142 0.057 
0.0397261 -0.0195853 0.057 
0.041104 -0.0149601 0.057 
0.0311701 0.0309528 0.057 
0.0339644 0.0271854 0.057 
0.0311734 -0.0349381 0.057 
0.0403305 0.0137531 0.057 
0.0262356 0.036051 0.057 
0.0249845 0.0371907 0.057 
-0.0404357 -0.0172547 0.057 
-0.0379739 0.0199748 0.057 
-0.0397441 0.015544 0.057 
-0.0426893 -0.00186551 0.057 
-0.0367117 0.022444 0.057 
-0.035816 0.0241959 0.057 
-0.0424694 0.00271171 0.057 
0.042065 -0.0101749 0.057 
0.0262343 -0.0400484 0.057 
0.0353054 0.0249383 0.057 
-0.0338002 0.0274289 0.057 
-0.0401359 -0.0183613 0.057 
-0.0298478 -0.0364736 0.057 
0.0366141 0.0227451 0.057 
0.0424195 -0.00738311 0.057 
0.0280358 0.034411 0.057 
0.0379393 -0.0240403 0.057 
-0.0358792 -0.0280744 0.057 
-0.0333405 -0.0320841 0.057 
-0.0304354 -0.0358167 0.057 
-0.035301 -0.0289878 0.057 
3 78 64 711 
3 263 698 699 
3 23 22 28 
3 23 71 72 
3 5 23 72 
3 5 23 28 
3 31 5 28 
3 134 10 289 
3 367 525 173 
3 50 0 3 
3 54 362 191 
3 198 325 199 
3 76 232 75 
3 705 692 7 
3 705 78 711 
3 125 692 7 
3 125 400 7 
3 83 694 695 
3 9 418 417 
3 424 95 96 
3 12 13 96 
3 12 102 96 
3 93 16 0 
3 93 109 92 
3 104 0 3 
3 104 16 0 
3 108 109 103 
3 49 50 0 
3 49 93 0 
3 49 93 94 
3 396 239 451 
3 98 275 269 
3 276 275 269 
3 447 77 1 
3 447 1 24 
3 438 14 228 
3 438 271 14 
3 19 71 556 
3 19 558 556 
3 19 558 116 
3 21 23 71 
3 123 410 22 
3 123 29 22 
3 25 122 24 
3 25 1 24 
3 25 123 122 
3 25 123 29 
3 25 77 1 
3 27 22 28 
3 27 29 22 
3 399 400 127 
3 399 31 127 
3 283 234 237 
3 4 5 6 
3 4 31 5 
3 4 399 402 
3 4 399 31 
3 32 31 28 
3 140 9 139 
3 140 9 10 
3 140 467 35 
3 140 134 35 
3 140 134 10 
3 581 9 139 
3 581 9 418 
3 2 36 35 
3 2 36 293 
3 2 467 35 
3 2 467 293 
3 38 293 460 
3 38 36 293 
3 39 50 3 
3 39 104 3 
3 105 343 106 
3 105 342 343 
3 105 39 342 
3 105 39 104 
3 143 301 297 
3 53 158 60 
3 144 158 60 
3 144 145 60 
3 162 158 690 
3 162 144 336 
3 162 144 158 
3 164 160 690 
3 169 160 170 
3 87 260 176 
3 261 260 176 
3 366 40 47 
3 366 367 40 
3 366 361 362 
3 422 190 102 
3 43 141 57 
3 55 52 191 
3 55 43 57 
3 55 354 52 
3 55 354 136 
3 55 43 136 
3 347 63 507 
3 360 366 47 
3 360 366 361 
3 59 54 191 
3 59 530 60 
3 509 504 99 
3 62 194 457 
3 62 194 100 
3 129 63 132 
3 129 178 346 
3 129 178 130 
3 129 347 346 
3 129 347 63 
3 192 63 507 
3 151 41 196 
3 153 324 325 
3 709 732 714 
3 703 64 711 
3 202 703 704 
3 217 370 220 
3 566 78 64 
3 69 222 223 
3 70 383 223 
3 70 562 402 
3 70 4 402 
3 70 4 6 
3 73 5 72 
3 73 5 6 
3 73 70 6 
3 73 70 383 
3 227 14 228 
3 74 41 196 
3 74 76 196 
3 74 76 75 
3 74 318 41 
3 195 76 196 
3 212 76 232 
3 213 232 75 
3 319 213 75 
3 388 270 382 
3 388 270 389 
3 236 396 239 
3 240 705 7 
3 240 705 78 
3 240 400 7 
3 124 692 693 
3 124 125 692 
3 124 280 693 
3 79 706 707 
3 79 707 235 
3 79 236 235 
3 80 707 235 
3 80 234 235 
3 80 281 234 
3 282 281 234 
3 282 283 234 
3 407 410 114 
3 254 262 253 
3 254 110 111 
3 702 84 699 
3 702 84 259 
3 82 83 694 
3 82 702 694 
3 82 702 259 
3 82 83 256 
3 419 263 699 
3 419 84 699 
3 255 85 417 
3 8 85 417 
3 8 9 417 
3 8 85 289 
3 8 10 289 
3 8 9 10 
3 90 91 13 
3 11 91 244 
3 11 91 13 
3 11 266 244 
3 11 266 13 
3 265 13 96 
3 265 266 13 
3 427 61 99 
3 427 61 100 
3 101 12 102 
3 101 90 185 
3 101 12 13 
3 101 90 13 
3 443 227 14 
3 443 227 444 
3 443 271 14 
3 272 109 103 
3 15 93 16 
3 15 93 109 
3 15 272 16 
3 15 272 109 
3 274 104 16 
3 274 272 16 
3 17 91 92 
3 17 18 92 
3 17 91 244 
3 17 18 244 
3 243 109 92 
3 243 18 92 
3 243 18 244 
3 450 239 451 
3 450 77 239 
3 450 447 77 
3 97 424 429 
3 97 424 95 
3 97 112 275 
3 97 98 275 
3 277 447 24 
3 229 438 228 
3 113 19 71 
3 113 21 71 
3 113 21 114 
3 113 19 116 
3 20 410 114 
3 20 21 114 
3 20 410 22 
3 20 23 22 
3 20 21 23 
3 408 276 269 
3 408 405 269 
3 408 277 24 
3 408 277 276 
3 408 122 24 
3 26 77 237 
3 26 25 77 
3 26 25 29 
3 30 283 284 
3 30 26 29 
3 30 283 237 
3 30 26 237 
3 33 27 28 
3 33 32 28 
3 33 27 29 
3 33 30 29 
3 33 30 284 
3 285 31 127 
3 285 32 31 
3 285 33 284 
3 285 33 32 
3 131 36 37 
3 131 135 37 
3 131 135 130 
3 454 133 134 
3 34 134 35 
3 34 133 134 
3 34 36 35 
3 34 131 36 
3 34 131 133 
3 459 36 37 
3 459 38 36 
3 459 38 460 
3 459 135 37 
3 138 293 460 
3 138 480 460 
3 481 463 460 
3 481 480 460 
3 48 39 40 
3 48 39 50 
3 48 51 50 
3 48 40 47 
3 172 39 40 
3 172 367 173 
3 172 367 40 
3 172 39 342 
3 688 740 147 
3 735 740 147 
3 735 736 147 
3 296 145 297 
3 296 145 57 
3 296 141 57 
3 335 143 333 
3 146 143 333 
3 146 143 301 
3 728 332 333 
3 728 475 333 
3 687 688 751 
3 495 496 327 
3 306 496 327 
3 306 496 152 
3 156 330 155 
3 149 156 330 
3 149 156 171 
3 313 318 312 
3 313 318 41 
3 313 151 41 
3 488 310 487 
3 154 310 487 
3 154 310 324 
3 311 310 324 
3 311 318 312 
3 482 315 327 
3 603 330 155 
3 159 53 158 
3 159 53 528 
3 161 688 147 
3 161 332 147 
3 432 343 106 
3 432 620 343 
3 339 496 152 
3 339 338 152 
3 380 617 619 
3 380 338 617 
3 167 169 613 
3 167 159 528 
3 167 169 160 
3 167 159 160 
3 500 169 613 
3 341 337 525 
3 42 291 136 
3 42 141 291 
3 42 43 136 
3 42 43 141 
3 299 141 291 
3 299 291 302 
3 299 301 302 
3 252 261 176 
3 252 262 253 
3 252 261 262 
3 177 194 287 
3 177 194 250 
3 177 252 250 
3 177 175 287 
3 44 249 250 
3 44 194 250 
3 44 249 100 
3 44 194 100 
3 45 430 429 
3 45 97 429 
3 45 97 112 
3 45 112 111 
3 45 430 111 
3 521 178 130 
3 521 135 130 
3 344 365 353 
3 363 365 353 
3 421 422 102 
3 421 102 96 
3 421 424 96 
3 46 180 183 
3 46 51 183 
3 46 360 47 
3 46 360 180 
3 46 48 47 
3 46 48 51 
3 181 49 50 
3 181 51 50 
3 181 49 94 
3 181 186 94 
3 181 188 186 
3 181 51 183 
3 355 52 622 
3 355 354 52 
3 517 354 136 
3 357 52 622 
3 357 522 622 
3 357 52 191 
3 527 53 60 
3 527 530 60 
3 527 53 528 
3 529 54 362 
3 529 59 54 
3 529 59 530 
3 58 59 191 
3 58 55 191 
3 58 55 57 
3 56 145 57 
3 56 58 57 
3 56 58 59 
3 56 145 60 
3 56 59 60 
3 193 61 99 
3 193 509 99 
3 193 61 100 
3 193 62 100 
3 193 62 457 
3 456 192 457 
3 456 454 132 
3 456 63 132 
3 456 192 63 
3 197 338 152 
3 197 151 152 
3 197 151 196 
3 197 380 338 
3 374 198 325 
3 374 153 325 
3 550 709 710 
3 200 703 64 
3 200 202 703 
3 200 202 207 
3 200 566 64 
3 204 712 704 
3 65 323 325 
3 65 217 323 
3 65 325 199 
3 65 370 199 
3 65 217 370 
3 563 69 562 
3 210 563 209 
3 66 370 220 
3 66 219 220 
3 66 370 371 
3 66 219 371 
3 67 219 371 
3 67 371 209 
3 67 69 222 
3 67 219 222 
3 67 563 209 
3 67 563 69 
3 68 69 562 
3 68 70 562 
3 68 69 223 
3 68 70 223 
3 555 71 72 
3 555 73 72 
3 555 71 556 
3 555 73 383 
3 81 108 103 
3 81 436 103 
3 439 120 438 
3 439 81 121 
3 439 81 436 
3 317 74 75 
3 317 74 318 
3 317 319 75 
3 211 195 76 
3 211 212 76 
3 224 219 222 
3 391 226 444 
3 394 213 232 
3 386 649 214 
3 386 394 214 
3 386 394 393 
3 231 212 232 
3 395 236 396 
3 238 77 237 
3 238 77 239 
3 565 566 78 
3 565 240 78 
3 398 79 706 
3 398 79 236 
3 398 395 236 
3 708 80 707 
3 708 80 281 
3 708 280 693 
3 708 281 280 
3 245 81 121 
3 245 81 108 
3 245 246 247 
3 406 118 114 
3 406 407 114 
3 656 654 110 
3 656 449 110 
3 251 430 111 
3 251 254 111 
3 251 430 249 
3 258 87 256 
3 258 82 256 
3 258 87 260 
3 258 82 259 
3 412 83 256 
3 412 83 695 
3 412 413 695 
3 416 581 580 
3 416 581 418 
3 700 413 695 
3 700 701 466 
3 653 254 262 
3 653 654 110 
3 653 254 110 
3 568 419 84 
3 568 84 259 
3 88 175 176 
3 88 255 85 
3 88 87 176 
3 288 85 289 
3 288 175 287 
3 288 88 85 
3 288 88 175 
3 86 87 256 
3 86 255 256 
3 86 88 87 
3 86 88 255 
3 89 90 91 
3 89 91 92 
3 89 90 185 
3 89 93 92 
3 89 93 94 
3 89 186 185 
3 89 186 94 
3 267 95 96 
3 267 265 96 
3 267 97 95 
3 267 97 98 
3 267 98 269 
3 423 427 99 
3 423 504 351 
3 423 504 99 
3 423 422 351 
3 426 249 100 
3 426 427 100 
3 426 430 249 
3 184 101 185 
3 184 190 102 
3 184 101 102 
3 441 226 444 
3 435 436 103 
3 435 272 103 
3 273 274 104 
3 273 105 106 
3 273 105 104 
3 273 432 106 
3 107 108 109 
3 107 243 109 
3 107 245 108 
3 107 245 243 
3 448 110 111 
3 448 449 110 
3 448 112 111 
3 448 112 275 
3 648 386 649 
3 119 113 116 
3 119 118 114 
3 119 113 114 
3 115 558 116 
3 115 229 558 
3 115 119 116 
3 115 119 120 
3 115 229 438 
3 115 120 438 
3 117 406 118 
3 117 406 247 
3 117 119 118 
3 117 119 120 
3 117 245 121 
3 117 245 247 
3 117 439 121 
3 117 439 120 
3 409 408 122 
3 409 123 122 
3 409 123 410 
3 126 400 127 
3 126 125 400 
3 279 124 280 
3 279 124 125 
3 279 126 125 
3 279 285 127 
3 279 126 127 
3 128 129 130 
3 128 131 130 
3 128 129 132 
3 128 131 133 
3 128 454 132 
3 128 454 133 
3 286 134 289 
3 286 454 134 
3 292 459 135 
3 292 521 520 
3 292 521 135 
3 137 465 291 
3 137 291 136 
3 137 517 136 
3 137 517 518 
3 519 292 520 
3 519 137 518 
3 519 137 465 
3 586 138 293 
3 586 138 480 
3 577 581 139 
3 577 582 581 
3 577 140 139 
3 577 140 467 
3 750 688 751 
3 298 296 141 
3 298 299 141 
3 142 335 336 
3 142 335 143 
3 142 144 336 
3 142 144 145 
3 142 145 297 
3 142 143 297 
3 476 146 301 
3 476 475 333 
3 476 146 333 
3 741 728 332 
3 741 736 147 
3 741 332 147 
3 727 475 752 
3 727 728 475 
3 723 724 304 
3 723 687 304 
3 757 303 330 
3 329 156 171 
3 150 149 330 
3 150 303 165 
3 150 303 330 
3 148 171 170 
3 148 149 171 
3 148 150 149 
3 148 150 165 
3 148 164 165 
3 148 160 170 
3 148 164 160 
3 307 313 151 
3 307 151 152 
3 307 306 152 
3 309 488 310 
3 309 482 483 
3 309 482 315 
3 309 489 483 
3 309 489 488 
3 532 153 324 
3 532 154 324 
3 532 374 153 
3 532 154 487 
3 532 533 487 
3 322 311 318 
3 322 311 324 
3 498 482 484 
3 485 603 155 
3 485 156 155 
3 485 329 156 
3 157 158 690 
3 157 159 158 
3 157 160 690 
3 157 159 160 
3 689 161 688 
3 689 162 690 
3 689 161 162 
3 334 161 332 
3 334 162 336 
3 334 161 162 
3 686 164 690 
3 163 164 165 
3 163 686 164 
3 163 303 165 
3 163 303 304 
3 163 687 304 
3 163 686 687 
3 166 337 613 
3 166 167 613 
3 166 337 528 
3 166 167 528 
3 612 500 613 
3 168 169 170 
3 168 500 169 
3 168 171 170 
3 168 500 499 
3 168 329 499 
3 168 329 171 
3 340 172 173 
3 340 172 342 
3 340 525 173 
3 340 341 525 
3 611 341 337 
3 174 175 176 
3 174 252 176 
3 174 177 175 
3 174 177 252 
3 624 685 346 
3 624 178 346 
3 624 521 178 
3 624 521 625 
3 179 344 365 
3 179 364 359 
3 179 364 365 
3 179 360 359 
3 179 360 180 
3 179 180 183 
3 179 344 183 
3 182 181 183 
3 182 181 188 
3 345 188 502 
3 345 182 188 
3 345 344 183 
3 345 182 183 
3 189 184 190 
3 189 184 185 
3 189 186 185 
3 189 188 186 
3 187 188 502 
3 187 349 502 
3 187 189 188 
3 187 189 190 
3 187 422 190 
3 187 349 422 
3 350 422 351 
3 511 509 504 
3 358 362 191 
3 358 357 191 
3 628 363 365 
3 524 337 525 
3 524 337 528 
3 368 366 362 
3 368 529 362 
3 352 192 507 
3 352 193 509 
3 352 192 457 
3 352 193 457 
3 455 194 457 
3 455 194 287 
3 541 370 199 
3 203 644 645 
3 203 206 644 
3 203 206 207 
3 539 206 644 
3 379 195 196 
3 379 197 196 
3 379 211 195 
3 379 197 380 
3 537 536 377 
3 375 374 198 
3 375 198 199 
3 375 541 199 
3 719 715 553 
3 719 545 553 
3 542 550 710 
3 542 550 635 
3 631 709 732 
3 631 550 709 
3 632 550 635 
3 493 600 599 
3 493 490 600 
3 696 731 732 
3 696 732 714 
3 696 697 731 
3 713 697 731 
3 713 551 731 
3 713 720 639 
3 713 551 639 
3 208 200 207 
3 208 200 566 
3 208 210 566 
3 201 202 704 
3 201 204 704 
3 201 202 207 
3 201 203 207 
3 201 204 645 
3 201 203 645 
3 646 712 715 
3 646 204 712 
3 646 204 645 
3 372 371 209 
3 205 206 207 
3 205 208 207 
3 205 208 210 
3 205 539 206 
3 205 372 539 
3 205 210 209 
3 205 372 209 
3 564 210 566 
3 564 210 563 
3 381 211 212 
3 381 231 382 
3 381 231 212 
3 381 379 211 
3 215 216 319 
3 215 319 213 
3 215 394 214 
3 215 394 213 
3 221 649 214 
3 221 215 214 
3 221 215 216 
3 221 216 220 
3 320 216 319 
3 320 217 323 
3 320 217 220 
3 320 216 220 
3 218 219 220 
3 218 224 219 
3 218 221 220 
3 218 224 649 
3 218 221 649 
3 651 222 223 
3 651 224 222 
3 651 383 223 
3 651 224 649 
3 225 391 389 
3 225 391 226 
3 225 441 389 
3 225 441 226 
3 384 229 558 
3 385 227 444 
3 385 391 444 
3 385 227 228 
3 385 229 228 
3 385 384 229 
3 390 388 232 
3 390 394 232 
3 230 388 382 
3 230 231 382 
3 230 388 232 
3 230 231 232 
3 657 396 451 
3 657 656 451 
3 233 234 235 
3 233 236 235 
3 233 234 237 
3 233 238 237 
3 233 236 239 
3 233 238 239 
3 401 240 400 
3 401 565 240 
3 397 706 698 
3 397 398 706 
3 397 263 698 
3 241 266 244 
3 241 246 244 
3 241 266 268 
3 241 246 268 
3 242 243 244 
3 242 245 243 
3 242 246 244 
3 242 245 246 
3 404 246 247 
3 404 406 247 
3 404 246 268 
3 404 405 268 
3 248 249 250 
3 248 251 249 
3 248 252 253 
3 248 252 250 
3 248 254 253 
3 248 251 254 
3 414 255 417 
3 414 255 256 
3 414 412 256 
3 415 700 466 
3 415 700 413 
3 415 466 580 
3 415 416 580 
3 257 258 259 
3 257 568 259 
3 257 258 260 
3 257 568 260 
3 567 568 260 
3 567 261 262 
3 567 261 260 
3 567 653 262 
3 658 419 263 
3 658 397 263 
3 264 265 266 
3 264 267 265 
3 264 266 268 
3 264 267 269 
3 264 405 269 
3 264 405 268 
3 428 424 429 
3 574 270 382 
3 574 431 382 
3 574 270 389 
3 574 441 389 
3 437 438 271 
3 437 443 271 
3 442 435 272 
3 442 274 440 
3 442 274 272 
3 442 437 443 
3 442 437 435 
3 572 273 432 
3 572 274 440 
3 572 273 274 
3 446 448 275 
3 446 276 275 
3 446 277 276 
3 446 277 447 
3 278 279 280 
3 278 281 280 
3 278 282 281 
3 278 283 284 
3 278 282 283 
3 278 285 284 
3 278 279 285 
3 453 286 454 
3 453 455 287 
3 453 288 287 
3 453 288 289 
3 453 286 289 
3 290 464 302 
3 290 464 465 
3 290 291 302 
3 290 465 291 
3 473 589 302 
3 473 464 302 
3 462 519 292 
3 462 292 459 
3 462 519 465 
3 294 720 639 
3 294 598 639 
3 294 718 720 
3 294 718 575 
3 674 717 716 
3 468 467 293 
3 468 586 293 
3 730 476 475 
3 597 471 470 
3 595 597 470 
3 595 597 596 
3 660 471 598 
3 660 294 598 
3 660 294 575 
3 660 471 678 
3 663 471 598 
3 663 597 471 
3 753 688 740 
3 753 750 688 
3 295 296 297 
3 295 298 296 
3 295 301 297 
3 295 299 301 
3 295 298 299 
3 300 301 302 
3 300 476 301 
3 300 589 302 
3 300 476 589 
3 722 687 751 
3 722 723 687 
3 756 757 303 
3 756 724 304 
3 756 303 304 
3 305 306 327 
3 305 307 306 
3 305 314 313 
3 305 307 313 
3 305 315 327 
3 305 314 315 
3 606 493 607 
3 606 493 490 
3 602 485 603 
3 308 309 310 
3 308 311 312 
3 308 311 310 
3 308 313 312 
3 308 314 313 
3 308 314 315 
3 308 309 315 
3 316 317 318 
3 316 322 318 
3 316 317 319 
3 316 322 323 
3 316 320 323 
3 316 320 319 
3 321 322 323 
3 321 322 324 
3 321 323 325 
3 321 324 325 
3 326 495 327 
3 326 498 495 
3 326 482 327 
3 326 498 482 
3 328 498 484 
3 328 485 484 
3 328 485 329 
3 328 329 499 
3 328 498 499 
3 737 770 599 
3 737 493 599 
3 737 493 726 
3 608 794 603 
3 608 603 330 
3 608 758 769 
3 608 758 757 
3 608 757 330 
3 331 332 333 
3 331 334 332 
3 331 335 333 
3 331 335 336 
3 331 334 336 
3 497 612 614 
3 497 339 614 
3 497 339 496 
3 497 612 500 
3 610 337 613 
3 610 611 337 
3 616 338 617 
3 616 339 614 
3 616 339 338 
3 621 340 341 
3 621 611 341 
3 621 342 343 
3 621 340 342 
3 621 620 343 
3 514 344 353 
3 514 345 344 
3 514 345 502 
3 630 685 346 
3 630 347 346 
3 630 347 507 
3 630 506 507 
3 348 349 502 
3 348 350 502 
3 348 349 422 
3 348 350 422 
3 503 350 502 
3 503 504 351 
3 503 350 351 
3 508 352 507 
3 508 352 509 
3 513 363 353 
3 513 514 353 
3 516 517 354 
3 516 355 354 
3 623 355 622 
3 623 516 355 
3 356 357 522 
3 356 358 357 
3 356 364 359 
3 356 364 522 
3 356 360 359 
3 356 360 361 
3 356 361 362 
3 356 358 362 
3 627 628 363 
3 627 513 363 
3 627 630 506 
3 669 364 522 
3 669 364 365 
3 669 628 365 
3 526 366 367 
3 526 368 366 
3 526 367 525 
3 526 368 529 
3 642 552 548 
3 369 539 541 
3 369 370 371 
3 369 541 370 
3 369 372 371 
3 369 372 539 
3 378 537 377 
3 378 537 376 
3 378 642 376 
3 378 642 548 
3 534 532 374 
3 534 537 374 
3 373 537 374 
3 373 375 374 
3 373 537 376 
3 373 375 376 
3 540 375 376 
3 540 642 376 
3 540 375 541 
3 637 636 377 
3 637 536 377 
3 637 492 536 
3 637 601 638 
3 637 601 492 
3 549 636 377 
3 549 378 377 
3 549 378 548 
3 691 542 710 
3 691 542 543 
3 764 632 775 
3 764 632 635 
3 725 493 776 
3 725 493 726 
3 749 551 639 
3 554 715 553 
3 554 646 715 
3 433 379 380 
3 433 381 379 
3 433 380 619 
3 433 431 382 
3 433 381 382 
3 557 555 383 
3 557 651 383 
3 559 384 558 
3 559 384 648 
3 392 384 648 
3 392 385 391 
3 392 385 384 
3 392 386 393 
3 392 648 386 
3 387 388 389 
3 387 390 388 
3 387 391 389 
3 387 392 393 
3 387 392 391 
3 387 394 393 
3 387 390 394 
3 659 395 396 
3 659 657 396 
3 659 658 397 
3 659 398 395 
3 659 397 398 
3 561 399 400 
3 561 401 400 
3 561 399 402 
3 561 401 565 
3 561 562 402 
3 403 404 405 
3 403 406 407 
3 403 404 406 
3 403 408 405 
3 403 409 408 
3 403 407 410 
3 403 409 410 
3 411 412 413 
3 411 414 412 
3 411 415 413 
3 411 415 416 
3 411 414 417 
3 411 418 417 
3 411 416 418 
3 569 568 419 
3 569 658 419 
3 420 421 422 
3 420 423 422 
3 420 421 424 
3 420 428 424 
3 420 423 427 
3 420 428 427 
3 425 426 427 
3 425 428 427 
3 425 428 429 
3 425 430 429 
3 425 426 430 
3 571 574 431 
3 571 572 432 
3 571 433 619 
3 571 433 431 
3 571 620 619 
3 571 432 620 
3 434 435 436 
3 434 437 435 
3 434 437 438 
3 434 439 438 
3 434 439 436 
3 573 572 440 
3 573 574 441 
3 573 442 440 
3 573 442 443 
3 573 443 444 
3 573 441 444 
3 445 446 447 
3 445 448 449 
3 445 446 448 
3 445 450 451 
3 445 450 447 
3 445 656 451 
3 445 656 449 
3 452 453 454 
3 452 453 455 
3 452 456 454 
3 452 456 457 
3 452 455 457 
3 474 473 464 
3 474 478 592 
3 474 481 463 
3 474 478 481 
3 458 462 463 
3 458 462 459 
3 458 463 460 
3 458 459 460 
3 461 462 463 
3 461 474 463 
3 461 474 464 
3 461 464 465 
3 461 462 465 
3 672 674 717 
3 579 701 716 
3 579 701 466 
3 579 466 580 
3 585 577 467 
3 585 468 467 
3 585 468 586 
3 479 584 586 
3 479 586 480 
3 469 595 477 
3 469 595 470 
3 469 479 477 
3 469 479 584 
3 469 584 678 
3 469 471 678 
3 469 471 470 
3 676 584 678 
3 593 661 781 
3 780 661 781 
3 472 473 589 
3 472 661 589 
3 472 474 473 
3 472 474 592 
3 472 593 592 
3 472 593 661 
3 729 475 752 
3 729 730 475 
3 662 730 476 
3 662 476 589 
3 766 596 782 
3 766 762 596 
3 761 762 596 
3 761 597 596 
3 591 595 477 
3 591 478 592 
3 591 479 477 
3 591 479 480 
3 591 481 480 
3 591 478 481 
3 594 596 782 
3 594 733 734 
3 594 593 734 
3 796 663 598 
3 664 601 638 
3 604 482 483 
3 604 482 484 
3 604 485 484 
3 604 602 485 
3 604 489 483 
3 604 605 489 
3 486 606 490 
3 486 491 490 
3 486 533 487 
3 486 491 533 
3 486 488 487 
3 486 489 488 
3 486 605 489 
3 486 605 606 
3 535 490 600 
3 535 491 490 
3 535 601 600 
3 535 601 492 
3 535 491 533 
3 535 492 536 
3 743 493 607 
3 743 493 776 
3 680 794 603 
3 778 608 769 
3 494 495 496 
3 494 497 496 
3 494 498 499 
3 494 498 495 
3 494 500 499 
3 494 497 500 
3 618 616 614 
3 618 621 611 
3 501 514 512 
3 501 511 512 
3 501 514 502 
3 501 503 502 
3 501 511 504 
3 501 503 504 
3 505 513 511 
3 505 506 507 
3 505 508 507 
3 505 511 509 
3 505 508 509 
3 505 627 506 
3 505 627 513 
3 510 511 512 
3 510 513 511 
3 510 514 512 
3 510 513 514 
3 515 623 625 
3 515 623 516 
3 515 517 518 
3 515 516 517 
3 515 519 520 
3 515 519 518 
3 515 521 520 
3 515 521 625 
3 683 522 622 
3 683 669 522 
3 629 669 628 
3 523 524 525 
3 523 526 525 
3 523 527 528 
3 523 524 528 
3 523 526 529 
3 523 527 530 
3 523 529 530 
3 641 540 644 
3 641 540 642 
3 531 532 533 
3 531 534 532 
3 531 535 533 
3 531 535 536 
3 531 537 536 
3 531 534 537 
3 538 539 644 
3 538 540 644 
3 538 539 541 
3 538 540 541 
3 546 691 543 
3 546 691 719 
3 546 719 545 
3 634 542 635 
3 634 542 543 
3 634 547 636 
3 634 546 543 
3 634 546 547 
3 544 545 553 
3 544 552 553 
3 544 546 545 
3 544 546 547 
3 544 552 548 
3 544 549 548 
3 544 547 636 
3 544 549 636 
3 744 631 732 
3 744 745 631 
3 747 631 550 
3 747 632 550 
3 748 551 731 
3 748 749 551 
3 643 552 553 
3 643 554 553 
3 643 642 552 
3 643 554 646 
3 650 555 556 
3 650 557 555 
3 650 558 556 
3 650 559 558 
3 650 559 648 
3 650 557 651 
3 560 561 562 
3 560 563 562 
3 560 564 563 
3 560 561 565 
3 560 565 566 
3 560 564 566 
3 655 567 568 
3 655 569 568 
3 655 567 653 
3 655 569 658 
3 570 571 572 
3 570 573 572 
3 570 571 574 
3 570 573 574 
3 671 718 717 
3 671 672 717 
3 671 718 575 
3 671 660 575 
3 576 674 716 
3 576 579 716 
3 576 587 674 
3 576 587 579 
3 588 577 582 
3 588 585 577 
3 578 579 580 
3 578 587 579 
3 578 581 580 
3 578 582 581 
3 578 588 582 
3 578 588 587 
3 583 676 677 
3 583 676 584 
3 583 588 677 
3 583 588 585 
3 583 584 586 
3 583 585 586 
3 675 587 674 
3 675 588 677 
3 675 588 587 
3 765 593 781 
3 765 593 734 
3 784 661 589 
3 784 662 589 
3 784 662 789 
3 755 662 789 
3 779 597 790 
3 779 761 597 
3 785 594 782 
3 785 594 733 
3 590 591 592 
3 590 593 592 
3 590 594 593 
3 590 591 595 
3 590 595 596 
3 590 594 596 
3 768 597 790 
3 768 663 597 
3 679 796 598 
3 679 598 639 
3 679 739 639 
3 772 664 786 
3 759 770 599 
3 759 760 599 
3 666 760 599 
3 666 600 599 
3 666 601 600 
3 666 664 786 
3 666 664 601 
3 742 792 607 
3 742 743 607 
3 667 602 603 
3 667 680 603 
3 667 604 602 
3 667 604 605 
3 667 606 607 
3 667 605 606 
3 667 774 680 
3 667 792 607 
3 777 608 794 
3 777 778 608 
3 609 610 611 
3 609 618 611 
3 609 612 613 
3 609 610 613 
3 609 612 614 
3 609 618 614 
3 615 616 617 
3 615 618 616 
3 615 617 619 
3 615 620 619 
3 615 621 620 
3 615 618 621 
3 682 683 622 
3 682 623 622 
3 682 624 685 
3 682 624 625 
3 682 623 625 
3 668 630 685 
3 668 629 630 
3 668 629 669 
3 626 627 628 
3 626 629 628 
3 626 627 630 
3 626 629 630 
3 787 745 631 
3 787 747 631 
3 746 632 775 
3 746 747 632 
3 763 665 795 
3 763 764 635 
3 763 665 635 
3 633 634 635 
3 633 665 635 
3 633 634 636 
3 633 637 638 
3 633 637 636 
3 633 664 638 
3 633 665 664 
3 738 749 639 
3 738 739 639 
3 640 641 642 
3 640 643 642 
3 640 644 645 
3 640 641 644 
3 640 646 645 
3 640 643 646 
3 647 648 649 
3 647 650 648 
3 647 651 649 
3 647 650 651 
3 652 653 654 
3 652 655 653 
3 652 656 654 
3 652 657 656 
3 652 655 658 
3 652 659 657 
3 652 659 658 
3 673 660 678 
3 673 671 660 
3 783 780 661 
3 783 784 661 
3 754 662 730 
3 754 755 662 
3 767 796 663 
3 767 768 663 
3 797 679 798 
3 791 679 798 
3 791 679 739 
3 771 772 664 
3 771 665 795 
3 771 665 664 
3 793 666 786 
3 793 666 760 
3 773 774 680 
3 788 667 792 
3 788 667 774 
3 684 668 685 
3 684 683 669 
3 684 668 669 
3 670 671 672 
3 670 673 671 
3 670 672 674 
3 670 675 674 
3 670 676 677 
3 670 675 677 
3 670 676 678 
3 670 673 678 
3 799 679 796 
3 799 797 679 
3 721 680 794 
3 721 773 680 
3 681 682 683 
3 681 684 683 
3 681 682 685 
3 681 684 685 
3 686 687 688 
3 686 689 688 
3 686 689 690 
3 691 692 693 
3 691 694 695 
3 691 696 697 
3 691 698 699 
3 691 700 701 
3 691 702 694 
3 691 703 704 
3 691 705 692 
3 691 706 707 
3 691 708 707 
3 691 709 710 
3 691 705 711 
3 691 706 698 
3 691 712 704 
3 691 713 697 
3 691 709 714 
3 691 703 711 
3 691 712 715 
3 691 702 699 
3 691 701 716 
3 691 717 716 
3 691 718 717 
3 691 708 693 
3 691 700 695 
3 691 719 715 
3 691 696 714 
3 691 713 720 
3 691 718 720 
3 721 722 723 
3 721 723 724 
3 721 725 726 
3 721 727 728 
3 721 729 730 
3 721 731 732 
3 721 733 734 
3 721 735 736 
3 721 737 726 
3 721 738 739 
3 721 735 740 
3 721 741 728 
3 721 742 743 
3 721 744 745 
3 721 746 747 
3 721 748 749 
3 721 750 751 
3 721 741 736 
3 721 727 752 
3 721 753 750 
3 721 754 755 
3 721 756 757 
3 721 758 757 
3 721 759 760 
3 721 761 762 
3 721 763 764 
3 721 765 734 
3 721 766 762 
3 721 753 740 
3 721 767 768 
3 721 722 751 
3 721 756 724 
3 721 758 769 
3 721 737 770 
3 721 771 772 
3 721 773 774 
3 721 764 775 
3 721 725 776 
3 721 777 778 
3 721 779 761 
3 721 780 781 
3 721 729 752 
3 721 766 782 
3 721 783 784 
3 721 785 733 
3 721 772 786 
3 721 743 776 
3 721 778 769 
3 721 744 732 
3 721 787 747 
3 721 748 731 
3 721 788 774 
3 721 765 781 
3 721 784 789 
3 721 755 789 
3 721 779 790 
3 721 785 782 
3 721 768 790 
3 721 791 739 
3 721 759 770 
3 721 742 792 
3 721 793 760 
3 721 777 794 
3 721 787 745 
3 721 746 775 
3 721 763 795 
3 721 738 749 
3 721 783 780 
3 721 754 730 
3 721 767 796 
3 721 797 798 
3 721 791 798 
3 721 771 795 
3 721 793 786 
3 721 799 797 
3 721 788 792 
3 721 799 796 
