ply
format ascii 1.0
comment VCGLIB generated
element vertex 597
property float x
property float y
property float z
element face 1190
property list uchar int vertex_indices
end_header
0.0133512 0.0124999 0.266996 
0.0173844 0.088798 0.17722 
0.059924 -0.0025578 0.0489834 
0.059445 0.04435 0.155567 
0.0583706 0.0498074 0.16021 
0.0511431 -0.0309181 0.0468704 
0.0540581 -0.026033 0.0169999 
0.0540581 -0.026033 0.037 
-0.0476582 0.067984 0.162703 
-0.0170915 0.0306451 0.265875 
-1.09278e-09 0.0124999 0.2685 
0.0116147 0.0805535 0.248749 
0.0116147 0.0857006 0.24094 
0.00354605 0.0865549 0.242144 
-0.0118219 0.0857211 0.240965 
0.0478921 0.0650024 0.223807 
0.0514408 0.0614046 0.218036 
0.0173844 0.0909666 0.213675 
0.0566896 0.0192231 0.227068 
0.0555788 0.00749993 0.231304 
0.0540581 0.0124999 0.234533 
0.0173844 0.0795678 0.247168 
0.0173844 0.0730299 0.253943 
0.0116147 0.0739017 0.255564 
0.0231223 0.0717824 0.251624 
0.0231223 0.0642598 0.256987 
-0.0584956 0.0133512 0.0169999 
0.0133512 0.0584956 0.0169999 
0.0231223 0.0895037 0.202786 
0.0231223 0.0892294 0.193747 
0.0287316 0.0870212 0.200457 
0.0231223 0.0891358 0.211779 
0.0173844 0.0914032 0.204569 
0.0116147 0.0902269 0.178217 
0.0173844 0.090317 0.186274 
0.0173844 0.0911878 0.195412 
0.0116147 0.0927303 0.205814 
-0.0582863 0.018886 0.221508 
-0.0582863 0.0160605 0.222324 
-0.0542191 0.0433893 0.226961 
-0.0542191 0.0489014 0.223195 
-0.0565675 0.0409637 0.220477 
-0.0565675 0.0357582 0.223116 
-0.00616896 -0.00949997 0.268382 
5.24537e-09 -0.06 0.0169999 
0.0110679 -0.0587529 0.037 
0.0226045 -0.0551396 0.0450658 
-0.00573843 -0.0592967 0.0447561 
5.24537e-09 -0.06 0.037 
-0.0114403 -0.0569577 0.0535507 
-0.00573843 -0.0577831 0.053421 
0.00539727 -0.0593247 0.0447539 
0.00539727 -0.0578128 0.053415 
0.059445 0.047984 0.174781 
0.059924 0.038487 0.163932 
0.059445 0.0471902 0.168352 
0.059924 0.0372714 0.158082 
0.0543796 0.057621 0.211966 
0.0584956 -0.0133512 0.037 
0.0584956 -0.0133512 0.0169999 
0.0565057 -0.0197149 0.0477051 
-0.0593966 0.0319103 0.210177 
-0.0582863 0.0291073 0.218411 
-0.0593966 0.0159248 0.216524 
-0.0584956 0.00749992 0.221851 
-0.0584956 0.0124999 0.221851 
-0.0590279 0.00749992 0.219457 
0.0437764 0.074343 0.173971 
0.0478921 0.0676711 0.16249 
0.0514408 0.0659616 0.173953 
-0.0512428 0.0676961 0.189579 
-0.0540581 0.026033 0.0169999 
-0.0512428 0.0662815 0.174217 
0.00354606 0.0310224 0.268499 
-6.55665e-10 0.00749993 0.2685 
0.009233 0.00749993 0.267985 
0.00354606 0.0402955 0.2685 
0.0173844 0.0306288 0.265769 
-0.05994 -0.0022623 0.0490057 
-0.0476582 0.0603476 0.230363 
-0.0512428 0.0571783 0.224471 
-0.0512428 0.0517581 0.229481 
-0.0388605 0.0519204 0.249767 
-0.0337918 0.0456424 0.256353 
-0.0227771 0.030337 0.263735 
-0.0240269 -0.00949997 0.263679 
-0.0388605 0.0288406 0.253343 
0.00151073 0.081324 0.249983 
0.00151073 0.0841389 0.246153 
0.00354605 0.081331 0.249995 
-0.00299038 0.0812615 0.249882 
-0.0152798 0.00749993 0.266722 
-0.0118219 0.0308527 0.267317 
-0.0170915 0.0396908 0.265793 
-0.0118219 0.0739176 0.255592 
-0.0170915 0.0730957 0.254064 
-0.0118219 0.0805725 0.248776 
-0.00734628 0.0810645 0.249566 
-0.00299038 0.0780668 0.253458 
-0.0227771 0.089642 0.20291 
-0.0170915 0.0915001 0.204655 
0.0231223 0.0881442 0.22066 
0.00354605 0.0901123 0.233761 
0.00151073 0.0865472 0.242132 
-0.00299038 0.0840732 0.246054 
-0.00299038 0.0884628 0.237885 
-0.00734628 0.0862619 0.241728 
-0.00299038 0.0864785 0.242034 
0.00151073 0.0885344 0.237981 
-0.0170915 0.091061 0.213771 
-0.0118219 0.0927523 0.205831 
0.0116147 0.0911212 0.224061 
0.0116147 0.0891961 0.232607 
0.0173844 0.0898968 0.222662 
0.0116147 0.0922457 0.214999 
0.0566896 0.0574137 0.178937 
0.0543796 0.0624759 0.184178 
0.0583706 0.0522905 0.173632 
0.0566896 0.0552893 0.164874 
0.0543796 0.0607057 0.169482 
0.0341094 0.0785505 0.230861 
0.0341094 0.0740475 0.238315 
0.0287316 0.0841964 0.226307 
0.0437764 0.0683478 0.229173 
0.0391553 0.0713792 0.234035 
0.0478921 0.0543035 0.235075 
0.0478921 0.0601466 0.229994 
0.0437764 0.0631059 0.235495 
0.0514408 0.045601 0.232848 
0.0543796 0.0487162 0.222778 
0.0514408 0.0515803 0.229081 
0.0543796 0.0536172 0.217856 
0.0514408 0.0569642 0.224078 
0.0391553 0.0756178 0.226727 
0.0437764 0.0722863 0.222029 
0.0341094 0.083037 0.214825 
0.0287316 0.0858536 0.218043 
0.0341094 0.0815233 0.222938 
0.0391553 0.0783757 0.218971 
0.0287316 0.0867432 0.209302 
0.0566896 0.0356387 0.222706 
0.0543796 0.0375436 0.229112 
0.0583706 0.0337108 0.216223 
0.0566896 0.0408156 0.220052 
0.0543796 0.0432442 0.226546 
0.0514408 0.0199323 0.2386 
0.0514408 0.0393921 0.235328 
0.0478921 0.0478416 0.23884 
0.0543796 0.0195831 0.232921 
0.0514408 0.033177 0.236633 
0.0543796 0.0318248 0.23058 
0.0543796 0.0163093 0.233511 
0.0566896 0.0161743 0.227758 
0.0287316 0.0466745 0.259819 
0.0341094 0.0376945 0.256857 
0.0341094 0.0210997 0.257575 
0.0478921 0.0411494 0.241238 
-0.05994 0.037591 0.158408 
-0.0593966 0.0446886 0.155845 
-0.0118219 0.0925772 0.196592 
0.00151073 0.0913423 0.178994 
-0.00299038 0.0912506 0.17893 
-0.00299038 0.0927237 0.188127 
0.00354605 0.0913531 0.179001 
0.0116147 0.0917194 0.187354 
0.0116147 0.092556 0.196576 
0.00151073 0.0936241 0.197484 
0.00151073 0.092814 0.188196 
-0.00299038 0.0935363 0.197409 
0.00354605 0.0936344 0.197492 
0.00354605 0.0928246 0.188204 
-0.00299038 0.0936819 0.206705 
-0.0337918 0.0837352 0.189068 
-0.0283973 0.0871962 0.200614 
-0.0283973 0.0868466 0.191715 
-0.0337918 0.0841793 0.197781 
-0.04351 0.0765642 0.190632 
-0.0388605 0.0806181 0.194438 
-0.0476582 0.0723482 0.194395 
-0.04351 0.0758817 0.182385 
-0.0388605 0.0800624 0.185942 
-0.0476582 0.0712596 0.178452 
-0.0170915 0.0904154 0.186348 
-0.0170915 0.0912856 0.195493 
-0.0227771 0.0893691 0.193862 
-0.0118219 0.0917399 0.187368 
0.059924 0.0311513 0.194211 
0.059924 0.0392427 0.16964 
0.0540581 0.00749993 0.234533 
0.0168597 -0.0556329 0.0537538 
0.0168597 -0.057145 0.0449164 
0.0110918 -0.0585313 0.044813 
0.0110918 -0.0570195 0.0535381 
0.0226045 -0.0536266 0.0540663 
0.0475404 -0.0361496 0.0464805 
0.0469097 -0.0374094 0.037 
0.0469097 -0.0374094 0.0169999 
0.0374094 -0.0469097 0.0169999 
0.0590279 -0.00949996 0.197943 
0.0282297 -0.052501 0.0452622 
0.0334507 -0.0493972 0.037 
0.0566896 0.0304314 0.224342 
0.059445 0.0432028 0.198495 
0.059924 0.034021 0.190438 
0.059924 0.0364451 0.185932 
0.0583706 0.0528674 0.18036 
0.059445 0.0475575 0.187157 
0.059445 0.0458477 0.193079 
0.059924 0.0382084 0.180824 
0.059445 0.0482557 0.181002 
0.059924 0.0391614 0.175316 
0.0583706 0.0497759 0.199381 
0.0566896 0.0537221 0.205711 
-0.0593966 0.0231523 0.213851 
-0.0593966 0.0277023 0.212121 
-0.0593966 0.0185232 0.215607 
-0.0582863 0.033831 0.216635 
-0.0540581 -0.026033 0.037 
-0.0540581 -0.026033 0.0169999 
-0.0469097 -0.0374094 0.037 
-0.0513421 -0.0306267 0.0468925 
-0.0477753 -0.0358755 0.0465012 
-0.0469097 -0.0374094 0.0169999 
0.0287316 0.0856854 0.182707 
0.0287316 0.0866698 0.191569 
0.0341094 0.0835223 0.188892 
0.0231223 0.0883094 0.184728 
0.0231223 0.0867527 0.175795 
0.0341094 0.0807922 0.171639 
0.0391553 0.0786594 0.177296 
0.0341094 0.0824588 0.180222 
0.026033 0.0540581 0.0169999 
0.0287316 0.0840794 0.173931 
-0.05994 0.0312948 0.194625 
-0.05994 0.0342049 0.190853 
-0.05994 0.0281752 0.197616 
-0.05994 0.0387868 0.164282 
-0.05994 0.0366678 0.18634 
-0.0542191 0.0610389 0.169756 
-0.0582863 0.0501497 0.160492 
-0.0565675 0.0556299 0.165154 
0.00151074 0.0402927 0.268488 
0.0182468 -0.00949997 0.265858 
0.026033 0.00749993 0.262558 
0.032202 0.00749993 0.259327 
0.0231223 0.0214792 0.263741 
0.0287316 0.0385042 0.260481 
0.0287316 0.0213089 0.260976 
0.026033 0.0124999 0.262558 
-0.0584956 -0.0133512 0.037 
-0.0566289 -0.0194059 0.0477284 
-0.0590279 -0.00949998 0.197943 
-0.0584956 -0.0133512 0.0169999 
-0.0285646 -0.0523409 0.0452744 
-0.0229498 -0.0534948 0.0540929 
-0.0172095 -0.0555366 0.0537733 
-0.0229498 -0.0550135 0.0450752 
-0.0388605 0.036803 0.252865 
-0.0388605 0.0443508 0.25201 
-0.0476582 0.0652343 0.224163 
-0.0476582 0.0688627 0.217182 
-0.0337918 0.0535674 0.25417 
-0.0283973 0.0811904 0.234572 
-0.0170915 0.0796438 0.247285 
-0.04351 0.0725186 0.222338 
-0.04351 0.0569889 0.240992 
-0.0388605 0.0592667 0.246005 
-0.04351 0.0500455 0.244755 
-0.0476582 0.0544704 0.23545 
-0.0283973 0.0549629 0.257899 
-0.0227771 0.0643374 0.257162 
-0.0283973 0.0299314 0.260918 
-0.026033 0.0124999 0.262558 
-0.0337918 0.0294312 0.257444 
-0.0337918 0.037748 0.257095 
-0.032202 0.00749993 0.259327 
-0.0227771 0.0476238 0.263015 
-0.0170915 0.0482978 0.265281 
-0.0227771 0.0391977 0.263585 
-0.0283973 0.0385485 0.260679 
-0.0283973 0.0467366 0.260032 
-0.0227771 0.0560942 0.260923 
0.00354605 0.0745891 0.256841 
0.00151073 0.0781258 0.25356 
-0.00299038 0.0706889 0.259638 
0.00151073 0.0707405 0.259742 
-0.00299038 0.0745274 0.256726 
-0.00734628 0.0743529 0.256402 
0.00151073 0.0745828 0.25683 
-0.0118219 0.0701219 0.258494 
-0.0118219 0.0618671 0.263103 
-0.0118219 0.0575333 0.264767 
-0.0170915 0.0569538 0.26322 
-0.00299038 0.0666075 0.262156 
-0.0118219 0.0660851 0.261007 
-0.0170915 0.0653815 0.259459 
-0.00299038 0.0579636 0.265916 
-0.00299038 0.0623436 0.264253 
0.00151073 0.0666552 0.262261 
-0.0283973 0.0860138 0.218229 
-0.0283973 0.0843496 0.226492 
-0.0337918 0.0817075 0.223161 
-0.0227771 0.0882708 0.220807 
-0.0283973 0.0869135 0.209477 
-0.0227771 0.0892704 0.211917 
0.0231223 0.0830671 0.237229 
0.0231223 0.0863705 0.229047 
0.0287316 0.0810413 0.234373 
0.0173844 0.0846172 0.239414 
0.0231223 0.0781572 0.244906 
0.0173844 0.0880339 0.231143 
0.0287316 0.0763139 0.24195 
-0.0170915 0.0881187 0.231245 
-0.0170915 0.0899855 0.222766 
-0.0227771 0.0864915 0.229193 
-0.0170915 0.0847002 0.239524 
-0.0227771 0.083185 0.237386 
0.00151073 0.0901037 0.23375 
-0.00299038 0.0900294 0.233656 
0.00354605 0.0920865 0.225164 
-0.00734628 0.0917534 0.224784 
-0.00734628 0.0897963 0.233361 
-0.0118219 0.0892153 0.232628 
-0.0118219 0.091141 0.224085 
-0.0118219 0.0922676 0.21502 
0.00151073 0.0932449 0.216033 
0.00151073 0.0937667 0.206785 
0.00354605 0.0937765 0.206795 
0.00354605 0.0932542 0.216043 
-0.00299038 0.0931632 0.215948 
0.00151073 0.0920774 0.225154 
-0.00299038 0.091999 0.225065 
0.0341094 0.0838013 0.206257 
0.0341094 0.0839688 0.197592 
0.0437764 0.0756059 0.182158 
0.0391553 0.0803747 0.194219 
0.0391553 0.0798163 0.185739 
0.059445 0.0317916 0.209769 
0.059924 0.0280592 0.197217 
0.0583706 0.0427777 0.209709 
0.0566896 0.045765 0.216283 
0.0566896 0.0501685 0.211444 
0.0583706 0.0466777 0.204955 
0.0583706 0.0383574 0.213479 
0.059445 0.0398042 0.203165 
0.059445 0.0359102 0.206936 
0.0116147 0.0660728 0.260978 
0.0173844 0.0653271 0.259337 
0.0231223 0.0560334 0.260749 
0.0116147 0.0400182 0.267259 
0.041877 0.00749993 0.251669 
0.0374094 0.0124999 0.25541 
0.0391553 0.0208533 0.253571 
0.0374094 0.00749993 0.25541 
0.034765 -0.00949997 0.257602 
0.0437764 0.0427836 0.246734 
0.0374094 0.0469097 0.0169999 
-0.0227771 0.0884503 0.184834 
-0.0374094 0.0469097 0.0169999 
-0.0388605 0.0789077 0.177484 
-0.04351 0.0746212 0.174182 
-0.0469097 0.0374094 0.0169999 
0.0387127 -0.0453911 0.045792 
0.0336328 -0.049242 0.045505 
0.0566688 -0.00949997 0.228413 
0.0433761 -0.0410039 0.0461189 
0.0374094 -0.0469097 0.037 
-0.0114403 -0.0584725 0.0448174 
-0.00589954 -0.0597093 0.037 
0.0583706 0.0239738 0.219578 
0.0583706 0.0188589 0.221145 
0.0583706 0.0160378 0.221935 
0.0584956 0.0124999 0.221851 
0.0584956 0.00749994 0.221851 
0.0566896 0.0575458 0.192713 
0.0583706 0.0528904 0.186845 
0.0583706 0.0518748 0.193246 
0.0566896 0.0562118 0.199362 
0.0566896 0.0577726 0.185963 
0.0543796 0.0626194 0.1915 
-0.0582863 0.0385063 0.213906 
-0.0593966 0.0360574 0.207359 
-0.0512428 0.0616516 0.218415 
-0.05994 0.0395294 0.169984 
-0.0593966 0.047517 0.168685 
-0.0593966 0.0478444 0.187537 
-0.05994 0.0384657 0.181217 
-0.05994 0.0394422 0.175687 
-0.0118219 0.0400231 0.267281 
-0.0118219 0.048752 0.266808 
-0.0118219 0.0531464 0.265998 
-0.0339509 -0.0490487 0.0455197 
-0.0436435 -0.0407525 0.0461379 
-0.0390082 -0.0451669 0.045809 
-0.0540581 0.0124999 0.234533 
-0.052961 0.00749993 0.236899 
-0.0540581 0.00749993 0.234533 
-0.0566688 -0.00949997 0.228413 
-0.04351 0.0428805 0.247066 
-0.0460729 0.00749993 0.247136 
-0.0514388 -0.00949997 0.239588 
-0.039609 -0.00949997 0.253768 
-0.04351 0.020595 0.249314 
-0.0374094 0.0124999 0.25541 
-0.0542191 0.0196093 0.233275 
-0.0565675 0.0161964 0.228145 
-0.0565675 0.01925 0.22743 
-0.0565675 0.0305172 0.224723 
-0.0283973 0.0702705 0.248811 
-0.0337918 0.0612679 0.250408 
-0.0337918 0.0682899 0.245129 
-0.0283973 0.0629631 0.254138 
-0.0227771 0.071876 0.251796 
-0.0283973 0.0764505 0.24216 
-0.0227771 0.0782652 0.245072 
-0.0388605 0.0715691 0.234327 
-0.0337918 0.0742118 0.238568 
-0.0388605 0.0659519 0.240782 
-0.04351 0.0632904 0.235834 
-0.04351 0.0685606 0.2295 
-0.0388605 0.0758251 0.227003 
-0.0337918 0.0787298 0.2311 
-0.04351 0.0766675 0.198867 
-0.0476582 0.0720669 0.202298 
-0.0476582 0.0711136 0.209803 
-0.0388605 0.0799435 0.211296 
-0.0388605 0.0785888 0.219228 
-0.0337918 0.0832298 0.215049 
-0.0337918 0.0840062 0.206466 
-0.0388605 0.0805742 0.202912 
-0.04351 0.0762028 0.207023 
-0.04351 0.0750386 0.214752 
0.00354605 0.0580078 0.266033 
0.00151073 0.0623873 0.264358 
0.00151073 0.0580031 0.266021 
0.00354605 0.0666606 0.262273 
0.00354606 0.0491239 0.268058 
0.0391553 0.0797206 0.211036 
0.0391553 0.0803373 0.20267 
0.0437764 0.0747999 0.214463 
0.0478921 0.0686095 0.216844 
0.0437764 0.0759529 0.206732 
0.0478921 0.0720589 0.194099 
0.0437764 0.0762914 0.190386 
0.0437764 0.0764021 0.198596 
0.0478921 0.070959 0.178204 
0.0514408 0.0673882 0.189264 
0.0287316 0.0548859 0.257679 
0.0341094 0.0455678 0.256097 
0.0391553 0.0442643 0.251714 
0.0173844 0.0482635 0.265163 
0.0116147 0.0487446 0.266782 
0.0173844 0.0396663 0.265684 
0.0231223 0.0391624 0.263429 
0.0231223 0.0475747 0.262847 
0.0173844 0.0569113 0.263097 
0.0116147 0.0575247 0.264739 
0.04799 -0.00949997 0.244713 
0.0469097 0.0124999 0.245909 
0.0437764 0.0205733 0.249021 
0.0437764 0.0166811 0.24934 
0.0391553 0.0367411 0.252589 
0.0469097 0.0374094 0.0169999 
0.0540581 0.026033 0.0169999 
-0.0283973 0.0842635 0.174056 
-0.0283973 0.0858638 0.182842 
-0.0337918 0.0810139 0.17179 
-0.0337918 0.0826735 0.180384 
-0.0133512 0.0584956 0.0169999 
-0.0227771 0.0868981 0.175894 
-0.0170915 0.0888997 0.17729 
-0.026033 0.0540581 0.0169999 
-0.0118219 0.0902488 0.178231 
-5.24537e-09 0.06 0.0169999 
0.059445 0.015902 0.216138 
0.059821 0.00749994 0.213331 
-0.0565675 0.0459542 0.216709 
-0.0542191 0.0538405 0.218266 
-0.0593966 0.0399925 0.203589 
-0.0582863 0.0429682 0.210138 
-0.0565675 0.0503968 0.211863 
-0.0593966 0.0482908 0.175139 
-0.0582863 0.0526207 0.17397 
-0.0593966 0.0485492 0.181355 
-0.0565675 0.0580814 0.186323 
-0.0542191 0.062797 0.184506 
-0.0565675 0.0577421 0.179272 
-0.0582863 0.0531778 0.180721 
-0.0582863 0.0531871 0.187202 
-0.00299037 0.0490894 0.267942 
-0.00734627 0.0489927 0.267617 
-0.00299037 0.0535307 0.267141 
0.00151074 0.0535661 0.267245 
0.00151074 0.0491201 0.268046 
-0.00299037 0.0402701 0.268386 
-0.00734627 0.0401993 0.26807 
-0.0512428 0.0395042 0.235713 
-0.0542191 0.0319088 0.230953 
-0.0542191 0.0376604 0.229513 
-0.0512428 0.0332575 0.236991 
-0.0512428 0.0457402 0.233246 
-0.0476582 0.0412549 0.2416 
-0.0476582 0.0479726 0.239214 
0.0514408 0.0666093 0.204139 
0.0478921 0.0717946 0.201981 
0.0514408 0.0673227 0.196873 
0.0478921 0.0708535 0.209489 
0.0514408 0.0646555 0.211269 
0.0543796 0.0621456 0.198512 
0.0543796 0.060497 0.205405 
0.0341094 0.0534748 0.253905 
0.0287316 0.0628649 0.253917 
0.0287316 0.070152 0.248594 
0.0478921 0.0202646 0.244 
0.0514408 0.0164403 0.239094 
0.0478921 0.0344627 0.242389 
0.0478921 0.0165651 0.244403 
0.0437764 0.0356581 0.24774 
0.0584956 0.0133512 0.0169999 
-0.0171056 -0.0571819 0.037 
-0.0133512 -0.0584956 0.037 
-0.0172095 -0.0570533 0.0449233 
-0.0228562 -0.0551697 0.037 
-0.0133512 -0.0584956 0.0169999 
0.059445 0.0230961 0.213485 
0.059445 0.0276173 0.211744 
0.0583706 0.0290213 0.218029 
0.059445 0.0184963 0.215247 
-0.0582863 0.0500414 0.199788 
-0.0582863 0.0469077 0.205377 
-0.0582863 0.0521646 0.19363 
-0.0593966 0.0461106 0.193482 
-0.0593966 0.0434303 0.198912 
-0.0542191 0.0578787 0.212361 
-0.0565675 0.0539858 0.206116 
-0.0512428 0.0649251 0.211628 
-0.0476582 0.0202881 0.24432 
-0.0476582 0.0345381 0.242725 
-0.04351 0.0357275 0.248049 
-0.0469097 0.0124999 0.245909 
-0.0512428 0.0199575 0.23894 
0.0391553 0.0591301 0.245697 
0.0341094 0.0611495 0.250142 
0.0391553 0.051813 0.249461 
0.0437764 0.0499252 0.244412 
0.0437764 0.0568358 0.240648 
0.0391553 0.0657872 0.24048 
0.0341094 0.0681474 0.244867 
-0.0542191 0.0624341 0.19886 
-0.0542191 0.0607783 0.205779 
-0.0512428 0.0668862 0.204473 
-0.0512428 0.0676125 0.19721 
-0.0542191 0.0629215 0.191851 
-0.0565675 0.0578409 0.193069 
-0.0565675 0.0564997 0.199744 
0.06 0.0124999 0.2085 
0.06 5.24537e-09 0.037 
0.06 0.00749994 0.2085 
0.06 5.24537e-09 0.0169999 
0.0133512 -0.0584956 0.037 
0.026033 -0.0540581 0.037 
0.026033 -0.0540581 0.0169999 
0.0133512 -0.0584956 0.0169999 
-0.06 0.00749992 0.2085 
-0.06 0.0124999 0.2085 
-0.06 -5.24537e-09 0.0169999 
-0.06 -5.24537e-09 0.037 
-0.0374094 -0.0469097 0.037 
-0.026033 -0.0540581 0.037 
-0.026033 -0.0540581 0.0169999 
-0.0374094 -0.0469097 0.0169999 
0.0491142 0.00936901 0 
0.0124345 -0.0484291 0 
0.0240875 -0.0438153 0 
0.0342273 -0.0364483 0 
-0.0422164 -0.0267913 0 
-0.0475528 -0.0154507 0 
0.0475528 -0.0154507 0 
0.0422164 -0.0267913 0 
-0.0491142 0.00936901 0 
-0.0452412 0.0212889 0 
-0.0385256 0.0318711 0 
-0.0293893 0.0404508 0 
-0.0499012 -0.00313944 0 
0.0499012 -0.00313944 0 
-0.0124345 -0.0484291 0 
-0.0240875 -0.0438153 0 
-0.0184062 0.0464888 0 
4.37113e-09 -0.0499999 0 
-0.0342273 -0.0364483 0 
0.0184062 0.0464888 0 
0.00626665 0.0496056 0 
-0.00626665 0.0496056 0 
-4.37113e-09 0.0499999 0 
0.0293893 0.0404508 0 
0.0385256 0.0318711 0 
0.0452412 0.0212889 0 
3 44 562 588 
3 566 78 565 
3 27 163 473 
3 119 463 118 
3 33 27 1 
3 33 27 163 
3 573 561 197 
3 523 44 588 
3 577 6 578 
3 462 119 463 
3 218 575 576 
3 405 397 65 
3 535 550 424 
3 36 114 327 
3 17 114 113 
3 17 36 32 
3 17 36 114 
3 227 27 1 
3 227 226 1 
3 227 27 231 
3 227 232 231 
3 101 17 113 
3 71 580 361 
3 41 380 476 
3 41 380 216 
3 572 562 588 
3 572 561 562 
3 572 573 561 
3 574 573 197 
3 2 198 557 
3 373 364 372 
3 475 198 557 
3 475 364 198 
3 475 373 364 
3 585 523 588 
3 368 44 48 
3 368 523 44 
3 3 518 558 
3 196 6 578 
3 196 574 578 
3 196 574 197 
3 5 7 198 
3 5 196 195 
3 5 196 6 
3 5 7 6 
3 59 577 584 
3 59 584 558 
3 59 577 6 
3 59 2 558 
3 59 2 198 
3 235 564 381 
3 67 462 68 
3 67 462 356 
3 8 361 360 
3 8 181 360 
3 92 495 43 
3 494 495 43 
3 494 43 10 
3 494 241 10 
3 349 75 0 
3 74 43 10 
3 74 75 43 
3 242 75 43 
3 242 243 354 
3 242 75 0 
3 242 349 0 
3 50 85 401 
3 50 85 43 
3 83 274 257 
3 11 23 22 
3 89 11 13 
3 89 11 23 
3 261 83 269 
3 95 270 412 
3 106 97 96 
3 106 97 104 
3 15 16 132 
3 15 440 16 
3 15 123 134 
3 15 440 134 
3 546 121 547 
3 139 30 332 
3 439 440 134 
3 130 144 128 
3 188 514 20 
3 152 371 372 
3 152 364 372 
3 347 23 22 
3 347 25 22 
3 244 243 354 
3 583 579 565 
3 26 579 565 
3 26 579 580 
3 26 71 580 
3 26 71 239 
3 591 27 473 
3 165 36 32 
3 165 35 32 
3 34 226 1 
3 34 33 1 
3 34 29 226 
3 34 29 35 
3 359 467 180 
3 172 467 180 
3 465 172 174 
3 465 172 467 
3 100 109 110 
3 183 184 99 
3 183 100 99 
3 38 405 65 
3 38 63 65 
3 40 41 476 
3 40 477 476 
3 40 477 80 
3 40 81 80 
3 556 2 558 
3 556 2 557 
3 555 475 557 
3 555 187 558 
3 200 561 197 
3 200 560 561 
3 56 3 558 
3 4 3 518 
3 4 117 118 
3 4 463 118 
3 4 518 463 
3 525 526 142 
3 55 56 3 
3 55 4 117 
3 55 4 3 
3 194 5 198 
3 194 5 195 
3 60 59 6 
3 60 7 6 
3 60 7 198 
3 233 564 234 
3 233 235 564 
3 66 63 65 
3 229 67 334 
3 229 67 356 
3 69 462 68 
3 69 462 119 
3 179 181 360 
3 179 359 360 
3 179 359 180 
3 72 8 181 
3 72 8 361 
3 240 71 239 
3 9 85 93 
3 91 85 43 
3 91 92 43 
3 91 9 85 
3 91 9 93 
3 76 349 75 
3 76 241 10 
3 76 74 10 
3 49 255 401 
3 49 50 401 
3 49 367 255 
3 589 570 586 
3 222 218 575 
3 222 589 575 
3 222 589 570 
3 569 570 586 
3 569 585 586 
3 569 585 523 
3 420 301 421 
3 267 398 82 
3 258 398 82 
3 258 261 82 
3 258 261 83 
3 258 83 257 
3 275 85 401 
3 86 274 257 
3 263 95 96 
3 263 95 412 
3 21 308 309 
3 21 11 22 
3 98 97 287 
3 88 89 13 
3 88 103 13 
3 88 103 104 
3 90 97 104 
3 90 88 104 
3 90 98 97 
3 295 95 270 
3 291 390 292 
3 291 390 296 
3 289 295 294 
3 289 295 95 
3 282 89 283 
3 282 89 23 
3 12 102 13 
3 12 11 13 
3 12 21 308 
3 12 21 11 
3 112 12 102 
3 112 310 308 
3 112 12 308 
3 108 102 13 
3 108 103 13 
3 14 315 322 
3 14 321 322 
3 14 321 106 
3 14 106 96 
3 14 263 96 
3 14 263 315 
3 171 329 326 
3 171 168 110 
3 319 112 102 
3 333 30 332 
3 333 335 225 
3 116 378 379 
3 116 446 379 
3 116 69 119 
3 116 69 446 
3 133 123 134 
3 343 142 143 
3 343 340 143 
3 507 440 16 
3 507 57 509 
3 507 57 16 
3 126 15 123 
3 126 15 132 
3 126 130 132 
3 131 16 132 
3 131 57 16 
3 131 57 341 
3 131 340 341 
3 124 546 121 
3 124 133 123 
3 31 101 17 
3 31 17 32 
3 136 122 137 
3 136 122 101 
3 136 31 101 
3 136 31 139 
3 141 201 150 
3 141 146 150 
3 141 144 128 
3 141 146 128 
3 149 146 150 
3 147 146 128 
3 151 514 20 
3 18 201 150 
3 18 152 150 
3 18 201 371 
3 18 152 371 
3 19 152 364 
3 19 188 364 
3 19 188 20 
3 19 151 20 
3 19 151 152 
3 24 512 309 
3 24 21 22 
3 24 21 309 
3 24 25 22 
3 311 512 309 
3 311 121 307 
3 311 121 547 
3 311 512 547 
3 346 347 23 
3 346 282 23 
3 346 282 435 
3 511 447 25 
3 511 24 25 
3 511 24 512 
3 348 347 25 
3 348 447 25 
3 348 153 454 
3 348 153 447 
3 351 352 154 
3 351 244 354 
3 461 352 154 
3 158 384 239 
3 158 26 239 
3 158 26 565 
3 581 580 361 
3 590 27 231 
3 590 591 27 
3 224 29 226 
3 224 29 30 
3 224 333 30 
3 224 333 225 
3 28 29 30 
3 28 31 32 
3 28 35 32 
3 28 29 35 
3 28 139 30 
3 28 31 139 
3 161 472 185 
3 161 472 473 
3 164 33 163 
3 164 34 33 
3 164 165 35 
3 164 34 35 
3 169 326 327 
3 169 36 327 
3 169 165 36 
3 173 303 428 
3 173 303 99 
3 173 184 174 
3 173 184 99 
3 177 172 180 
3 357 184 174 
3 357 465 174 
3 159 183 185 
3 159 168 110 
3 159 100 110 
3 159 183 100 
3 406 38 405 
3 406 407 38 
3 42 407 498 
3 42 41 216 
3 42 62 216 
3 42 407 62 
3 37 407 62 
3 37 407 38 
3 37 63 62 
3 37 38 63 
3 39 500 81 
3 39 40 81 
3 39 500 498 
3 39 40 41 
3 39 42 498 
3 39 42 41 
3 186 203 344 
3 186 555 203 
3 52 242 43 
3 52 50 43 
3 52 242 354 
3 45 51 48 
3 45 44 48 
3 45 44 562 
3 559 560 46 
3 559 190 46 
3 559 45 562 
3 559 190 191 
3 559 51 191 
3 559 45 51 
3 193 46 364 
3 193 190 46 
3 192 52 354 
3 192 51 191 
3 192 52 51 
3 366 200 197 
3 199 560 46 
3 199 46 364 
3 47 367 368 
3 47 368 48 
3 47 49 50 
3 47 49 367 
3 47 51 48 
3 47 52 50 
3 47 52 51 
3 370 201 371 
3 53 209 187 
3 53 55 187 
3 53 209 205 
3 53 117 205 
3 53 55 117 
3 54 55 187 
3 54 55 56 
3 54 187 558 
3 54 56 558 
3 376 207 211 
3 212 57 509 
3 212 57 341 
3 58 59 198 
3 58 60 198 
3 58 60 59 
3 61 564 381 
3 61 214 564 
3 61 214 216 
3 61 380 381 
3 61 380 216 
3 215 63 564 
3 215 63 62 
3 215 62 216 
3 563 63 564 
3 563 66 63 
3 563 251 78 
3 563 251 397 
3 563 66 397 
3 563 566 78 
3 64 397 65 
3 64 66 65 
3 64 66 397 
3 220 221 251 
3 220 222 218 
3 445 67 68 
3 445 69 68 
3 445 67 334 
3 445 69 446 
3 237 564 234 
3 237 532 234 
3 237 532 531 
3 70 72 485 
3 70 552 485 
3 70 552 551 
3 70 551 178 
3 70 178 181 
3 70 72 181 
3 238 71 361 
3 238 72 361 
3 238 240 71 
3 238 72 485 
3 73 74 75 
3 73 76 75 
3 73 76 74 
3 436 76 349 
3 436 76 241 
3 77 242 349 
3 77 452 349 
3 77 452 242 
3 245 452 242 
3 252 251 78 
3 252 78 565 
3 252 250 218 
3 252 218 576 
3 252 583 576 
3 252 583 565 
3 392 397 393 
3 392 251 397 
3 392 221 251 
3 392 222 570 
3 391 397 393 
3 400 255 401 
3 402 86 257 
3 501 267 502 
3 501 267 398 
3 382 259 80 
3 382 477 80 
3 260 535 424 
3 260 382 535 
3 260 382 259 
3 409 261 82 
3 431 260 424 
3 268 500 502 
3 268 500 81 
3 79 259 419 
3 79 418 419 
3 79 259 80 
3 79 268 418 
3 79 81 80 
3 79 268 81 
3 266 267 82 
3 266 409 82 
3 266 417 410 
3 266 409 410 
3 280 83 269 
3 280 83 274 
3 280 279 274 
3 84 85 93 
3 84 278 93 
3 272 84 278 
3 272 275 85 
3 272 84 85 
3 403 275 401 
3 403 402 86 
3 403 86 274 
3 300 314 302 
3 300 301 421 
3 87 88 89 
3 87 90 88 
3 87 89 283 
3 87 98 283 
3 87 90 98 
3 388 389 93 
3 388 91 93 
3 388 91 92 
3 388 92 495 
3 277 278 93 
3 277 389 93 
3 277 390 292 
3 277 389 390 
3 491 390 296 
3 491 434 492 
3 491 434 296 
3 94 289 287 
3 94 289 95 
3 94 95 96 
3 94 97 96 
3 94 97 287 
3 286 98 287 
3 286 98 283 
3 285 282 435 
3 297 291 296 
3 304 303 99 
3 304 109 302 
3 304 100 99 
3 304 100 109 
3 427 303 428 
3 423 422 178 
3 423 551 178 
3 423 550 424 
3 423 551 550 
3 306 122 307 
3 306 122 101 
3 306 101 113 
3 306 310 113 
3 317 108 102 
3 317 319 102 
3 107 108 103 
3 107 103 104 
3 107 106 104 
3 105 321 318 
3 105 321 106 
3 105 107 106 
3 105 107 108 
3 105 317 318 
3 105 317 108 
3 313 109 302 
3 313 314 302 
3 324 109 110 
3 324 313 109 
3 324 313 323 
3 324 171 110 
3 324 171 329 
3 331 321 318 
3 328 114 327 
3 111 319 112 
3 111 310 113 
3 111 112 310 
3 111 114 113 
3 111 328 114 
3 111 328 319 
3 336 335 225 
3 336 230 225 
3 336 230 229 
3 336 229 334 
3 505 446 379 
3 505 508 379 
3 115 116 378 
3 115 117 118 
3 115 119 118 
3 115 116 119 
3 115 117 205 
3 115 378 205 
3 120 121 307 
3 120 133 137 
3 120 124 121 
3 120 124 133 
3 120 122 307 
3 120 122 137 
3 337 525 142 
3 337 343 142 
3 337 525 555 
3 342 212 341 
3 342 212 211 
3 127 546 545 
3 127 126 123 
3 127 124 123 
3 127 124 546 
3 125 126 130 
3 125 147 545 
3 125 127 545 
3 125 127 126 
3 125 130 128 
3 125 147 128 
3 129 130 144 
3 129 131 340 
3 129 130 132 
3 129 131 132 
3 129 340 143 
3 129 144 143 
3 138 437 439 
3 138 133 137 
3 138 439 134 
3 138 133 134 
3 135 136 137 
3 135 138 137 
3 135 138 437 
3 135 437 332 
3 135 139 332 
3 135 136 139 
3 140 141 201 
3 140 142 143 
3 140 144 143 
3 140 141 144 
3 140 526 201 
3 140 526 142 
3 145 514 515 
3 145 149 515 
3 145 151 514 
3 145 151 149 
3 156 147 146 
3 156 149 515 
3 156 149 146 
3 544 147 545 
3 544 156 147 
3 148 149 150 
3 148 151 149 
3 148 152 150 
3 148 151 152 
3 456 346 435 
3 448 153 447 
3 448 153 154 
3 448 461 154 
3 448 461 449 
3 155 351 154 
3 155 351 244 
3 353 351 354 
3 246 153 154 
3 246 155 154 
3 246 153 454 
3 246 247 244 
3 246 155 244 
3 460 461 352 
3 355 156 515 
3 355 544 156 
3 157 236 384 
3 157 158 384 
3 157 236 565 
3 157 158 565 
3 593 591 473 
3 593 592 473 
3 594 231 356 
3 594 590 231 
3 162 161 185 
3 162 167 168 
3 162 159 185 
3 162 159 168 
3 160 167 163 
3 160 163 473 
3 160 161 473 
3 160 162 167 
3 160 162 161 
3 170 167 163 
3 170 164 163 
3 170 164 165 
3 170 169 165 
3 166 167 168 
3 166 169 326 
3 166 170 167 
3 166 170 169 
3 166 171 168 
3 166 171 326 
3 175 177 172 
3 175 173 428 
3 175 172 174 
3 175 173 174 
3 429 177 422 
3 429 175 428 
3 429 175 177 
3 176 177 422 
3 176 422 178 
3 176 179 180 
3 176 177 180 
3 176 178 181 
3 176 179 181 
3 182 183 184 
3 182 357 184 
3 182 183 185 
3 182 357 470 
3 182 472 470 
3 182 472 185 
3 471 582 587 
3 338 186 344 
3 338 186 555 
3 210 555 187 
3 210 208 555 
3 210 209 187 
3 204 555 203 
3 204 208 555 
3 204 207 208 
3 457 193 364 
3 457 192 354 
3 457 188 364 
3 457 188 514 
3 189 190 191 
3 189 192 191 
3 189 457 192 
3 189 193 190 
3 189 457 193 
3 365 194 195 
3 365 196 195 
3 365 196 197 
3 365 366 197 
3 365 364 198 
3 365 194 198 
3 363 199 364 
3 363 366 200 
3 363 200 560 
3 363 199 560 
3 521 367 255 
3 253 256 397 
3 253 391 397 
3 369 526 201 
3 369 370 201 
3 202 203 344 
3 202 342 344 
3 202 204 203 
3 202 204 207 
3 202 207 211 
3 202 342 211 
3 375 209 205 
3 375 378 205 
3 206 376 207 
3 206 207 208 
3 206 375 209 
3 206 375 376 
3 206 210 209 
3 206 210 208 
3 377 376 211 
3 377 212 211 
3 377 212 509 
3 377 508 509 
3 213 214 564 
3 213 215 564 
3 213 214 216 
3 213 215 216 
3 217 220 218 
3 217 220 251 
3 217 250 218 
3 217 250 251 
3 219 220 221 
3 219 220 222 
3 219 392 221 
3 219 392 222 
3 223 224 225 
3 223 230 225 
3 223 230 232 
3 223 224 226 
3 223 227 226 
3 223 227 232 
3 228 229 356 
3 228 230 229 
3 228 231 356 
3 228 232 231 
3 228 230 232 
3 478 233 234 
3 478 532 234 
3 478 235 381 
3 478 233 235 
3 383 236 384 
3 383 387 564 
3 383 564 565 
3 383 236 565 
3 483 383 387 
3 386 237 531 
3 386 237 564 
3 386 387 564 
3 486 238 485 
3 486 238 240 
3 482 384 239 
3 482 240 239 
3 482 486 240 
3 493 494 241 
3 493 436 241 
3 493 436 492 
3 248 242 243 
3 248 245 242 
3 248 244 243 
3 248 247 244 
3 453 245 452 
3 453 246 454 
3 453 246 247 
3 453 248 247 
3 453 248 245 
3 249 250 251 
3 249 252 251 
3 249 252 250 
3 568 253 391 
3 568 253 256 
3 568 521 256 
3 395 400 397 
3 254 400 255 
3 254 521 255 
3 254 521 256 
3 254 256 397 
3 254 400 397 
3 539 395 540 
3 539 395 400 
3 538 402 257 
3 538 258 257 
3 538 258 398 
3 538 539 402 
3 499 540 404 
3 264 420 419 
3 264 259 419 
3 264 260 259 
3 264 431 260 
3 411 261 269 
3 411 409 261 
3 411 270 269 
3 411 270 412 
3 262 413 316 
3 262 300 421 
3 262 314 316 
3 262 300 314 
3 416 417 410 
3 416 413 410 
3 416 262 421 
3 416 262 413 
3 414 263 412 
3 414 413 316 
3 414 315 316 
3 414 263 315 
3 426 420 301 
3 426 427 301 
3 426 264 420 
3 426 264 431 
3 265 266 267 
3 265 267 502 
3 265 268 502 
3 265 268 418 
3 265 418 417 
3 265 266 417 
3 281 280 269 
3 281 270 269 
3 281 295 292 
3 281 295 270 
3 271 275 279 
3 271 272 275 
3 271 278 279 
3 271 272 278 
3 273 403 274 
3 273 403 275 
3 273 279 274 
3 273 275 279 
3 276 277 278 
3 276 278 279 
3 276 280 279 
3 276 281 280 
3 276 277 292 
3 276 281 292 
3 298 285 435 
3 298 285 293 
3 298 297 293 
3 288 285 282 
3 288 282 283 
3 288 286 283 
3 284 285 293 
3 284 286 287 
3 284 288 286 
3 284 288 285 
3 284 289 287 
3 284 289 294 
3 284 293 294 
3 290 297 291 
3 290 291 292 
3 290 293 294 
3 290 297 293 
3 290 295 294 
3 290 295 292 
3 433 434 296 
3 433 297 296 
3 433 298 435 
3 433 298 297 
3 299 300 301 
3 299 427 301 
3 299 300 302 
3 299 427 303 
3 299 304 302 
3 299 304 303 
3 305 306 307 
3 305 308 309 
3 305 310 308 
3 305 306 310 
3 305 311 307 
3 305 311 309 
3 312 323 322 
3 312 313 323 
3 312 313 314 
3 312 315 322 
3 312 315 316 
3 312 314 316 
3 330 317 318 
3 330 331 318 
3 330 317 319 
3 330 328 319 
3 320 331 321 
3 320 321 322 
3 320 323 322 
3 320 331 329 
3 320 324 329 
3 320 324 323 
3 325 326 327 
3 325 328 327 
3 325 329 326 
3 325 330 328 
3 325 331 329 
3 325 330 331 
3 438 444 335 
3 438 437 332 
3 438 333 332 
3 438 333 335 
3 443 445 334 
3 443 444 335 
3 443 336 334 
3 443 336 335 
3 345 337 343 
3 345 337 555 
3 345 338 344 
3 345 338 555 
3 339 340 341 
3 339 342 341 
3 339 343 340 
3 339 342 344 
3 339 345 344 
3 339 345 343 
3 543 355 449 
3 543 355 544 
3 455 346 347 
3 455 456 346 
3 455 348 347 
3 455 348 454 
3 451 436 349 
3 451 452 349 
3 350 351 352 
3 350 460 352 
3 350 353 351 
3 350 353 354 
3 350 457 354 
3 350 458 460 
3 350 458 457 
3 517 461 449 
3 517 355 449 
3 517 355 515 
3 595 462 356 
3 595 594 356 
3 469 357 465 
3 469 357 470 
3 466 359 467 
3 358 359 360 
3 358 466 359 
3 358 466 471 
3 358 361 360 
3 358 471 582 
3 358 581 582 
3 358 581 361 
3 362 363 364 
3 362 365 364 
3 362 365 366 
3 362 363 366 
3 520 521 367 
3 520 367 368 
3 520 368 523 
3 474 369 370 
3 474 370 371 
3 474 369 526 
3 474 371 372 
3 474 373 372 
3 474 475 373 
3 374 375 376 
3 374 377 376 
3 374 375 378 
3 374 377 508 
3 374 378 379 
3 374 508 379 
3 479 380 381 
3 479 478 381 
3 479 380 476 
3 533 382 535 
3 533 382 477 
3 481 383 384 
3 481 483 383 
3 481 482 384 
3 385 386 531 
3 385 530 531 
3 385 483 387 
3 385 386 387 
3 385 483 488 
3 385 530 488 
3 553 530 488 
3 490 388 495 
3 490 388 389 
3 490 389 390 
3 490 491 390 
3 567 568 391 
3 567 392 570 
3 567 391 393 
3 567 392 393 
3 396 395 397 
3 394 540 404 
3 394 395 540 
3 394 396 395 
3 394 404 405 
3 394 405 397 
3 394 396 397 
3 537 499 540 
3 537 499 501 
3 537 501 398 
3 537 538 398 
3 399 400 401 
3 399 539 400 
3 399 539 402 
3 399 403 401 
3 399 403 402 
3 497 499 404 
3 497 404 405 
3 497 406 405 
3 497 407 498 
3 497 406 407 
3 408 409 410 
3 408 411 409 
3 408 411 412 
3 408 413 410 
3 408 414 412 
3 408 414 413 
3 415 416 417 
3 415 418 419 
3 415 418 417 
3 415 420 419 
3 415 420 421 
3 415 416 421 
3 430 429 422 
3 430 423 422 
3 430 431 424 
3 430 423 424 
3 425 426 427 
3 425 427 428 
3 425 429 428 
3 425 430 429 
3 425 426 431 
3 425 430 431 
3 432 433 434 
3 432 434 492 
3 432 456 435 
3 432 433 435 
3 432 436 492 
3 432 451 436 
3 432 451 456 
3 441 504 444 
3 441 437 439 
3 441 438 437 
3 441 438 444 
3 506 439 440 
3 506 507 440 
3 506 441 439 
3 506 441 504 
3 442 443 444 
3 442 504 444 
3 442 445 446 
3 442 443 445 
3 442 505 446 
3 442 504 505 
3 510 511 447 
3 510 448 447 
3 510 448 449 
3 510 543 449 
3 450 451 452 
3 450 453 454 
3 450 453 452 
3 450 455 454 
3 450 455 456 
3 450 451 456 
3 516 457 514 
3 516 458 457 
3 516 458 460 
3 459 460 461 
3 459 517 461 
3 459 516 460 
3 459 516 517 
3 596 462 463 
3 596 595 462 
3 596 518 463 
3 464 469 465 
3 464 469 471 
3 464 466 471 
3 464 465 467 
3 464 466 467 
3 468 469 470 
3 468 469 471 
3 468 472 473 
3 468 472 470 
3 468 592 473 
3 468 592 587 
3 468 471 587 
3 522 568 521 
3 522 568 569 
3 522 569 523 
3 527 474 526 
3 527 474 475 
3 527 555 475 
3 480 479 476 
3 480 477 476 
3 480 533 477 
3 480 533 534 
3 529 478 532 
3 529 479 478 
3 529 480 534 
3 529 480 479 
3 487 481 482 
3 487 482 486 
3 487 483 488 
3 487 481 483 
3 484 553 552 
3 484 552 485 
3 484 486 485 
3 484 487 486 
3 484 553 488 
3 484 487 488 
3 554 553 530 
3 489 490 491 
3 489 491 492 
3 489 493 492 
3 489 493 494 
3 489 494 495 
3 489 490 495 
3 496 497 498 
3 496 497 499 
3 496 500 498 
3 496 499 501 
3 496 500 502 
3 496 501 502 
3 503 504 505 
3 503 506 504 
3 503 506 507 
3 503 505 508 
3 503 508 509 
3 503 507 509 
3 542 510 511 
3 542 512 547 
3 542 511 512 
3 542 510 543 
3 513 514 515 
3 513 516 514 
3 513 517 515 
3 513 516 517 
3 571 596 518 
3 571 584 558 
3 571 518 558 
3 519 520 521 
3 519 522 521 
3 519 520 523 
3 519 522 523 
3 524 525 526 
3 524 527 526 
3 524 525 555 
3 524 527 555 
3 528 529 534 
3 528 554 534 
3 528 554 530 
3 528 530 531 
3 528 532 531 
3 528 529 532 
3 549 533 534 
3 549 554 534 
3 549 533 535 
3 549 535 550 
3 536 537 538 
3 536 538 539 
3 536 537 540 
3 536 539 540 
3 541 542 543 
3 541 544 545 
3 541 543 544 
3 541 546 545 
3 541 546 547 
3 541 542 547 
3 548 549 550 
3 548 551 550 
3 548 552 551 
3 548 553 552 
3 548 554 553 
3 548 549 554 
3 555 556 557 
3 555 556 558 
3 559 560 561 
3 559 561 562 
3 563 564 565 
3 563 566 565 
3 567 568 569 
3 567 569 570 
3 571 572 573 
3 571 574 573 
3 571 575 576 
3 571 577 578 
3 571 579 580 
3 571 581 582 
3 571 583 579 
3 571 577 584 
3 571 585 586 
3 571 582 587 
3 571 572 588 
3 571 574 578 
3 571 585 588 
3 571 583 576 
3 571 589 575 
3 571 590 591 
3 571 589 586 
3 571 581 580 
3 571 592 587 
3 571 593 592 
3 571 593 591 
3 571 594 590 
3 571 595 594 
3 571 596 595 
