ply
format ascii 1.0
comment VCGLIB generated
element vertex 622
property float x
property float y
property float z
element face 1240
property list uchar int vertex_indices
end_header
0.0227771 0.0868981 0.0326064 
-0.0566896 0.0577726 0.0225366 
-0.0566896 0.0575458 0.0157865 
-0.0514408 0.0659616 0.034547 
-0.0543796 0.0624759 0.0243222 
-0.0543796 0.0607057 0.0390183 
-0.0391553 0.0786595 0.0312043 
-0.0437764 0.074343 0.0345287 
-0.042828 0.0422055 0.20856 
0.00734627 0.0924419 0.0205908 
0.0227771 0.0884503 0.0236658 
0.0170915 0.0888997 0.0312103 
0.0118219 0.0902488 0.0302693 
-0.00151074 0.0913423 0.0295059 
0.00299037 0.0912506 0.0295702 
0.00174693 0.0601593 0.208587 
-0.00354606 0.0913531 0.0294983 
0.0512428 0.0672551 0.0266076 
0.0512428 0.0668862 0.00402665 
0.056071 -0.0211438 0.191463 
0.0499658 0.00203953 0.2085 
0.0583287 -0.013637 0.160342 
-0.0374094 -0.0469097 0.1915 
-0.0582434 -0.0139466 0.160365 
-0.059924 -0.00255781 0.159516 
-0.0442128 -0.0231655 0.208462 
-0.00375085 -0.0496743 0.208422 
-0.0584956 -0.0133512 0.1915 
-0.0584956 -0.0133512 0.1715 
-0.0587718 -0.0118659 0.191479 
-0.0593158 -0.00884946 0.208483 
-0.0540581 -0.026033 0.1915 
-0.0475404 -0.0361496 0.162019 
-0.0511431 -0.0293913 0.150653 
-0.0499999 -0.00949997 0 
-0.0387127 -0.0438733 0.152913 
-0.0433761 -0.0394834 0.152228 
-0.0387127 -0.0453911 0.162708 
-0.0475404 -0.0346263 0.15147 
-0.026033 -0.0540581 0.1915 
-0.0283769 -0.0526815 0.208416 
-0.0199029 -0.0563927 0.19141 
-0.0334507 -0.0493972 0.1715 
-0.0169629 -0.0573675 0.208408 
-0.0173844 0.090317 0.0222264 
-0.0116147 0.0917194 0.0211465 
-0.0173844 0.088798 0.0312794 
-0.0116147 0.0902269 0.0302833 
-0.0566896 0.0552893 0.0436261 
-0.0583706 0.0528674 0.0281403 
-0.0566896 0.0574137 0.029563 
-0.0374094 0.0124999 -0.0469097 
-0.0341094 0.0210997 -0.0490748 
-0.0374094 0.00749993 -0.0469097 
0.00299037 0.0927237 0.0203735 
0.00734627 0.0932616 0.0113253 
-0.0173844 0.0569113 -0.0545973 
-0.0287316 0.0466745 -0.0513194 
-0.0231223 0.0830671 -0.0287288 
-0.0478921 0.0709591 0.0302955 
-0.0514408 0.0669386 0.0268925 
-0.0437764 0.0762914 0.0181138 
-0.0437764 0.075606 0.0263423 
-0.0478921 0.071785 0.0223436 
0.0283973 0.0871962 0.00788599 
0.0170915 0.0912856 0.0130074 
0.0170915 0.0904154 0.0221518 
0.0227771 0.0893691 0.0146383 
0.0118219 0.0925772 0.0119081 
0.0118219 0.0917399 0.0211316 
0.0227771 0.089642 0.00558943 
0.0512428 0.0662815 0.0342831 
0.0542191 0.0610389 0.0387436 
0.0582863 0.0501497 0.0480081 
0.0565675 0.0556299 0.0433456 
0.0283973 0.0842636 0.0344437 
0.0199029 0.0567875 0.208581 
-0.0116147 0.0487446 -0.0582817 
0.0177302 -0.00949997 -0.0467508 
0.0512428 0.0676125 0.0112899 
0.0512428 0.0676961 0.0189214 
0.0542191 0.0629215 0.0166485 
0.0582863 0.0429682 -0.0016377 
0.0565675 0.0409637 -0.0119765 
0.0476582 0.0711136 -0.00130302 
0.04351 0.0750386 -0.00625187 
0.0476582 0.0652343 -0.0156628 
0.0512428 0.0649251 -0.00312781 
0.0476582 0.0688627 -0.00868171 
0.0542997 -0.0251023 0.161196 
0.0542997 -0.0235576 0.149729 
0.0540581 -0.026033 0.1715 
0.0566289 -0.0194059 0.160771 
0.0540581 -0.026033 0.1915 
0.0513421 -0.0290863 0.150592 
0.0593966 0.0446886 0.0526546 
0.0584956 -0.0133512 0.1715 
0.0584956 -0.0133512 0.1915 
0.057096 -0.0182544 0.208469 
0.0572188 0.0182383 0.208524 
-0.0433761 -0.0410039 0.162381 
-0.0374094 -0.0469097 0.1715 
-0.059924 0.038487 0.0445676 
-0.059924 0.0392427 0.0388603 
-0.059445 0.047984 0.0337189 
-0.0583706 0.0522905 0.0348676 
-0.0541382 -0.0254053 0.161219 
-0.0540581 -0.026033 0.1715 
-0.0565057 -0.0197149 0.160795 
-0.0541382 -0.0238752 0.149792 
-0.0511431 -0.0309181 0.16163 
-0.0284032 -0.00949997 -0.0411491 
-0.0060268 -0.00949997 -0.0496354 
0.0060268 -0.00949997 -0.0496354 
-0.0177302 -0.00949997 -0.0467508 
-0.0336328 -0.049242 0.162995 
-0.0336328 -0.0477265 0.153514 
-0.0442728 -0.00949997 -0.0232361 
-0.048547 -0.00949997 -0.0119657 
-0.0374254 -0.00949997 -0.033156 
-0.0469097 0.00749993 -0.0374094 
-0.0110918 -0.0585313 0.163687 
-0.0110918 -0.0570195 0.154962 
-0.0168597 -0.0556329 0.154746 
0.000167798 -0.0580569 0.155122 
-0.00539726 -0.0578128 0.155085 
-0.0231223 0.0892294 0.0147535 
-0.0287316 0.0870212 0.00804341 
-0.0543796 0.060497 0.00309509 
-0.0540581 0.00749993 -0.026033 
-0.0566896 0.0562118 0.00913793 
-0.0173844 0.0482635 -0.0566633 
-0.0231223 0.0475747 -0.0543467 
-0.0287316 0.0385042 -0.0519812 
-0.00151074 0.0936241 0.0110162 
0.00299037 0.0935363 0.0110913 
-0.00151074 0.092814 0.0203038 
-0.00354606 0.0928246 0.0202956 
-0.00354606 0.0936344 0.0110073 
0.00299037 0.0936819 0.00179481 
-0.0287316 0.0841965 -0.0178071 
-0.0437764 0.0568358 -0.0321475 
-0.0437764 0.0499252 -0.0359119 
-0.0287316 0.0858536 -0.0095427 
-0.0287316 0.0867432 -0.000802402 
-0.0437764 0.0764021 0.00990385 
-0.0391553 0.0803373 0.00582957 
-0.0341094 0.0838013 0.00224334 
-0.0437764 0.0759529 0.00176793 
-0.0478921 0.0686095 -0.00834453 
-0.0514408 0.0646555 -0.00276887 
-0.0478921 0.0708535 -0.000988666 
-0.0173844 0.0914032 0.0039314 
-0.0173844 0.0911878 0.0130876 
-0.0231223 0.0895037 0.0057137 
-0.0231223 0.0891358 -0.00327933 
-0.0116147 0.092556 0.0119241 
-0.0116147 0.0927303 0.00268626 
-0.0173844 0.0898968 -0.0141621 
-0.0173844 0.0909666 -0.0051747 
-0.0231223 0.0881442 -0.0121595 
-0.0173844 0.0880339 -0.0226431 
-0.0116147 0.0911212 -0.0155612 
-0.0116147 0.0922457 -0.00649881 
-0.0231223 0.0863705 -0.020547 
-0.0478921 0.0650024 -0.0153066 
-0.0478921 0.0601466 -0.021494 
-0.00151074 0.0937667 0.00171459 
-0.00354606 0.0937765 0.00170511 
0.0337918 0.0826735 0.0281155 
0.0283973 0.0868466 0.0167847 
0.0283973 0.0858638 0.0256581 
0.04351 0.0762028 0.0014773 
0.0476582 0.0720669 0.00620156 
0.04351 0.0746212 0.0343179 
0.0476582 0.0712596 0.0300475 
0.045201 0.0396415 0.208557 
0.0361738 0.0480533 0.208568 
0.0388605 0.0789077 0.0310162 
0.0170915 0.0915001 0.00384456 
0.0565675 0.0569263 0.0363038 
0.0542191 0.062797 0.0239939 
0.0542191 0.0621713 0.0313799 
0.05994 0.0394422 0.0328124 
0.0593966 0.0478444 0.0209628 
0.0582863 0.0531778 0.0277787 
0.0582863 0.053187 0.0212978 
0.0565675 0.0580814 0.0221771 
0.0565675 0.0577421 0.0292277 
0.0582863 0.0526207 0.0345303 
0.0593966 0.0482908 0.033361 
0.0593966 0.0485492 0.0271447 
0.0374094 0.00749993 -0.0469097 
0.0565675 0.0357582 -0.0146164 
0.0584956 0.0124999 -0.0133513 
0.0584956 0.00749993 -0.0133513 
0.0593966 0.0185232 -0.00710672 
0.0582863 0.018886 -0.013008 
0.0593966 0.0159248 -0.00802368 
0.0582863 0.0291073 -0.00991124 
0.05994 0.0384657 0.027283 
0.0593966 0.0461106 0.0150185 
0.05994 0.0281752 0.0108839 
0.0593966 0.0231523 -0.00535124 
0.0593966 0.0319103 -0.00167674 
0.0593966 0.0360574 0.00114095 
0.0582863 0.0385063 -0.00540656 
0.0582863 0.033831 -0.00813544 
0.0593966 0.0277023 -0.0036211 
0.00299037 0.0535307 -0.0586412 
-0.00151074 0.0535661 -0.0587453 
-0.0231223 0.0781572 -0.0364063 
0.0582863 0.0521646 0.0148696 
0.0565675 0.0578409 0.0154305 
0.0542191 0.0624341 0.00963962 
0.0565675 0.0539858 0.00238413 
0.0582863 0.0500414 0.00871217 
0.0582863 0.0469077 0.00312316 
0.0565675 0.0564997 0.00875562 
0.0542191 0.0607783 0.00272107 
0.0512428 0.0517581 -0.020981 
0.0542191 0.0433893 -0.0184612 
0.0476582 0.0544704 -0.0269499 
0.0476582 0.0603476 -0.0218632 
0.0542191 0.0538405 -0.00976574 
0.0565675 0.0503968 -0.00336343 
0.0565675 0.0459542 -0.00820905 
0.0542191 0.0489014 -0.0146948 
0.0542191 0.0578787 -0.00386143 
0.0512428 0.0571783 -0.0159711 
0.0512428 0.0616516 -0.00991488 
0.0388605 0.0288406 -0.0448432 
0.04351 0.0632904 -0.0273339 
0.04351 0.0569889 -0.032492 
0.0388605 0.0758251 -0.0185027 
0.04351 0.0725186 -0.0138384 
0.04351 0.0685606 -0.0209998 
0.0469097 -0.0374094 0.1715 
0.0469097 -0.0374094 0.1915 
0.0513421 -0.0306267 0.161608 
0.0374094 -0.0469097 0.1915 
0.044934 -0.0395755 0.208437 
0.0374094 -0.0469097 0.1715 
0.026033 -0.0540581 0.1915 
0.035851 -0.0479265 0.208424 
0.0339509 -0.047524 0.153473 
0.0339509 -0.0490487 0.16298 
0.0390082 -0.0436389 0.152866 
0.0477753 -0.0343394 0.151413 
0.0477753 -0.0358755 0.161999 
0.0499999 -0.00949997 0 
0.0284032 -0.00949997 -0.0411491 
0.0374254 -0.00949997 -0.033156 
0.0442728 -0.00949997 -0.0232361 
0.0135851 -0.0582573 0.208408 
0.00134304 -0.0598005 0.208406 
0.0593966 0.047517 0.0398146 
0.05994 0.037591 0.0500917 
0.0599298 0.0030972 0.191502 
0.05994 0.0387868 0.0442178 
0.05994 0.0395294 0.0385156 
0.059661 -0.00618545 0.208486 
-0.0469097 -0.0374094 0.1915 
-0.0469097 -0.0374094 0.1715 
-0.0507339 -0.0318465 0.208448 
-0.0452009 -0.0392468 0.191437 
-0.0385899 -0.0457585 0.208427 
-0.059445 0.04435 0.0529327 
-0.059924 0.0372714 0.0504177 
-0.059445 0.0471902 0.0401481 
-0.05869 0.0126809 0.191515 
-0.056071 0.0215382 0.208528 
-0.0583706 0.0498074 0.04829 
-0.0478921 0.0165651 -0.0359035 
-0.0469097 0.0124999 -0.0374094 
-0.0437764 0.0205733 -0.0405211 
-0.0478921 0.0344627 -0.0338885 
-0.0478921 0.0202646 -0.0354999 
-0.0437764 0.0356581 -0.0392402 
-0.0437764 0.0427836 -0.0382337 
-0.0478921 0.0411494 -0.032738 
-0.0173844 0.0306288 -0.0572688 
-0.0173844 0.0396663 -0.0571836 
-0.0133512 0.0124999 -0.0584956 
-0.0133512 0.00749993 -0.0584956 
-0.0226045 -0.0551396 0.163434 
-0.0282297 -0.0509871 0.154022 
-0.0226045 -0.0536266 0.154434 
-0.0282297 -0.052501 0.163238 
-0.0168597 -0.057145 0.163584 
-0.026033 -0.0540581 0.1715 
0.00573844 -0.0577831 0.155079 
0.0114403 -0.0569577 0.154949 
0.000167798 -0.0595694 0.163764 
-0.02802 0.0532392 0.208577 
-0.0231223 0.0883094 0.0237723 
-0.0231223 0.0867527 0.0327052 
-0.0341094 0.0835223 0.019608 
-0.0287316 0.0866698 0.0169306 
-0.0341094 0.0839688 0.0109081 
-0.0391553 0.0798163 0.0227606 
-0.0341094 0.0824588 0.0282782 
-0.0287316 0.0856854 0.0257932 
-0.0391553 0.0803747 0.0142814 
-0.0514408 0.0569642 -0.0155779 
-0.0514408 0.0614046 -0.00953561 
-0.0566896 0.0192231 -0.018568 
-0.0540581 0.0124999 -0.026033 
-0.0514408 0.0199323 -0.0300999 
-0.0514408 0.0164403 -0.0305944 
-0.0514408 0.045601 -0.024348 
-0.0543796 0.0432442 -0.018046 
-0.0514408 0.0515803 -0.0205813 
-0.0478921 0.0478416 -0.0303401 
-0.0514408 0.0393921 -0.0268276 
-0.0543796 0.0375436 -0.0206116 
-0.0478921 0.0543035 -0.0265746 
-0.0391553 0.0208533 -0.0450705 
-0.0391553 0.0367411 -0.0440889 
-0.0437764 0.0166811 -0.0408401 
-0.0391553 0.0167864 -0.0453132 
-0.0341094 0.0376945 -0.0483567 
-0.026033 0.0124999 -0.0540581 
-0.0231223 0.0214792 -0.0552412 
-0.026033 0.00749993 -0.0540581 
-0.0231223 0.0391624 -0.0549286 
-0.0287316 0.0213089 -0.0524758 
-0.0287316 0.0810413 -0.025873 
-0.0287316 0.0763139 -0.0334501 
-0.0514408 0.0673227 0.011627 
-0.0478921 0.0717946 0.00651842 
-0.0514408 0.0666093 0.00436121 
-0.0543796 0.0626194 0.0169999 
-0.0514408 0.0673882 0.0192361 
-0.0478921 0.0720589 0.0144005 
-0.0543796 0.0621456 0.00998807 
-0.0391553 0.0783757 -0.0104704 
-0.0437764 0.0747999 -0.00596333 
-0.0391553 0.0797206 -0.00253612 
-0.0341094 0.083037 -0.00632489 
-0.0341094 0.0815233 -0.0144378 
-0.0437764 0.0722863 -0.013529 
0.0388605 0.0805742 0.0055874 
0.0337918 0.0841793 0.0107186 
0.0337918 0.0837352 0.0194324 
0.04351 0.0765642 0.0178682 
0.0476582 0.0723482 0.0141047 
0.0476582 0.0720823 0.0220759 
0.04351 0.0766675 0.00963247 
0.04351 0.0758817 0.0261148 
0.0388605 0.0806181 0.0140621 
0.0388605 0.0800624 0.0225574 
0.0227771 0.0892704 -0.00341696 
0.0118219 0.0927523 0.00266844 
0.00734627 0.0934157 0.00204515 
0.00734627 0.0929068 -0.0071826 
0.0337918 0.0832298 -0.00654924 
0.0283973 0.0860139 -0.00972921 
0.0337918 0.0817075 -0.0146604 
0.0388605 0.0799436 -0.00279558 
0.0388605 0.0785888 -0.0107281 
0.0337918 0.0840062 0.00203377 
0.0283973 0.0869135 -0.000976477 
0.04351 0.0500455 -0.0362553 
0.0476582 0.0345381 -0.034225 
0.0469097 0.0124999 -0.0374094 
0.0476582 0.0202881 -0.0358196 
0.04351 0.020595 -0.0408143 
0.0469097 0.00749993 -0.0374094 
0.0565675 0.01925 -0.01893 
0.0565675 0.0305172 -0.0162231 
0.0582863 0.0160605 -0.0138242 
0.0512428 0.0395042 -0.0272127 
0.0542191 0.0376604 -0.021013 
0.0512428 0.0457402 -0.0247462 
0.0476582 0.0412549 -0.0330998 
0.0476582 0.0479726 -0.0307143 
0.0542191 0.0196093 -0.0247748 
0.0542191 0.0319088 -0.022453 
0.0512428 0.0332575 -0.0284911 
0.0540581 0.0124999 -0.026033 
0.0565675 0.0161964 -0.0196446 
0.0540581 0.00749993 -0.026033 
0.0542191 0.0163307 -0.0253894 
0.0512428 0.0164608 -0.0309572 
0.05994 0.0342049 0.0176473 
0.05994 0.0312948 0.0138748 
0.05994 0.0366678 0.02216 
0.0593966 0.0434303 0.00958771 
0.0593966 0.0399925 0.00491089 
0.00734627 0.0578402 -0.0570874 
0.0118219 0.0531464 -0.0574981 
0.0170915 0.0482978 -0.0567812 
0.026033 0.00749993 -0.0540581 
0.00299037 0.0447157 -0.0598334 
0.00299037 0.0490894 -0.059442 
-0.00151074 0.0491201 -0.0595454 
0.0283973 0.0299314 -0.052418 
0.0374094 0.0124999 -0.0469097 
0.0282707 0.0124999 -0.0526521 
0.0337918 0.0294312 -0.0489439 
0.0388605 0.0443508 -0.0435098 
0.0388605 0.036803 -0.0443644 
0.04351 0.0357275 -0.0395489 
0.04351 0.0428805 -0.0385659 
0.0283973 0.0467366 -0.0515322 
0.0227771 0.0476238 -0.0545151 
0.0283973 0.0385485 -0.052179 
0.0337918 0.037748 -0.048595 
0.0337918 0.0456424 -0.047853 
0.0337918 0.0535674 -0.0456696 
0.0388605 0.0519204 -0.0412669 
0.0388605 0.0715691 -0.0258271 
0.0283973 0.0843496 -0.017992 
0.0337918 0.0787298 -0.0226002 
0.0436435 -0.0392204 0.152176 
0.048547 -0.00949997 -0.0119657 
0.0436435 -0.0407525 0.162362 
0.0390082 -0.0451669 0.162691 
0.0285646 -0.0523409 0.163226 
0.0285646 -0.0508192 0.153988 
0.05994 -0.00226229 0.159494 
-0.059924 0.0280592 0.0112829 
-0.059924 0.0311513 0.0142885 
-0.059924 0.034021 0.0180623 
-0.059924 0.0364451 0.0225682 
-0.0116147 0.0308489 -0.0587958 
-0.0116147 0.0400182 -0.0587588 
-0.00354606 0.0310224 -0.0599988 
-0.00354606 0.0491239 -0.0595574 
-0.00151074 0.0447416 -0.0599363 
-0.0110679 -0.0587529 0.1715 
-0.00539726 -0.0593247 0.163746 
-0.0133512 -0.0584956 0.1715 
-0.0133512 -0.0584956 0.1915 
0.00569713 -0.0593581 0.1715 
0.00573844 -0.0592967 0.163744 
0 -0.06 0.1715 
0 -0.06 0.1915 
0.0133512 -0.0584956 0.1915 
-0.0543796 0.0195831 -0.0244206 
-0.0543796 0.0163093 -0.0250112 
-0.0514408 0.033177 -0.0281333 
-0.0543796 0.0318248 -0.0220801 
-0.0566896 0.0161743 -0.0192577 
-0.0583706 0.0188589 -0.0126445 
-0.0583706 0.0160378 -0.0134345 
-0.0584956 0.0124999 -0.0133513 
-0.0584956 0.00749993 -0.0133513 
-0.0566896 0.0408156 -0.0115518 
-0.0543796 0.0487162 -0.0142782 
-0.0391553 0.0713792 -0.0255353 
-0.0341094 0.0785505 -0.0223612 
-0.0391553 0.0756178 -0.0182266 
-0.0341094 0.0740475 -0.0298151 
-0.0437764 0.0683478 -0.0206729 
-0.0391553 0.0657872 -0.0319797 
-0.0437764 0.0631059 -0.0269952 
-0.0231223 0.0642598 -0.0484874 
-0.0231223 0.0717824 -0.0431243 
-0.0231223 0.0560334 -0.0522485 
-0.0287316 0.0548859 -0.0491788 
-0.0341094 0.0455678 -0.0475967 
-0.0391553 0.0442643 -0.0432134 
-0.0341094 0.0611495 -0.041642 
-0.0287316 0.070152 -0.0400937 
-0.0341094 0.0681474 -0.0363672 
-0.0287316 0.0628649 -0.0454171 
-0.0391553 0.0591301 -0.0371972 
-0.0341094 0.0534748 -0.0454046 
-0.0391553 0.051813 -0.0409606 
0.00299037 0.0931632 -0.0074482 
0.0118219 0.0892153 -0.0241283 
0.0170915 0.0899855 -0.0142654 
0.0227771 0.0882708 -0.0123069 
0.0170915 0.091061 -0.00527108 
0.0118219 0.0922676 -0.00652045 
0.0118219 0.091141 -0.0155852 
-0.00151074 0.0580031 -0.0575206 
0.00299037 0.0579636 -0.0574161 
0.0118219 0.0660851 -0.0525073 
0.00734627 0.0664579 -0.0533274 
0.0118219 0.0575333 -0.0562674 
0.0170915 0.0569538 -0.0547195 
0.00734627 0.0743529 -0.0479017 
-0.0173844 0.0653271 -0.0508367 
-0.0173844 0.0730299 -0.0454433 
0.0227771 0.030337 -0.0552346 
0.026033 0.0124999 -0.0540581 
0.0227771 0.0391977 -0.0550849 
-0.00151074 0.0402927 -0.0599879 
-0.00354606 0.0402955 -0.0599999 
0.00299037 0.0310069 -0.0598887 
0 0.00749993 -0.06 
0.00299037 0.0402701 -0.0598863 
0 0.0124999 -0.06 
0.0133512 0.00749993 -0.0584956 
0.0337918 0.0682899 -0.0366288 
0.0337918 0.0612679 -0.0419078 
0.0337918 0.0742118 -0.0300676 
0.0388605 0.0659519 -0.0322821 
0.0388605 0.0592667 -0.0375046 
0.0118219 0.0739176 -0.0470921 
0.00734627 0.0810645 -0.0410656 
0.00734627 0.0862619 -0.033228 
0.0227771 0.0643374 -0.048662 
0.0283973 0.0629631 -0.0456381 
0.0227771 0.0560942 -0.0524227 
0.0170915 0.0653815 -0.0509593 
0.0283973 0.0549629 -0.0493991 
0.0283973 0.0811904 -0.0260713 
0.0227771 0.0864915 -0.020693 
0.0170915 0.0881187 -0.0227452 
0.0229498 -0.0534948 0.154407 
0.0172095 -0.0555366 0.154727 
0.0229498 -0.0550135 0.163425 
0.0114403 -0.0584725 0.163682 
0.026033 -0.0540581 0.1715 
-0.059445 0.0432028 0.0100049 
-0.0583706 0.0497759 0.00911873 
-0.059445 0.0475575 0.0213427 
-0.059445 0.0458477 0.0154205 
-0.059924 0.0382084 0.0276762 
-0.059924 0.0391614 0.0331836 
-0.059445 0.0482557 0.0274978 
-0.0583706 0.0518748 0.015254 
-0.0583706 0.0528904 0.0216553 
-0.059445 0.0317916 -0.00126863 
-0.0583706 0.0239738 -0.0110776 
-0.0566896 0.0356387 -0.0142059 
-0.0566896 0.0304314 -0.0158422 
-0.0543796 0.0536172 -0.00935596 
-0.0543796 0.057621 -0.00346601 
-0.0566896 0.0537221 0.00278842 
-0.00151074 0.0932449 -0.00753289 
-0.00354606 0.0920865 -0.0166643 
-0.00354606 0.0932542 -0.00754273 
0.00299037 0.091999 -0.0165648 
0.00734627 0.0917534 -0.0162844 
-0.00151074 0.0920774 -0.0166541 
0.00299037 0.0623436 -0.0557531 
0.00299037 0.0666075 -0.0536562 
-0.00151074 0.0745828 -0.0483295 
0.00299037 0.0745274 -0.0482261 
0.00299037 0.0706889 -0.0511376 
0.00299037 0.0812615 -0.0413824 
0.00299037 0.0780668 -0.0449581 
-0.00354606 0.081331 -0.0414948 
-0.00151074 0.081324 -0.0414833 
-0.00151074 0.0781258 -0.0450601 
-0.0116147 0.0739017 -0.0470636 
-0.0116147 0.0857006 -0.0324405 
-0.0116147 0.0805535 -0.0402489 
-0.0116147 0.0891961 -0.0241075 
-0.0173844 0.0846172 -0.0309138 
-0.0173844 0.0795678 -0.0386684 
-0.00354606 0.0901123 -0.0252614 
-0.00151074 0.0865472 -0.0336322 
-0.00151074 0.0885344 -0.0294812 
-0.00354606 0.0865549 -0.0336437 
0.00299037 0.0864785 -0.0335343 
-0.00151074 0.0841389 -0.037653 
0.00299037 0.0840732 -0.0375536 
0.0118219 0.0400231 -0.0587807 
0.0133512 0.0124999 -0.0584956 
0.0170915 0.0306451 -0.0573745 
0.0118219 0.0308527 -0.0588169 
0.0170915 0.0396908 -0.0572926 
0.0118219 0.048752 -0.0583083 
0.00734627 0.0401993 -0.0595694 
0.00734627 0.0489927 -0.0591174 
0.0227771 0.083185 -0.0288856 
0.0283973 0.0764505 -0.03366 
0.0283973 0.0702705 -0.040311 
0.0171056 -0.0571819 0.1715 
0.0172095 -0.0570533 0.163577 
0.0133512 -0.0584956 0.1715 
0.0228562 -0.0551697 0.1715 
0.0224169 -0.0554448 0.191412 
-0.0583706 0.0427777 -0.00120896 
-0.0583706 0.0466777 0.00354487 
-0.059445 0.0398042 0.00533527 
-0.0583706 0.0383574 -0.00497919 
-0.059445 0.0359102 0.00156385 
-0.0566896 0.045765 -0.00778288 
-0.0566896 0.0501685 -0.00294423 
-0.059445 0.015902 -0.00763768 
0.00299037 0.0900294 -0.025156 
0.00299037 0.0911804 -0.0209314 
0.00734627 0.0897963 -0.0248615 
0.00299037 0.0884628 -0.029385 
-0.00151074 0.0901037 -0.0252503 
-0.00151074 0.091257 -0.0210238 
-0.00354606 0.0666606 -0.0537726 
-0.00151074 0.0666552 -0.0537606 
-0.00151074 0.0707405 -0.0512418 
-0.00354606 0.0745891 -0.0483414 
-0.0116147 0.0660728 -0.0524783 
-0.00151074 0.0623873 -0.0558577 
-0.00354606 0.0580078 -0.0575325 
-0.0116147 0.0575247 -0.0562386 
0.0170915 0.0796438 -0.0387847 
0.0227771 0.0782652 -0.0365721 
0.0170915 0.0847002 -0.0310237 
0.0118219 0.0857211 -0.0324646 
0.0118219 0.0805726 -0.0402756 
0.0170915 0.0730957 -0.0455639 
0.0227771 0.071876 -0.0432961 
-0.059445 0.0230961 -0.00498533 
-0.059445 0.0276173 -0.00324357 
-0.0597093 0.0124999 -0.00589955 
-0.059445 0.0184963 -0.00674748 
-0.0583706 0.0290213 -0.00952881 
-0.0583706 0.0337108 -0.0077228 
-0.06 0 0.1715 
-0.06 0.0124999 0 
-0.06 0 0.1915 
-0.06 0.00749993 0 
0.06 0 0.1715 
0.06 0 0.1915 
0.06 0.0124999 0 
0.06 0.00749993 0 
3 448 34 617 
3 294 46 15 
3 294 176 15 
3 12 9 15 
3 14 9 15 
3 99 176 98 
3 76 176 15 
3 76 0 171 
3 76 0 11 
3 76 12 15 
3 76 12 11 
3 94 250 621 
3 94 239 621 
3 115 35 37 
3 115 35 116 
3 43 40 255 
3 296 294 46 
3 2 526 1 
3 2 526 525 
3 2 332 1 
3 2 332 335 
3 57 321 133 
3 157 138 168 
3 7 59 62 
3 69 12 9 
3 10 0 11 
3 10 0 171 
3 10 170 171 
3 10 170 67 
3 177 76 176 
3 20 176 98 
3 175 176 71 
3 175 17 71 
3 175 17 347 
3 90 239 621 
3 96 92 98 
3 254 244 255 
3 421 96 621 
3 101 22 40 
3 101 115 37 
3 101 100 37 
3 23 108 617 
3 109 110 617 
3 33 34 617 
3 33 110 617 
3 30 616 24 
3 270 30 271 
3 270 30 616 
3 614 24 617 
3 614 616 24 
3 39 43 40 
3 36 100 37 
3 31 30 264 
3 263 264 110 
3 111 324 53 
3 8 30 271 
3 8 30 294 
3 8 271 5 
3 8 3 5 
3 8 59 3 
3 8 7 59 
3 295 296 46 
3 49 50 1 
3 49 526 1 
3 49 526 524 
3 49 104 524 
3 48 50 5 
3 48 271 5 
3 48 272 271 
3 4 50 1 
3 4 332 1 
3 4 50 5 
3 4 332 333 
3 130 2 525 
3 130 335 128 
3 130 2 335 
3 530 528 445 
3 52 321 133 
3 56 600 131 
3 462 57 321 
3 47 46 15 
3 47 16 15 
3 47 16 45 
3 156 157 138 
3 156 45 153 
3 279 470 463 
3 279 278 463 
3 461 462 57 
3 60 59 3 
3 60 4 333 
3 60 3 5 
3 60 4 5 
3 303 145 146 
3 6 7 62 
3 6 300 62 
3 6 8 7 
3 6 300 301 
3 6 8 294 
3 6 294 301 
3 155 144 154 
3 143 160 140 
3 143 340 140 
3 143 155 144 
3 143 155 160 
3 164 160 140 
3 164 327 140 
3 353 55 354 
3 54 55 9 
3 54 14 9 
3 235 86 236 
3 68 353 179 
3 68 353 55 
3 68 55 9 
3 68 69 9 
3 66 10 67 
3 66 10 11 
3 66 12 11 
3 66 69 12 
3 13 16 136 
3 13 54 136 
3 13 54 14 
3 13 14 15 
3 13 16 15 
3 137 16 136 
3 137 16 45 
3 137 156 138 
3 137 156 45 
3 182 17 71 
3 182 181 17 
3 169 177 76 
3 195 250 621 
3 195 381 382 
3 597 56 485 
3 597 56 600 
3 173 346 79 
3 173 18 79 
3 173 18 84 
3 173 84 172 
3 214 18 79 
3 214 18 219 
3 216 388 217 
3 80 181 17 
3 80 346 79 
3 80 17 347 
3 80 346 347 
3 87 18 84 
3 87 18 219 
3 87 228 219 
3 223 86 236 
3 223 86 229 
3 232 412 236 
3 232 223 236 
3 19 92 98 
3 19 93 98 
3 91 93 239 
3 91 19 92 
3 91 19 93 
3 241 93 98 
3 241 20 98 
3 241 244 255 
3 241 26 255 
3 241 20 176 
3 241 26 176 
3 97 96 98 
3 21 92 621 
3 21 96 621 
3 21 96 92 
3 243 254 244 
3 256 260 190 
3 256 189 190 
3 258 95 99 
3 266 22 40 
3 266 40 255 
3 266 26 255 
3 266 101 22 
3 42 101 115 
3 42 101 40 
3 28 23 108 
3 28 30 29 
3 28 30 24 
3 28 24 617 
3 28 23 617 
3 268 102 616 
3 25 30 294 
3 25 294 176 
3 25 26 176 
3 25 30 264 
3 25 266 264 
3 25 266 26 
3 27 31 108 
3 27 28 29 
3 27 28 108 
3 27 30 29 
3 27 31 30 
3 107 31 108 
3 107 264 110 
3 107 31 264 
3 32 263 110 
3 32 33 110 
3 32 100 38 
3 32 263 100 
3 32 38 34 
3 32 33 34 
3 522 615 523 
3 319 120 53 
3 319 320 53 
3 274 319 120 
3 428 493 284 
3 251 78 393 
3 291 78 113 
3 291 124 113 
3 291 251 78 
3 114 324 284 
3 114 111 324 
3 118 129 448 
3 118 448 34 
3 118 286 116 
3 118 35 116 
3 118 36 100 
3 118 35 37 
3 118 36 37 
3 118 38 34 
3 118 100 38 
3 119 111 122 
3 119 120 53 
3 119 111 53 
3 41 39 43 
3 41 433 43 
3 290 39 40 
3 290 41 39 
3 290 41 433 
3 290 42 115 
3 290 42 40 
3 434 43 255 
3 434 433 43 
3 127 144 154 
3 127 147 144 
3 126 153 154 
3 126 127 154 
3 44 45 153 
3 44 126 153 
3 44 126 295 
3 44 295 46 
3 44 47 46 
3 44 47 45 
3 105 48 272 
3 105 49 104 
3 105 49 50 
3 105 48 50 
3 533 130 128 
3 446 530 445 
3 442 314 280 
3 315 530 529 
3 313 314 280 
3 326 324 53 
3 326 52 53 
3 326 52 133 
3 51 52 321 
3 51 320 321 
3 51 52 53 
3 51 320 53 
3 318 462 463 
3 318 462 321 
3 318 319 275 
3 318 278 463 
3 318 278 275 
3 132 56 131 
3 132 57 133 
3 167 138 168 
3 167 139 471 
3 135 54 55 
3 135 55 354 
3 135 139 354 
3 135 54 136 
3 553 161 162 
3 553 161 554 
3 460 56 485 
3 460 132 56 
3 460 461 57 
3 460 132 57 
3 58 327 328 
3 58 211 328 
3 58 211 554 
3 58 164 327 
3 58 161 554 
3 58 164 161 
3 141 313 316 
3 148 145 146 
3 331 150 151 
3 331 335 128 
3 331 150 128 
3 63 59 62 
3 63 60 59 
3 63 60 333 
3 63 334 333 
3 61 300 62 
3 61 303 300 
3 61 303 145 
3 61 63 62 
3 61 334 145 
3 61 63 334 
3 299 303 146 
3 299 147 146 
3 299 127 147 
3 159 155 160 
3 166 312 316 
3 457 141 456 
3 457 141 316 
3 457 166 316 
3 535 536 162 
3 535 553 162 
3 85 235 360 
3 85 84 172 
3 85 359 172 
3 85 359 360 
3 349 175 347 
3 352 70 179 
3 352 70 362 
3 64 170 67 
3 64 70 67 
3 64 70 362 
3 64 343 170 
3 64 362 361 
3 64 343 361 
3 355 139 354 
3 355 139 471 
3 65 66 67 
3 65 68 179 
3 65 68 69 
3 65 66 69 
3 65 70 179 
3 65 70 67 
3 72 176 71 
3 72 182 71 
3 72 99 176 
3 72 74 99 
3 180 72 74 
3 180 72 182 
3 191 260 190 
3 186 184 212 
3 186 191 184 
3 73 74 99 
3 73 256 189 
3 73 180 74 
3 73 180 189 
3 73 95 99 
3 73 256 95 
3 75 76 171 
3 75 169 171 
3 75 169 76 
3 178 169 351 
3 178 349 351 
3 178 169 177 
3 384 368 382 
3 384 364 379 
3 384 364 366 
3 403 364 404 
3 403 364 366 
3 198 620 621 
3 198 195 621 
3 207 199 193 
3 389 388 217 
3 396 429 430 
3 210 429 599 
3 210 396 429 
3 77 600 131 
3 77 429 427 
3 77 600 599 
3 77 429 599 
3 77 282 131 
3 77 282 427 
3 479 390 209 
3 570 390 209 
3 496 493 113 
3 496 78 113 
3 496 78 393 
3 81 214 79 
3 81 80 79 
3 81 80 181 
3 81 181 187 
3 213 186 187 
3 213 186 212 
3 213 81 187 
3 213 81 214 
3 201 184 212 
3 201 216 212 
3 201 216 388 
3 201 184 200 
3 82 226 206 
3 82 389 217 
3 82 205 206 
3 82 389 205 
3 225 82 217 
3 225 82 226 
3 83 226 206 
3 83 207 193 
3 83 207 206 
3 83 221 193 
3 227 83 221 
3 227 83 226 
3 88 235 86 
3 88 87 84 
3 88 85 84 
3 88 85 235 
3 230 86 229 
3 230 87 228 
3 230 88 86 
3 230 88 87 
3 363 233 501 
3 363 411 501 
3 363 411 404 
3 222 232 233 
3 222 232 223 
3 89 90 239 
3 89 91 239 
3 89 91 92 
3 89 92 621 
3 89 90 621 
3 238 93 239 
3 238 241 93 
3 249 94 250 
3 249 94 239 
3 242 417 241 
3 416 195 250 
3 416 195 382 
3 578 243 254 
3 257 258 95 
3 257 256 95 
3 261 421 96 
3 261 97 96 
3 261 97 98 
3 261 99 98 
3 261 258 99 
3 265 263 100 
3 265 101 100 
3 265 266 101 
3 103 615 616 
3 103 102 616 
3 103 615 523 
3 103 523 524 
3 103 104 524 
3 269 268 102 
3 269 103 104 
3 269 103 102 
3 269 105 272 
3 269 105 104 
3 106 107 108 
3 106 108 617 
3 106 109 617 
3 106 109 110 
3 106 107 110 
3 425 424 615 
3 425 522 615 
3 309 307 129 
3 309 120 129 
3 309 274 120 
3 323 324 284 
3 192 251 393 
3 192 368 252 
3 192 251 252 
3 192 399 393 
3 192 398 399 
3 125 111 122 
3 125 114 111 
3 125 432 122 
3 112 124 113 
3 112 114 284 
3 112 125 124 
3 112 125 114 
3 112 493 113 
3 112 493 284 
3 288 115 116 
3 288 286 116 
3 288 290 115 
3 123 119 122 
3 123 289 287 
3 117 286 287 
3 117 118 286 
3 117 123 287 
3 117 123 119 
3 117 118 129 
3 117 120 129 
3 117 119 120 
3 121 432 122 
3 121 123 122 
3 121 123 289 
3 121 289 433 
3 121 432 433 
3 293 291 124 
3 293 125 124 
3 293 125 432 
3 438 434 255 
3 298 126 295 
3 298 126 127 
3 298 299 127 
3 304 450 312 
3 304 166 312 
3 304 165 305 
3 304 166 165 
3 532 533 128 
3 532 150 128 
3 532 150 305 
3 444 446 447 
3 444 307 129 
3 444 129 448 
3 444 447 448 
3 423 424 615 
3 610 615 617 
3 610 448 617 
3 519 130 525 
3 519 533 130 
3 311 315 529 
3 311 450 312 
3 142 279 470 
3 142 141 313 
3 142 279 280 
3 142 313 280 
3 325 282 131 
3 325 132 131 
3 325 323 282 
3 325 132 133 
3 325 326 133 
3 134 135 136 
3 134 137 136 
3 134 137 138 
3 134 167 138 
3 134 167 139 
3 134 135 139 
3 556 535 553 
3 452 453 340 
3 452 340 140 
3 452 327 140 
3 468 141 456 
3 468 466 456 
3 468 142 470 
3 468 142 141 
3 465 466 328 
3 465 211 459 
3 465 211 328 
3 339 143 340 
3 339 147 144 
3 339 143 144 
3 330 148 151 
3 330 331 151 
3 330 334 145 
3 330 148 145 
3 338 148 146 
3 338 147 146 
3 338 339 147 
3 337 148 151 
3 337 338 148 
3 149 165 305 
3 149 150 305 
3 149 165 341 
3 149 150 151 
3 149 337 341 
3 149 337 151 
3 152 159 157 
3 152 153 154 
3 152 155 154 
3 152 159 155 
3 152 156 153 
3 152 156 157 
3 163 159 157 
3 163 536 162 
3 163 157 168 
3 163 536 168 
3 158 159 160 
3 158 161 162 
3 158 163 162 
3 158 163 159 
3 158 164 161 
3 158 164 160 
3 455 453 341 
3 455 165 341 
3 455 166 165 
3 455 457 166 
3 534 167 471 
3 534 536 168 
3 534 167 168 
3 538 472 477 
3 538 355 477 
3 538 355 471 
3 342 359 361 
3 342 343 361 
3 342 359 172 
3 344 169 351 
3 344 343 170 
3 344 170 171 
3 344 169 171 
3 348 342 172 
3 348 173 172 
3 348 173 346 
3 174 349 175 
3 174 175 176 
3 174 177 176 
3 174 178 177 
3 174 178 349 
3 475 352 179 
3 475 353 179 
3 357 352 362 
3 188 180 189 
3 188 181 187 
3 188 182 181 
3 188 180 182 
3 183 184 200 
3 183 191 184 
3 183 191 260 
3 183 620 260 
3 183 200 620 
3 185 186 187 
3 185 188 187 
3 185 188 189 
3 185 189 190 
3 185 191 190 
3 185 186 191 
3 376 222 374 
3 376 363 233 
3 376 222 233 
3 367 403 402 
3 367 192 368 
3 367 192 398 
3 370 199 193 
3 373 221 193 
3 373 370 193 
3 373 370 378 
3 373 374 221 
3 383 384 379 
3 194 198 371 
3 194 198 195 
3 194 381 371 
3 194 195 381 
3 196 198 199 
3 196 207 203 
3 196 207 199 
3 196 620 203 
3 196 198 620 
3 197 198 371 
3 197 198 199 
3 197 370 371 
3 197 370 199 
3 387 200 620 
3 387 201 388 
3 387 201 200 
3 202 205 620 
3 202 386 620 
3 202 389 205 
3 202 389 386 
3 208 207 203 
3 208 620 203 
3 204 205 206 
3 204 207 206 
3 204 208 207 
3 204 205 620 
3 204 208 620 
3 478 210 209 
3 478 479 209 
3 478 210 599 
3 391 392 568 
3 391 390 482 
3 391 570 390 
3 391 570 568 
3 395 570 209 
3 395 210 209 
3 395 210 396 
3 555 211 459 
3 555 486 459 
3 555 211 554 
3 567 392 568 
3 567 392 489 
3 569 496 493 
3 218 216 212 
3 218 213 212 
3 218 214 219 
3 218 213 214 
3 215 216 217 
3 215 225 217 
3 215 218 216 
3 215 225 228 
3 215 228 219 
3 215 218 219 
3 220 374 221 
3 220 227 221 
3 220 227 229 
3 220 222 374 
3 220 223 229 
3 220 222 223 
3 224 225 226 
3 224 227 226 
3 224 225 228 
3 224 227 229 
3 224 230 229 
3 224 230 228 
3 488 399 393 
3 231 408 402 
3 231 398 408 
3 231 367 402 
3 231 367 398 
3 400 407 408 
3 400 398 408 
3 409 410 509 
3 409 408 402 
3 406 392 489 
3 406 407 489 
3 506 410 509 
3 500 232 412 
3 500 233 501 
3 500 232 233 
3 503 546 484 
3 234 235 360 
3 234 358 360 
3 234 358 414 
3 234 414 412 
3 234 412 236 
3 234 235 236 
3 512 472 477 
3 237 417 241 
3 237 238 241 
3 237 249 417 
3 237 238 239 
3 237 249 239 
3 418 247 246 
3 418 242 246 
3 418 242 417 
3 418 416 247 
3 240 241 244 
3 240 242 244 
3 240 242 241 
3 517 242 246 
3 517 419 246 
3 517 243 244 
3 517 242 244 
3 517 578 243 
3 245 416 420 
3 245 419 246 
3 245 419 420 
3 245 247 246 
3 245 416 247 
3 248 249 417 
3 248 416 417 
3 248 249 250 
3 248 416 250 
3 253 514 252 
3 253 416 382 
3 253 416 420 
3 253 368 382 
3 253 368 252 
3 292 291 251 
3 292 251 252 
3 292 514 252 
3 292 514 516 
3 513 253 420 
3 513 253 514 
3 439 578 254 
3 439 578 576 
3 439 254 255 
3 439 438 255 
3 259 256 260 
3 259 257 256 
3 619 257 258 
3 619 259 257 
3 619 620 260 
3 619 259 260 
3 619 261 421 
3 619 261 258 
3 262 263 264 
3 262 265 263 
3 262 266 264 
3 262 265 266 
3 267 268 616 
3 267 269 268 
3 267 270 616 
3 267 270 271 
3 267 272 271 
3 267 269 272 
3 518 425 424 
3 273 309 277 
3 273 309 274 
3 273 278 277 
3 273 278 275 
3 273 319 275 
3 273 274 319 
3 276 309 277 
3 276 278 277 
3 276 308 309 
3 276 279 278 
3 276 279 280 
3 276 442 280 
3 276 308 442 
3 281 282 427 
3 281 283 427 
3 281 283 284 
3 281 323 284 
3 281 323 282 
3 426 283 427 
3 426 428 284 
3 426 283 284 
3 285 286 287 
3 285 288 286 
3 285 289 287 
3 285 288 290 
3 285 290 433 
3 285 289 433 
3 436 293 291 
3 436 292 516 
3 436 292 291 
3 436 576 516 
3 437 293 432 
3 437 436 293 
3 302 294 301 
3 302 298 295 
3 302 296 294 
3 302 295 296 
3 297 298 299 
3 297 300 301 
3 297 302 301 
3 297 302 298 
3 297 303 300 
3 297 299 303 
3 531 304 450 
3 531 304 305 
3 531 532 305 
3 443 315 530 
3 443 315 314 
3 443 442 314 
3 306 444 446 
3 306 446 530 
3 306 443 444 
3 306 443 530 
3 441 444 307 
3 441 308 442 
3 441 309 307 
3 441 308 309 
3 422 583 615 
3 422 423 615 
3 527 583 615 
3 527 610 615 
3 527 582 583 
3 449 311 529 
3 449 311 450 
3 310 311 312 
3 310 313 314 
3 310 315 314 
3 310 311 315 
3 310 312 316 
3 310 313 316 
3 317 318 319 
3 317 319 320 
3 317 318 321 
3 317 320 321 
3 322 323 324 
3 322 325 323 
3 322 326 324 
3 322 325 326 
3 504 503 562 
3 454 327 328 
3 454 452 327 
3 454 466 328 
3 454 466 456 
3 467 465 459 
3 329 330 331 
3 329 332 333 
3 329 334 333 
3 329 330 334 
3 329 332 335 
3 329 331 335 
3 336 337 338 
3 336 339 340 
3 336 338 339 
3 336 453 340 
3 336 453 341 
3 336 337 341 
3 592 556 591 
3 592 556 535 
3 350 342 343 
3 350 344 351 
3 350 344 343 
3 350 348 342 
3 345 346 347 
3 345 348 346 
3 345 349 347 
3 345 350 348 
3 345 349 351 
3 345 350 351 
3 474 475 352 
3 474 357 352 
3 476 475 353 
3 476 353 354 
3 476 355 354 
3 476 355 477 
3 413 357 358 
3 413 358 414 
3 413 474 511 
3 413 474 357 
3 356 357 358 
3 356 359 360 
3 356 358 360 
3 356 359 361 
3 356 362 361 
3 356 357 362 
3 375 363 404 
3 375 376 363 
3 375 364 404 
3 375 364 379 
3 365 403 366 
3 365 367 403 
3 365 384 366 
3 365 367 368 
3 365 384 368 
3 369 378 381 
3 369 370 378 
3 369 381 371 
3 369 370 371 
3 372 373 374 
3 372 375 379 
3 372 378 379 
3 372 373 378 
3 372 376 374 
3 372 375 376 
3 377 378 381 
3 377 383 381 
3 377 378 379 
3 377 383 379 
3 380 381 382 
3 380 383 381 
3 380 384 382 
3 380 383 384 
3 385 386 620 
3 385 387 620 
3 385 387 388 
3 385 389 388 
3 385 389 386 
3 540 479 390 
3 481 390 482 
3 481 540 390 
3 481 540 541 
3 481 544 484 
3 481 544 541 
3 595 544 541 
3 483 391 392 
3 483 406 392 
3 483 406 507 
3 483 391 482 
3 483 507 508 
3 565 496 393 
3 565 488 393 
3 494 490 430 
3 566 569 496 
3 394 395 570 
3 394 569 570 
3 394 494 569 
3 394 494 430 
3 394 396 430 
3 394 395 396 
3 397 398 399 
3 397 400 398 
3 397 488 399 
3 397 400 407 
3 397 407 489 
3 397 488 489 
3 401 409 402 
3 401 403 404 
3 401 403 402 
3 401 411 404 
3 401 410 411 
3 401 409 410 
3 405 406 407 
3 405 407 408 
3 405 409 408 
3 405 409 509 
3 405 507 509 
3 405 406 507 
3 498 506 410 
3 498 411 501 
3 498 410 411 
3 498 506 573 
3 502 606 508 
3 502 503 484 
3 607 506 573 
3 603 472 604 
3 603 512 472 
3 499 500 412 
3 499 414 412 
3 510 413 511 
3 510 413 414 
3 510 499 414 
3 510 499 572 
3 415 416 417 
3 415 418 417 
3 415 418 416 
3 577 517 578 
3 515 517 419 
3 515 419 420 
3 515 513 420 
3 618 421 621 
3 618 619 421 
3 581 422 583 
3 581 422 423 
3 581 423 424 
3 581 518 424 
3 521 425 522 
3 521 518 425 
3 521 519 525 
3 521 518 519 
3 491 426 427 
3 491 426 428 
3 491 429 430 
3 491 429 427 
3 491 490 430 
3 491 428 493 
3 431 432 433 
3 431 437 432 
3 431 438 434 
3 431 434 433 
3 431 437 438 
3 435 436 576 
3 435 437 436 
3 435 437 438 
3 435 439 576 
3 435 439 438 
3 440 441 442 
3 440 443 442 
3 440 441 444 
3 440 443 444 
3 586 528 445 
3 586 446 445 
3 586 446 447 
3 586 447 448 
3 586 610 448 
3 613 527 582 
3 613 449 529 
3 613 449 582 
3 584 449 582 
3 584 531 450 
3 584 449 450 
3 451 452 453 
3 451 454 452 
3 451 455 453 
3 451 454 456 
3 451 457 456 
3 451 455 457 
3 458 467 459 
3 458 486 485 
3 458 486 459 
3 458 460 485 
3 458 460 461 
3 458 467 461 
3 469 467 461 
3 469 461 462 
3 469 470 463 
3 469 462 463 
3 464 465 466 
3 464 467 465 
3 464 468 466 
3 464 469 467 
3 464 468 470 
3 464 469 470 
3 537 538 471 
3 537 534 471 
3 589 538 472 
3 589 504 590 
3 589 472 604 
3 589 504 604 
3 473 474 475 
3 473 476 477 
3 473 476 475 
3 473 512 477 
3 473 512 511 
3 473 474 511 
3 598 478 479 
3 598 540 479 
3 598 478 599 
3 543 544 484 
3 543 546 484 
3 543 549 546 
3 480 481 482 
3 480 483 482 
3 480 483 508 
3 480 502 508 
3 480 481 484 
3 480 502 484 
3 545 561 562 
3 545 503 562 
3 545 503 546 
3 550 596 597 
3 550 597 485 
3 550 486 485 
3 552 555 486 
3 552 550 486 
3 558 559 556 
3 558 590 591 
3 558 556 591 
3 560 504 590 
3 560 558 590 
3 560 504 562 
3 487 488 489 
3 487 565 488 
3 487 567 489 
3 487 565 567 
3 495 494 490 
3 495 491 493 
3 495 491 490 
3 492 569 493 
3 492 494 569 
3 492 495 493 
3 492 495 494 
3 564 565 496 
3 564 566 496 
3 497 498 573 
3 497 499 500 
3 497 500 501 
3 497 498 501 
3 497 572 573 
3 497 499 572 
3 605 502 503 
3 605 502 606 
3 605 504 604 
3 605 504 503 
3 505 607 506 
3 505 507 508 
3 505 606 508 
3 505 607 606 
3 505 507 509 
3 505 506 509 
3 571 510 511 
3 571 512 511 
3 571 603 512 
3 571 510 572 
3 575 513 514 
3 575 515 513 
3 575 514 516 
3 575 576 516 
3 575 577 517 
3 575 515 517 
3 580 518 519 
3 580 581 518 
3 580 519 533 
3 520 521 522 
3 520 523 524 
3 520 522 523 
3 520 521 525 
3 520 526 524 
3 520 526 525 
3 609 527 610 
3 609 613 527 
3 612 586 528 
3 612 613 529 
3 612 530 529 
3 612 530 528 
3 585 584 531 
3 585 532 533 
3 585 531 532 
3 585 580 533 
3 539 537 534 
3 539 535 536 
3 539 534 536 
3 539 592 535 
3 588 537 538 
3 588 589 538 
3 588 539 592 
3 588 539 537 
3 594 540 541 
3 594 598 540 
3 594 595 541 
3 542 549 596 
3 542 543 549 
3 542 595 596 
3 542 595 544 
3 542 543 544 
3 548 545 561 
3 548 549 546 
3 548 545 546 
3 547 559 561 
3 547 552 559 
3 547 548 561 
3 547 548 549 
3 547 549 596 
3 547 550 596 
3 547 552 550 
3 551 552 559 
3 551 553 554 
3 551 555 554 
3 551 552 555 
3 551 556 553 
3 551 559 556 
3 557 558 559 
3 557 560 558 
3 557 559 561 
3 557 561 562 
3 557 560 562 
3 563 564 565 
3 563 564 566 
3 563 565 567 
3 563 567 568 
3 563 566 569 
3 563 570 568 
3 563 569 570 
3 602 571 572 
3 602 571 603 
3 602 572 573 
3 602 607 573 
3 574 575 576 
3 574 575 577 
3 574 578 576 
3 574 577 578 
3 579 580 581 
3 579 582 583 
3 579 581 583 
3 579 584 582 
3 579 585 584 
3 579 585 580 
3 611 586 610 
3 611 612 586 
3 587 588 589 
3 587 590 591 
3 587 589 590 
3 587 592 591 
3 587 588 592 
3 593 594 595 
3 593 596 597 
3 593 595 596 
3 593 594 598 
3 593 598 599 
3 593 600 599 
3 593 597 600 
3 601 602 603 
3 601 603 604 
3 601 605 604 
3 601 605 606 
3 601 607 606 
3 601 602 607 
3 608 609 610 
3 608 611 610 
3 608 611 612 
3 608 609 613 
3 608 612 613 
3 614 615 616 
3 614 615 617 
3 618 619 620 
3 618 620 621 
