ply
format ascii 1.0
comment VCGLIB generated
element vertex 598
property float x
property float y
property float z
element face 1192
property list uchar int vertex_indices
end_header
0 -0.06 0.0169999 
0.059924 -0.00255781 0.0489834 
0.0584956 0.0133512 0.0169999 
-0.0118219 0.0902488 0.178231 
-0.04351 0.0746212 0.174182 
-0.05994 0.0312948 0.194625 
-0.05994 0.0281752 0.197616 
-0.00589955 -0.0597093 0.0369999 
0 -0.06 0.0369999 
-0.0540581 -0.026033 0.0369999 
-0.0540581 -0.026033 0.0169999 
-0.0469097 -0.0374094 0.0169999 
-0.05994 -0.00226229 0.0490057 
-0.0584956 -0.0133512 0.0369999 
-0.0584956 -0.0133512 0.0169999 
-0.0566289 -0.0194059 0.0477284 
0.0540581 0.026033 0.0169999 
0.026033 0.0540581 0.0169999 
0.0437764 0.074343 0.173971 
0.0478921 0.0676711 0.16249 
0.0469097 0.0374094 0.0169999 
0.0437764 0.075606 0.182158 
0.0374094 0.0469097 0.0169999 
-0.00299037 0.0912506 0.17893 
0.059924 0.0280592 0.197217 
0.059924 0.0311513 0.194211 
0.059924 0.034021 0.190438 
0.059924 0.0382084 0.180824 
0.059924 0.0364451 0.185932 
0.0540581 0.00749993 0.234533 
0.0584956 0.0124999 0.221851 
0.0584956 0.00749993 0.221851 
-0.0118219 0.0917399 0.187368 
-0.0593966 0.0319103 0.210177 
-0.0582863 0.018886 0.221508 
0 0.0124999 0.2685 
-0.00299037 0.0310069 0.268389 
-0.000732009 0.00750011 0.268496 
-0.00573844 -0.0577831 0.053421 
-0.00573844 -0.0592967 0.0447561 
0.00539726 -0.0578128 0.053415 
0.0110918 -0.0570195 0.0535381 
0.0168597 -0.0556329 0.0537538 
0.0226045 -0.0536266 0.0540663 
0.0552998 -0.00949983 0.23178 
-0.0513421 -0.0306267 0.0468925 
-0.0469097 -0.0374094 0.0369999 
0.059445 0.0317916 0.209769 
0.0583706 0.0337108 0.216223 
0.0583706 0.0160378 0.221935 
0 0.06 0.0169999 
0.0116147 0.0902269 0.178217 
0.0133512 0.0584956 0.0169999 
0.0231223 0.0883094 0.184728 
0.0231223 0.0867527 0.175795 
0.0173844 0.090317 0.186274 
0.0173844 0.088798 0.17722 
0.0341094 0.0824588 0.180222 
0.0287316 0.0856854 0.182707 
0.0341094 0.0807922 0.171639 
0.0391553 0.0786595 0.177296 
0.0287316 0.0840794 0.173931 
0.059445 0.0482557 0.181002 
0.059924 0.0391614 0.175316 
0.059445 0.04435 0.155567 
0.00235791 -0.00949984 0.268454 
0 0.00749993 0.2685 
0.00354606 0.0310224 0.268499 
0.0116147 0.092556 0.196576 
0.0116147 0.0917194 0.187354 
0.0437764 0.0631059 0.235495 
0.0514408 0.0659616 0.173953 
0.0478921 0.0720589 0.194099 
0.0478921 0.0709591 0.178205 
0.0543796 0.0607057 0.169482 
0.0543796 0.0624759 0.184178 
0.0514408 0.0673882 0.189264 
0.0514408 0.0666093 0.204139 
0.0514408 0.0673227 0.196873 
0.0514408 0.0646555 0.211269 
0.0478921 0.0708535 0.209489 
0.0478921 0.0717946 0.201981 
0.0478921 0.0543035 0.235075 
0.0437764 0.0568358 0.240648 
0.0437764 0.0499252 0.244412 
-0.0476582 0.067984 0.162703 
-0.0593966 0.0360574 0.207359 
0.00354606 0.0928246 0.188204 
0.00151074 0.0913423 0.178994 
0.00354606 0.0913531 0.179001 
0.00354606 0.0936344 0.197492 
-0.00299037 0.0927237 0.188127 
0.00151074 0.0936241 0.197484 
0.00151074 0.092814 0.188196 
-0.0283973 0.0842636 0.174056 
-0.0337918 0.0810139 0.17179 
-0.0388605 0.0789077 0.177484 
-0.0337918 0.0826735 0.180384 
-0.0170915 0.0912856 0.195493 
-0.0476582 0.0720669 0.202298 
-0.04351 0.0750386 0.214752 
-0.0476582 0.0711136 0.209803 
-0.0388605 0.0785888 0.219228 
-0.0476582 0.0688627 0.217182 
-0.0593966 0.0159248 0.216524 
-0.0582863 0.0291073 0.218411 
-0.0170915 0.0653815 0.259459 
-0.0170915 0.0569538 0.26322 
-0.0118219 0.048752 0.266808 
-0.0283973 0.0629631 0.254138 
-0.0227771 0.0643374 0.257162 
0.0110918 -0.0585313 0.044813 
0.0168597 -0.057145 0.0449163 
0.0110679 -0.0587529 0.0369999 
0.00539726 -0.0593247 0.0447538 
0.0226045 -0.0551396 0.0450658 
0.0334507 -0.0493972 0.0369999 
0.0282297 -0.052501 0.0452622 
0.0336328 -0.049242 0.045505 
0.059445 0.0230961 0.213485 
0.059445 0.0276173 0.211744 
0.059445 0.0184963 0.215247 
0.0583706 0.0239738 0.219578 
0.059445 0.015902 0.216138 
0.0583706 0.0290213 0.218029 
0.0583706 0.0188589 0.221145 
-0.0133512 0.0584956 0.0169999 
0.0565057 -0.0197149 0.0477051 
0.0584956 -0.0133512 0.0169999 
0.00354606 0.0937765 0.206795 
0.059924 0.038487 0.163932 
0.059924 0.0372714 0.158082 
0.059924 0.0392427 0.16964 
0.0583706 0.0522905 0.173632 
0.059445 0.047984 0.174781 
0.0583706 0.0528674 0.18036 
0.059445 0.0471902 0.168352 
0.0583706 0.0498074 0.16021 
0.0566896 0.0552893 0.164874 
0.0566896 0.0574137 0.178937 
0.0133512 0.00749993 0.266996 
0.0116147 0.0400182 0.267259 
0.0116147 0.0308489 0.267296 
0.0133512 0.0124999 0.266996 
0.0116147 0.0487446 0.266782 
0.0173844 0.0569113 0.263097 
0.0116147 0.0660728 0.260978 
0.0116147 0.0575247 0.264739 
-0.0118219 0.0739176 0.255592 
-0.0170915 0.0730957 0.254064 
-0.00734627 0.0810645 0.249566 
-0.00299037 0.0931632 0.215948 
0.00151074 0.0937667 0.206785 
0.0231223 0.0560334 0.260749 
0.0287316 0.0628649 0.253917 
0.0173844 0.0653271 0.259337 
0.0116147 0.0739017 0.255564 
0.0231223 0.0642598 0.256987 
-0.00299037 0.091999 0.225065 
0.00151074 0.0932449 0.216033 
0.00354606 0.0932542 0.216043 
0.0173844 0.0911878 0.195412 
0.0287316 0.0548859 0.257679 
0.0543796 0.0163093 0.233511 
0.0540581 0.0124999 0.234533 
0.0514408 0.0199323 0.2386 
0.0543796 0.0195831 0.232921 
0.0566896 0.0192231 0.227068 
0.0566896 0.0161743 0.227758 
0.0583706 0.0383574 0.213479 
0.059445 0.0398042 0.203165 
0.059445 0.0359102 0.206936 
0.0566896 0.045765 0.216283 
0.0543796 0.0536172 0.217856 
0.0583706 0.0427777 0.209709 
0.059445 0.0432028 0.198495 
0.0478921 0.0411494 0.241238 
0.0514408 0.033177 0.236633 
0.0478921 0.0478416 0.23884 
0.0543796 0.0487162 0.222778 
0.0514408 0.0515803 0.229081 
0.0566896 0.0408156 0.220052 
0.0437764 0.0747999 0.214463 
0.0391553 0.0798163 0.185739 
0.0437764 0.0762914 0.190386 
0.0478921 0.0650024 0.223807 
0.0478921 0.0686095 0.216844 
0.0514408 0.0614046 0.218036 
0.0478921 0.0601466 0.229994 
0.0437764 0.0683478 0.229173 
0.0437764 0.0722863 0.222029 
0.0514408 0.0569642 0.224078 
-0.0512428 0.0676961 0.189579 
-0.0512428 0.0662815 0.174217 
-0.0593966 0.047517 0.168685 
-0.05994 0.037591 0.158408 
-0.0593966 0.0446886 0.155845 
-0.05994 0.0387868 0.164282 
-0.0582863 0.0501497 0.160492 
-0.0582863 0.0429682 0.210138 
-0.0593966 0.0399925 0.203589 
-0.0118219 0.0927523 0.205831 
-0.0170915 0.0915001 0.204655 
-0.0118219 0.0925772 0.196592 
-0.00299037 0.0936819 0.206705 
-0.0170915 0.091061 0.213771 
-0.00299037 0.0935363 0.197409 
-0.0170915 0.0904154 0.186348 
-0.0227771 0.0868981 0.175894 
-0.0170915 0.0888997 0.17729 
-0.0283973 0.0868466 0.191715 
-0.0227771 0.0893691 0.193862 
-0.0337918 0.0837352 0.189068 
-0.0283973 0.0858638 0.182842 
-0.0227771 0.0884503 0.184834 
-0.0593966 0.0231523 0.213851 
-0.0593966 0.0277023 0.212121 
-0.0593966 0.0185232 0.215607 
-0.0540581 0.0124999 0.234533 
-0.04351 0.0685606 0.2295 
-0.0388605 0.0715691 0.234327 
-0.0476582 0.0652343 0.224163 
-0.04351 0.0725186 0.222338 
-0.0388605 0.0758251 0.227003 
-0.0388605 0.0592667 0.246005 
-0.0388605 0.0659519 0.240782 
-0.0337918 0.0612679 0.250408 
-0.0337918 0.0682899 0.245129 
-0.0476582 0.0202881 0.24432 
-0.0565675 0.0409637 0.220477 
-0.0565675 0.0357582 0.223116 
-0.0542191 0.0433893 0.226961 
-0.0582863 0.0385063 0.213906 
-0.0582863 0.033831 0.216635 
-0.0118219 0.0618671 0.263102 
-0.0118219 0.0575333 0.264767 
-0.00734627 0.0401993 0.26807 
-0.0133512 0.0124999 0.266996 
-0.0170915 0.0306451 0.265875 
-0.0133512 0.00749993 0.266996 
-0.0118219 0.0400231 0.267281 
-0.0118219 0.0308527 0.267317 
-0.0227771 0.0560942 0.260923 
-0.0285646 -0.0523409 0.0452744 
-0.0339509 -0.0490487 0.0455196 
-0.0540581 0.00749993 0.234533 
-0.059593 0.00749985 0.215478 
-0.0594048 -0.00950005 0.200071 
-0.0584956 0.00749993 0.221851 
-0.0390082 -0.0451669 0.045809 
-0.0436435 -0.0407525 0.0461379 
-0.0584956 0.0124999 0.221851 
-0.0477753 -0.0358755 0.0465012 
0.0511431 -0.0309181 0.0468704 
0.0540581 -0.026033 0.0369999 
0.0540581 -0.026033 0.0169999 
0.0433761 -0.0410039 0.0461189 
0.0374094 -0.0469097 0.0369999 
0.0374094 -0.0469097 0.0169999 
0.0469097 -0.0374094 0.0169999 
0.0469097 -0.0374094 0.0369999 
0.0387127 -0.0453911 0.045792 
0.0475404 -0.0361496 0.0464805 
0.059994 -0.00949989 0.207687 
-0.026033 0.0540581 0.0169999 
0.00354606 0.0745891 0.256841 
-0.00299037 0.0706889 0.259638 
-0.00299037 0.0745274 0.256726 
-0.00734627 0.0743529 0.256402 
0.00151074 0.0745828 0.25683 
-0.0118219 0.0701219 0.258494 
-0.0118219 0.0660851 0.261007 
0.00151074 0.0707405 0.259742 
-0.00299037 0.0666075 0.262156 
0.00151074 0.0781258 0.25356 
-0.00299037 0.0780668 0.253458 
0.0391553 0.0713792 0.234035 
0.0287316 0.0810413 0.234373 
0.0341094 0.0681474 0.244867 
0.0341094 0.0740475 0.238315 
0.0287316 0.0763139 0.24195 
0.0287316 0.070152 0.248594 
0.0391553 0.0657872 0.24048 
0.0341094 0.0611495 0.250142 
0.0391553 0.0591301 0.245697 
0.0231223 0.0781572 0.244906 
0.0173844 0.0730299 0.253943 
0.0231223 0.0717824 0.251624 
0.00151074 0.0920774 0.225154 
0.00354606 0.0920865 0.225164 
0.0341094 0.0835223 0.188892 
0.0287316 0.0866698 0.191569 
0.0231223 0.0892294 0.193747 
0.0287316 0.0466745 0.259819 
0.0469097 0.0124999 0.245909 
0.0469097 0.00749993 0.245909 
0.0475478 0.00750012 0.245095 
0.0374094 0.0124999 0.25541 
0.0374094 0.00749993 0.25541 
0.0341094 0.0210997 0.257575 
0.028914 0.00750015 0.261074 
0.0478921 0.0202646 0.244 
0.0478921 0.0165651 0.244403 
0.0478921 0.0344627 0.242389 
0.0514408 0.0164403 0.239095 
0.0543796 0.057621 0.211966 
0.0566896 0.0501685 0.211444 
0.0583706 0.0466777 0.204955 
0.059445 0.0458477 0.193079 
0.059445 0.0475575 0.187157 
0.0543796 0.0375436 0.229112 
0.0514408 0.0393921 0.235328 
0.0514408 0.045601 0.232848 
0.0543796 0.0432442 0.226546 
0.0543796 0.0318248 0.23058 
0.0566896 0.0356387 0.222706 
0.0566896 0.0304314 0.224342 
0.0391553 0.0803373 0.20267 
0.0437764 0.0759529 0.206732 
0.0437764 0.0764021 0.198596 
0.0391553 0.0803747 0.194219 
0.0341094 0.0839688 0.197592 
-0.0565675 0.0577421 0.179272 
-0.0542191 0.062797 0.184506 
-0.0565675 0.0556299 0.165154 
-0.0582863 0.0526207 0.17397 
-0.0542191 0.0610389 0.169756 
-0.0512428 0.0649251 0.211628 
-0.0118219 0.0922676 0.21502 
-0.0388605 0.0805742 0.202912 
-0.0337918 0.0841793 0.197781 
-0.0388605 0.0799436 0.211296 
-0.04351 0.0762028 0.207023 
-0.04351 0.0765642 0.190632 
-0.0388605 0.0800624 0.185942 
-0.04351 0.0758817 0.182385 
-0.0388605 0.0806181 0.194438 
-0.04351 0.0766675 0.198867 
-0.0476582 0.0723482 0.194395 
-0.0476582 0.0712596 0.178452 
-0.0227771 0.0882708 0.220807 
-0.0337918 0.0817075 0.223161 
-0.0170915 0.0899855 0.222766 
-0.0582863 0.0160605 0.222324 
-0.0476582 0.0544704 0.23545 
-0.0476582 0.0479726 0.239214 
-0.04351 0.0569889 0.240992 
-0.0476582 0.0603476 0.230363 
-0.0512428 0.0517581 0.229481 
-0.0512428 0.0457402 0.233246 
-0.04351 0.0632904 0.235834 
-0.0469097 0.00749993 0.245909 
-0.051812 0.00749998 0.238758 
-0.0469097 0.0124999 0.245909 
-0.04351 0.0428805 0.247066 
-0.04351 0.0500455 0.244755 
-0.0388605 0.0519204 0.249767 
-0.0227771 0.0476238 0.263015 
-0.0170915 0.0396908 0.265793 
-0.0170915 0.0482978 0.265281 
-0.0512428 0.0199575 0.23894 
-0.0476582 0.0412549 0.2416 
-0.0476582 0.0345381 0.242725 
0.00151074 0.0491201 0.268046 
0.00151074 0.0402927 0.268488 
-0.00299037 0.0402701 0.268386 
0.00354606 0.0402955 0.2685 
0.00354606 0.0491239 0.268057 
-0.00299037 0.0535307 0.267141 
-0.00299037 0.0490894 0.267942 
0.00151074 0.0535661 0.267245 
-0.00734627 0.0489927 0.267617 
-0.0118219 0.0531464 0.265998 
-0.0114403 -0.0569577 0.0535507 
-0.0114403 -0.0584725 0.0448174 
-0.0374094 0.0469097 0.0169999 
0.00151074 0.0623873 0.264358 
0.00151074 0.0666552 0.262261 
0.00354606 0.0666606 0.262273 
-0.00299037 0.0623436 0.264253 
0.00354606 0.0580078 0.266033 
0.00151074 0.0580031 0.266021 
-0.00299037 0.0579636 0.265916 
0.0173844 0.0880339 0.231143 
0.0231223 0.0830671 0.237229 
0.0231223 0.0863705 0.229047 
0.0116147 0.0911212 0.224061 
-0.00299037 0.0900294 0.233656 
0.00151074 0.0901037 0.23375 
0.0391553 0.0797206 0.211036 
0.0173844 0.0909666 0.213675 
0.0173844 0.0898968 0.222662 
0.0116147 0.0922457 0.214999 
0.0173844 0.0914032 0.204569 
0.0231223 0.0881442 0.22066 
0.0116147 0.0927303 0.205814 
0.0287316 0.0867432 0.209302 
0.0287316 0.0870212 0.200457 
0.0341094 0.0838013 0.206257 
0.0231223 0.0891358 0.211779 
0.0231223 0.0895037 0.202786 
0.0341094 0.0376945 0.256857 
0.0391553 0.0208533 0.253571 
0.0437764 0.0205733 0.249021 
0.0437764 0.0166811 0.24934 
0.0173844 0.0482635 0.265163 
0.0231223 0.0475747 0.262847 
0.0287316 0.0385042 0.260481 
0.0287316 0.0213089 0.260976 
0.0231223 0.0214792 0.263741 
0.026033 0.0124999 0.262558 
0.026033 0.00749993 0.262558 
0.0173844 0.0306288 0.265769 
0.0173844 0.0396663 0.265684 
0.0231223 0.0391624 0.263429 
0.026169 -0.00949981 0.262492 
0.0566896 0.0537221 0.205711 
0.0543796 0.060497 0.205405 
0.0583706 0.0497759 0.199381 
-0.05994 0.0342049 0.190853 
-0.05994 0.0366678 0.18634 
-0.0593966 0.0434303 0.198912 
-0.0565675 0.0539858 0.206116 
-0.0582863 0.0500414 0.199788 
-0.0582863 0.0469077 0.205377 
-0.0565675 0.0580814 0.186323 
-0.0542191 0.0538405 0.218266 
-0.0512428 0.0571783 0.224471 
-0.0512428 0.0616516 0.218415 
-0.0542191 0.0578787 0.212361 
-0.0542191 0.0489014 0.223195 
-0.0565675 0.0503968 0.211863 
-0.0565675 0.0459542 0.216709 
-0.0283973 0.0869135 0.209477 
-0.0283973 0.0860139 0.218229 
-0.0227771 0.0892704 0.211917 
-0.0227771 0.089642 0.20291 
-0.0283973 0.0871962 0.200614 
-0.0337918 0.0840062 0.206466 
-0.0337918 0.0832298 0.215049 
-0.0118219 0.0805726 0.248776 
-0.0283973 0.0811904 0.234572 
-0.0283973 0.0843496 0.226492 
-0.0227771 0.0864915 0.229193 
-0.0337918 0.0787298 0.2311 
-0.0337918 0.0742118 0.238568 
-0.0227771 0.0782652 0.245072 
-0.0170915 0.0796438 0.247285 
-0.0227771 0.083185 0.237386 
-0.0283973 0.0764505 0.24216 
-0.0227771 0.071876 0.251796 
-0.0283973 0.0702705 0.248811 
-0.0118219 0.0892153 0.232628 
-0.0170915 0.0881187 0.231245 
-0.0118219 0.091141 0.224085 
-0.00734627 0.0897963 0.233362 
-0.00734627 0.0917534 0.224784 
-0.0118219 0.0857211 0.240965 
-0.0170915 0.0847002 0.239524 
-0.0542191 0.0319088 0.230953 
-0.0565675 0.01925 0.22743 
-0.0565675 0.0161964 0.228145 
-0.0542191 0.0376604 0.229513 
-0.0565675 0.0305172 0.224723 
-0.0512428 0.0395042 0.235713 
-0.0542191 0.0196093 0.233275 
-0.0512428 0.0332575 0.236991 
-0.0374094 0.00749993 0.25541 
-0.026033 0.0124999 0.262558 
-0.026033 0.00749993 0.262558 
-0.0227771 0.0391977 0.263585 
-0.0227771 0.030337 0.263735 
-0.0218479 -0.00949988 0.264381 
-0.0337918 0.0294312 0.257444 
-0.035359 0.00750006 0.256974 
-0.0374094 0.0124999 0.25541 
-0.0283973 0.0385485 0.260679 
-0.0283973 0.0299314 0.260918 
-0.0388605 0.0288406 0.253343 
-0.04351 0.0357275 0.248049 
-0.04351 0.020595 0.249314 
-0.0337918 0.0456424 0.256353 
-0.0337918 0.037748 0.257095 
-0.0283973 0.0467366 0.260032 
-0.0337918 0.0535674 0.25417 
-0.0388605 0.0443508 0.25201 
-0.0388605 0.036803 0.252865 
-0.0283973 0.0549629 0.257899 
-0.0229498 -0.0534948 0.0540928 
-0.0229498 -0.0550135 0.0450752 
-0.0172095 -0.0555366 0.0537733 
-0.057809 -0.00949998 0.224565 
-0.046538 -0.00949991 0.246371 
-0.0171056 -0.0571819 0.0369999 
-0.0133512 -0.0584956 0.0369999 
-0.0133512 -0.0584956 0.0169999 
-0.0228562 -0.0551697 0.0369999 
-0.0172095 -0.0570533 0.0449233 
-0.0469097 0.0374094 0.0169999 
0.00354606 0.081331 0.249995 
0.00151074 0.081324 0.249983 
-0.00299037 0.0812615 0.249882 
0.0116147 0.0857006 0.24094 
0.0116147 0.0805535 0.248749 
0.0173844 0.0795678 0.247168 
0.0173844 0.0846172 0.239414 
0.0116147 0.0891961 0.232607 
0.00354606 0.0901123 0.233761 
-0.00734627 0.0862619 0.241728 
-0.00299037 0.0884628 0.237885 
0.0341094 0.0815233 0.222938 
0.0341094 0.083037 0.214825 
0.0391553 0.0783757 0.218971 
0.0341094 0.0785505 0.230861 
0.0287316 0.0841965 0.226307 
0.0287316 0.0858536 0.218043 
0.0391553 0.0756178 0.226727 
0.0391553 0.0442643 0.251714 
0.0391553 0.0367411 0.252589 
0.0341094 0.0455678 0.256097 
0.0391553 0.051813 0.249461 
0.0437764 0.0427836 0.246734 
0.0437764 0.0356581 0.24774 
0.0341094 0.0534748 0.253905 
0.0566896 0.0575458 0.192713 
0.0566896 0.0562118 0.199362 
0.0543796 0.0621456 0.198512 
0.0543796 0.0626194 0.1915 
0.0566896 0.0577726 0.185963 
0.0583706 0.0528904 0.186845 
0.0583706 0.0518748 0.193246 
-0.05994 0.0384657 0.181217 
-0.0593966 0.0461106 0.193482 
-0.0582863 0.0521646 0.19363 
-0.0542191 0.0624341 0.19886 
-0.0565675 0.0578409 0.193069 
-0.0542191 0.0629215 0.191851 
-0.0542191 0.0607783 0.205779 
-0.0512428 0.0668862 0.204473 
-0.0565675 0.0564997 0.199744 
-0.0512428 0.0676125 0.19721 
-0.0540581 0.026033 0.0169999 
0.00151074 0.0865472 0.242132 
0.00354606 0.0865549 0.242144 
0.00151074 0.0885344 0.237981 
-0.00299037 0.0864785 0.242034 
0.00151074 0.0841389 0.246153 
-0.00299037 0.0840732 0.246054 
-0.0593966 0.0485492 0.181355 
-0.0593966 0.0478444 0.187537 
-0.05994 0.0394422 0.175687 
-0.05994 0.0395294 0.169984 
-0.0593966 0.0482908 0.175139 
-0.0582863 0.053187 0.187202 
-0.0582863 0.0531778 0.180721 
-0.0584956 0.0133512 0.0169999 
-0.06 0.00749993 0.2085 
-0.06 0 0.0369999 
-0.06 0 0.0169999 
-0.06 0.0124999 0.2085 
0.06 0.00749993 0.2085 
0.06 0.0124999 0.2085 
0.06 0 0.0169999 
0.06 0 0.0369999 
0.026033 -0.0540581 0.0369999 
0.0133512 -0.0584956 0.0369999 
0.0133512 -0.0584956 0.0169999 
0.026033 -0.0540581 0.0169999 
-0.026033 -0.0540581 0.0369999 
-0.026033 -0.0540581 0.0169999 
-0.0374094 -0.0469097 0.0169999 
-0.0374094 -0.0469097 0.0369999 
-0.0499012 0.00313944 0 
-0.0452412 -0.0212889 0 
-0.0491142 -0.00936901 0 
-0.00626665 -0.0496056 0 
-0.0184062 -0.0464888 0 
0.0240875 0.0438153 0 
0.0342273 0.0364483 0 
-0.0293893 -0.0404508 0 
-0.0385256 -0.0318711 0 
0.0499012 0.00313944 0 
0.0475528 0.0154507 0 
0.0452412 -0.0212889 0 
0.0385256 -0.0318711 0 
0.00626665 -0.0496056 0 
0.0184062 -0.0464888 0 
0.0491142 -0.00936901 0 
0.0422164 0.0267913 0 
0 -0.0499999 0 
0.0293893 -0.0404508 0 
0.0124345 0.0484291 0 
0 0.0499999 0 
-0.0124345 0.0484291 0 
-0.0240875 0.0438153 0 
-0.0342273 0.0364483 0 
-0.0422164 0.0267913 0 
-0.0475528 0.0154507 0 
3 579 569 570 
3 65 140 415 
3 375 498 4 
3 14 573 574 
3 14 10 573 
3 14 574 558 
3 580 579 570 
3 576 569 495 
3 576 579 569 
3 581 587 562 
3 578 22 20 
3 128 587 562 
3 128 1 562 
3 183 60 21 
3 19 71 20 
3 96 375 4 
3 103 428 221 
3 85 498 4 
3 85 339 4 
3 6 559 86 
3 6 200 86 
3 12 14 558 
3 12 14 247 
3 445 227 449 
3 169 48 181 
3 7 0 8 
3 7 0 495 
3 585 566 586 
3 585 0 589 
3 585 566 0 
3 113 0 8 
3 113 566 0 
3 113 114 8 
3 11 580 570 
3 11 580 573 
3 11 10 573 
3 246 104 559 
3 246 248 251 
3 246 104 251 
3 15 9 247 
3 15 9 10 
3 15 14 10 
3 575 576 495 
3 575 0 589 
3 575 0 495 
3 2 16 582 
3 2 581 582 
3 2 581 562 
3 2 16 137 
3 74 71 20 
3 74 16 20 
3 588 578 20 
3 588 16 20 
3 588 16 582 
3 577 17 22 
3 577 578 22 
3 583 128 587 
3 263 128 1 
3 263 1 562 
3 263 563 562 
3 55 292 161 
3 184 183 21 
3 184 72 319 
3 73 19 71 
3 73 184 21 
3 73 184 72 
3 54 61 17 
3 54 52 56 
3 54 52 17 
3 59 61 17 
3 59 17 22 
3 59 60 22 
3 89 52 50 
3 64 2 137 
3 64 131 562 
3 64 2 562 
3 380 367 370 
3 447 450 149 
3 66 37 35 
3 66 37 65 
3 41 44 415 
3 41 44 42 
3 295 44 415 
3 529 135 528 
3 81 72 319 
3 81 78 72 
3 187 173 191 
3 153 293 162 
3 155 153 145 
3 198 555 541 
3 421 200 419 
3 91 32 23 
3 91 32 203 
3 3 126 209 
3 3 32 23 
3 3 23 50 
3 3 126 50 
3 207 3 209 
3 207 3 32 
3 208 126 209 
3 208 126 264 
3 95 375 264 
3 95 96 375 
3 327 103 428 
3 327 101 538 
3 327 101 103 
3 335 339 4 
3 335 96 4 
3 427 428 221 
3 5 200 419 
3 5 6 200 
3 5 559 419 
3 5 6 559 
3 557 12 558 
3 352 245 492 
3 352 245 218 
3 360 352 218 
3 472 373 492 
3 451 109 450 
3 451 227 449 
3 451 226 227 
3 451 226 109 
3 494 7 495 
3 494 7 374 
3 39 7 374 
3 39 373 374 
3 39 114 8 
3 39 7 8 
3 590 258 584 
3 567 566 586 
3 567 590 586 
3 567 590 258 
3 118 117 44 
3 118 263 261 
3 118 263 44 
3 43 44 42 
3 112 43 42 
3 45 9 247 
3 45 11 46 
3 45 11 10 
3 45 9 10 
3 250 11 570 
3 250 11 46 
3 556 246 247 
3 556 246 559 
3 556 12 247 
3 556 557 12 
3 13 14 247 
3 13 15 247 
3 13 15 14 
3 24 561 171 
3 24 25 561 
3 120 124 48 
3 49 123 30 
3 49 316 167 
3 138 16 137 
3 138 74 16 
3 591 52 17 
3 591 577 17 
3 259 583 584 
3 259 258 584 
3 560 263 563 
3 560 123 561 
3 560 263 123 
3 31 263 44 
3 31 123 30 
3 31 263 123 
3 69 55 161 
3 69 89 87 
3 18 73 19 
3 18 19 20 
3 18 73 21 
3 18 22 20 
3 18 60 21 
3 18 60 22 
3 58 54 61 
3 58 291 290 
3 88 23 50 
3 88 89 50 
3 88 91 23 
3 308 175 28 
3 26 175 28 
3 26 561 28 
3 26 25 561 
3 170 24 171 
3 170 24 25 
3 170 26 25 
3 170 26 175 
3 27 561 28 
3 27 63 561 
3 27 63 309 
3 27 308 28 
3 27 308 309 
3 366 66 35 
3 150 268 275 
3 395 90 129 
3 395 392 129 
3 40 41 415 
3 40 41 114 
3 40 65 415 
3 40 39 114 
3 296 295 44 
3 298 295 415 
3 29 164 304 
3 29 164 44 
3 29 296 304 
3 29 296 44 
3 168 164 44 
3 168 49 30 
3 168 49 167 
3 168 31 30 
3 168 31 44 
3 300 298 415 
3 523 154 162 
3 172 169 181 
3 75 74 71 
3 318 182 80 
3 318 81 80 
3 318 81 319 
3 305 187 173 
3 305 79 417 
3 305 79 187 
3 283 523 154 
3 84 176 521 
3 324 198 541 
3 324 198 325 
3 196 555 558 
3 196 198 555 
3 92 90 87 
3 438 330 437 
3 98 32 203 
3 98 207 32 
3 94 208 264 
3 94 208 213 
3 94 95 264 
3 222 102 223 
3 222 103 221 
3 341 102 223 
3 105 34 104 
3 343 104 251 
3 343 34 104 
3 33 216 233 
3 33 232 86 
3 33 232 233 
3 33 559 86 
3 33 216 559 
3 225 445 227 
3 347 427 348 
3 347 427 221 
3 362 360 228 
3 430 231 348 
3 430 427 348 
3 463 343 34 
3 463 105 34 
3 349 231 348 
3 234 271 273 
3 234 106 271 
3 364 37 35 
3 364 365 37 
3 364 366 35 
3 36 236 37 
3 36 365 37 
3 36 365 236 
3 239 37 65 
3 239 472 65 
3 239 236 37 
3 484 226 109 
3 110 106 242 
3 110 109 450 
3 110 450 149 
3 110 106 149 
3 315 124 48 
3 315 316 124 
3 315 48 181 
3 571 250 570 
3 571 250 249 
3 38 472 373 
3 38 39 373 
3 38 40 39 
3 38 472 65 
3 38 40 65 
3 257 118 261 
3 111 41 114 
3 111 41 42 
3 111 112 42 
3 115 112 43 
3 115 117 44 
3 115 43 44 
3 252 45 247 
3 252 45 46 
3 252 250 46 
3 47 561 171 
3 47 120 561 
3 47 120 48 
3 47 169 171 
3 47 169 48 
3 121 123 561 
3 121 123 124 
3 125 49 123 
3 125 49 316 
3 592 52 50 
3 592 591 52 
3 592 126 50 
3 255 583 128 
3 255 259 583 
3 51 89 52 
3 51 69 89 
3 51 52 56 
3 51 55 56 
3 51 69 55 
3 53 58 54 
3 53 55 56 
3 53 54 56 
3 53 55 292 
3 53 291 292 
3 53 58 291 
3 57 58 290 
3 57 59 60 
3 57 59 61 
3 57 58 61 
3 57 183 290 
3 57 183 60 
3 62 63 309 
3 62 529 309 
3 62 529 135 
3 62 134 135 
3 132 62 63 
3 132 62 134 
3 132 561 562 
3 132 63 561 
3 136 64 131 
3 136 132 134 
3 136 64 137 
3 406 153 145 
3 406 153 293 
3 406 293 407 
3 412 140 415 
3 67 65 140 
3 67 66 65 
3 67 366 66 
3 142 67 140 
3 142 67 366 
3 144 380 367 
3 144 147 380 
3 146 155 156 
3 146 265 156 
3 146 155 145 
3 146 147 145 
3 270 106 149 
3 270 106 271 
3 440 150 508 
3 440 447 149 
3 499 503 156 
3 499 265 156 
3 276 70 189 
3 276 70 282 
3 158 455 456 
3 158 455 387 
3 68 395 90 
3 68 90 87 
3 68 69 87 
3 68 69 161 
3 68 393 161 
3 68 395 393 
3 302 296 304 
3 408 299 407 
3 408 300 299 
3 307 170 175 
3 188 70 189 
3 188 70 82 
3 188 180 191 
3 188 180 82 
3 83 70 82 
3 83 84 284 
3 83 284 282 
3 83 70 282 
3 179 173 191 
3 179 180 191 
3 179 172 173 
3 179 172 181 
3 312 180 82 
3 76 75 71 
3 76 78 72 
3 76 73 71 
3 76 73 72 
3 139 138 74 
3 139 75 74 
3 139 75 528 
3 139 135 528 
3 527 75 528 
3 527 526 78 
3 527 76 78 
3 527 76 75 
3 186 79 80 
3 186 182 80 
3 186 190 182 
3 186 79 187 
3 77 526 78 
3 77 79 80 
3 77 526 417 
3 77 79 417 
3 77 81 80 
3 77 81 78 
3 178 84 176 
3 178 312 82 
3 178 83 82 
3 178 83 84 
3 520 84 284 
3 520 283 284 
3 520 283 523 
3 520 84 521 
3 193 85 339 
3 193 85 498 
3 99 540 338 
3 99 332 101 
3 99 101 538 
3 99 540 538 
3 199 200 86 
3 199 232 86 
3 199 232 432 
3 431 199 432 
3 93 92 87 
3 93 88 91 
3 93 89 87 
3 93 88 89 
3 152 92 204 
3 152 159 129 
3 152 90 129 
3 152 92 90 
3 206 91 203 
3 206 92 204 
3 206 93 91 
3 206 93 92 
3 97 212 213 
3 97 94 213 
3 97 94 95 
3 97 95 96 
3 334 335 96 
3 334 97 96 
3 334 97 212 
3 202 98 203 
3 202 436 98 
3 211 98 207 
3 211 436 98 
3 211 436 437 
3 444 341 223 
3 439 102 331 
3 439 341 102 
3 439 438 331 
3 337 99 338 
3 337 99 332 
3 100 332 101 
3 100 222 102 
3 100 102 331 
3 100 332 331 
3 100 101 103 
3 100 222 103 
3 217 105 104 
3 217 104 559 
3 217 105 233 
3 465 360 218 
3 220 225 445 
3 220 444 223 
3 220 444 445 
3 220 225 350 
3 346 225 350 
3 462 349 231 
3 230 105 233 
3 230 463 105 
3 230 462 231 
3 230 462 463 
3 371 108 372 
3 235 382 372 
3 107 106 242 
3 107 234 106 
3 107 235 234 
3 107 235 372 
3 107 242 357 
3 359 358 108 
3 359 108 372 
3 359 107 357 
3 359 107 372 
3 238 239 472 
3 238 471 472 
3 238 471 358 
3 240 358 108 
3 240 238 358 
3 240 371 236 
3 240 371 108 
3 356 484 485 
3 356 484 226 
3 487 484 109 
3 487 110 109 
3 487 110 242 
3 244 571 249 
3 116 257 118 
3 116 257 258 
3 116 567 258 
3 565 111 112 
3 565 113 114 
3 565 111 114 
3 565 113 566 
3 565 115 112 
3 564 565 115 
3 564 116 567 
3 564 115 117 
3 564 116 118 
3 564 118 117 
3 119 120 561 
3 119 121 561 
3 119 120 124 
3 119 121 124 
3 122 123 124 
3 122 125 123 
3 122 316 124 
3 122 125 316 
3 593 126 264 
3 593 592 126 
3 127 255 254 
3 127 254 263 
3 127 263 128 
3 127 255 128 
3 160 386 289 
3 160 386 392 
3 160 392 129 
3 160 159 129 
3 130 136 131 
3 130 136 132 
3 130 131 562 
3 130 132 562 
3 133 134 135 
3 133 136 134 
3 133 136 137 
3 133 138 137 
3 133 139 135 
3 133 139 138 
3 143 412 140 
3 143 142 140 
3 141 366 367 
3 141 144 367 
3 141 142 366 
3 141 144 413 
3 141 412 413 
3 141 143 412 
3 141 143 142 
3 405 144 413 
3 405 406 145 
3 405 147 145 
3 405 144 147 
3 267 268 275 
3 378 265 272 
3 378 146 265 
3 378 147 380 
3 378 146 147 
3 148 270 149 
3 148 270 268 
3 148 440 149 
3 148 150 268 
3 148 440 150 
3 501 150 275 
3 274 499 265 
3 274 267 275 
3 547 150 508 
3 547 501 150 
3 151 328 456 
3 151 158 456 
3 151 158 159 
3 151 328 204 
3 151 152 204 
3 151 152 159 
3 279 276 282 
3 516 190 189 
3 516 276 189 
3 157 287 154 
3 157 155 153 
3 157 154 162 
3 157 153 162 
3 281 283 154 
3 281 287 154 
3 286 155 156 
3 286 503 156 
3 286 157 155 
3 286 157 287 
3 285 281 280 
3 285 281 287 
3 285 384 280 
3 285 384 505 
3 288 158 387 
3 288 158 159 
3 288 160 289 
3 288 160 159 
3 394 514 385 
3 400 399 393 
3 400 292 161 
3 400 393 161 
3 519 293 162 
3 519 523 162 
3 404 298 295 
3 303 176 521 
3 303 522 521 
3 303 165 304 
3 303 165 177 
3 303 176 177 
3 163 168 164 
3 163 166 168 
3 163 164 304 
3 163 165 304 
3 163 165 177 
3 163 166 177 
3 314 166 177 
3 314 316 167 
3 314 168 167 
3 314 166 168 
3 410 408 300 
3 410 300 415 
3 410 411 415 
3 174 172 169 
3 174 307 170 
3 174 169 171 
3 174 170 171 
3 306 172 173 
3 306 305 173 
3 306 174 172 
3 306 174 307 
3 418 308 175 
3 418 307 175 
3 311 176 177 
3 311 314 177 
3 311 178 176 
3 311 178 312 
3 313 179 180 
3 313 312 180 
3 313 315 181 
3 313 179 181 
3 512 190 182 
3 512 516 190 
3 389 318 182 
3 389 512 182 
3 320 183 290 
3 320 184 319 
3 320 184 183 
3 185 186 187 
3 185 188 189 
3 185 190 189 
3 185 186 190 
3 185 187 191 
3 185 188 191 
3 323 425 536 
3 326 541 498 
3 326 193 498 
3 326 324 541 
3 326 323 193 
3 192 338 339 
3 192 193 339 
3 192 540 338 
3 192 323 193 
3 192 540 536 
3 192 323 536 
3 195 196 558 
3 195 197 558 
3 551 559 558 
3 551 197 558 
3 554 552 325 
3 554 425 553 
3 194 195 196 
3 194 195 197 
3 194 196 198 
3 194 551 197 
3 194 551 552 
3 194 198 325 
3 194 552 325 
3 537 327 538 
3 424 431 199 
3 424 423 421 
3 424 421 200 
3 424 199 200 
3 342 340 205 
3 342 328 205 
3 336 212 330 
3 336 334 212 
3 435 340 205 
3 435 202 205 
3 435 202 436 
3 201 202 203 
3 201 328 204 
3 201 328 205 
3 201 202 205 
3 201 206 203 
3 201 206 204 
3 214 211 207 
3 214 208 213 
3 214 207 209 
3 214 208 209 
3 210 211 437 
3 210 212 213 
3 210 214 213 
3 210 214 211 
3 210 330 437 
3 210 212 330 
3 443 342 340 
3 442 443 340 
3 442 444 341 
3 215 216 559 
3 215 217 559 
3 215 216 233 
3 215 217 233 
3 461 465 218 
3 461 245 218 
3 461 343 251 
3 219 220 350 
3 219 347 221 
3 219 347 350 
3 219 222 221 
3 219 222 223 
3 219 220 223 
3 224 346 225 
3 224 226 227 
3 224 225 227 
3 224 356 226 
3 224 346 355 
3 224 356 355 
3 345 346 355 
3 345 355 361 
3 353 480 492 
3 353 360 228 
3 353 360 352 
3 479 362 228 
3 479 353 228 
3 479 353 480 
3 475 480 492 
3 475 478 480 
3 464 462 349 
3 464 345 361 
3 464 345 349 
3 229 230 231 
3 229 430 432 
3 229 430 231 
3 229 232 432 
3 229 232 233 
3 229 230 233 
3 369 365 236 
3 369 371 236 
3 379 234 273 
3 379 235 234 
3 379 235 382 
3 381 380 370 
3 241 239 236 
3 241 240 236 
3 237 238 239 
3 237 240 238 
3 237 241 239 
3 237 241 240 
3 483 242 357 
3 483 487 242 
3 483 476 357 
3 497 494 374 
3 568 489 243 
3 568 497 489 
3 568 244 243 
3 568 244 571 
3 491 489 243 
3 491 244 243 
3 491 245 492 
3 491 246 247 
3 491 246 248 
3 491 244 249 
3 491 461 245 
3 491 250 249 
3 491 248 251 
3 491 461 251 
3 491 252 247 
3 491 252 250 
3 253 260 262 
3 253 254 263 
3 253 262 263 
3 253 260 259 
3 253 255 259 
3 253 255 254 
3 256 257 258 
3 256 259 258 
3 256 260 259 
3 256 257 261 
3 256 260 262 
3 256 263 261 
3 256 262 263 
3 594 375 264 
3 594 593 264 
3 269 265 272 
3 269 274 265 
3 269 274 267 
3 266 272 273 
3 266 267 268 
3 266 269 272 
3 266 269 267 
3 266 270 268 
3 266 271 273 
3 266 270 271 
3 377 272 273 
3 377 378 272 
3 377 379 273 
3 500 274 499 
3 500 501 275 
3 500 274 275 
3 506 386 289 
3 506 507 289 
3 277 514 385 
3 277 384 385 
3 277 384 280 
3 277 279 280 
3 513 279 276 
3 513 516 276 
3 513 277 279 
3 513 277 514 
3 278 279 280 
3 278 281 280 
3 278 279 282 
3 278 281 283 
3 278 284 282 
3 278 283 284 
3 504 285 505 
3 504 286 503 
3 504 286 287 
3 504 285 287 
3 388 288 387 
3 388 544 507 
3 388 507 289 
3 388 288 289 
3 515 394 514 
3 515 394 399 
3 391 386 392 
3 391 394 385 
3 321 291 290 
3 321 320 290 
3 397 321 398 
3 397 321 291 
3 397 291 292 
3 397 400 292 
3 401 293 407 
3 401 519 293 
3 401 299 407 
3 294 404 295 
3 294 404 302 
3 294 296 295 
3 294 302 296 
3 403 404 302 
3 403 302 522 
3 297 404 402 
3 297 404 298 
3 297 401 402 
3 297 401 299 
3 297 300 299 
3 297 300 298 
3 301 302 522 
3 301 303 522 
3 301 302 304 
3 301 303 304 
3 416 305 417 
3 416 306 305 
3 416 306 307 
3 416 418 307 
3 530 308 309 
3 530 418 308 
3 530 529 309 
3 310 311 312 
3 310 313 312 
3 310 311 314 
3 310 313 315 
3 310 315 316 
3 310 314 316 
3 317 318 319 
3 317 389 318 
3 317 320 319 
3 317 389 398 
3 317 321 398 
3 317 321 320 
3 322 323 425 
3 322 324 325 
3 322 326 324 
3 322 326 323 
3 322 554 325 
3 322 554 425 
3 539 533 423 
3 429 327 428 
3 429 537 327 
3 454 328 456 
3 454 342 328 
3 329 438 330 
3 329 336 330 
3 329 438 331 
3 329 336 337 
3 329 332 331 
3 329 337 332 
3 333 334 335 
3 333 336 334 
3 333 336 337 
3 333 337 338 
3 333 338 339 
3 333 335 339 
3 434 435 340 
3 434 442 340 
3 434 439 341 
3 434 442 341 
3 453 443 342 
3 453 454 342 
3 453 448 443 
3 453 448 458 
3 460 463 343 
3 460 461 343 
3 344 345 346 
3 344 347 348 
3 344 349 348 
3 344 345 349 
3 344 347 350 
3 344 346 350 
3 351 352 492 
3 351 353 492 
3 351 353 352 
3 354 479 485 
3 354 355 361 
3 354 362 361 
3 354 479 362 
3 354 356 485 
3 354 356 355 
3 474 472 469 
3 474 472 492 
3 482 475 478 
3 482 483 476 
3 470 477 476 
3 470 476 357 
3 470 471 358 
3 470 359 357 
3 470 359 358 
3 466 465 360 
3 466 464 361 
3 466 362 360 
3 466 362 361 
3 363 364 365 
3 363 369 365 
3 363 366 367 
3 363 364 366 
3 363 367 370 
3 363 369 370 
3 368 369 370 
3 368 381 370 
3 368 381 382 
3 368 369 371 
3 368 371 372 
3 368 382 372 
3 490 373 374 
3 490 497 374 
3 490 373 492 
3 496 569 495 
3 496 568 569 
3 496 568 497 
3 595 375 498 
3 595 594 375 
3 376 377 378 
3 376 377 379 
3 376 378 380 
3 376 381 380 
3 376 379 382 
3 376 381 382 
3 383 506 505 
3 383 384 385 
3 383 384 505 
3 383 391 385 
3 383 506 386 
3 383 391 386 
3 509 455 508 
3 509 455 387 
3 509 388 387 
3 509 388 544 
3 543 499 503 
3 543 544 507 
3 511 389 398 
3 511 389 512 
3 390 391 392 
3 390 399 393 
3 390 394 399 
3 390 391 394 
3 390 395 393 
3 390 395 392 
3 396 397 398 
3 396 511 398 
3 396 511 515 
3 396 515 399 
3 396 400 399 
3 396 397 400 
3 518 401 402 
3 518 403 522 
3 518 401 519 
3 518 404 402 
3 518 403 404 
3 414 405 413 
3 414 405 406 
3 414 406 407 
3 414 408 407 
3 414 410 408 
3 409 410 411 
3 409 412 413 
3 409 414 410 
3 409 412 415 
3 409 411 415 
3 409 414 413 
3 525 416 417 
3 525 526 417 
3 525 416 418 
3 525 530 418 
3 420 559 419 
3 420 531 559 
3 420 421 419 
3 550 551 559 
3 550 531 559 
3 532 420 421 
3 532 420 531 
3 532 423 421 
3 532 533 423 
3 422 539 423 
3 422 424 423 
3 422 424 431 
3 422 429 431 
3 422 539 537 
3 422 429 537 
3 535 533 553 
3 535 539 533 
3 535 425 553 
3 535 425 536 
3 426 427 428 
3 426 429 428 
3 426 430 427 
3 426 429 431 
3 426 430 432 
3 426 431 432 
3 433 434 435 
3 433 436 437 
3 433 435 436 
3 433 438 437 
3 433 439 438 
3 433 434 439 
3 457 455 508 
3 457 440 508 
3 457 440 447 
3 457 458 447 
3 441 442 443 
3 441 448 443 
3 441 442 444 
3 441 448 449 
3 441 445 449 
3 441 444 445 
3 446 458 447 
3 446 448 458 
3 446 448 449 
3 446 447 450 
3 446 451 449 
3 446 451 450 
3 452 453 454 
3 452 455 456 
3 452 454 456 
3 452 457 455 
3 452 453 458 
3 452 457 458 
3 459 460 461 
3 459 462 463 
3 459 460 463 
3 459 464 462 
3 459 461 465 
3 459 466 464 
3 459 466 465 
3 467 475 492 
3 467 474 492 
3 467 474 475 
3 468 474 469 
3 468 474 477 
3 468 470 477 
3 468 470 471 
3 468 472 469 
3 468 471 472 
3 473 474 475 
3 473 482 475 
3 473 482 476 
3 473 477 476 
3 473 474 477 
3 486 482 478 
3 486 479 485 
3 486 479 480 
3 486 478 480 
3 481 482 483 
3 481 484 485 
3 481 486 485 
3 481 486 482 
3 481 487 484 
3 481 483 487 
3 488 497 489 
3 488 490 497 
3 488 491 489 
3 488 491 492 
3 488 490 492 
3 493 494 495 
3 493 496 495 
3 493 497 494 
3 493 496 497 
3 596 541 498 
3 596 595 498 
3 546 543 499 
3 546 500 499 
3 546 547 501 
3 546 500 501 
3 502 543 503 
3 502 504 503 
3 502 504 505 
3 502 506 505 
3 502 506 507 
3 502 543 507 
3 545 547 508 
3 545 509 508 
3 545 509 544 
3 510 511 512 
3 510 513 514 
3 510 515 514 
3 510 511 515 
3 510 512 516 
3 510 513 516 
3 517 518 519 
3 517 520 521 
3 517 522 521 
3 517 518 522 
3 517 520 523 
3 517 519 523 
3 524 525 526 
3 524 527 528 
3 524 527 526 
3 524 529 528 
3 524 530 529 
3 524 525 530 
3 549 550 531 
3 549 532 531 
3 549 533 553 
3 549 532 533 
3 534 535 536 
3 534 537 538 
3 534 539 537 
3 534 535 539 
3 534 540 538 
3 534 540 536 
3 597 555 541 
3 597 596 541 
3 542 543 544 
3 542 545 544 
3 542 546 543 
3 542 546 547 
3 542 545 547 
3 548 549 550 
3 548 551 552 
3 548 550 551 
3 548 549 553 
3 548 554 553 
3 548 554 552 
3 572 574 558 
3 572 555 558 
3 572 597 555 
3 556 557 558 
3 556 559 558 
3 560 561 562 
3 560 563 562 
3 564 565 566 
3 564 567 566 
3 568 569 570 
3 568 571 570 
3 572 573 574 
3 572 575 576 
3 572 577 578 
3 572 576 579 
3 572 580 579 
3 572 581 582 
3 572 583 584 
3 572 580 573 
3 572 585 586 
3 572 581 587 
3 572 588 578 
3 572 585 589 
3 572 575 589 
3 572 588 582 
3 572 590 584 
3 572 583 587 
3 572 590 586 
3 572 591 577 
3 572 592 591 
3 572 593 592 
3 572 594 593 
3 572 595 594 
3 572 596 595 
3 572 597 596 
