ply
format ascii 1.0
comment VCGLIB generated
element vertex 176
property float x
property float y
property float z
element face 348
property list uchar int vertex_indices
end_header
0.0139685 -0.0795354 0.00638443 
0.0235035 -0.0772567 0.00638443 
0.00422817 0.080642 0.00638443 
0.00424105 0.0808889 0.005 
-0.0795 0.0564997 0.0593299 
-0.0795 0.0574148 0.0584151 
0.0235035 0.0772567 0.00638443 
0.0140116 0.0797789 0.005 
0.0139685 0.0795354 0.00638443 
-0.0248666 0.0770885 0.005 
-0.0203732 0.0782421 0.005 
-0.0795 -0.0574148 0.0584151 
-0.0795 -0.0564997 0.0593299 
0.0750313 -0.0301524 0.005 
0.0735637 -0.0333074 0.00638443 
0.0235755 0.0774932 0.005 
-0.0152952 0.0792909 0.00638443 
-0.00686049 0.0806411 0.005 
-0.0055747 0.0805601 0.00638443 
-0.015342 0.0795337 0.005 
-0.00559175 0.0808067 0.005 
-0.0795 0.0583299 0.0575 
-0.0795 0.054 0.00599998 
-0.0795 0.0564997 0.00666982 
-0.0795 0.0585466 0.00930804 
-0.0795 0.0583299 0.00849998 
-0.0055747 -0.0805601 0.00638443 
-0.0152952 -0.0792909 0.00638443 
0.00422817 -0.080642 0.00638443 
1.22391e-06 -0.0808535 0.005 
-0.0795 -0.0583299 0.0575 
-0.0795 -0.0585466 0.0566919 
0.0140116 -0.0797789 0.005 
0.00424105 -0.0808889 0.005 
0.0691968 -0.0421046 0.005 
0.0327919 -0.0740654 0.005 
0.0413982 -0.0693338 0.00638443 
0.0326916 -0.0738394 0.00638443 
0.0689856 -0.0419761 0.00638443 
0.0496461 -0.0640018 0.005 
0.0508325 -0.0629603 0.005 
0.0494948 -0.0638065 0.00638443 
0.0772936 -0.0242216 0.005 
0.0796591 -0.0146772 0.005 
0.079074 -0.0170382 0.005 
0.0770577 -0.0241477 0.00638443 
0.0650299 0.0481001 0.005 
0.0737889 0.0334092 0.005 
0.0691968 0.0421046 0.005 
-0.0795 0.0585466 0.0566919 
-0.015342 -0.0795337 0.005 
-0.0136781 -0.079751 0.005 
-0.00559175 -0.0808067 0.005 
-0.0248666 -0.0770885 0.005 
-0.0795 -0.0585466 0.00930804 
-0.0795 -0.0583299 0.00849998 
-0.0795 -0.0564997 0.00666982 
0.0235755 -0.0774932 0.005 
0.0737889 -0.0334092 0.005 
0.0415251 -0.0695461 0.005 
0.0606946 -0.0534166 0.005 
0.0633909 -0.0500259 0.00638443 
0.0570359 -0.0575143 0.005 
0.0568616 -0.0573388 0.00638443 
0.0794159 -0.0146326 0.00638443 
0.0633909 0.0500259 0.00638443 
0.0689856 0.0419761 0.00638443 
0.0635849 0.0501792 0.005 
0.0568616 0.0573388 0.00638443 
0.0570359 0.0575143 0.005 
0.0415251 0.0695461 0.005 
0.0494948 0.0638065 0.00638443 
0.0413982 0.0693338 0.00638443 
0.0496461 0.0640018 0.005 
0.0327919 0.0740654 0.005 
0.0326916 0.0738394 0.00638443 
0.0635849 -0.0501792 0.005 
0.0774201 0.0237113 0.005 
0.0772936 0.0242216 0.005 
0.0735637 0.0333074 0.00638443 
-0.0795 -0.054 0.00599998 
0.0794159 0.0146326 0.00638443 
0.0770577 0.0241477 0.00638443 
0.0796591 0.0146772 0.005 
0.0572188 0.018055 0.1195 
-0.016963 -0.057552 0.1195 
-0.028377 -0.052866 0.1195 
-0.0224168 0.055655 0.1195 
0.00174683 0.0599748 0.1195 
-0.0505178 0.0323718 0.1195 
-0.0579698 0.015475 0.1195 
-0.0593159 -0.00903398 0.1195 
-0.047172 -0.037078 0.1195 
0.019903 0.056603 0.1195 
-0.042828 0.0420208 0.1195 
0.035851 -0.048111 0.1195 
0.052117 -0.0297279 0.1195 
-0.056214 -0.0209758 0.1195 
0.013585 -0.0584418 0.1195 
0.0361739 0.0478688 0.1195 
0.045201 0.039457 0.1195 
0.06 -0.000201986 0.1195 
-0.081 -0.0575 0.0549997 
-0.081 -0.0575 0.0109997 
-0.0795 -0.0589997 0.0109997 
-0.0795 -0.0589997 0.0549997 
0.0808506 0.00491661 0.005 
0.0808506 -0.00491661 0.005 
0.080927 -0.00343764 0 
-0.081 0.0575 0.0549997 
-0.081 0.054 0.00749993 
-0.081 0 0.00299996 
-0.081 0.054 0.0585 
-0.081 0.0557499 0.0580311 
-0.081 -0.054 0.00749993 
-0.081 -0.057031 0.0567499 
-0.081 -0.054 0.0585 
-0.081 0.0575 0.0109997 
-0.081 0.057031 0.00924999 
-0.081 0.0557499 0.0079689 
-0.081 -0.0557499 0.0079689 
-0.081 -0.057031 0.00924999 
-0.081 0.057031 0.0567499 
-0.081 -0.0557499 0.0580311 
-0.0795 0.0589997 0.0109997 
-0.0795 0.0589997 0.0549997 
0.0806038 0.00490153 0.00638443 
0.0806038 -0.00490153 0.00638443 
-0.0654759 -0.0471984 0 
-0.079182 -0.0170648 0 
-0.075159 -0.0302014 0 
0.0333637 0.0738095 0 
0.0395103 0.0703759 0 
-0.0715421 -0.037375 0 
-0.0803439 0.0102882 0 
-0.080927 -0.00343764 0 
-0.0333637 0.0738095 0 
-0.0204102 0.0783864 0 
-0.0395103 0.0703759 0 
-0.056047 0.0584784 0 
-0.0651237 0.0481653 0 
0.00686926 0.0807082 0 
0.0204102 0.0783864 0 
0.0803439 0.0102882 0 
0.0774495 0.0237186 0 
-0.0269843 -0.076373 0 
-0.01835 -0.0786213 0 
0.0453579 0.0671093 0 
-0.00686926 0.0807082 0 
-0.013689 -0.0798349 0 
-0.0774495 0.0237186 0 
0.01835 -0.0786213 0 
0.013689 -0.0798349 0 
-0.0608042 -0.0535145 0 
-0.0508856 -0.0630209 0 
0.056047 0.0584784 0 
0.0651237 0.0481653 0 
0.072327 0.0364664 0 
-0.072327 0.0364664 0 
-0.0453579 0.0671093 0 
-0.0654759 0.0475933 0 
0.039503 -0.0707141 0 
0.0269843 -0.076373 0 
-0.0689738 -0.0424686 0 
0.079182 -0.0170648 0 
0.075159 -0.0302014 0 
-0.05065 -0.0631803 0 
0 -0.081 0 
0.0715421 -0.037375 0 
0.0689738 -0.0424686 0 
-0.0614759 -0.0526067 0 
-0.039503 -0.0707141 0 
0.0400034 -0.0703759 0 
0.0608042 -0.0535145 0 
0.0508856 -0.0630209 0 
0.061776 -0.0522009 0 
3 88 2 8 
3 7 2 3 
3 7 2 8 
3 87 88 125 
3 93 88 8 
3 92 123 97 
3 91 123 97 
3 0 28 98 
3 141 7 3 
3 141 7 142 
3 21 87 94 
3 99 93 72 
3 111 135 114 
3 30 92 86 
3 30 85 86 
3 95 37 98 
3 32 0 28 
3 10 19 125 
3 10 19 137 
3 49 87 125 
3 49 21 87 
3 4 89 94 
3 68 99 100 
3 75 93 72 
3 15 7 142 
3 23 140 22 
3 134 22 150 
3 124 136 137 
3 12 92 123 
3 105 53 50 
3 105 53 104 
3 1 37 98 
3 1 0 98 
3 1 32 57 
3 1 32 0 
3 35 1 57 
3 35 1 37 
3 63 95 41 
3 14 34 58 
3 71 68 69 
3 71 99 72 
3 71 68 99 
3 155 156 67 
3 155 69 67 
3 33 32 28 
3 56 80 114 
3 54 103 104 
3 18 2 3 
3 18 20 3 
3 18 88 2 
3 148 19 137 
3 148 141 3 
3 148 20 3 
3 5 21 94 
3 5 4 94 
3 113 89 90 
3 113 4 89 
3 113 5 4 
3 113 5 21 
3 6 7 8 
3 6 15 7 
3 6 93 8 
3 6 75 93 
3 6 75 74 
3 6 15 74 
3 171 56 55 
3 158 22 150 
3 138 23 159 
3 138 23 136 
3 139 23 159 
3 139 23 140 
3 110 134 135 
3 110 111 135 
3 110 134 22 
3 110 23 22 
3 9 124 125 
3 9 124 137 
3 9 10 125 
3 9 10 137 
3 25 23 136 
3 11 30 92 
3 11 12 92 
3 11 30 123 
3 11 12 123 
3 27 105 85 
3 27 105 50 
3 27 51 50 
3 31 30 85 
3 31 105 85 
3 102 31 105 
3 162 35 57 
3 59 35 37 
3 38 34 76 
3 38 14 96 
3 38 14 34 
3 62 40 174 
3 62 63 41 
3 62 40 41 
3 45 44 42 
3 45 101 96 
3 45 14 96 
3 13 14 58 
3 13 165 58 
3 13 165 42 
3 13 45 42 
3 13 45 14 
3 46 156 67 
3 46 48 156 
3 157 48 156 
3 131 15 142 
3 131 15 74 
3 29 52 167 
3 29 33 167 
3 29 33 28 
3 129 80 130 
3 129 135 114 
3 129 80 114 
3 133 80 163 
3 133 80 130 
3 120 56 114 
3 120 56 55 
3 16 18 88 
3 16 18 19 
3 16 88 125 
3 16 19 125 
3 17 18 19 
3 17 18 20 
3 17 148 19 
3 17 148 20 
3 112 91 90 
3 112 113 90 
3 122 49 21 
3 122 113 21 
3 160 140 22 
3 160 158 22 
3 119 110 23 
3 119 25 118 
3 119 25 23 
3 24 124 136 
3 24 25 136 
3 24 117 124 
3 24 117 118 
3 24 25 118 
3 26 51 52 
3 26 27 51 
3 26 27 85 
3 26 85 98 
3 26 28 98 
3 26 29 28 
3 26 29 52 
3 115 30 123 
3 115 31 30 
3 115 102 31 
3 152 32 57 
3 152 33 167 
3 152 33 32 
3 169 34 58 
3 169 34 76 
3 161 162 35 
3 161 59 35 
3 36 95 37 
3 36 59 37 
3 36 95 41 
3 36 59 41 
3 61 38 96 
3 61 38 76 
3 61 95 96 
3 61 63 95 
3 39 59 174 
3 39 40 174 
3 39 59 41 
3 39 40 41 
3 107 43 108 
3 164 43 108 
3 164 43 44 
3 164 44 42 
3 164 165 42 
3 64 43 44 
3 64 45 44 
3 64 45 101 
3 64 107 43 
3 106 143 108 
3 83 143 144 
3 83 106 143 
3 66 46 48 
3 66 84 100 
3 66 46 67 
3 66 79 48 
3 66 79 84 
3 47 79 78 
3 47 157 144 
3 47 144 78 
3 47 157 48 
3 47 79 48 
3 73 147 155 
3 73 71 69 
3 73 155 69 
3 121 120 55 
3 121 54 103 
3 121 54 55 
3 116 91 123 
3 116 112 91 
3 109 49 125 
3 109 122 49 
3 149 53 50 
3 149 146 53 
3 149 51 50 
3 149 51 52 
3 149 52 167 
3 145 53 104 
3 145 146 53 
3 145 54 104 
3 145 54 55 
3 145 171 55 
3 166 171 56 
3 166 154 56 
3 153 56 80 
3 153 154 56 
3 151 162 57 
3 151 152 57 
3 168 165 58 
3 168 169 58 
3 173 62 174 
3 172 59 174 
3 172 161 59 
3 60 61 76 
3 60 173 76 
3 60 173 62 
3 60 62 63 
3 60 61 63 
3 127 64 101 
3 127 64 107 
3 77 144 78 
3 77 83 144 
3 126 127 101 
3 65 66 100 
3 65 66 67 
3 65 68 100 
3 65 69 67 
3 65 68 69 
3 70 71 72 
3 70 73 71 
3 70 73 147 
3 70 147 132 
3 70 131 132 
3 70 131 74 
3 70 75 72 
3 70 75 74 
3 170 153 80 
3 175 169 76 
3 175 173 76 
3 82 77 83 
3 82 77 78 
3 82 79 78 
3 82 79 84 
3 128 80 163 
3 128 170 80 
3 81 82 84 
3 81 82 83 
3 81 84 101 
3 81 126 101 
3 81 126 106 
3 81 83 106 
3 84 85 86 
3 84 87 88 
3 84 89 90 
3 84 91 90 
3 84 92 86 
3 84 93 88 
3 84 87 94 
3 84 95 96 
3 84 89 94 
3 84 92 97 
3 84 91 97 
3 84 85 98 
3 84 99 93 
3 84 99 100 
3 84 95 98 
3 84 101 96 
3 102 103 104 
3 102 105 104 
3 106 107 108 
3 109 110 111 
3 109 112 113 
3 109 111 114 
3 109 102 103 
3 109 115 102 
3 109 116 112 
3 109 117 118 
3 109 119 110 
3 109 120 114 
3 109 121 120 
3 109 122 113 
3 109 119 118 
3 109 115 123 
3 109 121 103 
3 109 116 123 
3 109 124 125 
3 109 117 124 
3 126 106 107 
3 126 127 107 
3 128 129 130 
3 128 131 132 
3 128 133 130 
3 128 134 135 
3 128 136 137 
3 128 138 136 
3 128 139 140 
3 128 141 142 
3 128 143 144 
3 128 145 146 
3 128 147 132 
3 128 148 141 
3 128 149 146 
3 128 134 150 
3 128 151 152 
3 128 153 154 
3 128 155 156 
3 128 157 144 
3 128 147 155 
3 128 148 137 
3 128 158 150 
3 128 138 159 
3 128 139 159 
3 128 160 158 
3 128 161 162 
3 128 143 108 
3 128 157 156 
3 128 131 142 
3 128 129 135 
3 128 133 163 
3 128 164 165 
3 128 166 154 
3 128 160 140 
3 128 152 167 
3 128 168 169 
3 128 170 153 
3 128 164 108 
3 128 149 167 
3 128 145 171 
3 128 166 171 
3 128 172 161 
3 128 151 162 
3 128 168 165 
3 128 173 174 
3 128 172 174 
3 128 175 173 
3 128 175 169 
