ply
format ascii 1.0
comment VCGLIB generated
element vertex 618
property float x
property float y
property float z
element face 1232
property list uchar int vertex_indices
end_header
0.0514408 -0.0659616 0.034547 
0.0583706 -0.0498074 0.04829 
0.0566896 -0.0552893 0.0436261 
-0.0170915 -0.0888997 0.0312103 
0.0326028 -0.037576 0.208559 
0.00375092 0.050191 0.208419 
-0.0572188 -0.0177219 0.208527 
-0.0593159 -0.00872898 0.191513 
-0.0593966 -0.0446886 0.0526546 
0.059924 -0.0372714 0.0504177 
0.059445 -0.04435 0.0529327 
0.0543796 -0.0607057 0.0390184 
0.0579698 -0.0151428 0.208523 
0.0482998 0.013259 0.208478 
0.00442892 -0.059504 0.208593 
0.0173844 -0.0898968 -0.0141621 
0.0173844 -0.0909666 -0.00517458 
0.0173844 -0.0880339 -0.0226431 
0.0231223 -0.0781572 -0.0364063 
-0.0583287 0.013637 0.160342 
-0.05994 -0.0387868 0.0442178 
-0.05994 -0.037591 0.0500917 
-0.0118219 -0.0917399 0.0211316 
-0.0118219 -0.0902488 0.0302693 
-0.00299037 -0.0927237 0.0203735 
0.00151074 -0.0913423 0.0295059 
-0.00299037 -0.0912506 0.0295702 
-0.00734627 -0.0924419 0.0205908 
-0.0227771 -0.0868981 0.0326064 
-0.019903 -0.0562708 0.208588 
-0.0283973 -0.0842635 0.0344437 
-0.0477738 0.0150838 0.208475 
-0.0340198 -0.0363098 0.208557 
-0.059254 0.00973797 0.191483 
-0.0584956 0.0133512 0.1915 
-0.0566289 0.0194059 0.160771 
-0.0584956 0.0133512 0.1715 
-0.0593966 -0.047517 0.0398146 
-0.0512428 -0.0649251 -0.00312781 
-0.0476582 -0.0688627 -0.00868171 
-0.052316 -0.029045 0.208545 
-0.0542191 -0.0607783 0.00272107 
-0.0565675 -0.0564997 0.00875568 
0.0116147 -0.0922457 -0.00649881 
0.0116147 -0.0911212 -0.0155612 
0.059924 -0.038487 0.0445676 
0.059924 -0.0364451 0.0225682 
0.0566896 -0.0575458 0.0157865 
0.0543796 -0.060497 0.00309509 
0.0543796 -0.0621456 0.00998813 
0.0566896 -0.0562118 0.00913799 
0.0543796 -0.057621 -0.00346601 
0.0514408 -0.0646555 -0.00276881 
0.0514408 -0.0666093 0.00436133 
0.0543796 -0.0624759 0.0243222 
0.0514408 -0.0673227 0.011627 
0.0543796 -0.0626194 0.0169999 
0.0566896 -0.0577726 0.0225367 
0.0566896 -0.0574137 0.029563 
-0.026033 0.0540581 0.1915 
0.0511431 0.0293913 0.150653 
0.0177302 0.00949997 -0.0467508 
0.0060268 0.00949997 -0.0496354 
-0.0542997 0.0235576 0.149729 
-0.0513421 0.0306267 0.161608 
-0.0542997 0.0251023 0.161196 
-0.05994 0.00226229 0.159494 
-0.0565675 -0.0357582 -0.0146164 
-0.0540581 -0.0124999 -0.026033 
0.0505178 -0.0320399 0.20855 
0.0287316 -0.0867432 -0.000802396 
0.0341094 -0.0838013 0.00224334 
0.0231223 -0.0891358 -0.00327933 
0.0287316 -0.0858536 -0.0095427 
0.0231223 -0.0881442 -0.0121596 
0.0478921 -0.0708535 -0.00098866 
0.0287316 -0.0840794 0.0345692 
0.0173844 -0.0846172 -0.0309138 
0.0116147 -0.0891961 -0.0241076 
0.0231223 -0.0895037 0.00571382 
0.0287316 -0.0870212 0.00804347 
0.0116147 -0.0902269 0.0302833 
0 -0.0124999 -0.06 
0.0116147 -0.0308489 -0.0587958 
0.00354606 -0.0310224 -0.0599988 
0.0133512 -0.0124999 -0.0584957 
0.0116147 -0.0400182 -0.0587588 
0.0540581 -0.00749993 -0.026033 
0.0543796 -0.0432442 -0.018046 
0.0540581 -0.0124999 -0.026033 
0.0514408 -0.0569642 -0.0155779 
0.0514408 -0.0614046 -0.00953555 
0.0543796 -0.0536172 -0.0093559 
0.0543796 -0.0487162 -0.0142782 
0.0514408 -0.0515803 -0.0205814 
0.0287316 -0.070152 -0.0400937 
-0.05994 -0.0312948 0.0138748 
-0.04351 -0.0746212 0.0343179 
-0.0361739 -0.0475368 0.208574 
-0.0283973 -0.0858638 0.0256581 
-0.0388605 -0.0785888 -0.0107281 
-0.04351 -0.0750386 -0.00625175 
-0.0388605 -0.0805742 0.00558746 
-0.0388605 -0.0799435 -0.00279552 
-0.0227771 -0.0884503 0.0236658 
-0.0170915 -0.0904154 0.0221518 
-0.0283973 -0.0871962 0.00788599 
-0.0337918 -0.0841793 0.0107186 
-0.0283973 -0.0868466 0.0167847 
-0.0227771 -0.0893691 0.0146384 
-0.0337918 -0.0840062 0.00203389 
-0.0170915 -0.0912856 0.0130074 
-0.0227771 -0.089642 0.00558949 
-0.052117 0.03006 0.208451 
-0.0570968 0.018771 0.208469 
-0.0505178 0.032677 0.191447 
-0.0540581 0.026033 0.1915 
-0.0540581 0.026033 0.1715 
-0.0593966 -0.0485492 0.0271447 
-0.05994 -0.0394422 0.0328124 
-0.05994 -0.0395294 0.0385156 
-0.0593966 -0.0482908 0.033361 
-0.0542191 -0.0578787 -0.00386131 
-0.0476582 -0.0712596 0.0300475 
-0.00299037 -0.0935363 0.0110913 
-0.0118219 -0.0925772 0.0119081 
-0.00734627 -0.0932616 0.0113253 
-0.0170915 -0.0915001 0.00384456 
0.00354606 -0.0920865 -0.0166643 
0.00354606 -0.0932542 -0.00754261 
0.059924 -0.0311513 0.0142885 
0.059924 -0.034021 0.0180623 
0.059924 -0.0280592 0.0112829 
0.0566896 -0.0192231 -0.018568 
0.0566896 -0.0408156 -0.0115518 
0.059445 -0.047984 0.0337189 
0.059924 -0.0392427 0.0388604 
0.059445 -0.0471902 0.0401481 
0.0583706 -0.0528674 0.0281404 
0.0583706 -0.0522905 0.0348676 
0.059445 -0.0475575 0.0213427 
0.059924 -0.0382084 0.0276762 
0.059445 -0.0458477 0.0154205 
0.0583706 -0.0518748 0.015254 
0.059445 -0.0482557 0.0274978 
0.059924 -0.0391614 0.0331836 
0.0583706 -0.0528904 0.0216553 
0.0478921 -0.0650024 -0.0153067 
0.0478921 -0.0686095 -0.00834447 
0.0437764 -0.0764021 0.00990391 
0.0391553 -0.0803373 0.00582963 
0.0437764 -0.0759529 0.00176793 
0.0478921 -0.0717946 0.00651848 
0.0478921 -0.071785 0.0223436 
0.0478921 -0.0720589 0.0144005 
0.0437764 -0.0762914 0.0181138 
0.0478921 -0.070959 0.0302955 
0.0514408 -0.0669386 0.0268925 
0.0514408 -0.0673882 0.0192363 
-0.033327 0.0501978 0.191419 
0 0.06 0.1715 
0.0582434 0.0139466 0.160365 
0.059924 0.00255781 0.159516 
0.0336328 0.0477265 0.153514 
0.0282297 0.0509871 0.154022 
0.0475404 0.0346263 0.15147 
0.0499999 0.00949997 0 
0.00174594 0.06028 0.191403 
0.0109548 0.059323 0.208404 
-0.0584956 -0.0124999 -0.0133513 
-0.0565675 -0.01925 -0.01893 
-0.0542191 -0.0196093 -0.0247749 
-0.0565675 -0.0161964 -0.0196446 
-0.0542191 -0.0319088 -0.022453 
-0.0542191 -0.0163307 -0.0253894 
-0.0512428 -0.0571783 -0.0159711 
-0.0512428 -0.0616516 -0.00991482 
-0.0542191 -0.0538405 -0.00976574 
-0.0542191 -0.0489014 -0.0146948 
0.0391553 -0.0786594 0.0312043 
0.0437764 -0.074343 0.0345287 
0.033327 -0.049561 0.208578 
0.0437764 -0.0756059 0.0263423 
0.0287316 -0.0841964 -0.0178071 
0.0231223 -0.0830671 -0.0287288 
0.0231223 -0.0863705 -0.020547 
0.0437764 -0.0747999 -0.00596321 
0.0391553 -0.0797206 -0.00253612 
0.0341094 -0.083037 -0.00632489 
0.0341094 -0.0835223 0.019608 
0.0341094 -0.0824588 0.0282782 
0.0391553 -0.0798163 0.0227606 
0.0391553 -0.0803747 0.0142814 
0.0341094 -0.0839688 0.0109081 
0.0231223 -0.0717824 -0.0431243 
0.00354606 -0.0901123 -0.0252614 
0.0231223 -0.0883094 0.0237723 
0.0231223 -0.0892294 0.0147535 
0.0173844 -0.090317 0.0222264 
0.0231223 -0.0867527 0.0327052 
0.0287316 -0.0856854 0.0257932 
0.0287316 -0.0866698 0.0169306 
0.0173844 -0.088798 0.0312794 
0.00151074 -0.092814 0.0203038 
0.00354606 -0.0913531 0.0294983 
0.0116147 -0.0917194 0.0211465 
0.0173844 -0.0911878 0.0130876 
0.0173844 -0.0914032 0.0039314 
0.00151074 -0.0447416 -0.0599363 
0.00354606 -0.0491239 -0.0595574 
0.00354606 -0.0402955 -0.0599999 
0.00151074 -0.0402927 -0.059988 
0.00151074 -0.0491201 -0.0595454 
-0.00299037 -0.0310069 -0.0598887 
-0.00299037 -0.0402701 -0.0598863 
-0.00299037 -0.0447157 -0.0598334 
0 -0.00749993 -0.06 
0.0341094 -0.0210997 -0.0490749 
0.0287316 -0.0385042 -0.0519812 
0.0287316 -0.0466745 -0.0513194 
0.0374094 -0.0124999 -0.0469097 
0.0133512 -0.00749993 -0.0584957 
0.0173844 -0.0306288 -0.0572688 
0.026033 -0.0124999 -0.0540581 
0.0287316 -0.0213089 -0.0524758 
0.026033 -0.00749993 -0.0540581 
0.0231223 -0.0214792 -0.0552412 
0.0442728 0.00949997 -0.0232361 
0.0374094 -0.00749993 -0.0469097 
0.0437764 -0.0205733 -0.0405212 
0.0543796 -0.0195831 -0.0244206 
0.0543796 -0.0163093 -0.0250112 
0.0514408 -0.0199323 -0.0301 
0.0514408 -0.0393921 -0.0268276 
0.0478921 -0.0478416 -0.0303401 
0.0514408 -0.045601 -0.024348 
0.0478921 -0.0411494 -0.032738 
0.0514408 -0.033177 -0.0281333 
0.0543796 -0.0375436 -0.0206116 
0.0543796 -0.0318248 -0.0220802 
0.0437764 -0.0631059 -0.0269952 
0.0437764 -0.0568358 -0.0321475 
0.0478921 -0.0543035 -0.0265746 
0.0478921 -0.0601466 -0.021494 
0.0341094 -0.0740475 -0.0298153 
0.0341094 -0.0681474 -0.0363672 
0.0391553 -0.0657872 -0.0319797 
0.0287316 -0.0763139 -0.0334503 
0.0287316 -0.0810413 -0.025873 
-0.05994 -0.0342049 0.0176473 
-0.05994 -0.0281752 0.0108839 
-0.0388605 -0.0800624 0.0225574 
-0.0337918 -0.0837352 0.0194324 
-0.0388605 -0.0806181 0.0140621 
-0.0388605 -0.0789077 0.0310162 
-0.04351 -0.0758817 0.0261148 
-0.0337918 -0.0826735 0.0281156 
-0.04351 -0.0765642 0.0178682 
-0.0476582 -0.0720822 0.0220759 
-0.0227771 -0.0864915 -0.020693 
-0.0565675 -0.0539858 0.00238424 
-0.0512428 -0.0676961 0.0189214 
-0.0542191 -0.0624341 0.00963962 
-0.0565675 -0.0556299 0.0433456 
-0.0582863 -0.0501497 0.0480081 
0.00151074 -0.091257 -0.0210238 
-0.0118219 -0.0892153 -0.0241283 
-0.0170915 -0.0881187 -0.0227452 
-0.00299037 -0.0936819 0.00179481 
-0.0118219 -0.0922676 -0.00652045 
-0.0118219 -0.0927523 0.00266856 
-0.00734627 -0.0934157 0.00204521 
-0.00734627 -0.0929068 -0.0071826 
-0.0170915 -0.091061 -0.00527102 
-0.0118219 -0.091141 -0.0155852 
-0.0170915 -0.0899855 -0.0142654 
0.0541382 0.0254053 0.161219 
0.0565057 0.0197149 0.160795 
0.0541382 0.0238752 0.149792 
0.0566896 -0.045765 -0.00778276 
0.0584956 -0.0124999 -0.0133513 
0.0584956 -0.00749993 -0.0133513 
0.0566896 -0.0161743 -0.0192577 
0.0566896 -0.0356387 -0.014206 
-0.0469097 0.0374094 0.1715 
-0.0469097 0.0374094 0.1915 
-0.0374094 0.0469097 0.1715 
-0.0374094 0.0469097 0.1915 
-0.035851 0.0484429 0.208422 
-0.0374254 0.00949997 -0.033156 
-0.0540581 -0.00749993 -0.026033 
-0.0499999 0.00949997 0 
-0.0477753 0.0343394 0.151413 
-0.0477753 0.0358755 0.161999 
-0.0513421 0.0290863 0.150592 
-0.0584956 -0.00749993 -0.0133513 
-0.00573844 0.0577831 0.155079 
-0.000167798 0.0595694 0.163764 
-0.000167798 0.0580569 0.155122 
-0.0060268 0.00949997 -0.0496354 
-0.0177302 0.00949997 -0.0467508 
-0.0284032 0.00949997 -0.0411491 
0.0587718 0.0123808 0.191479 
0.0584956 0.0133512 0.1715 
0.0593159 0.00936597 0.208484 
0.0584956 0.0133512 0.1915 
0.0387127 0.0453911 0.162708 
0.0387127 0.0438733 0.152913 
0.0433761 0.0394834 0.152228 
0.048547 0.00949997 -0.0119658 
0.03106 0.05164 0.191416 
0.026033 0.0540581 0.1715 
0.028376 0.0531979 0.208414 
0.0374094 0.0469097 0.1715 
0.0336328 0.049242 0.162995 
0.0282297 0.052501 0.163238 
0.0475404 0.0361496 0.162019 
0.0511431 0.0309181 0.16163 
0.0433761 0.0410039 0.162381 
0.0540581 0.026033 0.1915 
0.0540581 0.026033 0.1715 
0.056214 0.021308 0.208465 
0.013978 0.058654 0.191405 
0.0226045 0.0551396 0.163434 
0.0226045 0.0536266 0.154434 
-0.0118219 -0.0575333 -0.0562674 
-0.0476582 -0.0202881 -0.0358196 
-0.0512428 -0.0164608 -0.0309573 
-0.0512428 -0.0332575 -0.0284912 
-0.0469097 -0.0124999 -0.0374094 
-0.0469097 -0.00749993 -0.0374094 
-0.0283973 -0.0385485 -0.052179 
-0.0374094 -0.0124999 -0.0469097 
-0.0374094 -0.00749993 -0.0469097 
-0.0337918 -0.0294312 -0.0489439 
-0.026033 -0.0124999 -0.0540581 
-0.0282707 -0.0124999 -0.0526521 
-0.026033 -0.00749993 -0.0540581 
-0.0283973 -0.0299314 -0.052418 
-0.0227771 -0.030337 -0.0552346 
-0.0170915 -0.0306451 -0.0573745 
-0.0582863 -0.018886 -0.013008 
-0.0582863 -0.0160605 -0.0138242 
-0.0565675 -0.0305172 -0.0162231 
-0.0582863 -0.0291073 -0.00991118 
-0.0593966 -0.0159248 -0.00802362 
-0.0227771 -0.0782652 -0.0365721 
-0.0227771 -0.071876 -0.0432962 
-0.0170915 -0.0796438 -0.0387847 
-0.0227771 -0.083185 -0.0288857 
-0.0170915 -0.0847002 -0.0310237 
-0.0283973 -0.0702705 -0.040311 
-0.0337918 -0.0742118 -0.0300676 
-0.0283973 -0.0811904 -0.0260714 
-0.0337918 -0.0787298 -0.0226002 
-0.0283973 -0.0764505 -0.03366 
-0.0337918 -0.0682899 -0.0366288 
-0.04351 -0.0685606 -0.0209998 
-0.0388605 -0.0715691 -0.0258271 
-0.04351 -0.0725186 -0.0138384 
-0.0476582 -0.0652343 -0.0156628 
-0.0388605 -0.0758251 -0.0185027 
-0.0512428 -0.0395042 -0.0272127 
-0.0542191 -0.0433893 -0.0184612 
-0.0542191 -0.0376604 -0.021013 
0.0391553 -0.0756178 -0.0182266 
0.0391553 -0.0783757 -0.0104704 
0.0437764 -0.0722863 -0.0135291 
0.0391553 -0.0713792 -0.0255353 
0.0341094 -0.0785505 -0.0223613 
0.0341094 -0.0815233 -0.0144378 
0.0437764 -0.0683478 -0.0206729 
0.0116147 -0.0805535 -0.0402489 
0.0116147 -0.0857006 -0.0324405 
0.0173844 -0.0795678 -0.0386685 
0.00354606 -0.0865549 -0.0336438 
-0.0118219 -0.0857211 -0.0324646 
0.00354606 -0.0936344 0.0110073 
0.00354606 -0.0928246 0.0202956 
0.00151074 -0.0936241 0.0110162 
0.0116147 -0.092556 0.0119241 
0.00151074 -0.0937667 0.00171471 
0.00354606 -0.0937765 0.00170523 
0.0116147 -0.0927303 0.00268638 
-0.00299037 -0.0535307 -0.0586413 
-0.00734627 -0.0578402 -0.0570874 
-0.00299037 -0.0579636 -0.0574161 
-0.00734627 -0.0489927 -0.0591174 
-0.00299037 -0.0490894 -0.0594421 
0.00151074 -0.0535661 -0.0587453 
0.00151074 -0.0580031 -0.0575206 
-0.0118219 -0.0308527 -0.0588169 
-0.00734627 -0.0401993 -0.0595695 
-0.0133512 -0.00749993 -0.0584957 
-0.0118219 -0.0400231 -0.0587807 
-0.0133512 -0.0124999 -0.0584957 
0.0437764 -0.0427836 -0.0382337 
0.0437764 -0.0499252 -0.0359119 
0.0391553 -0.0591301 -0.0371972 
0.0391553 -0.0208533 -0.0450705 
0.0341094 -0.0376945 -0.0483568 
0.0391553 -0.0167864 -0.0453133 
0.0391553 -0.0367411 -0.0440889 
0.0173844 -0.0482635 -0.0566633 
0.0231223 -0.0475747 -0.0543467 
0.0116147 -0.0487446 -0.0582817 
0.0173844 -0.0396663 -0.0571836 
0.0231223 -0.0391624 -0.0549286 
0.0173844 -0.0653271 -0.0508367 
0.0231223 -0.0642598 -0.0484874 
0.0231223 -0.0560334 -0.0522485 
0.0173844 -0.0569113 -0.0545973 
0.0173844 -0.0730299 -0.0454433 
0.0116147 -0.0739017 -0.0470636 
0.00539726 0.0578128 0.155085 
0.0284032 0.00949997 -0.0411491 
0.0374254 0.00949997 -0.033156 
0.0478921 -0.0202646 -0.0354999 
0.0478921 -0.0344627 -0.0338885 
0.0437764 -0.0356581 -0.0392402 
0.0469097 -0.0124999 -0.0374094 
0.0469097 -0.00749993 -0.0374094 
0.0514408 -0.0164403 -0.0305945 
0.0478921 -0.0165651 -0.0359035 
0.0437764 -0.0166811 -0.0408401 
-0.0593966 -0.0461106 0.0150185 
-0.0593966 -0.0434303 0.00958771 
-0.05994 -0.0366678 0.02216 
-0.0593966 -0.0478444 0.0209628 
-0.05994 -0.0384657 0.027283 
-0.0582863 -0.0500414 0.00871223 
-0.0582863 -0.0521646 0.0148696 
-0.0476582 -0.0720669 0.00620168 
-0.04351 -0.0766675 0.00963247 
-0.04351 -0.0762028 0.00147742 
-0.0476582 -0.0723482 0.0141047 
-0.0476582 -0.0711136 -0.00130302 
-0.0512428 -0.0676125 0.0112899 
-0.0512428 -0.0668862 0.00402665 
-0.0283973 -0.0860138 -0.00972915 
-0.0227771 -0.0882708 -0.012307 
-0.0283973 -0.0843496 -0.017992 
-0.0337918 -0.0832298 -0.00654924 
-0.0337918 -0.0817075 -0.0146604 
-0.0283973 -0.0869135 -0.000976501 
-0.0227771 -0.0892704 -0.00341684 
-0.0593966 -0.0399925 0.00491089 
-0.0582863 -0.0469077 0.00312328 
-0.0565675 -0.0503968 -0.00336343 
-0.0542191 -0.0610389 0.0387436 
-0.0512428 -0.067255 0.0266076 
-0.0512428 -0.0662815 0.0342831 
-0.0582863 -0.0531871 0.0212978 
-0.0565675 -0.0578409 0.0154305 
-0.0542191 -0.0629215 0.0166485 
-0.00299037 -0.091999 -0.0165648 
-0.00299037 -0.0911804 -0.0209315 
-0.00734627 -0.0917534 -0.0162845 
0.00151074 -0.0920774 -0.0166541 
-0.00299037 -0.0931632 -0.00744808 
0.00151074 -0.0932449 -0.00753284 
0.0583706 -0.0466777 0.00354487 
0.059445 -0.0398042 0.00533527 
0.059445 -0.0432028 0.0100049 
0.0583706 -0.0427777 -0.00120896 
0.0583706 -0.0497759 0.00911873 
0.0566896 -0.0501685 -0.00294423 
0.0566896 -0.0537221 0.00278848 
0.059445 -0.0317916 -0.00126863 
0.059445 -0.0359102 0.00156385 
0.0583706 -0.0383574 -0.00497919 
0.0583706 -0.0160378 -0.0134345 
-0.0114403 0.0584725 0.163682 
-0.0114403 0.0569577 0.154949 
-0.00573844 0.0592967 0.163744 
-0.026033 0.0540581 0.1715 
-0.0339509 0.047524 0.153473 
-0.0390082 0.0436389 0.152866 
-0.0339509 0.0490487 0.16298 
-0.0285646 0.0523409 0.163225 
-0.0436435 0.0392204 0.152176 
-0.048547 0.00949997 -0.0119658 
-0.0390082 0.0451669 0.162691 
-0.0436435 0.0407525 0.162362 
-0.0229498 0.0534948 0.154407 
-0.0229498 0.0550135 0.163425 
-0.0285646 0.0508192 0.153988 
-0.0442728 0.00949997 -0.0232361 
-0.0172095 0.0555366 0.154727 
0.0469097 0.0374094 0.1915 
0.0490178 0.034906 0.191443 
0.03859 0.046275 0.208425 
0.0469097 0.0374094 0.1715 
-0.0388605 -0.0592667 -0.0375046 
-0.0388605 -0.0659519 -0.0322821 
-0.04351 -0.0428805 -0.0385659 
-0.04351 -0.0500455 -0.0362553 
-0.0476582 -0.0412549 -0.0330998 
-0.0476582 -0.0345381 -0.034225 
-0.0388605 -0.0519204 -0.0412669 
-0.0337918 -0.0612679 -0.0419078 
-0.0170915 -0.0482978 -0.0567812 
-0.0227771 -0.0391977 -0.0550849 
-0.0170915 -0.0396908 -0.0572926 
-0.0227771 -0.0476238 -0.0545151 
-0.0118219 -0.048752 -0.0583083 
-0.0118219 -0.0531464 -0.0574982 
-0.0170915 -0.0569538 -0.0547195 
-0.0388605 -0.036803 -0.0443645 
-0.04351 -0.020595 -0.0408143 
-0.04351 -0.0357275 -0.039549 
-0.0388605 -0.0288406 -0.0448432 
-0.0388605 -0.0443508 -0.0435098 
-0.0337918 -0.037748 -0.048595 
-0.0118219 -0.0739176 -0.0470921 
-0.0118219 -0.0660851 -0.0525074 
-0.0170915 -0.0653815 -0.0509593 
-0.0170915 -0.0730957 -0.0455639 
-0.0118219 -0.0805725 -0.0402756 
-0.00299037 -0.0900294 -0.025156 
-0.00734627 -0.0897963 -0.0248616 
0.00151074 -0.0901037 -0.0252503 
-0.00734627 -0.0810645 -0.0410656 
0.0341094 -0.0534748 -0.0454046 
0.0391553 -0.051813 -0.0409606 
0.0341094 -0.0611495 -0.041642 
0.0287316 -0.0628649 -0.0454171 
0.0287316 -0.0548859 -0.0491789 
0.0341094 -0.0455678 -0.0475967 
0.0391553 -0.0442643 -0.0432134 
0.0110918 0.0585313 0.163687 
0.0168597 0.057145 0.163584 
0.0168597 0.0556329 0.154746 
0.0110918 0.0570195 0.154962 
0.00539726 0.0593247 0.163746 
0.0133512 0.0584956 0.1715 
-0.0582863 -0.0429682 -0.0016377 
-0.0565675 -0.0409637 -0.0119766 
-0.0565675 -0.0459542 -0.00820899 
-0.0565675 -0.0577421 0.0292277 
-0.0565675 -0.0580814 0.0221771 
-0.0542191 -0.062797 0.0239939 
-0.0542191 -0.0621713 0.0313799 
-0.0565675 -0.0569263 0.0363038 
-0.0582863 -0.0531778 0.0277787 
-0.0582863 -0.0526207 0.0345303 
0.059445 -0.0230961 -0.00498533 
0.059445 -0.0276173 -0.00324345 
0.0597093 -0.0124999 -0.00589943 
0.059445 -0.0184963 -0.00674748 
0.0583706 -0.0337108 -0.00772273 
0.0583706 -0.0239738 -0.0110776 
0.0583706 -0.0290213 -0.00952881 
0.059445 -0.015902 -0.00763768 
0.0583706 -0.0188589 -0.0126445 
0.0566896 -0.0304314 -0.0158422 
-0.0171056 0.0571819 0.1715 
-0.0172095 0.0570533 0.163577 
-0.0133512 0.0584956 0.1715 
-0.0228562 0.0551697 0.1715 
-0.013585 0.058774 0.208405 
-0.0476582 -0.0544704 -0.02695 
-0.04351 -0.0632904 -0.027334 
-0.0476582 -0.0603476 -0.0218632 
-0.04351 -0.0569889 -0.032492 
-0.0512428 -0.0517581 -0.020981 
-0.0476582 -0.0479726 -0.0307143 
-0.0512428 -0.0457402 -0.0247462 
-0.0283973 -0.0549629 -0.0493991 
-0.0337918 -0.0535674 -0.0456697 
-0.0283973 -0.0629631 -0.0456382 
-0.0227771 -0.0643374 -0.048662 
-0.0227771 -0.0560942 -0.0524228 
-0.0283973 -0.0467366 -0.0515322 
-0.0337918 -0.0456424 -0.047853 
-0.0593966 -0.0231523 -0.00535113 
-0.0593966 -0.0185232 -0.00710672 
-0.0593966 -0.0319103 -0.00167674 
-0.0593966 -0.0360574 0.00114095 
-0.0593966 -0.0277023 -0.0036211 
-0.0582863 -0.033831 -0.00813538 
-0.0582863 -0.0385063 -0.00540644 
0.00354606 -0.0580078 -0.0575325 
0.0116147 -0.0660728 -0.0524783 
0.0116147 -0.0575247 -0.0562387 
0.00354606 -0.0745891 -0.0483414 
0.00151074 -0.081324 -0.0414833 
-0.00299037 -0.0812615 -0.0413824 
-0.00299037 -0.0780668 -0.0449581 
0.00151074 -0.0781258 -0.0450602 
0.00354606 -0.081331 -0.041495 
0.00151074 -0.0841389 -0.0376531 
-0.00299037 -0.0864785 -0.0335344 
-0.00299037 -0.0884628 -0.029385 
-0.00734627 -0.0862619 -0.033228 
-0.00299037 -0.0840732 -0.0375536 
0.00151074 -0.0865472 -0.0336322 
0.00151074 -0.0885344 -0.0294812 
0.00151074 -0.0623873 -0.0558578 
0.00354606 -0.0666606 -0.0537726 
-0.00299037 -0.0623436 -0.0557532 
0.00151074 -0.0666552 -0.0537606 
-0.00299037 -0.0706889 -0.0511376 
-0.00299037 -0.0666075 -0.0536562 
0.00151074 -0.0707405 -0.0512418 
0.00151074 -0.0745828 -0.0483295 
-0.00299037 -0.0745274 -0.0482262 
-0.00734627 -0.0664579 -0.0533275 
-0.00734627 -0.0743529 -0.0479017 
-0.06 0 0.1715 
-0.06 -0.00749993 0 
-0.06 -0.0124999 0 
-0.06 0.000534009 0.208498 
0.06 0 0.1715 
0.06 -0.0124999 0 
0.06 -0.00749993 0 
0.06 0 0.1915 
0.06 0.000103008 0.191499 
3 167 560 160 
3 13 12 69 
3 181 29 14 
3 28 3 29 
3 0 69 156 
3 0 11 69 
3 2 12 69 
3 2 11 69 
3 312 13 5 
3 16 383 207 
3 32 181 29 
3 32 29 98 
3 32 40 98 
3 264 37 545 
3 431 453 42 
3 123 98 97 
3 157 0 11 
3 157 0 156 
3 1 2 139 
3 1 2 12 
3 1 10 12 
3 1 137 139 
3 1 10 137 
3 58 2 11 
3 58 2 139 
3 168 167 560 
3 168 312 560 
3 321 312 13 
3 610 19 35 
3 115 285 284 
3 117 115 64 
3 299 393 300 
3 299 62 298 
3 299 62 216 
3 299 393 216 
3 337 393 300 
3 327 290 330 
3 327 290 68 
3 354 443 361 
3 78 17 44 
3 78 128 44 
3 77 78 17 
3 466 279 92 
3 466 51 92 
3 81 202 14 
3 199 181 14 
3 199 202 14 
3 43 16 383 
3 43 383 382 
3 15 185 17 
3 15 17 44 
3 15 43 44 
3 15 43 16 
3 84 210 216 
3 82 210 216 
3 87 309 281 
3 87 282 281 
3 87 89 282 
3 87 89 422 
3 93 279 134 
3 93 279 92 
3 239 133 282 
3 239 133 555 
3 241 234 397 
3 166 615 281 
3 166 309 281 
3 120 611 612 
3 8 7 612 
3 8 264 37 
3 8 21 612 
3 8 21 37 
3 23 3 105 
3 23 3 29 
3 23 29 14 
3 26 25 14 
3 26 23 14 
3 26 23 27 
3 104 3 105 
3 104 28 3 
3 4 32 181 
3 4 13 69 
3 4 181 69 
3 288 32 31 
3 288 4 13 
3 288 4 32 
3 288 13 5 
3 288 312 560 
3 288 312 5 
3 6 32 612 
3 6 32 40 
3 6 7 612 
3 6 8 7 
3 6 40 263 
3 6 264 263 
3 6 8 264 
3 255 123 97 
3 451 40 98 
3 451 123 98 
3 442 444 110 
3 436 38 438 
3 436 38 39 
3 101 436 434 
3 101 436 39 
3 616 10 12 
3 9 45 137 
3 9 10 137 
3 9 616 45 
3 9 616 10 
3 46 614 131 
3 75 53 52 
3 49 47 56 
3 49 55 56 
3 49 55 53 
3 49 50 47 
3 54 58 11 
3 54 157 11 
3 57 47 56 
3 57 54 56 
3 57 54 58 
3 57 146 47 
3 59 288 560 
3 59 288 159 
3 304 616 617 
3 304 616 12 
3 304 13 12 
3 304 321 13 
3 491 321 312 
3 534 167 160 
3 308 309 318 
3 293 115 284 
3 293 115 64 
3 65 610 35 
3 65 117 35 
3 65 117 64 
3 294 610 64 
3 294 293 64 
3 66 33 612 
3 66 610 33 
3 340 337 393 
3 301 337 300 
3 174 327 68 
3 359 360 39 
3 359 101 39 
3 566 497 362 
3 518 348 517 
3 71 80 193 
3 72 16 207 
3 201 80 193 
3 150 187 151 
3 150 71 187 
3 150 192 193 
3 150 71 193 
3 191 155 182 
3 191 155 192 
3 374 77 18 
3 374 194 18 
3 204 25 14 
3 204 81 14 
3 204 203 25 
3 76 199 200 
3 76 199 181 
3 79 206 207 
3 79 72 207 
3 198 81 202 
3 125 27 126 
3 74 15 185 
3 74 72 73 
3 74 15 16 
3 74 72 16 
3 405 86 406 
3 415 225 61 
3 221 62 61 
3 221 225 61 
3 221 62 216 
3 221 84 216 
3 227 87 309 
3 227 164 309 
3 228 415 416 
3 228 415 225 
3 88 93 134 
3 88 283 134 
3 95 194 18 
3 95 247 18 
3 95 526 525 
3 95 526 194 
3 184 185 17 
3 184 77 17 
3 184 77 18 
3 184 247 18 
3 91 51 52 
3 91 51 92 
3 94 88 235 
3 94 88 93 
3 36 19 35 
3 36 34 33 
3 36 610 33 
3 36 610 19 
3 249 96 611 
3 250 96 611 
3 20 21 37 
3 20 120 37 
3 20 21 612 
3 20 120 612 
3 452 431 453 
3 452 428 431 
3 22 23 105 
3 22 23 27 
3 22 125 27 
3 22 111 105 
3 22 125 111 
3 379 124 203 
3 24 203 25 
3 24 26 25 
3 24 26 27 
3 24 124 203 
3 24 27 126 
3 24 124 126 
3 256 30 29 
3 256 29 98 
3 103 442 110 
3 103 101 434 
3 433 253 257 
3 99 104 28 
3 99 28 29 
3 99 30 29 
3 99 104 108 
3 99 256 30 
3 114 288 31 
3 114 32 612 
3 114 32 31 
3 114 33 612 
3 114 34 33 
3 114 117 35 
3 114 117 116 
3 114 36 35 
3 114 36 34 
3 119 428 429 
3 119 611 429 
3 119 120 611 
3 121 120 37 
3 121 37 545 
3 121 544 545 
3 430 431 42 
3 430 260 42 
3 41 38 438 
3 41 38 122 
3 41 260 42 
3 41 260 122 
3 176 38 122 
3 176 177 122 
3 176 360 39 
3 176 38 39 
3 449 40 263 
3 449 451 40 
3 258 255 257 
3 258 255 123 
3 262 41 438 
3 262 453 42 
3 262 41 42 
3 441 354 443 
3 129 43 382 
3 129 128 44 
3 129 43 44 
3 271 124 126 
3 457 266 274 
3 457 520 266 
3 277 161 615 
3 130 614 131 
3 463 46 131 
3 463 46 142 
3 463 142 465 
3 470 279 134 
3 136 45 137 
3 136 145 614 
3 136 616 614 
3 136 616 45 
3 144 136 145 
3 141 46 142 
3 141 46 614 
3 141 145 614 
3 467 50 465 
3 467 466 51 
3 143 146 47 
3 143 50 47 
3 143 50 465 
3 143 142 465 
3 148 75 52 
3 148 91 52 
3 148 91 147 
3 152 55 53 
3 152 75 53 
3 152 154 55 
3 152 75 151 
3 48 49 50 
3 48 467 51 
3 48 467 50 
3 48 51 52 
3 48 53 52 
3 48 49 53 
3 158 54 157 
3 158 154 55 
3 158 55 56 
3 158 54 56 
3 138 57 146 
3 138 144 146 
3 138 58 139 
3 138 57 58 
3 475 159 479 
3 475 59 159 
3 475 59 560 
3 478 159 479 
3 474 558 560 
3 474 560 160 
3 162 304 617 
3 60 166 615 
3 60 317 615 
3 60 316 166 
3 60 316 317 
3 414 415 61 
3 414 62 61 
3 414 62 298 
3 322 168 312 
3 63 610 64 
3 63 65 64 
3 63 65 610 
3 609 66 612 
3 609 66 610 
3 333 301 337 
3 333 289 330 
3 333 301 289 
3 344 67 580 
3 344 67 343 
3 364 67 363 
3 364 173 362 
3 364 173 343 
3 364 67 343 
3 537 67 580 
3 537 67 363 
3 328 174 327 
3 328 497 362 
3 328 173 362 
3 172 174 68 
3 172 169 342 
3 172 290 68 
3 172 290 295 
3 172 169 295 
3 358 354 361 
3 351 570 500 
3 329 327 330 
3 329 326 327 
3 178 177 538 
3 178 537 538 
3 178 537 363 
3 390 582 389 
3 180 182 156 
3 180 69 156 
3 180 181 69 
3 188 71 187 
3 188 370 73 
3 70 71 80 
3 70 72 73 
3 70 188 73 
3 70 188 71 
3 70 79 80 
3 70 79 72 
3 183 370 73 
3 183 74 73 
3 183 74 185 
3 183 370 369 
3 186 187 151 
3 186 75 151 
3 186 148 75 
3 190 76 181 
3 190 76 200 
3 195 265 521 
3 195 265 128 
3 195 78 128 
3 373 77 78 
3 373 195 78 
3 373 195 375 
3 373 374 77 
3 197 79 206 
3 197 198 206 
3 197 201 80 
3 197 79 80 
3 205 198 81 
3 205 204 81 
3 205 198 206 
3 584 405 582 
3 209 86 210 
3 209 405 86 
3 209 212 389 
3 209 582 389 
3 209 405 582 
3 394 505 503 
3 394 340 503 
3 385 607 325 
3 388 212 215 
3 388 212 389 
3 211 82 210 
3 211 214 82 
3 213 82 216 
3 213 214 82 
3 419 402 229 
3 222 85 221 
3 222 86 406 
3 222 85 86 
3 83 84 210 
3 83 221 84 
3 83 85 221 
3 83 86 210 
3 83 85 86 
3 219 410 527 
3 219 528 527 
3 404 219 410 
3 404 407 218 
3 404 219 218 
3 224 217 218 
3 224 407 218 
3 224 228 225 
3 224 228 217 
3 324 323 164 
3 324 227 164 
3 220 228 401 
3 220 228 217 
3 421 87 422 
3 421 228 416 
3 421 227 416 
3 421 227 87 
3 238 88 283 
3 238 283 555 
3 238 239 555 
3 238 88 235 
3 231 89 282 
3 231 232 237 
3 231 89 422 
3 231 232 422 
3 236 396 397 
3 236 234 397 
3 409 526 194 
3 409 410 527 
3 409 526 527 
3 243 147 371 
3 242 234 235 
3 242 94 235 
3 242 241 234 
3 242 243 94 
3 90 91 92 
3 90 93 92 
3 90 94 93 
3 90 243 94 
3 90 91 147 
3 90 243 147 
3 398 246 241 
3 398 241 397 
3 245 95 247 
3 245 95 525 
3 245 398 525 
3 245 398 246 
3 427 611 429 
3 427 249 611 
3 446 249 96 
3 446 250 96 
3 254 255 97 
3 254 98 97 
3 254 256 98 
3 252 107 253 
3 252 107 108 
3 252 99 108 
3 252 99 256 
3 100 103 101 
3 100 443 361 
3 100 442 443 
3 100 103 442 
3 100 359 361 
3 100 359 101 
3 102 433 253 
3 102 103 110 
3 102 103 434 
3 102 433 434 
3 102 107 110 
3 102 107 253 
3 437 262 438 
3 109 112 111 
3 109 104 108 
3 109 111 105 
3 109 104 105 
3 106 112 444 
3 106 107 108 
3 106 109 108 
3 106 109 112 
3 106 444 110 
3 106 107 110 
3 127 112 111 
3 127 125 111 
3 445 112 444 
3 445 127 273 
3 445 127 112 
3 113 114 288 
3 113 115 285 
3 113 288 285 
3 113 114 116 
3 113 117 116 
3 113 117 115 
3 118 119 428 
3 118 452 428 
3 118 119 120 
3 118 121 120 
3 118 452 544 
3 118 121 544 
3 448 177 538 
3 448 260 122 
3 448 177 122 
3 450 258 261 
3 450 541 261 
3 450 451 123 
3 450 258 123 
3 519 265 521 
3 376 520 266 
3 376 518 348 
3 267 275 259 
3 267 259 349 
3 267 266 274 
3 267 275 274 
3 353 441 354 
3 353 259 349 
3 353 441 259 
3 460 129 382 
3 268 271 124 
3 268 379 124 
3 270 125 126 
3 270 271 126 
3 270 127 125 
3 270 127 273 
3 272 457 459 
3 272 268 459 
3 272 268 271 
3 272 457 274 
3 458 265 128 
3 458 129 128 
3 458 460 129 
3 320 277 321 
3 278 317 615 
3 132 469 614 
3 132 130 614 
3 462 130 131 
3 462 463 131 
3 462 132 469 
3 462 132 130 
3 548 614 615 
3 548 615 281 
3 548 553 281 
3 471 133 282 
3 471 133 555 
3 550 283 134 
3 550 470 134 
3 135 136 137 
3 135 144 136 
3 135 138 144 
3 135 137 139 
3 135 138 139 
3 140 141 142 
3 140 143 142 
3 140 144 145 
3 140 141 145 
3 140 144 146 
3 140 143 146 
3 367 147 371 
3 367 148 147 
3 367 186 148 
3 149 154 155 
3 149 150 151 
3 149 152 151 
3 149 152 154 
3 149 155 192 
3 149 150 192 
3 153 154 155 
3 153 182 156 
3 153 155 182 
3 153 157 156 
3 153 158 157 
3 153 158 154 
3 485 475 479 
3 485 486 479 
3 286 478 159 
3 286 478 482 
3 286 288 159 
3 286 287 288 
3 481 290 295 
3 473 488 289 
3 473 301 289 
3 297 414 298 
3 297 414 534 
3 297 534 160 
3 297 474 160 
3 613 162 617 
3 613 162 615 
3 303 161 615 
3 303 162 615 
3 303 162 304 
3 303 305 321 
3 303 277 321 
3 303 277 161 
3 313 491 318 
3 311 322 312 
3 311 322 323 
3 315 323 164 
3 315 311 323 
3 163 164 309 
3 163 307 309 
3 163 307 314 
3 163 315 164 
3 163 315 314 
3 165 166 309 
3 165 316 166 
3 165 309 318 
3 165 316 318 
3 490 320 317 
3 490 491 321 
3 535 534 167 
3 535 168 167 
3 535 322 168 
3 499 493 500 
3 573 331 513 
3 510 329 326 
3 336 333 337 
3 338 502 331 
3 345 169 342 
3 345 169 295 
3 345 610 295 
3 345 610 611 
3 170 173 343 
3 170 172 173 
3 170 342 343 
3 170 172 342 
3 171 172 173 
3 171 172 174 
3 171 328 173 
3 171 328 174 
3 347 348 517 
3 347 351 570 
3 355 353 349 
3 562 358 494 
3 565 178 363 
3 175 176 360 
3 175 563 360 
3 175 565 563 
3 175 176 177 
3 175 178 177 
3 175 565 178 
3 515 607 325 
3 515 507 325 
3 515 507 516 
3 598 390 386 
3 598 390 582 
3 179 190 191 
3 179 180 181 
3 179 191 182 
3 179 180 182 
3 179 190 181 
3 248 183 369 
3 248 184 247 
3 248 184 185 
3 248 183 185 
3 366 186 187 
3 366 188 187 
3 366 188 370 
3 366 367 186 
3 189 190 191 
3 189 192 193 
3 189 191 192 
3 189 201 193 
3 189 201 200 
3 189 190 200 
3 412 374 194 
3 412 409 194 
3 597 195 521 
3 597 195 375 
3 196 197 198 
3 196 199 200 
3 196 201 200 
3 196 197 201 
3 196 199 202 
3 196 198 202 
3 378 379 203 
3 378 204 203 
3 378 205 204 
3 380 205 206 
3 380 383 207 
3 380 206 207 
3 380 378 205 
3 208 209 210 
3 208 211 210 
3 208 212 215 
3 208 209 212 
3 208 214 215 
3 208 211 214 
3 395 340 393 
3 395 394 340 
3 387 394 505 
3 387 388 215 
3 392 213 214 
3 392 214 215 
3 392 387 215 
3 392 387 394 
3 392 393 216 
3 392 213 216 
3 529 528 402 
3 529 419 396 
3 529 419 402 
3 400 217 218 
3 400 219 218 
3 400 219 528 
3 400 220 401 
3 400 220 217 
3 400 528 402 
3 226 221 225 
3 226 222 221 
3 226 407 406 
3 226 222 406 
3 411 404 410 
3 411 584 583 
3 223 224 225 
3 223 224 407 
3 223 226 225 
3 223 226 407 
3 532 227 416 
3 532 324 227 
3 424 228 401 
3 424 421 228 
3 424 402 229 
3 423 424 229 
3 423 419 229 
3 230 237 239 
3 230 231 237 
3 230 239 282 
3 230 231 282 
3 418 236 396 
3 418 419 396 
3 418 232 422 
3 418 232 237 
3 418 236 237 
3 233 234 235 
3 233 236 234 
3 233 236 237 
3 233 238 235 
3 233 237 239 
3 233 238 239 
3 240 246 241 
3 240 242 241 
3 240 242 243 
3 240 243 371 
3 240 368 371 
3 240 368 246 
3 244 245 246 
3 244 368 246 
3 244 245 247 
3 244 368 369 
3 244 248 369 
3 244 248 247 
3 426 427 249 
3 426 446 249 
3 578 250 611 
3 578 446 250 
3 251 252 253 
3 251 254 255 
3 251 254 256 
3 251 252 256 
3 251 253 257 
3 251 255 257 
3 435 433 257 
3 435 258 257 
3 435 258 261 
3 435 437 261 
3 440 275 273 
3 440 445 273 
3 440 275 259 
3 440 441 259 
3 447 426 430 
3 447 426 446 
3 447 430 260 
3 447 448 260 
3 454 437 261 
3 454 541 261 
3 454 437 262 
3 454 262 453 
3 543 449 263 
3 543 264 545 
3 543 264 263 
3 456 457 520 
3 456 519 520 
3 456 519 265 
3 456 458 265 
3 350 376 266 
3 350 267 266 
3 350 267 349 
3 350 376 348 
3 381 460 459 
3 381 268 459 
3 381 460 382 
3 381 268 379 
3 269 270 271 
3 269 272 271 
3 269 270 273 
3 269 272 274 
3 269 275 273 
3 269 275 274 
3 276 320 277 
3 276 277 615 
3 276 278 615 
3 276 320 317 
3 276 278 317 
3 464 470 469 
3 464 462 469 
3 464 466 279 
3 464 470 279 
3 280 553 281 
3 280 471 553 
3 280 282 281 
3 280 471 282 
3 552 550 283 
3 552 283 555 
3 557 485 475 
3 477 478 482 
3 477 481 482 
3 483 481 292 
3 483 293 292 
3 483 293 284 
3 483 285 284 
3 483 286 482 
3 483 286 287 
3 483 288 285 
3 483 287 288 
3 487 481 486 
3 487 488 289 
3 487 481 290 
3 487 289 330 
3 487 290 330 
3 291 481 292 
3 291 293 292 
3 291 294 293 
3 291 294 610 
3 291 610 295 
3 291 481 295 
3 296 473 474 
3 296 297 298 
3 296 297 474 
3 296 299 298 
3 296 299 300 
3 296 301 300 
3 296 473 301 
3 302 303 304 
3 302 303 305 
3 302 304 321 
3 302 305 321 
3 306 313 318 
3 306 313 314 
3 306 307 314 
3 306 308 318 
3 306 308 309 
3 306 307 309 
3 310 311 312 
3 310 313 314 
3 310 315 314 
3 310 315 311 
3 310 491 312 
3 310 313 491 
3 492 316 317 
3 492 490 317 
3 492 316 318 
3 492 491 318 
3 319 320 321 
3 319 490 321 
3 319 490 320 
3 531 322 323 
3 531 535 322 
3 531 324 323 
3 531 532 324 
3 339 340 503 
3 339 502 503 
3 571 347 570 
3 571 516 517 
3 571 347 517 
3 506 507 325 
3 506 385 325 
3 506 387 505 
3 506 387 385 
3 496 499 493 
3 496 566 497 
3 574 573 513 
3 504 502 331 
3 504 573 331 
3 498 510 326 
3 498 326 327 
3 498 328 327 
3 498 328 497 
3 509 510 329 
3 509 329 330 
3 509 333 330 
3 334 331 513 
3 334 338 331 
3 332 336 333 
3 332 338 336 
3 332 334 338 
3 332 511 513 
3 332 334 513 
3 332 509 333 
3 332 509 511 
3 335 336 337 
3 335 338 336 
3 335 338 502 
3 335 339 502 
3 335 340 337 
3 335 339 340 
3 341 345 342 
3 341 345 344 
3 341 342 343 
3 341 344 343 
3 576 344 580 
3 576 345 344 
3 576 345 611 
3 346 347 351 
3 346 355 351 
3 346 347 348 
3 346 355 349 
3 346 350 349 
3 346 350 348 
3 356 355 351 
3 356 351 500 
3 356 493 500 
3 356 493 494 
3 352 353 354 
3 352 355 353 
3 352 358 354 
3 352 356 355 
3 352 358 494 
3 352 356 494 
3 357 562 358 
3 357 359 360 
3 357 563 360 
3 357 562 563 
3 357 359 361 
3 357 358 361 
3 567 566 362 
3 567 565 363 
3 567 364 362 
3 567 364 363 
3 608 515 607 
3 585 413 583 
3 585 590 413 
3 600 598 386 
3 600 385 386 
3 600 385 607 
3 365 366 367 
3 365 368 369 
3 365 370 369 
3 365 366 370 
3 365 368 371 
3 365 367 371 
3 372 373 375 
3 372 590 375 
3 372 373 374 
3 372 590 413 
3 372 412 374 
3 372 412 413 
3 591 590 375 
3 588 608 522 
3 588 608 606 
3 596 597 375 
3 596 591 375 
3 594 376 520 
3 594 518 522 
3 594 376 518 
3 377 378 379 
3 377 380 378 
3 377 381 382 
3 377 381 379 
3 377 383 382 
3 377 380 383 
3 384 385 386 
3 384 387 385 
3 384 387 388 
3 384 388 389 
3 384 390 389 
3 384 390 386 
3 391 392 393 
3 391 392 394 
3 391 395 393 
3 391 395 394 
3 524 396 397 
3 524 529 396 
3 524 398 397 
3 524 398 525 
3 399 400 401 
3 399 400 402 
3 399 424 401 
3 399 424 402 
3 403 411 404 
3 403 405 406 
3 403 584 405 
3 403 411 584 
3 403 407 406 
3 403 404 407 
3 408 409 410 
3 408 411 410 
3 408 411 583 
3 408 412 409 
3 408 413 583 
3 408 412 413 
3 533 414 534 
3 533 414 415 
3 533 415 416 
3 533 532 416 
3 417 423 422 
3 417 418 422 
3 417 423 419 
3 417 418 419 
3 420 421 422 
3 420 423 422 
3 420 424 421 
3 420 423 424 
3 425 426 427 
3 425 428 429 
3 425 427 429 
3 425 426 430 
3 425 428 431 
3 425 430 431 
3 432 433 434 
3 432 435 433 
3 432 436 434 
3 432 435 437 
3 432 436 438 
3 432 437 438 
3 439 440 441 
3 439 442 443 
3 439 441 443 
3 439 442 444 
3 439 445 444 
3 439 440 445 
3 536 578 446 
3 536 447 446 
3 536 448 538 
3 536 447 448 
3 542 543 449 
3 542 450 541 
3 542 449 451 
3 542 450 451 
3 540 452 453 
3 540 452 544 
3 540 454 453 
3 540 454 541 
3 455 456 457 
3 455 456 458 
3 455 457 459 
3 455 460 459 
3 455 458 460 
3 461 462 463 
3 461 464 462 
3 461 463 465 
3 461 464 466 
3 461 467 465 
3 461 467 466 
3 549 548 553 
3 549 552 553 
3 468 548 614 
3 468 547 548 
3 468 469 614 
3 468 547 550 
3 468 470 469 
3 468 550 470 
3 554 471 553 
3 554 471 555 
3 472 473 488 
3 472 557 488 
3 472 473 474 
3 472 474 558 
3 472 557 558 
3 559 557 475 
3 559 475 560 
3 476 477 478 
3 476 477 481 
3 476 481 486 
3 476 478 479 
3 476 486 479 
3 480 481 482 
3 480 483 482 
3 480 483 481 
3 484 485 486 
3 484 487 486 
3 484 487 488 
3 484 557 488 
3 484 557 485 
3 489 490 491 
3 489 492 491 
3 489 492 490 
3 572 504 507 
3 572 504 573 
3 572 507 516 
3 572 571 516 
3 564 496 493 
3 564 493 494 
3 564 562 494 
3 564 496 566 
3 495 496 497 
3 495 510 512 
3 495 499 512 
3 495 496 499 
3 495 498 497 
3 495 498 510 
3 569 499 512 
3 569 574 512 
3 569 499 500 
3 569 570 500 
3 501 502 503 
3 501 504 502 
3 501 505 503 
3 501 506 505 
3 501 506 507 
3 501 504 507 
3 508 509 510 
3 508 509 511 
3 508 510 512 
3 508 511 513 
3 508 574 513 
3 508 574 512 
3 514 608 515 
3 514 516 517 
3 514 515 516 
3 514 518 517 
3 514 518 522 
3 514 608 522 
3 587 588 522 
3 589 585 590 
3 589 588 606 
3 593 519 520 
3 593 594 520 
3 593 519 521 
3 593 597 521 
3 595 596 591 
3 595 587 591 
3 595 594 522 
3 595 587 522 
3 523 524 525 
3 523 526 527 
3 523 526 525 
3 523 528 527 
3 523 529 528 
3 523 524 529 
3 530 531 532 
3 530 533 532 
3 530 533 534 
3 530 535 534 
3 530 531 535 
3 581 536 578 
3 581 537 580 
3 581 537 538 
3 581 536 538 
3 539 540 541 
3 539 542 541 
3 539 542 543 
3 539 540 544 
3 539 544 545 
3 539 543 545 
3 546 547 548 
3 546 549 548 
3 546 549 552 
3 546 547 550 
3 546 552 550 
3 551 552 553 
3 551 554 553 
3 551 552 555 
3 551 554 555 
3 556 557 558 
3 556 559 557 
3 556 558 560 
3 556 559 560 
3 561 562 563 
3 561 564 562 
3 561 565 563 
3 561 564 566 
3 561 567 566 
3 561 567 565 
3 568 569 570 
3 568 571 570 
3 568 572 571 
3 568 572 573 
3 568 574 573 
3 568 569 574 
3 575 576 580 
3 575 579 580 
3 575 576 611 
3 575 579 611 
3 577 578 611 
3 577 579 611 
3 577 579 580 
3 577 581 580 
3 577 581 578 
3 599 598 582 
3 599 585 583 
3 599 604 585 
3 599 584 583 
3 599 584 582 
3 605 604 585 
3 605 589 606 
3 605 589 585 
3 586 587 588 
3 586 589 588 
3 586 589 590 
3 586 591 590 
3 586 587 591 
3 592 593 594 
3 592 595 596 
3 592 595 594 
3 592 596 597 
3 592 593 597 
3 601 600 598 
3 601 599 598 
3 601 599 604 
3 603 600 607 
3 603 601 600 
3 603 601 604 
3 602 603 604 
3 602 605 606 
3 602 605 604 
3 602 603 607 
3 602 608 607 
3 602 608 606 
3 609 610 611 
3 609 611 612 
3 613 614 615 
3 613 616 614 
3 613 616 617 
