ply
format ascii 1.0
comment VCGLIB generated
element vertex 547
property float x
property float y
property float z
element face 1090
property list uchar int vertex_indices
end_header
-0.059924 -0.00589478 0.085784 
-0.0511431 0.0212091 0.0805718 
0.0583287 0.00467384 0.0837672 
0.05994 -0.00619781 0.0858585 
-0.0374094 -0.0469097 0.0169999 
-0.059924 -0.00186414 0.0735214 
-0.0584956 0.0133512 0.0169999 
-0.0582434 0.00925362 0.0719854 
-0.0582434 0.00498968 0.0836906 
0.0118219 -0.0633889 0.252817 
0.00589955 0.0597093 0.037 
0.0114403 0.0583377 0.0459234 
0.00573844 0.0511123 0.0707014 
-0.00539726 0.0511412 0.0706953 
-0.0475404 0.0262085 0.0796107 
-0.0475404 0.0309274 0.0689919 
0.0583287 0.00893295 0.0720412 
0.05994 -0.00217169 0.0735757 
0.05994 0.000643037 0.0609966 
0.0542997 0.0156325 0.0816588 
0.0566289 0.0101875 0.0827064 
0.0566289 0.0145649 0.0712629 
0.0540581 -0.026033 0.0169999 
-0.0582434 0.0139274 0.0478383 
-0.0582434 0.0122325 0.0599503 
-0.0584956 0.0133512 0.037 
-0.059924 0.00256461 0.0483283 
-0.059924 0.000955507 0.0609616 
-0.0565057 0.0196822 0.04759 
-0.0540581 0.026033 0.0169999 
-0.0540581 0.026033 0.037 
-0.0387127 0.0433661 0.057159 
-0.0387127 0.0452968 0.0464853 
-0.0433761 0.0390225 0.0575484 
-0.0387127 0.0399479 0.0677465 
-0.0433761 0.0356656 0.0683376 
-0.0541382 0.0159408 0.0815848 
-0.0565057 0.0105023 0.0826304 
-0.0511431 0.0258208 0.0696971 
-0.0133512 -0.046 0.256996 
0.0170915 -0.0566198 0.254329 
-0.00539726 0.0535451 0.0658711 
-0.00539726 0.0571578 0.0559239 
0.0172095 0.0549048 0.0561273 
0.00573844 0.0571283 0.0559273 
0.0114403 0.0563111 0.0560009 
0.000167798 0.0573992 0.0559026 
0.00573844 0.0591615 0.0458876 
0.000167798 0.0594348 0.0458758 
-0.0133512 -0.0509999 0.256996 
-0.017278 -0.0509999 0.255622 
-0.0173844 -0.0566106 0.254229 
0.05994 0.00224346 0.0483437 
0.0583287 0.0119067 0.0599863 
0.0583287 0.013593 0.0478542 
0.0584956 0.0133512 0.037 
0.0540581 0.026033 0.0169999 
0.0584956 0.0133512 0.0169999 
0.0542997 0.0201264 0.0704942 
-0.0543796 -0.0706149 0.175281 
-0.0469097 -0.0374094 0.0169999 
-0.0540581 -0.026033 0.0169999 
-0.0514408 -0.0742971 0.179536 
0.0582863 -0.0650453 0.172116 
-0.0541382 0.0235785 0.0589329 
-0.0541382 0.0253596 0.0473452 
-0.0565057 0.0179439 0.059438 
-0.0565057 0.0148845 0.0712076 
-0.0541382 0.0204396 0.0704403 
-0.0334507 0.0493972 0.037 
-0.0336328 0.0491379 0.0463197 
-0.0374094 0.0469097 0.037 
-0.0475404 0.0360781 0.0468827 
-0.0469097 0.0374094 0.037 
-0.0433761 0.0409204 0.046674 
-0.0511431 0.0308592 0.047108 
-0.0475404 0.0342165 0.0579791 
-0.0511431 0.0290368 0.0584434 
0.0118219 -0.0699013 0.248887 
0.00299037 -0.0701081 0.249912 
-0.0116147 -0.0633855 0.252794 
-0.0116147 -0.0566595 0.255685 
0.0170915 -0.0632272 0.251431 
0.0227771 -0.0565536 0.252288 
-0.00539726 0.0555513 0.0609316 
-0.0226045 0.0494621 0.0664335 
-0.0168597 0.051419 0.0661637 
-0.0168597 0.0490358 0.0710398 
0 0.06 0.0169999 
0 0.06 0.037 
-0.0110679 0.0587529 0.037 
-0.00539726 0.0591918 0.0458862 
-0.0282297 0.0504045 0.0565283 
-0.0282297 0.0468871 0.0667887 
-0.0336328 0.0437067 0.0672276 
-0.0336328 0.0471784 0.0568175 
-0.0282297 0.0523884 0.0461795 
-0.0226045 0.0550199 0.0460661 
0.0171056 0.0571819 0.037 
0.0133512 0.0584956 0.037 
0.0133512 0.0584956 0.0169999 
0.0228562 0.0551697 0.037 
0.0172095 0.0569205 0.0459844 
0.0172095 0.0513241 0.0661801 
0.0172095 0.0489415 0.0710594 
0.0229498 0.049332 0.066456 
0.0172095 0.0533127 0.0611871 
0.00573844 0.053516 0.0658761 
0.00573844 0.0555221 0.0609356 
0.0285646 0.0467217 0.0668171 
0.0229498 0.0528842 0.056309 
0.0229498 0.054884 0.0460725 
-0.0173844 -0.0632138 0.251326 
-0.0231223 -0.0565408 0.252146 
-0.0391553 -0.0562081 0.242129 
0.0433949 0.0409243 0.037 
0.0469097 0.0374094 0.037 
0.0513421 0.0209129 0.0806427 
0.0542997 0.0250333 0.0473605 
0.0566289 0.0193491 0.0476059 
0.0540581 0.026033 0.037 
0.0513421 0.0305459 0.0471226 
0.0542997 0.0232604 0.0589676 
0.0566289 0.0176193 0.0594738 
0.0477753 0.0339292 0.0580104 
0.0513421 0.028731 0.0584769 
0.0477753 0.0357836 0.0468968 
0.0513421 0.0255198 0.0697488 
-0.0116147 -0.0698954 0.248863 
-0.00354606 -0.0762998 0.245037 
-0.0437764 -0.06126 0.234615 
0.0388605 -0.0828161 0.184372 
0.0469097 -0.0374094 0.0169999 
0.026033 -0.0540581 0.0169999 
0.0374094 -0.0469097 0.0169999 
0.0599324 -0.0579524 0.16281 
0.0593966 -0.0614629 0.167416 
0.0584956 -0.0133512 0.0169999 
0.0469097 0.0374094 0.0169999 
0.05994 -0.0572583 0.186306 
0.0593966 -0.0628434 0.172751 
-0.0133512 -0.0584956 0.0169999 
-0.00151074 -0.0701268 0.250006 
-0.00354606 -0.0701289 0.250017 
-0.00354606 -0.0635209 0.25395 
-0.0391553 -0.0720802 0.230447 
-0.0341094 -0.0679417 0.2392 
-0.0341094 -0.0622526 0.243105 
-0.0391553 -0.0617879 0.239131 
-0.0391553 -0.0671404 0.235235 
-0.0341094 -0.0732116 0.23436 
-0.00151074 -0.0566986 0.25682 
0.0118219 -0.0566641 0.255704 
0.00299037 -0.0635089 0.253845 
-0.00151074 -0.0635197 0.25394 
-0.0014928 -0.0509999 0.258332 
-0.0115954 -0.0509999 0.257194 
-0.00354606 -0.0566986 0.256832 
0.0117981 -0.0509999 0.257171 
0 -0.046 0.2585 
0 -0.0509999 0.2585 
0.00299037 -0.0566964 0.256727 
-0.0168597 0.0550013 0.0561167 
-0.0168597 0.053408 0.0611737 
-0.0110918 0.056373 0.0559941 
-0.0226045 0.0530164 0.0562945 
-0.0168597 0.0570196 0.0459797 
-0.0110918 0.0584015 0.0459204 
-0.0231223 -0.0691758 0.245304 
-0.0231223 -0.0629682 0.249226 
-0.0173844 -0.0695993 0.247399 
-0.0287316 -0.0686222 0.242566 
-0.0287316 -0.0626472 0.246481 
-0.0341094 -0.0532175 0.247229 
-0.0391553 -0.0531892 0.243328 
-0.0341094 -0.0563388 0.246073 
-0.0287316 -0.0564501 0.249422 
-0.0435321 -0.0509999 0.239287 
-0.0390065 -0.0509999 0.243813 
0.0285646 0.0522162 0.0461876 
0.0285646 0.0502366 0.0565467 
0.0339509 0.0469759 0.0568396 
0.0339509 0.0435069 0.0672618 
0.0390082 0.0450562 0.0464966 
0.0436435 0.0406504 0.0466867 
0.0339509 0.0489302 0.0463294 
-0.059445 -0.0594739 0.197299 
-0.059924 -0.0545888 0.193085 
-0.059445 -0.0549611 0.204381 
-0.0597093 -0.0509999 0.204399 
-0.059445 -0.0573422 0.201093 
-0.059445 -0.052923 0.206 
0.0133512 -0.0584956 0.0169999 
0.0118219 -0.0893637 0.223993 
-0.0478921 -0.0777982 0.183581 
-0.0116147 -0.0759701 0.243898 
0.00299037 -0.0922709 0.217228 
0.00299037 -0.0898805 0.224911 
-0.00151074 -0.0899272 0.224996 
-0.00151074 -0.0923231 0.217308 
-0.0341094 -0.077842 0.228665 
-0.0341094 -0.0816421 0.222257 
-0.0391553 -0.0763958 0.224843 
-0.0514408 -0.0734039 0.204732 
-0.0437764 -0.0531572 0.238896 
-0.0437764 -0.0560596 0.237648 
0.0337918 -0.0867557 0.193914 
0.0337918 -0.0855226 0.187159 
0.0283973 -0.0878155 0.189522 
-0.0514408 -0.0754017 0.185736 
-0.0599475 -0.0577182 0.162539 
-0.0584956 -0.0133512 0.0169999 
-0.0599993 -0.0535688 0.155584 
-0.0543796 -0.0719535 0.181213 
0.05994 -0.0546206 0.193421 
0.05994 -0.0560573 0.190066 
0.05994 -0.0585593 0.177655 
0.0599324 -0.0596185 0.167879 
0.0599999 -0.0538105 0.155835 
0.05994 -0.0581283 0.182151 
0.0593966 -0.0635033 0.178165 
0.0593966 -0.0634419 0.183501 
0.0227771 -0.0801293 0.234698 
0.0170915 -0.0852898 0.230004 
-0.00151074 -0.0817866 0.239086 
-0.00151074 -0.0762969 0.245026 
0.00299037 -0.0762705 0.244934 
-0.00354606 -0.0817903 0.239097 
-0.00151074 -0.0863841 0.232338 
-0.00354606 -0.0863886 0.232349 
0.0227771 -0.0750005 0.240535 
0.0170915 -0.0696224 0.247506 
0.0283973 -0.0742313 0.237872 
-0.0287316 -0.0741725 0.237683 
0.0336136 -0.0509999 0.247795 
0.0436435 0.0354064 0.068382 
0.0477753 0.0306447 0.0690404 
0.0436435 0.0387591 0.0575771 
0.0390082 0.0431313 0.0571846 
0.0390082 0.0397168 0.067786 
0.0436435 0.0305919 0.0787799 
0.0477753 0.02593 0.0796772 
0.0542191 -0.0530643 0.223595 
0.0540581 -0.0509999 0.224533 
0.0584956 -0.046 0.211851 
0.0540581 -0.046 0.224533 
0.0584956 -0.0509999 0.211851 
0.0593966 -0.0627028 0.188611 
0.0118219 -0.0916942 0.216354 
0 -0.06 0.0169999 
0.0227771 -0.0896743 0.191437 
0.0283973 -0.0889348 0.196433 
0.0283973 -0.0891137 0.203701 
0.0337918 -0.0845909 0.215531 
0.0283973 -0.0882434 0.211136 
-0.0391553 -0.0826356 0.184194 
-0.026033 -0.0540581 0.0169999 
-0.0341094 -0.0853665 0.187006 
-0.0478921 -0.0776776 0.203308 
-0.0437764 -0.0810538 0.187342 
-0.0478921 -0.0786805 0.190037 
-0.0478921 -0.0786579 0.196677 
-0.00354606 -0.0899324 0.225005 
-0.0231223 -0.0843201 0.227952 
-0.0287316 -0.0831189 0.225398 
-0.0287316 -0.0790705 0.231912 
-0.0341094 -0.0844658 0.21533 
-0.0287316 -0.0861667 0.218342 
-0.0231223 -0.0875502 0.220791 
-0.0583706 -0.0606534 0.203137 
-0.0437764 -0.0779281 0.214357 
-0.0437764 -0.0747527 0.2205 
-0.0391553 -0.0799033 0.218558 
-0.0478921 -0.0757481 0.209719 
-0.0478921 -0.0729394 0.215706 
-0.0543796 -0.072478 0.187342 
-0.0514408 -0.0749776 0.198526 
-0.0514408 -0.0756458 0.192127 
-0.0583706 -0.0662508 0.183068 
-0.0566896 -0.0692139 0.182411 
-0.0566896 -0.0684001 0.176552 
-0.0583706 -0.0629215 0.198764 
-0.0566896 -0.068398 0.194081 
-0.0566896 -0.0692121 0.188313 
-0.0543796 -0.0709385 0.199486 
-0.0566896 -0.0668254 0.199543 
-0.0543796 -0.0721381 0.193496 
0.0582863 -0.066003 0.188952 
0.0118219 -0.0813797 0.238007 
0.0170915 -0.0808764 0.236675 
0.0118219 -0.0858949 0.231293 
0.00299037 -0.0863435 0.232251 
0.00299037 -0.0817528 0.238996 
0.0118219 -0.0759785 0.243922 
0.0170915 -0.0755848 0.242558 
0.0512428 -0.0531029 0.229111 
0.0476582 -0.0531392 0.234349 
0.0476582 -0.0559227 0.23301 
0.0283973 -0.0626712 0.246671 
0.0283973 -0.0686637 0.242758 
0.0227771 -0.0692086 0.245456 
0.0227771 -0.0629872 0.249376 
0.0283973 -0.0564661 0.249603 
-0.0173844 -0.0808343 0.236573 
-0.0231223 -0.0800697 0.234553 
-0.0173844 -0.0852394 0.229907 
-0.0116147 -0.0858818 0.231272 
-0.0116147 -0.0813687 0.237984 
-0.0173844 -0.0755521 0.242454 
-0.0231223 -0.074954 0.240386 
0.0337918 -0.0532296 0.247473 
0.0542191 -0.0708586 0.175538 
0.0512428 -0.0745308 0.179782 
0.0476582 -0.0780177 0.183812 
-0.0583706 -0.0529637 0.211744 
-0.0584956 -0.0509999 0.211851 
-0.0584956 -0.046 0.211851 
-0.0540581 -0.046 0.224533 
-0.0469097 -0.046 0.235909 
-0.0469097 -0.0509999 0.235909 
-0.0478921 -0.0531222 0.234005 
0.0227771 -0.0876324 0.220923 
0.0227771 -0.0897626 0.213433 
0.0170915 -0.0886668 0.222757 
0.0283973 -0.0862707 0.218509 
0.0227771 -0.0843918 0.228092 
0.0337918 -0.0779327 0.228887 
0.0337918 -0.081751 0.222469 
0.0388605 -0.0765005 0.225098 
0.0337918 -0.0732822 0.234588 
0.0283973 -0.0791459 0.232096 
0.0283973 -0.0832095 0.225574 
0.0388605 -0.072162 0.23071 
0.0118219 -0.0929475 0.201074 
0.0227771 -0.0907013 0.198476 
0.0118219 -0.0920384 0.193872 
0.0118219 -0.0928703 0.208635 
0.0227771 -0.0907675 0.205873 
0.00299037 -0.0927453 0.194601 
0.04351 -0.0780691 0.214632 
0.04351 -0.07487 0.220786 
0.0388605 -0.0800292 0.218804 
0.0476582 -0.0730673 0.216018 
-0.0287316 -0.0876858 0.189394 
-0.0231223 -0.0895718 0.191336 
-0.0391553 -0.0840037 0.19075 
-0.0437764 -0.0817294 0.194035 
-0.0116147 -0.0916778 0.216337 
-0.0173844 -0.0908525 0.215091 
-0.0173844 -0.0886089 0.222665 
-0.0116147 -0.0893487 0.223974 
-0.00354606 -0.0923289 0.217318 
-0.0116147 -0.0928531 0.208619 
-0.00354606 -0.0935616 0.209546 
-0.00151074 -0.0936797 0.201923 
-0.00354606 -0.0928176 0.194677 
-0.00151074 -0.09281 0.194669 
-0.00354606 -0.0936867 0.201932 
0.00299037 -0.0936186 0.201852 
-0.00151074 -0.0935552 0.209537 
0.00299037 -0.0934983 0.209461 
-0.0116147 -0.0929305 0.20106 
-0.0173844 -0.0910149 0.192821 
-0.0116147 -0.0920231 0.193859 
-0.0231223 -0.0906692 0.205757 
-0.0231223 -0.0905991 0.198368 
-0.0231223 -0.0896715 0.213309 
-0.0173844 -0.0919547 0.207442 
-0.0173844 -0.0919716 0.199953 
-0.0287316 -0.0881281 0.210979 
-0.0391553 -0.0824632 0.211784 
-0.0437764 -0.0814587 0.200907 
-0.0437764 -0.0801883 0.207755 
-0.0540581 -0.0509999 0.224533 
-0.0437764 -0.0662302 0.230732 
-0.0437764 -0.0707951 0.226002 
-0.0514408 -0.0709894 0.210551 
-0.0543796 -0.0689386 0.20513 
-0.0566896 -0.0645944 0.204552 
-0.0583706 -0.0580262 0.206946 
-0.0583706 -0.0551526 0.21019 
-0.059445 -0.0625575 0.188259 
-0.059445 -0.0632672 0.183164 
-0.0583706 -0.0658268 0.18861 
-0.0583706 -0.0646866 0.193888 
-0.059445 -0.0612561 0.193002 
-0.059924 -0.0580174 0.181797 
-0.059924 -0.0560119 0.189711 
-0.059445 -0.0626213 0.172452 
-0.0583706 -0.0659102 0.17742 
-0.059445 -0.0633028 0.177845 
-0.0599475 -0.0594012 0.167587 
-0.059445 -0.0612237 0.167138 
-0.0583706 -0.0648038 0.171834 
0.0593966 -0.0529439 0.206391 
0.0565675 -0.0694364 0.182713 
0.0582863 -0.066453 0.183391 
0.0582863 -0.0661342 0.177723 
0.0565675 -0.0694129 0.188635 
0.0565675 -0.0686401 0.176832 
0.0542191 -0.0721879 0.181488 
0.04351 -0.0612973 0.234911 
0.0388605 -0.0671981 0.235502 
0.0337918 -0.0679915 0.23943 
0.0512428 -0.0557488 0.227711 
0.0476582 -0.065296 0.226087 
0.0476582 -0.0694765 0.221417 
0.0512428 -0.0600943 0.224615 
0.0476582 -0.0607182 0.229954 
0.04351 -0.0662948 0.23103 
0.04351 -0.0708866 0.226296 
0.0512428 -0.0642203 0.220762 
0.0512428 -0.0679578 0.216161 
0.0565675 -0.0553762 0.216373 
0.0565675 -0.0530246 0.217904 
0.0542191 -0.0555653 0.22213 
0.0542191 -0.0594375 0.218993 
0.0582863 -0.0529841 0.212138 
0.0542191 -0.0663583 0.210626 
0.0542191 -0.0630875 0.215155 
0.0593966 -0.0613692 0.193365 
0.0565675 -0.0669709 0.199897 
0.0565675 -0.0685729 0.194421 
0.0582863 -0.0648332 0.194244 
0.04351 -0.0812551 0.187555 
0.0388605 -0.0841834 0.19094 
0.0542191 -0.0726954 0.187638 
0.0512428 -0.0756265 0.186 
-0.0341094 -0.0869238 0.200847 
-0.0391553 -0.084492 0.197658 
-0.0341094 -0.0866002 0.19375 
-0.0287316 -0.0888055 0.196297 
-0.0287316 -0.0889893 0.203555 
-0.0341094 -0.0862307 0.208114 
-0.0391553 -0.0839967 0.20474 
-0.0514408 -0.0530846 0.228745 
-0.0478921 -0.0558961 0.232702 
-0.0478921 -0.0606774 0.229631 
-0.0566896 -0.0530046 0.217513 
-0.0543796 -0.0530451 0.223213 
-0.0514408 -0.0557202 0.227383 
-0.0543796 -0.0662474 0.21027 
-0.0566896 -0.0618383 0.209 
0.0388605 -0.0562298 0.242381 
0.0388605 -0.0618213 0.239395 
0.04351 -0.056084 0.23793 
0.04351 -0.0531728 0.239211 
0.0388605 -0.0532032 0.24361 
0.0337918 -0.0563579 0.24629 
0.0337918 -0.0622814 0.243334 
0.0565675 -0.0647079 0.204916 
0.0582863 -0.0630358 0.19913 
0.0593966 -0.0595539 0.197667 
0.0337918 -0.0870733 0.201023 
0.0337918 -0.0863693 0.208303 
0.0388605 -0.0826077 0.212016 
0.0512428 -0.0711257 0.210884 
0.0542191 -0.0690808 0.205476 
0.0476582 -0.0788916 0.190285 
-0.0514408 -0.0678515 0.215819 
-0.0478921 -0.0652256 0.225761 
-0.0478921 -0.0693768 0.221096 
-0.0543796 -0.0593922 0.218635 
-0.0543796 -0.0555353 0.221789 
-0.0514408 -0.060051 0.224272 
-0.0514408 -0.0641453 0.220416 
-0.0543796 -0.0630091 0.214794 
-0.0566896 -0.055345 0.216025 
-0.0566896 -0.0587132 0.212826 
0.0582863 -0.0580729 0.207314 
0.0582863 -0.0607342 0.203508 
0.0565675 -0.0619184 0.209369 
0.0582863 -0.0551843 0.210539 
0.0565675 -0.0587596 0.213192 
0.0593966 -0.054993 0.204726 
0.0593966 -0.0573884 0.201457 
0.0512428 -0.0758542 0.192411 
0.0542191 -0.0723343 0.193812 
0.0542191 -0.0711093 0.199819 
0.04351 -0.081923 0.194263 
0.0388605 -0.0846648 0.197861 
0.0388605 -0.0841568 0.204958 
0.0476582 -0.0778541 0.203592 
0.0512428 -0.0751657 0.198828 
0.0476582 -0.0788535 0.196943 
0.04351 -0.0816382 0.201152 
0.04351 -0.0803502 0.208016 
0.0476582 -0.0759019 0.210019 
0.0512428 -0.0735677 0.205051 
-0.06 -0.0509999 0.1985 
-0.06 -0.046 0.1985 
-0.06 0 0.037 
-0.06 0 0.0169999 
0.026033 -0.046 0.252558 
0.0133512 -0.046 0.256996 
0.0133512 -0.0509999 0.256996 
0.026033 -0.0509999 0.252558 
-0.0374094 -0.0509999 0.24541 
-0.0374094 -0.046 0.24541 
-0.026033 -0.046 0.252558 
-0.026033 -0.0509999 0.252558 
0.0374094 0.0469097 0.0169999 
0.0374094 0.0469097 0.037 
0.026033 0.0540581 0.037 
0.026033 0.0540581 0.0169999 
0.06 -0.0509999 0.1985 
0.06 0 0.0169999 
0.06 0 0.037 
0.06 -0.046 0.1985 
-0.0385965 0.0457227 0.037 
-0.0431204 0.0411988 0.037 
-0.0469097 0.0374094 0.0169999 
-0.0374094 0.0469097 0.0169999 
-0.0133512 0.0584956 0.037 
-0.026033 0.0540581 0.037 
-0.026033 0.0540581 0.0169999 
-0.0133512 0.0584956 0.0169999 
0.033156 0.0374254 0 
0.0119657 0.048547 0 
0 0.0499999 0 
0.0467508 -0.0177302 0 
0.041149 -0.0284032 0 
-0.0467508 0.0177302 0 
-0.0496354 0.0060268 0 
0.041149 0.0284032 0 
0.0467508 0.0177302 0 
-0.041149 0.0284032 0 
0.033156 -0.0374254 0 
0.0232361 -0.0442728 0 
0.0496354 0.0060268 0 
-0.0119657 -0.048547 0 
0 -0.0499999 0 
-0.0496354 -0.0060268 0 
-0.0119657 0.048547 0 
0.0496354 -0.0060268 0 
0.0119657 -0.048547 0 
-0.041149 -0.0284032 0 
-0.0467508 -0.0177302 0 
-0.033156 -0.0374254 0 
-0.033156 0.0374254 0 
-0.0232361 -0.0442728 0 
0.0232361 0.0442728 0 
-0.0232361 0.0442728 0 
0.0374094 -0.0509999 0.24541 
0.0469097 -0.0509999 0.235909 
0.0469097 -0.046 0.235909 
0.0374094 -0.046 0.24541 
3 211 537 61 
3 8 316 490 
3 35 15 33 
3 105 546 109 
3 3 16 508 
3 529 525 57 
3 56 525 57 
3 22 521 132 
3 256 540 4 
3 536 537 61 
3 536 60 61 
3 0 5 490 
3 7 24 5 
3 7 0 5 
3 7 24 66 
3 7 8 490 
3 7 0 490 
3 532 211 492 
3 532 523 492 
3 532 211 537 
3 516 519 533 
3 526 511 539 
3 29 526 522 
3 29 526 511 
3 14 35 15 
3 1 316 15 
3 1 38 15 
3 1 38 316 
3 37 8 316 
3 47 11 45 
3 47 10 89 
3 47 10 11 
3 107 12 41 
3 104 105 546 
3 104 107 12 
3 13 87 41 
3 13 12 159 
3 13 12 41 
3 21 123 16 
3 21 58 20 
3 2 244 20 
3 2 21 16 
3 2 21 20 
3 2 16 508 
3 2 244 508 
3 545 546 109 
3 192 133 535 
3 192 531 535 
3 192 531 249 
3 528 133 535 
3 59 60 4 
3 59 62 4 
3 17 3 16 
3 17 18 507 
3 17 507 508 
3 17 3 508 
3 506 529 534 
3 506 137 534 
3 506 529 57 
3 138 121 116 
3 138 121 56 
3 520 137 534 
3 520 22 137 
3 520 22 521 
3 136 22 137 
3 182 545 109 
3 194 62 4 
3 194 256 4 
3 530 256 540 
3 538 540 4 
3 538 60 4 
3 538 536 60 
3 491 26 492 
3 491 5 490 
3 27 24 5 
3 27 491 5 
3 27 491 26 
3 28 24 66 
3 28 29 30 
3 518 519 100 
3 518 504 541 
3 518 100 504 
3 88 10 89 
3 88 10 100 
3 88 519 100 
3 88 516 519 
3 515 516 533 
3 32 70 71 
3 32 74 71 
3 32 74 33 
3 6 522 523 
3 6 29 522 
3 6 523 492 
3 6 26 492 
3 6 25 26 
3 6 28 25 
3 6 28 29 
3 94 318 93 
3 94 34 318 
3 94 34 95 
3 68 77 38 
3 76 74 33 
3 76 15 33 
3 76 38 15 
3 76 77 38 
3 67 7 8 
3 67 37 8 
3 67 7 66 
3 67 68 37 
3 9 78 82 
3 9 152 153 
3 9 79 153 
3 9 79 78 
3 40 496 495 
3 40 152 495 
3 40 9 82 
3 40 9 152 
3 91 164 167 
3 99 102 11 
3 99 10 100 
3 99 10 11 
3 43 11 45 
3 43 102 11 
3 494 12 159 
3 494 104 12 
3 498 318 93 
3 498 499 87 
3 50 51 49 
3 39 13 159 
3 39 50 49 
3 39 50 499 
3 39 13 87 
3 39 499 87 
3 317 34 318 
3 317 34 35 
3 317 14 35 
3 317 316 15 
3 317 14 15 
3 53 123 16 
3 53 54 18 
3 53 17 16 
3 53 17 18 
3 52 54 18 
3 52 506 57 
3 52 18 507 
3 52 506 507 
3 126 121 116 
3 120 121 56 
3 19 244 20 
3 19 58 20 
3 19 244 127 
3 19 58 127 
3 122 21 123 
3 122 21 58 
3 117 244 127 
3 489 212 492 
3 197 290 291 
3 527 521 132 
3 393 60 61 
3 213 59 62 
3 502 503 185 
3 524 56 525 
3 524 138 56 
3 63 136 22 
3 63 22 132 
3 63 399 132 
3 141 530 531 
3 141 531 249 
3 141 530 256 
3 23 28 24 
3 23 28 25 
3 23 25 26 
3 23 27 24 
3 23 27 26 
3 65 28 30 
3 65 28 66 
3 512 511 539 
3 542 515 533 
3 542 512 515 
3 542 512 539 
3 510 73 74 
3 510 73 511 
3 75 29 511 
3 75 29 30 
3 75 73 511 
3 75 65 30 
3 31 95 70 
3 31 32 70 
3 31 32 33 
3 31 34 95 
3 31 35 33 
3 31 34 35 
3 36 37 316 
3 36 68 37 
3 36 38 316 
3 36 68 38 
3 226 79 78 
3 143 128 80 
3 143 128 129 
3 231 78 82 
3 172 175 147 
3 156 157 49 
3 156 39 159 
3 156 39 49 
3 83 40 82 
3 83 40 496 
3 84 108 46 
3 84 107 41 
3 84 108 107 
3 86 87 41 
3 86 84 41 
3 96 95 70 
3 96 514 70 
3 96 514 97 
3 165 166 97 
3 48 47 89 
3 48 91 89 
3 42 91 164 
3 42 84 46 
3 42 84 164 
3 42 48 46 
3 42 48 91 
3 179 503 185 
3 101 503 102 
3 101 100 504 
3 101 503 504 
3 106 43 45 
3 106 108 45 
3 110 105 109 
3 110 106 105 
3 110 106 43 
3 110 43 102 
3 44 108 45 
3 44 108 46 
3 44 47 45 
3 44 48 46 
3 44 48 47 
3 493 104 546 
3 493 494 104 
3 493 234 546 
3 493 234 496 
3 112 51 80 
3 112 128 80 
3 112 128 170 
3 112 51 113 
3 81 157 49 
3 81 51 49 
3 81 51 80 
3 500 50 499 
3 500 51 113 
3 500 50 51 
3 114 175 147 
3 55 52 57 
3 55 52 54 
3 119 53 123 
3 119 53 54 
3 119 55 54 
3 119 120 56 
3 119 56 57 
3 119 55 57 
3 125 58 127 
3 125 122 58 
3 125 122 121 
3 125 126 121 
3 191 314 380 
3 191 314 315 
3 257 141 256 
3 272 266 201 
3 207 192 133 
3 207 208 192 
3 250 208 192 
3 250 208 251 
3 134 527 132 
3 134 527 528 
3 134 528 133 
3 280 59 60 
3 280 393 60 
3 280 213 59 
3 392 211 61 
3 392 393 61 
3 209 194 62 
3 209 213 62 
3 115 138 116 
3 501 504 541 
3 501 115 138 
3 501 115 502 
3 394 244 508 
3 505 394 508 
3 505 394 474 
3 505 218 506 
3 139 215 420 
3 139 505 215 
3 140 63 136 
3 140 217 136 
3 397 63 399 
3 397 140 63 
3 363 141 249 
3 64 65 66 
3 64 67 66 
3 64 67 68 
3 64 68 77 
3 64 75 77 
3 64 75 65 
3 69 512 71 
3 69 514 515 
3 69 512 515 
3 69 70 71 
3 69 514 70 
3 509 74 71 
3 509 510 74 
3 509 512 71 
3 72 73 74 
3 72 75 73 
3 72 76 74 
3 72 76 77 
3 72 75 77 
3 225 226 79 
3 225 227 129 
3 293 226 78 
3 293 231 78 
3 142 79 153 
3 142 225 79 
3 142 143 129 
3 142 225 129 
3 144 143 80 
3 144 81 80 
3 144 81 157 
3 301 231 82 
3 301 83 82 
3 171 172 147 
3 160 151 157 
3 302 83 496 
3 302 301 83 
3 163 84 164 
3 163 86 84 
3 85 86 87 
3 85 163 86 
3 85 498 93 
3 85 498 87 
3 85 165 93 
3 85 163 165 
3 90 88 89 
3 90 88 516 
3 90 91 89 
3 513 514 97 
3 513 166 97 
3 513 90 516 
3 513 166 167 
3 513 91 167 
3 513 90 91 
3 92 165 93 
3 92 94 93 
3 92 94 95 
3 92 96 95 
3 92 96 97 
3 92 165 97 
3 111 503 102 
3 111 179 503 
3 111 110 102 
3 98 99 100 
3 98 101 100 
3 98 99 102 
3 98 101 102 
3 103 104 105 
3 103 106 105 
3 103 104 107 
3 103 108 107 
3 103 106 108 
3 180 182 109 
3 180 110 109 
3 180 111 179 
3 180 111 110 
3 169 112 170 
3 169 112 113 
3 176 500 113 
3 176 172 175 
3 176 169 113 
3 176 169 172 
3 205 114 204 
3 148 114 147 
3 148 149 130 
3 148 205 130 
3 148 205 114 
3 174 114 175 
3 174 114 204 
3 174 497 204 
3 178 498 318 
3 178 497 498 
3 178 497 204 
3 184 115 502 
3 184 126 116 
3 184 115 116 
3 236 117 127 
3 236 117 244 
3 236 245 244 
3 236 245 241 
3 118 119 120 
3 118 120 121 
3 118 122 121 
3 118 122 123 
3 118 119 123 
3 124 125 126 
3 124 184 126 
3 124 184 237 
3 124 236 237 
3 124 125 127 
3 124 236 127 
3 410 332 409 
3 378 281 285 
3 378 281 269 
3 386 387 489 
3 187 387 489 
3 189 489 490 
3 189 316 490 
3 189 315 316 
3 189 191 315 
3 190 379 269 
3 325 330 222 
3 325 330 331 
3 193 248 323 
3 193 197 290 
3 193 196 197 
3 193 196 248 
3 259 194 256 
3 343 141 344 
3 343 257 141 
3 195 128 170 
3 195 308 170 
3 195 128 129 
3 195 227 129 
3 198 197 291 
3 198 262 351 
3 229 198 262 
3 267 266 201 
3 370 272 266 
3 202 200 201 
3 202 272 201 
3 258 371 372 
3 276 258 203 
3 284 276 203 
3 436 437 130 
3 436 205 130 
3 374 149 130 
3 374 437 130 
3 145 202 200 
3 145 202 375 
3 145 374 375 
3 145 374 149 
3 131 424 133 
3 425 131 424 
3 425 207 133 
3 425 131 133 
3 311 134 312 
3 311 399 132 
3 311 134 132 
3 313 424 133 
3 313 134 133 
3 313 134 312 
3 391 489 212 
3 391 386 489 
3 135 136 137 
3 135 217 136 
3 135 506 137 
3 135 218 506 
3 135 217 218 
3 517 501 541 
3 517 524 138 
3 517 501 138 
3 246 394 244 
3 214 505 215 
3 247 139 420 
3 219 217 221 
3 219 247 221 
3 219 247 139 
3 219 139 505 
3 220 397 140 
3 220 217 221 
3 220 140 217 
3 362 141 344 
3 362 363 141 
3 294 293 231 
3 292 293 226 
3 154 142 143 
3 154 144 143 
3 154 142 153 
3 154 151 157 
3 154 144 157 
3 232 230 222 
3 232 330 222 
3 232 299 230 
3 232 299 403 
3 402 332 409 
3 402 401 409 
3 309 171 233 
3 150 145 149 
3 150 145 200 
3 150 265 233 
3 150 265 200 
3 146 171 147 
3 146 148 147 
3 146 148 149 
3 146 150 149 
3 146 171 233 
3 146 150 233 
3 161 160 151 
3 161 152 153 
3 161 152 495 
3 161 154 153 
3 161 154 151 
3 155 160 159 
3 155 156 159 
3 155 156 157 
3 155 160 157 
3 158 494 495 
3 158 494 159 
3 158 160 159 
3 158 161 495 
3 158 161 160 
3 310 234 496 
3 310 302 496 
3 310 302 448 
3 162 163 164 
3 162 163 165 
3 162 165 166 
3 162 164 167 
3 162 166 167 
3 168 169 170 
3 168 309 171 
3 168 171 172 
3 168 169 172 
3 168 308 170 
3 168 309 308 
3 173 174 175 
3 173 174 497 
3 173 497 500 
3 173 176 175 
3 173 176 500 
3 177 319 318 
3 177 178 318 
3 177 319 204 
3 177 178 204 
3 181 238 185 
3 181 179 185 
3 181 180 179 
3 181 180 182 
3 239 181 182 
3 239 181 238 
3 239 245 240 
3 239 182 545 
3 239 245 545 
3 183 238 237 
3 183 184 237 
3 183 238 185 
3 183 502 185 
3 183 184 502 
3 295 245 545 
3 295 544 545 
3 295 243 245 
3 295 243 242 
3 295 404 242 
3 287 247 221 
3 467 314 380 
3 186 281 385 
3 186 190 489 
3 186 281 269 
3 186 190 269 
3 186 187 489 
3 186 387 385 
3 186 187 387 
3 188 189 489 
3 188 190 489 
3 188 189 191 
3 188 191 380 
3 188 379 380 
3 188 190 379 
3 360 358 336 
3 360 196 359 
3 360 248 336 
3 360 196 248 
3 335 250 192 
3 335 192 249 
3 223 325 323 
3 223 193 323 
3 223 193 290 
3 223 325 222 
3 328 410 332 
3 252 254 337 
3 252 453 251 
3 454 252 254 
3 454 252 453 
3 345 257 256 
3 260 209 194 
3 260 259 194 
3 260 209 277 
3 307 195 227 
3 307 229 227 
3 307 195 308 
3 199 196 197 
3 199 198 197 
3 199 198 351 
3 199 196 359 
3 306 229 262 
3 306 307 229 
3 228 198 291 
3 228 229 198 
3 228 292 291 
3 353 199 351 
3 353 199 359 
3 348 349 268 
3 264 200 201 
3 264 265 200 
3 264 267 268 
3 264 267 201 
3 369 267 266 
3 459 274 376 
3 273 203 376 
3 273 274 376 
3 273 258 203 
3 273 258 372 
3 271 202 272 
3 271 202 375 
3 377 203 376 
3 377 284 203 
3 377 378 285 
3 377 284 285 
3 320 319 204 
3 320 205 204 
3 320 436 205 
3 206 425 207 
3 206 208 251 
3 206 207 208 
3 206 453 251 
3 206 453 480 
3 206 425 480 
3 275 209 277 
3 275 209 213 
3 210 392 211 
3 210 391 392 
3 210 211 492 
3 210 212 492 
3 210 391 212 
3 383 278 283 
3 279 278 283 
3 279 275 283 
3 279 280 213 
3 279 275 213 
3 452 214 505 
3 452 215 420 
3 452 214 215 
3 216 217 218 
3 216 219 217 
3 216 505 218 
3 216 219 505 
3 396 220 221 
3 396 220 397 
3 396 287 221 
3 289 230 222 
3 289 294 230 
3 289 223 222 
3 289 223 290 
3 224 225 226 
3 224 292 226 
3 224 225 227 
3 224 228 292 
3 224 229 227 
3 224 228 229 
3 297 295 404 
3 415 404 242 
3 300 299 230 
3 300 294 230 
3 300 294 231 
3 300 301 231 
3 449 299 403 
3 329 232 330 
3 329 232 403 
3 329 402 332 
3 329 402 403 
3 304 265 233 
3 304 309 233 
3 543 234 546 
3 543 310 234 
3 543 446 544 
3 235 236 237 
3 235 238 237 
3 235 239 238 
3 235 239 240 
3 235 236 241 
3 235 245 240 
3 235 245 241 
3 414 415 242 
3 414 243 242 
3 414 246 244 
3 414 243 245 
3 414 245 244 
3 417 246 394 
3 417 414 246 
3 423 247 420 
3 423 287 247 
3 423 287 422 
3 427 313 312 
3 487 342 456 
3 322 324 254 
3 322 248 323 
3 322 254 337 
3 322 337 336 
3 322 248 336 
3 327 324 331 
3 327 328 341 
3 355 361 363 
3 355 356 249 
3 355 363 249 
3 365 362 344 
3 338 356 249 
3 338 335 249 
3 338 358 356 
3 334 250 251 
3 334 335 250 
3 334 252 251 
3 334 252 337 
3 340 328 341 
3 340 328 410 
3 340 406 410 
3 340 406 342 
3 253 324 254 
3 253 454 254 
3 253 454 455 
3 253 327 324 
3 253 341 455 
3 253 327 341 
3 255 259 256 
3 255 345 256 
3 255 345 259 
3 430 343 257 
3 430 345 257 
3 261 260 277 
3 261 258 371 
3 261 276 277 
3 261 276 258 
3 346 345 259 
3 346 260 259 
3 346 261 371 
3 346 261 260 
3 350 306 262 
3 350 262 351 
3 350 349 305 
3 350 306 305 
3 357 355 361 
3 357 353 359 
3 352 367 348 
3 352 367 361 
3 352 357 361 
3 352 357 353 
3 263 264 268 
3 263 349 268 
3 263 349 305 
3 263 304 305 
3 263 264 265 
3 263 304 265 
3 433 370 266 
3 433 369 266 
3 433 369 432 
3 366 267 268 
3 366 369 267 
3 366 348 268 
3 366 367 348 
3 461 459 274 
3 461 271 375 
3 461 271 274 
3 442 378 269 
3 442 379 269 
3 270 271 272 
3 270 273 372 
3 270 273 274 
3 270 271 274 
3 270 370 372 
3 270 370 272 
3 286 275 283 
3 286 284 276 
3 286 276 277 
3 286 275 277 
3 382 391 386 
3 382 390 391 
3 382 390 278 
3 382 383 278 
3 389 390 278 
3 389 279 278 
3 389 280 393 
3 389 279 280 
3 384 281 285 
3 384 281 385 
3 282 383 283 
3 282 284 285 
3 282 384 285 
3 282 384 383 
3 282 286 284 
3 282 286 283 
3 475 505 474 
3 475 452 505 
3 398 477 422 
3 398 477 426 
3 398 287 422 
3 398 396 287 
3 288 289 290 
3 288 290 291 
3 288 292 291 
3 288 292 293 
3 288 294 293 
3 288 289 294 
3 296 446 544 
3 296 295 544 
3 296 297 295 
3 445 297 401 
3 445 296 446 
3 445 296 297 
3 408 401 409 
3 408 297 401 
3 408 297 404 
3 298 449 299 
3 298 300 301 
3 298 300 299 
3 298 302 301 
3 298 302 448 
3 298 449 448 
3 303 304 305 
3 303 306 305 
3 303 306 307 
3 303 307 308 
3 303 309 308 
3 303 304 309 
3 447 310 448 
3 447 543 310 
3 447 543 446 
3 457 418 456 
3 450 457 418 
3 400 311 312 
3 400 427 312 
3 400 311 399 
3 400 427 426 
3 458 313 424 
3 458 427 313 
3 412 342 456 
3 412 406 342 
3 412 406 411 
3 412 418 456 
3 438 314 315 
3 438 467 314 
3 438 315 316 
3 438 317 316 
3 438 373 317 
3 435 373 317 
3 435 317 318 
3 435 319 318 
3 435 320 319 
3 435 320 436 
3 321 322 323 
3 321 322 324 
3 321 325 323 
3 321 325 331 
3 321 324 331 
3 326 327 328 
3 326 329 330 
3 326 330 331 
3 326 327 331 
3 326 328 332 
3 326 329 332 
3 333 334 335 
3 333 358 336 
3 333 337 336 
3 333 334 337 
3 333 338 358 
3 333 338 335 
3 339 340 341 
3 339 486 487 
3 339 487 342 
3 339 340 342 
3 339 341 455 
3 339 486 455 
3 431 430 343 
3 431 343 344 
3 431 365 344 
3 431 365 432 
3 429 430 345 
3 429 346 345 
3 429 346 371 
3 347 348 349 
3 347 350 349 
3 347 350 351 
3 347 352 348 
3 347 353 351 
3 347 352 353 
3 354 355 356 
3 354 357 355 
3 354 358 356 
3 354 357 359 
3 354 360 359 
3 354 360 358 
3 368 367 361 
3 368 365 362 
3 368 362 363 
3 368 361 363 
3 364 365 432 
3 364 366 367 
3 364 368 365 
3 364 368 367 
3 364 369 432 
3 364 366 369 
3 434 433 370 
3 434 371 372 
3 434 370 372 
3 434 429 371 
3 439 438 373 
3 439 435 373 
3 460 464 437 
3 460 374 437 
3 460 374 375 
3 460 461 375 
3 441 459 376 
3 441 377 376 
3 441 377 378 
3 441 442 378 
3 468 379 380 
3 468 442 379 
3 468 467 380 
3 381 382 383 
3 381 384 385 
3 381 384 383 
3 381 382 386 
3 381 387 385 
3 381 386 387 
3 388 389 390 
3 388 391 392 
3 388 390 391 
3 388 392 393 
3 388 389 393 
3 472 394 474 
3 472 417 394 
3 395 396 397 
3 395 398 396 
3 395 397 399 
3 395 398 426 
3 395 400 399 
3 395 400 426 
3 444 445 401 
3 444 402 401 
3 444 402 403 
3 444 449 403 
3 407 408 404 
3 407 416 411 
3 407 415 404 
3 407 416 415 
3 405 406 411 
3 405 407 411 
3 405 407 408 
3 405 408 409 
3 405 410 409 
3 405 406 410 
3 419 416 473 
3 419 416 411 
3 419 412 411 
3 419 412 418 
3 413 414 415 
3 413 416 415 
3 413 416 473 
3 413 472 473 
3 413 417 414 
3 413 472 417 
3 478 477 422 
3 471 450 418 
3 471 419 473 
3 471 419 418 
3 451 452 420 
3 451 423 420 
3 421 450 457 
3 421 478 422 
3 421 478 457 
3 421 451 450 
3 421 423 422 
3 421 451 423 
3 479 458 424 
3 479 425 424 
3 479 425 480 
3 476 477 426 
3 476 427 426 
3 476 458 427 
3 428 429 430 
3 428 431 432 
3 428 431 430 
3 428 433 432 
3 428 434 433 
3 428 434 429 
3 440 439 435 
3 440 435 436 
3 440 436 437 
3 440 464 437 
3 463 438 467 
3 463 439 438 
3 463 440 464 
3 463 440 439 
3 466 441 459 
3 466 441 442 
3 466 468 442 
3 443 444 445 
3 443 445 446 
3 443 447 446 
3 443 447 448 
3 443 449 448 
3 443 444 449 
3 470 471 450 
3 470 451 450 
3 470 475 452 
3 470 451 452 
3 481 453 480 
3 481 454 453 
3 481 454 455 
3 481 486 455 
3 488 487 456 
3 488 457 456 
3 488 478 457 
3 484 479 458 
3 484 476 458 
3 465 466 459 
3 465 460 464 
3 465 461 459 
3 465 460 461 
3 462 463 464 
3 462 465 464 
3 462 465 466 
3 462 463 467 
3 462 468 467 
3 462 466 468 
3 469 470 471 
3 469 472 473 
3 469 471 473 
3 469 472 474 
3 469 475 474 
3 469 470 475 
3 483 476 477 
3 483 478 477 
3 483 488 478 
3 483 484 476 
3 485 484 479 
3 485 479 480 
3 485 481 480 
3 485 481 486 
3 482 483 484 
3 482 485 486 
3 482 485 484 
3 482 486 487 
3 482 488 487 
3 482 483 488 
3 489 491 490 
3 489 491 492 
3 493 494 495 
3 493 496 495 
3 497 498 499 
3 497 500 499 
3 501 502 503 
3 501 503 504 
3 505 506 507 
3 505 507 508 
3 509 510 511 
3 509 512 511 
3 513 514 515 
3 513 515 516 
3 517 518 519 
3 517 520 521 
3 517 522 523 
3 517 524 525 
3 517 526 522 
3 517 527 528 
3 517 529 525 
3 517 530 531 
3 517 532 523 
3 517 519 533 
3 517 529 534 
3 517 531 535 
3 517 536 537 
3 517 532 537 
3 517 538 536 
3 517 526 539 
3 517 528 535 
3 517 520 534 
3 517 530 540 
3 517 538 540 
3 517 518 541 
3 517 527 521 
3 517 542 533 
3 517 542 539 
3 543 544 545 
3 543 545 546 
