ply
format ascii 1.0
comment VCGLIB generated
element vertex 800
property float x
property float y
property float z
element face 0
property list uchar int vertex_indices
end_header
0.000157948 -0.0718189 -0.0306515 
-6.38704e-10 0.00730592 -0.0710568 
0.0702492 -0.00271188 0.0109046 
0.000157949 -0.0751498 -0.0233788 
-0.047098 0.017258 -0.051664 
-0.0410546 0.00730592 -0.0579964 
-0.0478705 0.00730592 -0.0525116 
-0.0404217 0.0455 -0.0443405 
0.0682914 0.017258 -0.0149559 
0.0696117 0.017258 -0.00645041 
0.0707537 0.00730593 -0.00655627 
0.00676191 -0.0495017 -0.0546077 
0.0198773 -0.0495017 -0.0513091 
0.0134212 -0.0495017 -0.0533631 
-0.0329063 -0.0573861 -0.0360964 
-0.00787233 -0.0672291 -0.0371841 
-0.00787233 -0.0713971 -0.030426 
0.000157618 -0.0573861 -0.0488347 
5.01685e-09 -0.0573861 -0.0488443 
-0.0391906 -0.0224495 -0.0553629 
-0.0252906 -0.0126715 -0.0652829 
-0.0331214 -0.0126715 -0.0616801 
-0.0256808 -0.00271189 -0.0662899 
-0.0336323 -0.00271189 -0.0626316 
2.37081e-10 -0.00271189 -0.0710905 
-0.00873202 0.00730592 -0.0705182 
-0.00859105 0.017258 -0.06938 
-0.0256687 0.00730592 -0.0662584 
-0.0336165 0.00730592 -0.0626019 
-0.0173316 0.00730592 -0.0689107 
-0.0170519 0.017258 -0.0677984 
-0.0403921 0.017258 -0.0570602 
-0.0330739 0.017258 -0.0615914 
-0.0252542 0.017258 -0.065189 
0.0699774 -0.0126715 0.0021559 
0.0710568 -0.00271188 0.00218916 
0.0691821 -0.0126715 0.0107389 
0.0670277 -0.0224495 0.0104045 
0.067338 -0.0126715 0.0191591 
0.000157949 -0.0775622 -0.0157524 
0.00818581 -0.078506 -0.00782454 
-0.0543738 -0.0495017 0.00844031 
0.0389786 -0.0573861 0.0294352 
0.0378536 -0.0610213 0.0250568 
0.0531663 -0.0126715 -0.0455501 
0.0331214 -0.0126715 -0.0616801 
0.0160882 -0.0756001 -0.0152622 
0.0160882 -0.0770121 -0.00764191 
0.00818581 -0.0770603 -0.0156269 
0.00818581 -0.0713627 -0.0304074 
0.00818581 -0.0746671 -0.0231929 
0.0160882 -0.0732628 -0.0226517 
0.0378536 -0.0657265 0.0129591 
0.00818581 -0.0712714 0.0305776 
0.0237443 -0.0731599 0.0148395 
0.0378536 -0.0637469 0.0191528 
0.0237443 -0.0677721 0.0286929 
0.0310367 -0.0647818 0.0270823 
0.0310367 -0.0677276 0.0207011 
0.0237443 -0.070893 0.0219323 
0.0160882 -0.0699464 0.029864 
0.0490401 -0.0319247 -0.0420149 
0.0565435 -0.0224495 -0.0374672 
0.0630821 -0.0319247 -0.0138152 
-0.0537097 0.0455 -0.0267442 
-0.0699774 -0.0126715 0.0021559 
-0.0694446 -0.0027119 -0.0152086 
-0.0670175 0.00730591 -0.0236161 
-0.059233 0.00730592 -0.0392493 
-0.0636074 0.00730591 -0.0316726 
-0.0539608 0.00730592 -0.0462308 
-0.0404503 -0.0126715 -0.0571424 
-0.0410741 -0.00271189 -0.0580238 
-0.0478933 -0.00271189 -0.0525364 
-0.0549989 -0.0495017 0.0016945 
-0.0600337 -0.0409794 -0.0055629 
-0.0547901 -0.0495017 -0.005077 
-1.50874e-09 0.017258 -0.0699099 
-0.0500161 0.0455 -0.0331419 
0.00737327 0.0455 -0.059545 
-0.00737327 0.0455 -0.059545 
-0.0176446 -0.0573861 -0.0455461 
0.0500161 0.0455 -0.0331419 
0.0537097 0.0455 -0.0267442 
0.0404217 0.0455 -0.0443405 
0.0659359 0.017258 -0.0232348 
0.0605702 0.0270211 -0.0301603 
0.0564048 0.0270211 -0.0373752 
0.0625808 0.017258 -0.0311614 
0.00818581 -0.0622335 -0.0433531 
0.0119137 -0.0573861 -0.0473692 
0.00600237 -0.0573861 -0.0484742 
0.000157947 -0.0626166 -0.0437009 
0.000157948 -0.06762 -0.0374599 
0.00818581 -0.0671972 -0.0371616 
0.0233278 -0.0319247 -0.0602163 
0.0217795 -0.0409794 -0.0562196 
0.0245032 -0.0224495 -0.0632501 
0.0165446 -0.0224495 -0.0657818 
0.0457851 -0.0409794 -0.0392264 
0.0515108 -0.0224495 -0.0441316 
0.0176446 -0.0573861 -0.0455461 
0.026032 -0.0495017 -0.0484776 
-0.0157819 -0.0611768 -0.0423932 
-0.00787233 -0.0747035 -0.0232068 
-0.00787233 -0.0770981 -0.0156364 
-0.0157819 -0.0756752 -0.0152811 
-0.0078643 -0.0573861 -0.0481262 
-0.0119137 -0.0573861 -0.0473692 
-0.00787233 -0.0622625 -0.0433792 
0.0336165 0.00730592 -0.0626019 
0.0336323 -0.00271189 -0.0626316 
0.0252906 -0.0126715 -0.0652829 
-0.0320901 -0.0224495 -0.0597594 
-0.0245032 -0.0224495 -0.0632501 
-0.0348346 -0.0409794 -0.0492092 
-0.0373109 -0.0319247 -0.0527077 
-0.0217795 -0.0409794 -0.0562196 
-0.0233278 -0.0319247 -0.0602163 
-0.030551 -0.0319247 -0.0568932 
-0.0285233 -0.0409794 -0.0531169 
-0.0198773 -0.0495017 -0.0513091 
-0.00873619 -0.00271189 -0.0705516 
-0.0173399 -0.00271189 -0.0689434 
-0.0283855 0.0455 -0.0528606 
-0.0346663 0.0455 -0.0489718 
-0.0371779 0.0364741 -0.0525197 
-0.0390944 0.0270211 -0.0552272 
0.0675411 -0.0224495 -0.00625855 
0.0643017 -0.0319247 -0.00595838 
0.0645466 -0.0319247 0.00198853 
0.0677983 -0.0224495 0.00208878 
0.0662601 -0.0224495 -0.0145111 
0.069712 -0.0126715 -0.00645965 
0.0707873 -0.00271188 -0.00655931 
0.063813 -0.0319247 0.00990552 
0.0423005 -0.0573861 0.0244221 
0.0476529 -0.0495017 0.0275125 
0.0654676 -0.00271188 0.02771 
0.0698767 0.017258 0.00215286 
0.0710231 0.00730593 0.00218815 
0.0378536 -0.0575913 0.0305813 
0.0237443 -0.0591694 0.0408146 
0.0257133 -0.0573861 0.0415284 
0.0160882 -0.0658584 0.0364482 
0.0237443 -0.0638444 0.035019 
0.0289669 -0.0495017 0.046783 
0.0101107 -0.0495017 0.0540879 
-0.0157819 -0.0610496 0.0425329 
-0.0204149 -0.0573861 0.0443734 
-0.0157725 -0.0573861 0.046172 
-0.0482664 -0.0573861 0.00749224 
-0.0438582 -0.0610083 0.0117654 
-0.067338 -0.0126715 0.0191591 
-0.0624654 -0.0224495 0.0264392 
-0.0289669 -0.0495017 0.046783 
-0.0257133 -0.0573861 0.0415284 
0.000157948 -0.0675076 0.0376186 
0.00818581 -0.0670857 0.0373194 
0.000157948 -0.0717269 0.0308229 
-0.00787233 -0.0671175 0.0373419 
0.0089751 -0.0573861 0.0480128 
0.00818581 -0.0621035 0.0434958 
-0.00897509 -0.0573861 0.0480128 
-0.00787233 -0.0621323 0.043522 
-0.0148073 -0.0573861 0.0465459 
-0.00787233 -0.0746337 0.0233871 
-0.00787233 -0.0713058 0.0305961 
-0.0234499 -0.0639379 0.0350854 
-0.0157819 -0.0700146 0.0299007 
-0.0157819 -0.0659215 0.0364931 
-0.0234499 -0.0592541 0.0408921 
0.000157949 -0.0790195 -0.00788724 
0.000157949 -0.0794997 9.72624e-05 
0.059233 0.00730593 -0.0392493 
0.0636074 0.00730593 -0.0316726 
0.0582771 0.017258 -0.0386158 
0.0592612 -0.00271188 -0.0392678 
0.0602624 -0.0409794 0.00185662 
0.0310367 -0.069909 -0.0138405 
0.0237443 -0.0732041 -0.0146637 
0.0160882 -0.0700356 -0.0296979 
0.0237443 -0.0678578 -0.0285332 
0.0237443 -0.0709585 -0.0217633 
0.0231079 -0.0573861 -0.0430324 
0.0160882 -0.0611194 -0.0423412 
0.0160882 -0.0659673 -0.0362943 
0.028221 -0.0573861 -0.0398666 
0.0237443 -0.063949 -0.0348711 
0.0237443 -0.0592914 -0.0406809 
0.0237356 -0.0573861 -0.0426439 
0.0310367 -0.0698673 0.0140066 
0.0609062 -0.0319247 -0.0214625 
0.0538316 -0.0319247 -0.0356702 
0.058361 -0.0126715 -0.0386714 
-0.0487769 -0.0573861 6.43606e-05 
-0.0488213 -0.0573861 0.00150412 
-0.0438582 -0.0621012 0.00596368 
-0.0702492 -0.0027119 0.0109046 
-0.0710568 -0.0027119 0.00218916 
-0.0565891 0.0455 -0.0199413 
-0.059744 0.0455 -0.00553608 
-0.0586107 0.0455 -0.0128359 
-0.0640725 0.0364741 -0.00593722 
-0.0599715 0.0455 0.00184768 
-0.0660975 0.0270211 -0.0144756 
-0.0673754 0.0270211 -0.00624317 
-0.0628573 0.0364741 -0.0137659 
-0.0606892 0.0364741 -0.0213859 
-0.0659359 0.017258 -0.0232348 
-0.0638176 0.0270211 -0.0224885 
-0.0486359 -0.0573861 -0.00450683 
-0.048521 -0.0573861 -0.00524831 
-0.0588951 -0.0409794 -0.0128981 
-0.0609062 -0.0319247 -0.0214625 
-0.0630821 -0.0319247 -0.0138152 
-0.0662601 -0.0224495 -0.0145111 
-0.069712 -0.0126715 -0.00645965 
-0.0660308 -0.0126715 -0.0232683 
-0.0670493 -0.0027119 -0.0236273 
-0.0683898 -0.0126715 -0.0149776 
-0.0639746 -0.0224495 -0.0225437 
-0.0636376 -0.0027119 -0.0316876 
-0.0592612 -0.0027119 -0.0392678 
-0.0626709 -0.0126715 -0.0312063 
-0.0430343 -0.0573861 -0.0229659 
-0.0407167 -0.0573861 -0.0269799 
-0.0370926 -0.0573861 -0.0317791 
-0.0370701 -0.0495017 -0.0406638 
-0.0406178 -0.0409794 -0.0445555 
-0.0476374 -0.0573861 -0.0107171 
-0.0477135 -0.0573861 -0.0104493 
-0.0537511 -0.0495017 -0.0117716 
-3.18867e-09 0.0364741 -0.064347 
-0.00790745 0.0364741 -0.0638593 
-3.97774e-09 0.0455 -0.0599999 
0.00790745 0.0364741 -0.0638593 
-0.00831509 0.0270211 -0.0671512 
-2.36226e-09 0.0270211 -0.067664 
0.00831509 0.0270211 -0.0671512 
-0.0455643 0.0455 -0.039037 
3.58253e-09 -0.0409794 -0.0602909 
-0.00676191 -0.0495017 -0.0546077 
-0.00600236 -0.0573861 -0.0484742 
4.32758e-09 -0.0495017 -0.055025 
-0.0134212 -0.0495017 -0.0533631 
-0.00740904 -0.0409794 -0.059834 
-0.0147056 -0.0409794 -0.05847 
0.0478933 -0.00271189 -0.0525364 
0.0471658 -0.0126715 -0.0517385 
0.0539864 -0.00271189 -0.0462526 
0.0410741 -0.00271189 -0.0580238 
0.0539608 0.00730592 -0.0462308 
0.0478705 0.00730592 -0.0525116 
0.0410546 0.00730592 -0.0579964 
0.0638176 0.0270211 -0.0224885 
0.0576011 0.0364741 -0.028682 
0.0488653 0.0364741 -0.0418652 
0.0536397 0.0364741 -0.0355431 
0.0455643 0.0455 -0.039037 
0.0513843 0.0270211 -0.0440235 
0.0530898 0.017258 -0.0454847 
0.047098 0.017258 -0.051664 
0.0283855 0.0455 -0.0528606 
0.00793576 -0.0319247 -0.0640877 
0.0147056 -0.0409794 -0.05847 
0.00740904 -0.0409794 -0.059834 
0.0157512 -0.0319247 -0.0626267 
2.79095e-09 -0.0319247 -0.0645772 
0.00833553 -0.0224495 -0.0673164 
-0.0438582 -0.0592629 -0.0172548 
-0.029326 -0.0573861 -0.0389775 
-0.0157819 -0.0660306 -0.036339 
-0.0157819 -0.0733351 -0.0226793 
-0.0157819 -0.0701039 -0.0297344 
0.0170766 -0.0126715 -0.0678961 
0.00860345 -0.0126715 -0.0694799 
0.00873619 -0.00271189 -0.0705516 
-0.0232447 0.0364741 -0.0600019 
-0.030442 0.0364741 -0.0566906 
-0.0216745 0.0455 -0.0559482 
-0.0146347 0.0455 -0.0581878 
-0.0156951 0.0364741 -0.0624035 
-0.016504 0.0270211 -0.0656204 
-0.024443 0.0270211 -0.0630948 
-0.0320113 0.0270211 -0.0596129 
0.0694446 -0.00271188 -0.0152086 
0.0636376 -0.00271188 -0.0316876 
0.0670175 0.00730593 -0.0236161 
0.0694117 0.00730593 -0.0152013 
0.0481131 -0.0409794 0.0363334 
0.0439109 -0.0495017 0.0331599 
0.062112 -0.0319247 0.0176723 
0.0683767 -0.00271188 0.0194547 
0.0376153 0.0455 0.0467448 
0.0310302 -0.0573861 0.0376813 
0.0310367 -0.0610746 0.0330532 
0.0306216 -0.0573861 0.0380537 
0.0350659 -0.0573861 0.0340022 
0.039503 -0.0495017 0.0383046 
0.0377977 -0.0409794 0.0469714 
0.0344963 -0.0495017 0.0428689 
0.0432836 -0.0409794 0.0419706 
-0.016681 -0.0495017 0.0524355 
-0.0101107 -0.0495017 0.0540879 
-0.0449811 -0.0573861 0.0190389 
-0.0438582 -0.0592108 0.0173889 
-0.0469798 -0.0573861 0.0133668 
-0.0555223 -0.0409794 0.0235005 
-0.0522135 -0.0409794 0.0301455 
-0.0594695 -0.0319247 0.0251712 
-0.062112 -0.0319247 0.0176723 
-0.0579893 -0.0409794 0.0164993 
-0.0529245 -0.0495017 0.0150581 
-0.0506727 -0.0495017 0.0214478 
-0.0476529 -0.0495017 0.0275125 
-0.0645466 -0.0319247 0.00198853 
-0.0602624 -0.0409794 0.00185662 
-0.0595775 -0.0409794 0.00924808 
-0.0643017 -0.0319247 -0.00595838 
-0.0675411 -0.0224495 -0.00625855 
-0.0670277 -0.0224495 0.0104045 
-0.063813 -0.0319247 0.00990552 
-0.0677983 -0.0224495 0.00208878 
-0.0652411 -0.0224495 0.0185626 
-0.0691821 -0.0126715 0.0107389 
-0.0389786 -0.0573861 0.0294352 
-0.0423005 -0.0573861 0.0244221 
-0.0350659 -0.0573861 0.0340022 
-0.0306216 -0.0573861 0.0380537 
-0.0229982 -0.0495017 0.0499882 
0.0160766 -0.0573861 0.0460542 
0.016681 -0.0495017 0.0524355 
0.0229982 -0.0495017 0.0499882 
0.0148073 -0.0573861 0.0465459 
0.0204149 -0.0573861 0.0443734 
0.0160882 -0.0609924 0.0424805 
-0.00787233 -0.077051 0.0158238 
-0.0375965 -0.0671123 0.00659162 
-0.0375965 -0.0659043 0.013004 
-0.00787233 -0.0790214 9.65471e-05 
-0.00787233 -0.078521 0.00802094 
-0.00787233 -0.0785447 -0.00782919 
-0.0157819 -0.077089 -0.00765115 
0.0310367 -0.0677893 -0.0205417 
0.0310367 -0.0648627 -0.0269316 
0.0600337 -0.0409794 -0.0055629 
0.0588951 -0.0409794 -0.0128981 
0.0310177 -0.0573861 -0.0376162 
0.029326 -0.0573861 -0.0389775 
0.0329063 -0.0573861 -0.0360964 
0.0370701 -0.0495017 -0.0406638 
0.057807 -0.0319247 -0.0287845 
0.0378536 -0.063804 -0.0190053 
0.0440908 -0.0590117 0.0173114 
0.0440908 -0.060801 0.0117128 
0.0310367 -0.0716114 8.54607e-05 
0.0378536 -0.0669304 0.00656867 
0.0310367 -0.0711684 0.00709981 
0.0310367 -0.0711894 -0.00693005 
0.0237443 -0.0745608 -0.00734222 
0.0237443 -0.0750078 9.05867e-05 
0.0237443 -0.0745385 0.00752193 
0.0440908 -0.0590634 -0.0171779 
0.0378536 -0.0669498 -0.00641173 
0.0378536 -0.0657651 -0.0128056 
0.0160882 -0.0774774 9.42821e-05 
0.00818581 -0.0789824 9.65471e-05 
0.0160882 -0.0769889 0.00782901 
-0.0707537 0.00730591 -0.00655627 
-0.0707873 -0.0027119 -0.00655931 
-0.0694117 0.00730591 -0.0152013 
-0.0682914 0.017258 -0.0149559 
-0.0683442 0.00730591 0.0194455 
-0.0683767 -0.0027119 0.0194547 
-0.0702159 0.00730591 0.0108995 
-0.0672411 0.017258 0.0191317 
-0.0605436 0.017258 0.034955 
-0.0643804 0.017258 0.0272499 
-0.0438582 -0.0624732 7.18708e-05 
-0.0375965 -0.0675235 7.9381e-05 
-0.0438582 -0.0621188 -0.00582123 
-0.0438582 -0.0610433 -0.0116261 
-0.0539864 -0.00271189 -0.0462526 
-0.0457851 -0.0409794 -0.0392264 
-0.0417862 -0.0495017 -0.0358001 
-0.057807 -0.0319247 -0.0287845 
-0.0492563 -0.0495017 -0.0245267 
-0.0460678 -0.0573861 -0.0162337 
-0.0437238 -0.0573861 -0.0217717 
-0.0518969 -0.0495017 -0.0182876 
-0.0458689 -0.0495017 -0.0303937 
-0.0502586 -0.0409794 -0.0333027 
-0.0539702 -0.0409794 -0.0268739 
-0.0568637 -0.0409794 -0.0200379 
0.0156951 0.0364741 -0.0624035 
0.016504 0.0270211 -0.0656204 
0.0216745 0.0455 -0.0559482 
0.0146347 0.0455 -0.0581878 
-0.0455849 0.0270211 -0.0500044 
-0.0433502 0.0364741 -0.0475531 
-0.0488653 0.0364741 -0.0418652 
-0.0530898 0.017258 -0.0454847 
-0.00833553 -0.0224495 -0.0673164 
-0.00793576 -0.0319247 -0.0640877 
1.9626e-09 -0.0224495 -0.0678306 
-0.0157512 -0.0319247 -0.0626267 
-0.0165446 -0.0224495 -0.0657818 
1.10778e-09 -0.0126715 -0.0700107 
-0.00860345 -0.0126715 -0.0694799 
-0.0170766 -0.0126715 -0.0678961 
0.0628573 0.0364741 -0.0137659 
0.0565891 0.0455 -0.0199413 
0.0586107 0.0455 -0.0128359 
0.0606892 0.0364741 -0.0213859 
0.059744 0.0455 -0.00553608 
0.0640725 0.0364741 -0.00593722 
0.0660975 0.0270211 -0.0144756 
0.0673754 0.0270211 -0.00624317 
0.0346663 0.0455 -0.0489718 
0.0348346 -0.0409794 -0.0492092 
0.0285233 -0.0409794 -0.0531169 
0.031792 -0.0495017 -0.0449113 
0.0406178 -0.0409794 -0.0445555 
0.030551 -0.0319247 -0.0568932 
0.0391906 -0.0224495 -0.0553629 
0.0456971 -0.0224495 -0.0501273 
0.0435054 -0.0319247 -0.0477232 
0.0373109 -0.0319247 -0.0527077 
0.0320901 -0.0224495 -0.0597594 
0.0404503 -0.0126715 -0.0571424 
-0.0375965 -0.0659429 -0.0128499 
-0.0234499 -0.0733154 -0.0146916 
-0.0375965 -0.0671318 -0.00643402 
-0.023445 -0.0573861 -0.0428239 
-0.0234499 -0.0593762 -0.0407579 
-0.0231079 -0.0573861 -0.0430324 
-0.028221 -0.0573861 -0.0398666 
-0.031792 -0.0495017 -0.0449113 
-0.026032 -0.0495017 -0.0484776 
-0.0234499 -0.0679589 -0.0285873 
-0.0375965 -0.0612578 -0.0250039 
-0.0234499 -0.0640427 -0.0349373 
-0.0307587 -0.0612959 -0.0330002 
-0.0375965 -0.0578325 -0.0305579 
0.0173316 0.00730592 -0.0689107 
0.0173399 -0.00271189 -0.0689434 
0.00873202 0.00730592 -0.0705182 
0.0256808 -0.00271189 -0.0662899 
0.0256687 0.00730592 -0.0662584 
0.00859105 0.017258 -0.06938 
0.0170519 0.017258 -0.0677984 
0.0660308 -0.0126715 -0.0232683 
0.0670493 -0.00271188 -0.0236273 
0.0683898 -0.0126715 -0.0149776 
0.0626709 -0.0126715 -0.0312063 
0.0639746 -0.0224495 -0.0225437 
0.0607194 -0.0224495 -0.0302347 
0.0624654 -0.0224495 0.0264392 
0.0652411 -0.0224495 0.0185626 
0.0644732 -0.0126715 0.0272891 
0.0559254 -0.0319247 0.0322886 
0.0594695 -0.0319247 0.0251712 
0.0587429 -0.0224495 0.0339152 
0.0515336 -0.0319247 0.0389163 
0.0522135 -0.0409794 0.0301455 
0.0599715 0.0455 0.00184768 
0.0702159 0.00730593 0.0108995 
0.0683442 0.00730593 0.0194455 
0.0557893 0.017258 0.04213 
0.050189 0.017258 0.0486665 
0.0485768 0.0270211 0.0471031 
0.0486962 -0.0224495 0.047219 
0.0463607 -0.0319247 0.0449542 
0.0541298 -0.0224495 0.0408769 
0.0251992 -0.0409794 0.0547721 
0.031739 -0.0409794 0.0512604 
0.0567045 0.00730593 0.0428211 
0.0558695 -0.0126715 0.0421907 
0.0615368 0.00730593 0.0355284 
0.0615662 -0.00271188 0.0355452 
0.0606309 -0.0126715 0.0350053 
-0.0439109 -0.0495017 0.0331599 
-0.0481131 -0.0409794 0.0363334 
-0.039503 -0.0495017 0.0383046 
-0.0344963 -0.0495017 0.0428689 
-0.0541298 -0.0224495 0.0408769 
-0.0587429 -0.0224495 0.0339152 
-0.0559254 -0.0319247 0.0322886 
-0.0515336 -0.0319247 0.0389163 
-0.0502613 -0.0126715 0.0487368 
-0.0558695 -0.0126715 0.0421907 
-0.0567045 0.00730592 0.0428211 
-0.0438913 -0.0126715 0.0545439 
-0.0307587 -0.064914 0.0271535 
-0.0375965 -0.0611827 0.0251438 
-0.0375965 -0.0639177 0.0192193 
-0.0307587 -0.0678675 0.0207555 
-0.0375965 -0.0577408 0.0306875 
-0.0307587 -0.061197 0.0331402 
-0.0234499 -0.0678731 0.0287473 
0.0378536 -0.0576828 -0.0304522 
0.0310367 -0.0611733 -0.0329137 
0.0370926 -0.0573861 -0.0317791 
0.0417862 -0.0495017 -0.0358001 
0.0492563 -0.0495017 -0.0245267 
0.0518969 -0.0495017 -0.0182876 
0.0568637 -0.0409794 -0.0200379 
0.0539702 -0.0409794 -0.0268739 
0.0502586 -0.0409794 -0.0333027 
0.0430343 -0.0573861 -0.0229659 
0.0458689 -0.0495017 -0.0303937 
0.0407167 -0.0573861 -0.0269799 
0.0437238 -0.0573861 -0.0217717 
0.0378536 -0.0610963 -0.0249175 
0.0529245 -0.0495017 0.0150581 
0.0469798 -0.0573861 0.0133668 
0.0449811 -0.0573861 0.0190389 
0.0506727 -0.0495017 0.0214478 
0.0555223 -0.0409794 0.0235005 
0.0579893 -0.0409794 0.0164993 
0.0595775 -0.0409794 0.00924808 
0.0378536 -0.0673402 7.91426e-05 
0.00818581 -0.0770132 0.0158142 
0.000157949 -0.0775147 0.0159411 
0.000157949 -0.0789956 0.00808042 
0.00818581 -0.0784823 0.00801605 
0.00818581 -0.0745974 0.0233728 
0.000157949 -0.0750795 0.0235605 
0.0160882 -0.0755541 0.0154452 
0.0160882 -0.0731947 0.0228274 
-0.0615662 -0.0027119 0.0355452 
-0.0644732 -0.0126715 0.0272891 
-0.0606309 -0.0126715 0.0350053 
-0.0654676 -0.0027119 0.02771 
-0.0567315 -0.00271189 0.0428416 
-0.0615368 0.00730591 0.0355284 
-0.0654366 0.00730591 0.0276968 
-0.0698767 0.017258 0.00215286 
-0.0696117 0.017258 -0.00645041 
-0.0690826 0.017258 0.0107235 
-0.0710231 0.00730591 0.00218815 
-0.0376153 0.0455 0.0467448 
-0.0430745 0.0455 0.041768 
-0.0557262 0.0364741 0.0321735 
-0.0519615 0.0455 0.0299999 
-0.0478809 0.0455 0.036158 
-0.0513499 0.0364741 0.0387776 
-0.0623121 0.0270211 0.0263743 
-0.0585986 0.0270211 0.033832 
-0.0315859 0.0455 0.0510129 
0.0250776 0.0455 0.0545079 
-0.0592574 0.0364741 0.0250816 
-0.0552543 0.0455 0.0233871 
-0.0577095 0.0455 0.0164196 
-0.0471658 -0.0126715 -0.0517385 
-0.0456971 -0.0224495 -0.0501273 
-0.0531663 -0.0126715 -0.0455501 
-0.0435054 -0.0319247 -0.0477232 
-0.0490401 -0.0319247 -0.0420149 
-0.0564048 0.0270211 -0.0373752 
-0.0513843 0.0270211 -0.0440235 
-0.0582771 0.017258 -0.0386158 
-0.0625808 0.017258 -0.0311614 
-0.0605702 0.0270211 -0.0301603 
-0.0536397 0.0364741 -0.0355431 
-0.0576011 0.0364741 -0.028682 
0.0455849 0.0270211 -0.0500044 
0.0433502 0.0364741 -0.0475531 
0.0371779 0.0364741 -0.0525197 
-0.0307587 -0.0679294 -0.0205957 
-0.0307587 -0.0700547 -0.013877 
-0.0234499 -0.0710655 -0.0218046 
-0.0307587 -0.0649951 -0.0270025 
-0.0375965 -0.063975 -0.0190714 
0.0430745 0.0455 0.041768 
0.0577095 0.0455 0.0164196 
0.0690826 0.017258 0.0107235 
0.0635855 0.0364741 0.00987023 
0.0592899 0.0455 0.00920349 
0.0643165 0.0364741 0.00198156 
0.067632 0.0270211 0.00208366 
0.0668632 0.0270211 0.0103789 
0.0643804 0.017258 0.0272499 
0.0605436 0.017258 0.034955 
0.0672411 0.017258 0.0191317 
0.0654366 0.00730593 0.0276968 
0.0618906 0.0364741 0.0176093 
0.065081 0.0270211 0.018517 
0.040485 -0.0319247 0.0503108 
0.0510367 -0.00271189 0.0494885 
0.0567315 -0.00271189 0.0428416 
0.0502613 -0.0126715 0.0487368 
0.0438913 -0.0126715 0.0545439 
0.0445683 -0.00271189 0.0553852 
0.0510124 0.00730592 0.049465 
0.0445472 0.00730592 0.0553588 
0.0438281 0.017258 0.0544653 
0.0403407 0.0364741 0.0501314 
-0.0445683 -0.00271189 0.0553852 
-0.0510367 -0.00271189 0.0494885 
-0.0510124 0.00730592 0.049465 
-0.0377977 -0.0409794 0.0469714 
-0.031739 -0.0409794 0.0512604 
-0.0432836 -0.0409794 0.0419706 
-0.0463607 -0.0319247 0.0449542 
-0.0486962 -0.0224495 0.047219 
-0.0425244 -0.0224495 0.0528453 
-0.0251992 -0.0409794 0.0547721 
-0.0234499 -0.0732711 0.0148676 
-0.0157819 -0.0756292 0.015464 
-0.0157819 -0.0770658 0.00783867 
-0.0234499 -0.0709999 0.0219737 
-0.0157819 -0.0732669 0.0228555 
-0.0307587 -0.0700128 0.0140434 
-0.0234499 -0.0751225 9.07059e-05 
-0.0307587 -0.0713174 0.00711834 
-0.0307587 -0.0717615 8.56991e-05 
-0.0234499 -0.0746523 0.00753623 
-0.0307587 -0.0713385 -0.00694823 
-0.0234499 -0.0746746 -0.00735611 
-0.0157819 -0.0775549 9.44014e-05 
0.0440908 -0.0618892 0.00593716 
0.0482664 -0.0573861 0.00749224 
0.0549989 -0.0495017 0.0016945 
0.0543738 -0.0495017 0.00844031 
0.0476374 -0.0573861 -0.0107171 
0.0460678 -0.0573861 -0.0162337 
0.0440908 -0.0608358 -0.0115743 
0.0477135 -0.0573861 -0.0104493 
0.0537511 -0.0495017 -0.0117716 
-0.0250776 0.0455 0.0545079 
-0.0338743 0.0364741 0.0547088 
-0.0485768 0.0270211 0.0471031 
-0.0461954 0.0364741 0.0447941 
-0.0403407 0.0364741 0.0501314 
-0.053997 0.0270211 0.0407766 
-0.0557893 0.017258 0.04213 
-0.050189 0.017258 0.0486665 
0.0315859 0.0455 0.0510129 
-0.0635855 0.0364741 0.00987023 
-0.0668632 0.0270211 0.0103789 
-0.065081 0.0270211 0.018517 
-0.0618906 0.0364741 0.0176093 
-0.067632 0.0270211 0.00208366 
-0.0643165 0.0364741 0.00198156 
-0.0592899 0.0455 0.00920349 
-0.0565435 -0.0224495 -0.0374672 
-0.0538316 -0.0319247 -0.0356702 
-0.0607194 -0.0224495 -0.0302347 
-0.0515108 -0.0224495 -0.0441316 
-0.058361 -0.0126715 -0.0386714 
0.0320113 0.0270211 -0.0596129 
0.0403921 0.017258 -0.0570602 
0.0330739 0.017258 -0.0615914 
0.0390944 0.0270211 -0.0552272 
0.0252542 0.017258 -0.065189 
0.024443 0.0270211 -0.0630948 
0.030442 0.0364741 -0.0566906 
0.0232447 0.0364741 -0.0600019 
0.0461954 0.0364741 0.0447941 
0.0425244 -0.0224495 0.0528453 
0.0339954 -0.0319247 0.0549046 
0.0424201 0.0270211 0.0527156 
-0.0438281 0.017258 0.0544653 
-0.0424201 0.0270211 0.0527156 
-0.0445472 0.00730592 0.0553588 
-0.040485 -0.0319247 0.0503108 
0.048521 -0.0573861 -0.00524831 
0.0440908 -0.0619068 -0.00579524 
0.0557262 0.0364741 0.0321735 
0.0478809 0.0455 0.036158 
0.0519615 0.0455 0.0299999 
0.0513499 0.0364741 0.0387776 
0.0552543 0.0455 0.0233871 
0.0592574 0.0364741 0.0250816 
0.0585986 0.0270211 0.033832 
0.0623121 0.0270211 0.0263743 
0.053997 0.0270211 0.0407766 
0.0338743 0.0364741 0.0547088 
-0.0339954 -0.0319247 0.0549046 
0.0487769 -0.0573861 6.43606e-05 
0.0488213 -0.0573861 0.00150412 
0.0440908 -0.0622596 7.15132e-05 
0.0486359 -0.0573861 -0.00450683 
0.0547901 -0.0495017 -0.005077 
-0.00300687 -0.0573861 0.0487518 
-0.00338727 -0.0495017 0.0549206 
0.00338727 -0.0495017 0.0549206 
0.00300689 -0.0573861 0.0487518 
0.000157947 -0.0624854 0.0438446 
-0.0371571 0.0555 0.0334565 
-0.0293893 0.0555 -0.0404508 
-0.0203367 0.0555 -0.0456773 
0.0433012 0.0555 -0.025 
0.0475528 0.0555 -0.0154507 
-4.85196e-09 0.0555 0.05 
0.0103955 0.0555 0.0489072 
0.0203367 0.0555 -0.0456773 
0.0293893 0.0555 -0.0404508 
0.0497259 0.0555 -0.00522637 
0.0497259 0.0555 0.00522643 
0.0371571 0.0555 -0.0334566 
-0.0475528 0.0555 -0.0154507 
-0.0497259 0.0555 -0.00522637 
-0.0371571 0.0555 -0.0334566 
0.0103955 0.0555 -0.0489073 
-4.85196e-09 0.0555 -0.0499999 
-0.0103955 0.0555 -0.0489073 
-0.0203367 0.0555 0.0456772 
-0.0293893 0.0555 0.0404508 
-0.0433012 0.0555 -0.025 
-0.0497259 0.0555 0.00522643 
0.0203367 0.0555 0.0456772 
-0.0103955 0.0555 0.0489072 
-0.0475528 0.0555 0.0154506 
0.0475528 0.0555 0.0154506 
0.0433012 0.0555 0.0249998 
0.0371571 0.0555 0.0334565 
-0.0433012 0.0555 0.0249998 
0.0293893 0.0555 0.0404508 
-0.0302925 -0.0319211 0.057 
-0.00482827 -0.0462282 0.057 
-0.00598597 -0.0460554 0.057 
-0.0100538 -0.0451465 0.057 
-0.0406103 -0.0126684 0.057 
-0.0415514 -0.00901806 0.057 
0.0195454 -0.0409788 0.057 
0.0179903 -0.0419215 0.057 
0.0247875 -0.0373533 0.057 
0.0280684 -0.0343785 0.057 
0.018735 0.0455 0.057 
-0.018735 0.0455 0.057 
0.0424532 -0.00304562 0.057 
0.0417727 -0.00790161 0.057 
0.0103433 -0.0450634 0.057 
0.0106572 -0.0449536 0.057 
-0.0418671 -0.00738203 0.057 
0.0262278 0.0400884 0.057 
0.0292409 0.0371519 0.057 
0.00734192 -0.0458053 0.057 
0.0142338 -0.0437006 0.057 
-0.0367536 -0.0224481 0.057 
-0.0386845 -0.0183344 0.057 
-0.0217107 0.0436476 0.057 
-0.0251942 0.0410048 0.057 
-0.0297894 0.0364704 0.057 
-0.0281425 0.0382936 0.057 
0.0224889 0.0431044 0.057 
0.0259929 0.0403172 0.057 
0.00327992 -0.0464009 0.057 
-0.000778149 -0.0465401 0.057 
0.0216042 -0.0397307 0.057 
0.00351602 -0.0463663 0.057 
0.0303001 -0.0319217 0.057 
0.0310754 -0.0310679 0.057 
-0.0140076 -0.0437928 0.057 
-0.0176542 -0.0421004 0.057 
-0.0181382 -0.0418117 0.057 
-0.0425054 -0.00245678 0.057 
-0.0426872 0.00246948 0.057 
0.041416 0.0136344 0.057 
0.0422586 0.00879598 0.057 
-0.036302 0.0273153 0.057 
-0.0338961 0.031276 0.057 
0.0411186 -0.010913 0.057 
0.042473 0.00682032 0.057 
0.0380464 0.0238038 0.057 
0.0384171 0.0229597 0.057 
-0.0214327 -0.0398463 0.057 
-0.0424724 -0.00271142 0.057 
-0.0397261 0.0195853 0.057 
-0.041104 0.0149601 0.057 
-0.0311701 -0.0309528 0.057 
-0.0339644 -0.0271854 0.057 
-0.0311734 0.0349381 0.057 
-0.0403305 -0.0137531 0.057 
-0.0262356 -0.036051 0.057 
-0.0249845 -0.0371907 0.057 
0.0404357 0.0172547 0.057 
0.0379739 -0.0199748 0.057 
0.0397441 -0.015544 0.057 
0.0426893 0.00186551 0.057 
0.0367117 -0.022444 0.057 
0.035816 -0.0241959 0.057 
0.0424694 -0.00271171 0.057 
-0.042065 0.0101749 0.057 
-0.0262343 0.0400484 0.057 
-0.0353054 -0.0249383 0.057 
0.0338002 -0.0274289 0.057 
0.0401359 0.0183613 0.057 
0.0298478 0.0364736 0.057 
-0.0366141 -0.0227451 0.057 
-0.0424195 0.00738311 0.057 
-0.0280358 -0.034411 0.057 
-0.0379393 0.0240403 0.057 
0.0358792 0.0280744 0.057 
0.0333405 0.0320841 0.057 
0.0304354 0.0358167 0.057 
0.035301 0.0289878 0.057 
