ply
format ascii 1.0
comment VCGLIB generated
element vertex 547
property float x
property float y
property float z
element face 0
property list uchar int vertex_indices
end_header
0.059924 0.00589479 0.085784 
0.0511431 -0.0212091 0.0805718 
-0.0583287 -0.00467385 0.0837672 
-0.05994 0.00619781 0.0858585 
0.0374094 0.0469097 0.0169999 
0.059924 0.00186415 0.0735214 
0.0584956 -0.0133512 0.0169999 
0.0582434 -0.00925362 0.0719854 
0.0582434 -0.00498967 0.0836906 
-0.0118219 0.0633889 0.252817 
-0.00589954 -0.0597093 0.037 
-0.0114403 -0.0583377 0.0459234 
-0.00573844 -0.0511123 0.0707014 
0.00539726 -0.0511412 0.0706953 
0.0475404 -0.0262085 0.0796107 
0.0475404 -0.0309274 0.0689919 
-0.0583287 -0.00893295 0.0720412 
-0.05994 0.00217168 0.0735757 
-0.05994 -0.000643042 0.0609966 
-0.0542997 -0.0156325 0.0816588 
-0.0566289 -0.0101875 0.0827064 
-0.0566289 -0.0145649 0.0712629 
-0.0540581 0.026033 0.0169999 
0.0582434 -0.0139274 0.0478383 
0.0582434 -0.0122325 0.0599503 
0.0584956 -0.0133512 0.037 
0.059924 -0.0025646 0.0483283 
0.059924 -0.000955502 0.0609616 
0.0565057 -0.0196822 0.04759 
0.0540581 -0.026033 0.0169999 
0.0540581 -0.026033 0.037 
0.0387127 -0.0433661 0.057159 
0.0387127 -0.0452968 0.0464853 
0.0433761 -0.0390225 0.0575484 
0.0387127 -0.0399479 0.0677465 
0.0433761 -0.0356656 0.0683376 
0.0541382 -0.0159408 0.0815848 
0.0565057 -0.0105023 0.0826304 
0.0511431 -0.0258208 0.0696971 
0.0133512 0.046 0.256996 
-0.0170915 0.0566198 0.254329 
0.00539726 -0.0535451 0.0658711 
0.00539727 -0.0571578 0.0559239 
-0.0172095 -0.0549048 0.0561273 
-0.00573843 -0.0571283 0.0559273 
-0.0114403 -0.0563111 0.0560009 
-0.000167793 -0.0573992 0.0559026 
-0.00573843 -0.0591615 0.0458876 
-0.000167793 -0.0594348 0.0458758 
0.0133512 0.0509999 0.256996 
0.017278 0.0509999 0.255622 
0.0173844 0.0566106 0.254229 
-0.05994 -0.00224347 0.0483437 
-0.0583287 -0.0119067 0.0599863 
-0.0583287 -0.013593 0.0478542 
-0.0584956 -0.0133512 0.037 
-0.0540581 -0.026033 0.0169999 
-0.0584956 -0.0133512 0.0169999 
-0.0542997 -0.0201264 0.0704942 
0.0543796 0.0706149 0.175281 
0.0469097 0.0374094 0.0169999 
0.0540581 0.026033 0.0169999 
0.0514408 0.0742971 0.179536 
-0.0582863 0.0650453 0.172116 
0.0541382 -0.0235785 0.0589329 
0.0541382 -0.0253596 0.0473452 
0.0565057 -0.0179439 0.059438 
0.0565057 -0.0148845 0.0712076 
0.0541382 -0.0204396 0.0704403 
0.0334507 -0.0493972 0.037 
0.0336328 -0.0491379 0.0463197 
0.0374094 -0.0469097 0.037 
0.0475404 -0.0360781 0.0468827 
0.0469097 -0.0374094 0.037 
0.0433761 -0.0409204 0.046674 
0.0511431 -0.0308592 0.047108 
0.0475404 -0.0342165 0.0579791 
0.0511431 -0.0290368 0.0584434 
-0.0118219 0.0699013 0.248887 
-0.00299038 0.0701081 0.249912 
0.0116147 0.0633855 0.252794 
0.0116147 0.0566595 0.255685 
-0.0170915 0.0632272 0.251431 
-0.0227771 0.0565536 0.252288 
0.00539726 -0.0555513 0.0609316 
0.0226045 -0.0494621 0.0664335 
0.0168597 -0.051419 0.0661637 
0.0168597 -0.0490358 0.0710398 
5.24537e-09 -0.06 0.0169999 
5.24537e-09 -0.06 0.037 
0.0110679 -0.0587529 0.037 
0.00539727 -0.0591918 0.0458862 
0.0282297 -0.0504045 0.0565283 
0.0282297 -0.0468871 0.0667887 
0.0336328 -0.0437067 0.0672276 
0.0336328 -0.0471784 0.0568175 
0.0282297 -0.0523884 0.0461795 
0.0226045 -0.0550199 0.0460661 
-0.0171056 -0.0571819 0.037 
-0.0133512 -0.0584956 0.037 
-0.0133512 -0.0584956 0.0169999 
-0.0228562 -0.0551697 0.037 
-0.0172095 -0.0569205 0.0459844 
-0.0172095 -0.0513241 0.0661801 
-0.0172095 -0.0489415 0.0710594 
-0.0229498 -0.049332 0.066456 
-0.0172095 -0.0533127 0.0611871 
-0.00573844 -0.053516 0.0658761 
-0.00573844 -0.0555221 0.0609356 
-0.0285646 -0.0467217 0.0668171 
-0.0229498 -0.0528842 0.056309 
-0.0229498 -0.054884 0.0460725 
0.0173844 0.0632138 0.251326 
0.0231223 0.0565408 0.252146 
0.0391553 0.0562081 0.242129 
-0.0433949 -0.0409243 0.037 
-0.0469097 -0.0374094 0.037 
-0.0513421 -0.0209129 0.0806427 
-0.0542997 -0.0250333 0.0473605 
-0.0566289 -0.0193491 0.0476059 
-0.0540581 -0.026033 0.037 
-0.0513421 -0.0305459 0.0471226 
-0.0542997 -0.0232604 0.0589676 
-0.0566289 -0.0176193 0.0594738 
-0.0477753 -0.0339292 0.0580104 
-0.0513421 -0.028731 0.0584769 
-0.0477753 -0.0357836 0.0468968 
-0.0513421 -0.0255198 0.0697488 
0.0116147 0.0698954 0.248863 
0.00354605 0.0762998 0.245037 
0.0437764 0.06126 0.234615 
-0.0388605 0.0828161 0.184372 
-0.0469097 0.0374094 0.0169999 
-0.026033 0.0540581 0.0169999 
-0.0374094 0.0469097 0.0169999 
-0.0599324 0.0579524 0.16281 
-0.0593966 0.0614629 0.167416 
-0.0584956 0.0133512 0.0169999 
-0.0469097 -0.0374094 0.0169999 
-0.05994 0.0572583 0.186306 
-0.0593966 0.0628434 0.172751 
0.0133512 0.0584956 0.0169999 
0.00151073 0.0701268 0.250006 
0.00354605 0.0701289 0.250017 
0.00354605 0.0635209 0.25395 
0.0391553 0.0720802 0.230447 
0.0341094 0.0679417 0.2392 
0.0341094 0.0622526 0.243105 
0.0391553 0.0617879 0.239131 
0.0391553 0.0671404 0.235235 
0.0341094 0.0732116 0.23436 
0.00151074 0.0566986 0.25682 
-0.0118219 0.0566641 0.255704 
-0.00299038 0.0635089 0.253845 
0.00151073 0.0635197 0.25394 
0.0014928 0.0509999 0.258332 
0.0115954 0.0509999 0.257194 
0.00354606 0.0566986 0.256832 
-0.0117981 0.0509999 0.257171 
-4.02145e-09 0.046 0.2585 
-4.45855e-09 0.0509999 0.2585 
-0.00299037 0.0566964 0.256727 
0.0168597 -0.0550013 0.0561167 
0.0168597 -0.053408 0.0611737 
0.0110918 -0.056373 0.0559941 
0.0226045 -0.0530164 0.0562945 
0.0168597 -0.0570196 0.0459797 
0.0110918 -0.0584015 0.0459204 
0.0231223 0.0691758 0.245304 
0.0231223 0.0629682 0.249226 
0.0173844 0.0695993 0.247399 
0.0287316 0.0686222 0.242566 
0.0287316 0.0626472 0.246481 
0.0341094 0.0532175 0.247229 
0.0391553 0.0531892 0.243328 
0.0341094 0.0563388 0.246073 
0.0287316 0.0564501 0.249422 
0.0435321 0.0509999 0.239287 
0.0390065 0.0509999 0.243813 
-0.0285646 -0.0522162 0.0461876 
-0.0285646 -0.0502366 0.0565467 
-0.0339509 -0.0469759 0.0568396 
-0.0339509 -0.0435069 0.0672618 
-0.0390082 -0.0450562 0.0464966 
-0.0436435 -0.0406504 0.0466867 
-0.0339509 -0.0489302 0.0463294 
0.059445 0.0594739 0.197299 
0.059924 0.0545888 0.193085 
0.059445 0.0549611 0.204381 
0.0597093 0.0509999 0.204399 
0.059445 0.0573422 0.201093 
0.059445 0.052923 0.206 
-0.0133512 0.0584956 0.0169999 
-0.0118219 0.0893637 0.223993 
0.0478921 0.0777982 0.183581 
0.0116147 0.0759701 0.243898 
-0.00299038 0.0922709 0.217228 
-0.00299038 0.0898805 0.224911 
0.00151073 0.0899272 0.224996 
0.00151073 0.0923231 0.217308 
0.0341094 0.077842 0.228665 
0.0341094 0.0816421 0.222257 
0.0391553 0.0763958 0.224843 
0.0514408 0.0734039 0.204732 
0.0437764 0.0531572 0.238896 
0.0437764 0.0560596 0.237648 
-0.0337918 0.0867557 0.193914 
-0.0337918 0.0855226 0.187159 
-0.0283973 0.0878155 0.189522 
0.0514408 0.0754017 0.185736 
0.0599475 0.0577182 0.162539 
0.0584956 0.0133512 0.0169999 
0.0599993 0.0535688 0.155584 
0.0543796 0.0719535 0.181213 
-0.05994 0.0546206 0.193421 
-0.05994 0.0560573 0.190066 
-0.05994 0.0585593 0.177655 
-0.0599324 0.0596185 0.167879 
-0.0599999 0.0538105 0.155835 
-0.05994 0.0581283 0.182151 
-0.0593966 0.0635033 0.178165 
-0.0593966 0.0634419 0.183501 
-0.0227771 0.0801293 0.234698 
-0.0170915 0.0852898 0.230004 
0.00151073 0.0817866 0.239086 
0.00151073 0.0762969 0.245026 
-0.00299038 0.0762705 0.244934 
0.00354605 0.0817903 0.239097 
0.00151073 0.0863841 0.232338 
0.00354605 0.0863886 0.232349 
-0.0227771 0.0750005 0.240535 
-0.0170915 0.0696224 0.247506 
-0.0283973 0.0742313 0.237872 
0.0287316 0.0741725 0.237683 
-0.0336136 0.0509999 0.247795 
-0.0436435 -0.0354064 0.068382 
-0.0477753 -0.0306447 0.0690404 
-0.0436435 -0.0387591 0.0575771 
-0.0390082 -0.0431313 0.0571846 
-0.0390082 -0.0397168 0.067786 
-0.0436435 -0.0305919 0.0787799 
-0.0477753 -0.02593 0.0796772 
-0.0542191 0.0530643 0.223595 
-0.0540581 0.0509999 0.224533 
-0.0584956 0.046 0.211851 
-0.0540581 0.046 0.224533 
-0.0584956 0.0509999 0.211851 
-0.0593966 0.0627028 0.188611 
-0.0118219 0.0916942 0.216354 
-5.24537e-09 0.06 0.0169999 
-0.0227771 0.0896743 0.191437 
-0.0283973 0.0889348 0.196433 
-0.0283973 0.0891137 0.203701 
-0.0337918 0.0845909 0.215531 
-0.0283973 0.0882434 0.211136 
0.0391553 0.0826356 0.184194 
0.026033 0.0540581 0.0169999 
0.0341094 0.0853665 0.187006 
0.0478921 0.0776776 0.203308 
0.0437764 0.0810538 0.187342 
0.0478921 0.0786805 0.190037 
0.0478921 0.0786579 0.196677 
0.00354605 0.0899324 0.225005 
0.0231223 0.0843201 0.227952 
0.0287316 0.0831189 0.225398 
0.0287316 0.0790705 0.231912 
0.0341094 0.0844658 0.21533 
0.0287316 0.0861667 0.218342 
0.0231223 0.0875502 0.220791 
0.0583706 0.0606534 0.203137 
0.0437764 0.0779281 0.214357 
0.0437764 0.0747527 0.2205 
0.0391553 0.0799033 0.218558 
0.0478921 0.0757481 0.209719 
0.0478921 0.0729394 0.215706 
0.0543796 0.072478 0.187342 
0.0514408 0.0749776 0.198526 
0.0514408 0.0756458 0.192127 
0.0583706 0.0662508 0.183068 
0.0566896 0.0692139 0.182411 
0.0566896 0.0684001 0.176552 
0.0583706 0.0629215 0.198764 
0.0566896 0.068398 0.194081 
0.0566896 0.0692121 0.188313 
0.0543796 0.0709385 0.199486 
0.0566896 0.0668254 0.199543 
0.0543796 0.0721381 0.193496 
-0.0582863 0.066003 0.188952 
-0.0118219 0.0813797 0.238007 
-0.0170915 0.0808764 0.236675 
-0.0118219 0.0858949 0.231293 
-0.00299038 0.0863435 0.232251 
-0.00299038 0.0817528 0.238996 
-0.0118219 0.0759785 0.243922 
-0.0170915 0.0755848 0.242558 
-0.0512428 0.0531029 0.229111 
-0.0476582 0.0531392 0.234349 
-0.0476582 0.0559227 0.23301 
-0.0283973 0.0626712 0.246671 
-0.0283973 0.0686637 0.242758 
-0.0227771 0.0692086 0.245456 
-0.0227771 0.0629872 0.249376 
-0.0283973 0.0564661 0.249603 
0.0173844 0.0808343 0.236573 
0.0231223 0.0800697 0.234553 
0.0173844 0.0852394 0.229907 
0.0116147 0.0858818 0.231272 
0.0116147 0.0813687 0.237984 
0.0173844 0.0755521 0.242454 
0.0231223 0.074954 0.240386 
-0.0337918 0.0532296 0.247473 
-0.0542191 0.0708586 0.175538 
-0.0512428 0.0745308 0.179782 
-0.0476582 0.0780177 0.183812 
0.0583706 0.0529637 0.211744 
0.0584956 0.0509999 0.211851 
0.0584956 0.046 0.211851 
0.0540581 0.046 0.224533 
0.0469097 0.046 0.235909 
0.0469097 0.0509999 0.235909 
0.0478921 0.0531222 0.234005 
-0.0227771 0.0876324 0.220923 
-0.0227771 0.0897626 0.213433 
-0.0170915 0.0886668 0.222757 
-0.0283973 0.0862707 0.218509 
-0.0227771 0.0843918 0.228092 
-0.0337918 0.0779327 0.228887 
-0.0337918 0.081751 0.222469 
-0.0388605 0.0765005 0.225098 
-0.0337918 0.0732822 0.234588 
-0.0283973 0.0791459 0.232096 
-0.0283973 0.0832095 0.225574 
-0.0388605 0.072162 0.23071 
-0.0118219 0.0929475 0.201074 
-0.0227771 0.0907013 0.198476 
-0.0118219 0.0920384 0.193872 
-0.0118219 0.0928703 0.208635 
-0.0227771 0.0907675 0.205873 
-0.00299038 0.0927453 0.194601 
-0.04351 0.0780691 0.214632 
-0.04351 0.07487 0.220786 
-0.0388605 0.0800292 0.218804 
-0.0476582 0.0730673 0.216018 
0.0287316 0.0876858 0.189394 
0.0231223 0.0895718 0.191336 
0.0391553 0.0840037 0.19075 
0.0437764 0.0817294 0.194035 
0.0116147 0.0916778 0.216337 
0.0173844 0.0908525 0.215091 
0.0173844 0.0886089 0.222665 
0.0116147 0.0893487 0.223974 
0.00354605 0.0923289 0.217318 
0.0116147 0.0928531 0.208619 
0.00354605 0.0935616 0.209546 
0.00151073 0.0936797 0.201923 
0.00354605 0.0928176 0.194677 
0.00151073 0.09281 0.194669 
0.00354605 0.0936867 0.201932 
-0.00299038 0.0936186 0.201852 
0.00151073 0.0935552 0.209537 
-0.00299038 0.0934983 0.209461 
0.0116147 0.0929305 0.20106 
0.0173844 0.0910149 0.192821 
0.0116147 0.0920231 0.193859 
0.0231223 0.0906692 0.205757 
0.0231223 0.0905991 0.198368 
0.0231223 0.0896715 0.213309 
0.0173844 0.0919547 0.207442 
0.0173844 0.0919716 0.199953 
0.0287316 0.0881281 0.210979 
0.0391553 0.0824632 0.211784 
0.0437764 0.0814587 0.200907 
0.0437764 0.0801883 0.207755 
0.0540581 0.0509999 0.224533 
0.0437764 0.0662302 0.230732 
0.0437764 0.0707951 0.226002 
0.0514408 0.0709894 0.210551 
0.0543796 0.0689386 0.20513 
0.0566896 0.0645944 0.204552 
0.0583706 0.0580262 0.206946 
0.0583706 0.0551526 0.21019 
0.059445 0.0625575 0.188259 
0.059445 0.0632672 0.183164 
0.0583706 0.0658268 0.18861 
0.0583706 0.0646866 0.193888 
0.059445 0.0612561 0.193002 
0.059924 0.0580174 0.181797 
0.059924 0.0560119 0.189711 
0.059445 0.0626213 0.172452 
0.0583706 0.0659102 0.17742 
0.059445 0.0633028 0.177845 
0.0599475 0.0594012 0.167587 
0.059445 0.0612237 0.167138 
0.0583706 0.0648038 0.171834 
-0.0593966 0.0529439 0.206391 
-0.0565675 0.0694364 0.182713 
-0.0582863 0.066453 0.183391 
-0.0582863 0.0661342 0.177723 
-0.0565675 0.0694129 0.188635 
-0.0565675 0.0686401 0.176832 
-0.0542191 0.0721879 0.181488 
-0.04351 0.0612973 0.234911 
-0.0388605 0.0671981 0.235502 
-0.0337918 0.0679915 0.23943 
-0.0512428 0.0557488 0.227711 
-0.0476582 0.065296 0.226087 
-0.0476582 0.0694765 0.221417 
-0.0512428 0.0600943 0.224615 
-0.0476582 0.0607182 0.229954 
-0.04351 0.0662948 0.23103 
-0.04351 0.0708866 0.226296 
-0.0512428 0.0642203 0.220762 
-0.0512428 0.0679578 0.216161 
-0.0565675 0.0553762 0.216373 
-0.0565675 0.0530246 0.217904 
-0.0542191 0.0555653 0.22213 
-0.0542191 0.0594375 0.218993 
-0.0582863 0.0529841 0.212138 
-0.0542191 0.0663583 0.210626 
-0.0542191 0.0630875 0.215155 
-0.0593966 0.0613692 0.193365 
-0.0565675 0.0669709 0.199897 
-0.0565675 0.0685729 0.194421 
-0.0582863 0.0648332 0.194244 
-0.04351 0.0812551 0.187555 
-0.0388605 0.0841834 0.19094 
-0.0542191 0.0726954 0.187638 
-0.0512428 0.0756265 0.186 
0.0341094 0.0869238 0.200847 
0.0391553 0.084492 0.197658 
0.0341094 0.0866002 0.19375 
0.0287316 0.0888055 0.196297 
0.0287316 0.0889893 0.203555 
0.0341094 0.0862307 0.208114 
0.0391553 0.0839967 0.20474 
0.0514408 0.0530846 0.228745 
0.0478921 0.0558961 0.232702 
0.0478921 0.0606774 0.229631 
0.0566896 0.0530046 0.217513 
0.0543796 0.0530451 0.223213 
0.0514408 0.0557202 0.227383 
0.0543796 0.0662474 0.21027 
0.0566896 0.0618383 0.209 
-0.0388605 0.0562298 0.242381 
-0.0388605 0.0618213 0.239395 
-0.04351 0.056084 0.23793 
-0.04351 0.0531728 0.239211 
-0.0388605 0.0532032 0.24361 
-0.0337918 0.0563579 0.24629 
-0.0337918 0.0622814 0.243334 
-0.0565675 0.0647079 0.204916 
-0.0582863 0.0630358 0.19913 
-0.0593966 0.0595539 0.197667 
-0.0337918 0.0870733 0.201023 
-0.0337918 0.0863693 0.208303 
-0.0388605 0.0826077 0.212016 
-0.0512428 0.0711257 0.210884 
-0.0542191 0.0690808 0.205476 
-0.0476582 0.0788916 0.190285 
0.0514408 0.0678515 0.215819 
0.0478921 0.0652256 0.225761 
0.0478921 0.0693768 0.221096 
0.0543796 0.0593922 0.218635 
0.0543796 0.0555353 0.221789 
0.0514408 0.060051 0.224272 
0.0514408 0.0641453 0.220416 
0.0543796 0.0630091 0.214794 
0.0566896 0.055345 0.216025 
0.0566896 0.0587132 0.212826 
-0.0582863 0.0580729 0.207314 
-0.0582863 0.0607342 0.203508 
-0.0565675 0.0619184 0.209369 
-0.0582863 0.0551843 0.210539 
-0.0565675 0.0587596 0.213192 
-0.0593966 0.054993 0.204726 
-0.0593966 0.0573884 0.201457 
-0.0512428 0.0758542 0.192411 
-0.0542191 0.0723343 0.193812 
-0.0542191 0.0711093 0.199819 
-0.04351 0.081923 0.194263 
-0.0388605 0.0846648 0.197861 
-0.0388605 0.0841568 0.204958 
-0.0476582 0.0778541 0.203592 
-0.0512428 0.0751657 0.198828 
-0.0476582 0.0788535 0.196943 
-0.04351 0.0816382 0.201152 
-0.04351 0.0803502 0.208016 
-0.0476582 0.0759019 0.210019 
-0.0512428 0.0735677 0.205051 
0.06 0.0509999 0.1985 
0.06 0.046 0.1985 
0.06 5.24537e-09 0.037 
0.06 5.24537e-09 0.0169999 
-0.026033 0.046 0.252558 
-0.0133512 0.046 0.256996 
-0.0133512 0.0509999 0.256996 
-0.026033 0.0509999 0.252558 
0.0374094 0.0509999 0.24541 
0.0374094 0.046 0.24541 
0.026033 0.046 0.252558 
0.026033 0.0509999 0.252558 
-0.0374094 -0.0469097 0.0169999 
-0.0374094 -0.0469097 0.037 
-0.026033 -0.0540581 0.037 
-0.026033 -0.0540581 0.0169999 
-0.06 0.0509999 0.1985 
-0.06 -5.24537e-09 0.0169999 
-0.06 -5.24537e-09 0.037 
-0.06 0.046 0.1985 
0.0385965 -0.0457227 0.037 
0.0431204 -0.0411988 0.037 
0.0469097 -0.0374094 0.0169999 
0.0374094 -0.0469097 0.0169999 
0.0133512 -0.0584956 0.037 
0.026033 -0.0540581 0.037 
0.026033 -0.0540581 0.0169999 
0.0133512 -0.0584956 0.0169999 
-0.033156 -0.0374254 0 
-0.0119657 -0.048547 0 
4.37113e-09 -0.0499999 0 
-0.0467508 0.0177302 0 
-0.041149 0.0284032 0 
0.0467508 -0.0177302 0 
0.0496354 -0.0060268 0 
-0.041149 -0.0284032 0 
-0.0467508 -0.0177302 0 
0.041149 -0.0284032 0 
-0.033156 0.0374254 0 
-0.0232361 0.0442728 0 
-0.0496354 -0.0060268 0 
0.0119657 0.048547 0 
-4.37113e-09 0.0499999 0 
0.0496354 0.0060268 0 
0.0119657 -0.048547 0 
-0.0496354 0.0060268 0 
-0.0119657 0.048547 0 
0.041149 0.0284032 0 
0.0467508 0.0177302 0 
0.033156 0.0374254 0 
0.033156 -0.0374254 0 
0.0232361 0.0442728 0 
-0.0232361 -0.0442728 0 
0.0232361 -0.0442728 0 
-0.0374094 0.0509999 0.24541 
-0.0469097 0.0509999 0.235909 
-0.0469097 0.046 0.235909 
-0.0374094 0.046 0.24541 
