ply
format ascii 1.0
comment VCGLIB generated
element vertex 176
property float x
property float y
property float z
end_header
0.0139685 -0.0795354 0.00638443 
0.0235035 -0.0772567 0.00638443 
0.00422817 0.080642 0.00638443 
0.00424105 0.0808889 0.005 
-0.0795 0.0564997 0.0593299 
-0.0795 0.0574148 0.0584151 
0.0235035 0.0772567 0.00638443 
0.0140116 0.0797789 0.005 
0.0139685 0.0795354 0.00638443 
-0.0248666 0.0770885 0.005 
-0.0203732 0.0782421 0.005 
-0.0795 -0.0574148 0.0584151 
-0.0795 -0.0564997 0.0593299 
0.0750313 -0.0301524 0.005 
0.0735637 -0.0333074 0.00638443 
0.0235755 0.0774932 0.005 
-0.0152952 0.0792909 0.00638443 
-0.00686049 0.0806411 0.005 
-0.0055747 0.0805601 0.00638443 
-0.015342 0.0795337 0.005 
-0.00559175 0.0808067 0.005 
-0.0795 0.0583299 0.0575 
-0.0795 0.054 0.00599998 
-0.0795 0.0564997 0.00666982 
-0.0795 0.0585466 0.00930804 
-0.0795 0.0583299 0.00849998 
-0.0055747 -0.0805601 0.00638443 
-0.0152952 -0.0792909 0.00638443 
0.00422817 -0.080642 0.00638443 
1.22391e-06 -0.0808535 0.005 
-0.0795 -0.0583299 0.0575 
-0.0795 -0.0585466 0.0566919 
0.0140116 -0.0797789 0.005 
0.00424105 -0.0808889 0.005 
0.0691968 -0.0421046 0.005 
0.0327919 -0.0740654 0.005 
0.0413982 -0.0693338 0.00638443 
0.0326916 -0.0738394 0.00638443 
0.0689856 -0.0419761 0.00638443 
0.0496461 -0.0640018 0.005 
0.0508325 -0.0629603 0.005 
0.0494948 -0.0638065 0.00638443 
0.0772936 -0.0242216 0.005 
0.0796591 -0.0146772 0.005 
0.079074 -0.0170382 0.005 
0.0770577 -0.0241477 0.00638443 
0.0650299 0.0481001 0.005 
0.0737889 0.0334092 0.005 
0.0691968 0.0421046 0.005 
-0.0795 0.0585466 0.0566919 
-0.015342 -0.0795337 0.005 
-0.0136781 -0.079751 0.005 
-0.00559175 -0.0808067 0.005 
-0.0248666 -0.0770885 0.005 
-0.0795 -0.0585466 0.00930804 
-0.0795 -0.0583299 0.00849998 
-0.0795 -0.0564997 0.00666982 
0.0235755 -0.0774932 0.005 
0.0737889 -0.0334092 0.005 
0.0415251 -0.0695461 0.005 
0.0606946 -0.0534166 0.005 
0.0633909 -0.0500259 0.00638443 
0.0570359 -0.0575143 0.005 
0.0568616 -0.0573388 0.00638443 
0.0794159 -0.0146326 0.00638443 
0.0633909 0.0500259 0.00638443 
0.0689856 0.0419761 0.00638443 
0.0635849 0.0501792 0.005 
0.0568616 0.0573388 0.00638443 
0.0570359 0.0575143 0.005 
0.0415251 0.0695461 0.005 
0.0494948 0.0638065 0.00638443 
0.0413982 0.0693338 0.00638443 
0.0496461 0.0640018 0.005 
0.0327919 0.0740654 0.005 
0.0326916 0.0738394 0.00638443 
0.0635849 -0.0501792 0.005 
0.0774201 0.0237113 0.005 
0.0772936 0.0242216 0.005 
0.0735637 0.0333074 0.00638443 
-0.0795 -0.054 0.00599998 
0.0794159 0.0146326 0.00638443 
0.0770577 0.0241477 0.00638443 
0.0796591 0.0146772 0.005 
0.0572188 0.018055 0.1195 
-0.016963 -0.057552 0.1195 
-0.028377 -0.052866 0.1195 
-0.0224168 0.055655 0.1195 
0.00174683 0.0599748 0.1195 
-0.0505178 0.0323718 0.1195 
-0.0579698 0.015475 0.1195 
-0.0593159 -0.00903398 0.1195 
-0.047172 -0.037078 0.1195 
0.019903 0.056603 0.1195 
-0.042828 0.0420208 0.1195 
0.035851 -0.048111 0.1195 
0.052117 -0.0297279 0.1195 
-0.056214 -0.0209758 0.1195 
0.013585 -0.0584418 0.1195 
0.0361739 0.0478688 0.1195 
0.045201 0.039457 0.1195 
0.06 -0.000201986 0.1195 
-0.081 -0.0575 0.0549997 
-0.081 -0.0575 0.0109997 
-0.0795 -0.0589997 0.0109997 
-0.0795 -0.0589997 0.0549997 
0.0808506 0.00491661 0.005 
0.0808506 -0.00491661 0.005 
0.080927 -0.00343764 0 
-0.081 0.0575 0.0549997 
-0.081 0.054 0.00749993 
-0.081 0 0.00299996 
-0.081 0.054 0.0585 
-0.081 0.0557499 0.0580311 
-0.081 -0.054 0.00749993 
-0.081 -0.057031 0.0567499 
-0.081 -0.054 0.0585 
-0.081 0.0575 0.0109997 
-0.081 0.057031 0.00924999 
-0.081 0.0557499 0.0079689 
-0.081 -0.0557499 0.0079689 
-0.081 -0.057031 0.00924999 
-0.081 0.057031 0.0567499 
-0.081 -0.0557499 0.0580311 
-0.0795 0.0589997 0.0109997 
-0.0795 0.0589997 0.0549997 
0.0806038 0.00490153 0.00638443 
0.0806038 -0.00490153 0.00638443 
-0.0654759 -0.0471984 0 
-0.079182 -0.0170648 0 
-0.075159 -0.0302014 0 
0.0333637 0.0738095 0 
0.0395103 0.0703759 0 
-0.0715421 -0.037375 0 
-0.0803439 0.0102882 0 
-0.080927 -0.00343764 0 
-0.0333637 0.0738095 0 
-0.0204102 0.0783864 0 
-0.0395103 0.0703759 0 
-0.056047 0.0584784 0 
-0.0651237 0.0481653 0 
0.00686926 0.0807082 0 
0.0204102 0.0783864 0 
0.0803439 0.0102882 0 
0.0774495 0.0237186 0 
-0.0269843 -0.076373 0 
-0.01835 -0.0786213 0 
0.0453579 0.0671093 0 
-0.00686926 0.0807082 0 
-0.013689 -0.0798349 0 
-0.0774495 0.0237186 0 
0.01835 -0.0786213 0 
0.013689 -0.0798349 0 
-0.0608042 -0.0535145 0 
-0.0508856 -0.0630209 0 
0.056047 0.0584784 0 
0.0651237 0.0481653 0 
0.072327 0.0364664 0 
-0.072327 0.0364664 0 
-0.0453579 0.0671093 0 
-0.0654759 0.0475933 0 
0.039503 -0.0707141 0 
0.0269843 -0.076373 0 
-0.0689738 -0.0424686 0 
0.079182 -0.0170648 0 
0.075159 -0.0302014 0 
-0.05065 -0.0631803 0 
0 -0.081 0 
0.0715421 -0.037375 0 
0.0689738 -0.0424686 0 
-0.0614759 -0.0526067 0 
-0.039503 -0.0707141 0 
0.0400034 -0.0703759 0 
0.0608042 -0.0535145 0 
0.0508856 -0.0630209 0 
0.061776 -0.0522009 0 