ply
format ascii 1.0
comment VCGLIB generated
element vertex 597
property float x
property float y
property float z
end_header
0.0133512 0.0124999 0.266996 
0.0173844 0.088798 0.17722 
0.059924 -0.0025578 0.0489834 
0.059445 0.04435 0.155567 
0.0583706 0.0498074 0.16021 
0.0511431 -0.0309181 0.0468704 
0.0540581 -0.026033 0.0169999 
0.0540581 -0.026033 0.037 
-0.0476582 0.067984 0.162703 
-0.0170915 0.0306451 0.265875 
-1.09278e-09 0.0124999 0.2685 
0.0116147 0.0805535 0.248749 
0.0116147 0.0857006 0.24094 
0.00354605 0.0865549 0.242144 
-0.0118219 0.0857211 0.240965 
0.0478921 0.0650024 0.223807 
0.0514408 0.0614046 0.218036 
0.0173844 0.0909666 0.213675 
0.0566896 0.0192231 0.227068 
0.0555788 0.00749993 0.231304 
0.0540581 0.0124999 0.234533 
0.0173844 0.0795678 0.247168 
0.0173844 0.0730299 0.253943 
0.0116147 0.0739017 0.255564 
0.0231223 0.0717824 0.251624 
0.0231223 0.0642598 0.256987 
-0.0584956 0.0133512 0.0169999 
0.0133512 0.0584956 0.0169999 
0.0231223 0.0895037 0.202786 
0.0231223 0.0892294 0.193747 
0.0287316 0.0870212 0.200457 
0.0231223 0.0891358 0.211779 
0.0173844 0.0914032 0.204569 
0.0116147 0.0902269 0.178217 
0.0173844 0.090317 0.186274 
0.0173844 0.0911878 0.195412 
0.0116147 0.0927303 0.205814 
-0.0582863 0.018886 0.221508 
-0.0582863 0.0160605 0.222324 
-0.0542191 0.0433893 0.226961 
-0.0542191 0.0489014 0.223195 
-0.0565675 0.0409637 0.220477 
-0.0565675 0.0357582 0.223116 
-0.00616896 -0.00949997 0.268382 
5.24537e-09 -0.06 0.0169999 
0.0110679 -0.0587529 0.037 
0.0226045 -0.0551396 0.0450658 
-0.00573843 -0.0592967 0.0447561 
5.24537e-09 -0.06 0.037 
-0.0114403 -0.0569577 0.0535507 
-0.00573843 -0.0577831 0.053421 
0.00539727 -0.0593247 0.0447539 
0.00539727 -0.0578128 0.053415 
0.059445 0.047984 0.174781 
0.059924 0.038487 0.163932 
0.059445 0.0471902 0.168352 
0.059924 0.0372714 0.158082 
0.0543796 0.057621 0.211966 
0.0584956 -0.0133512 0.037 
0.0584956 -0.0133512 0.0169999 
0.0565057 -0.0197149 0.0477051 
-0.0593966 0.0319103 0.210177 
-0.0582863 0.0291073 0.218411 
-0.0593966 0.0159248 0.216524 
-0.0584956 0.00749992 0.221851 
-0.0584956 0.0124999 0.221851 
-0.0590279 0.00749992 0.219457 
0.0437764 0.074343 0.173971 
0.0478921 0.0676711 0.16249 
0.0514408 0.0659616 0.173953 
-0.0512428 0.0676961 0.189579 
-0.0540581 0.026033 0.0169999 
-0.0512428 0.0662815 0.174217 
0.00354606 0.0310224 0.268499 
-6.55665e-10 0.00749993 0.2685 
0.009233 0.00749993 0.267985 
0.00354606 0.0402955 0.2685 
0.0173844 0.0306288 0.265769 
-0.05994 -0.0022623 0.0490057 
-0.0476582 0.0603476 0.230363 
-0.0512428 0.0571783 0.224471 
-0.0512428 0.0517581 0.229481 
-0.0388605 0.0519204 0.249767 
-0.0337918 0.0456424 0.256353 
-0.0227771 0.030337 0.263735 
-0.0240269 -0.00949997 0.263679 
-0.0388605 0.0288406 0.253343 
0.00151073 0.081324 0.249983 
0.00151073 0.0841389 0.246153 
0.00354605 0.081331 0.249995 
-0.00299038 0.0812615 0.249882 
-0.0152798 0.00749993 0.266722 
-0.0118219 0.0308527 0.267317 
-0.0170915 0.0396908 0.265793 
-0.0118219 0.0739176 0.255592 
-0.0170915 0.0730957 0.254064 
-0.0118219 0.0805725 0.248776 
-0.00734628 0.0810645 0.249566 
-0.00299038 0.0780668 0.253458 
-0.0227771 0.089642 0.20291 
-0.0170915 0.0915001 0.204655 
0.0231223 0.0881442 0.22066 
0.00354605 0.0901123 0.233761 
0.00151073 0.0865472 0.242132 
-0.00299038 0.0840732 0.246054 
-0.00299038 0.0884628 0.237885 
-0.00734628 0.0862619 0.241728 
-0.00299038 0.0864785 0.242034 
0.00151073 0.0885344 0.237981 
-0.0170915 0.091061 0.213771 
-0.0118219 0.0927523 0.205831 
0.0116147 0.0911212 0.224061 
0.0116147 0.0891961 0.232607 
0.0173844 0.0898968 0.222662 
0.0116147 0.0922457 0.214999 
0.0566896 0.0574137 0.178937 
0.0543796 0.0624759 0.184178 
0.0583706 0.0522905 0.173632 
0.0566896 0.0552893 0.164874 
0.0543796 0.0607057 0.169482 
0.0341094 0.0785505 0.230861 
0.0341094 0.0740475 0.238315 
0.0287316 0.0841964 0.226307 
0.0437764 0.0683478 0.229173 
0.0391553 0.0713792 0.234035 
0.0478921 0.0543035 0.235075 
0.0478921 0.0601466 0.229994 
0.0437764 0.0631059 0.235495 
0.0514408 0.045601 0.232848 
0.0543796 0.0487162 0.222778 
0.0514408 0.0515803 0.229081 
0.0543796 0.0536172 0.217856 
0.0514408 0.0569642 0.224078 
0.0391553 0.0756178 0.226727 
0.0437764 0.0722863 0.222029 
0.0341094 0.083037 0.214825 
0.0287316 0.0858536 0.218043 
0.0341094 0.0815233 0.222938 
0.0391553 0.0783757 0.218971 
0.0287316 0.0867432 0.209302 
0.0566896 0.0356387 0.222706 
0.0543796 0.0375436 0.229112 
0.0583706 0.0337108 0.216223 
0.0566896 0.0408156 0.220052 
0.0543796 0.0432442 0.226546 
0.0514408 0.0199323 0.2386 
0.0514408 0.0393921 0.235328 
0.0478921 0.0478416 0.23884 
0.0543796 0.0195831 0.232921 
0.0514408 0.033177 0.236633 
0.0543796 0.0318248 0.23058 
0.0543796 0.0163093 0.233511 
0.0566896 0.0161743 0.227758 
0.0287316 0.0466745 0.259819 
0.0341094 0.0376945 0.256857 
0.0341094 0.0210997 0.257575 
0.0478921 0.0411494 0.241238 
-0.05994 0.037591 0.158408 
-0.0593966 0.0446886 0.155845 
-0.0118219 0.0925772 0.196592 
0.00151073 0.0913423 0.178994 
-0.00299038 0.0912506 0.17893 
-0.00299038 0.0927237 0.188127 
0.00354605 0.0913531 0.179001 
0.0116147 0.0917194 0.187354 
0.0116147 0.092556 0.196576 
0.00151073 0.0936241 0.197484 
0.00151073 0.092814 0.188196 
-0.00299038 0.0935363 0.197409 
0.00354605 0.0936344 0.197492 
0.00354605 0.0928246 0.188204 
-0.00299038 0.0936819 0.206705 
-0.0337918 0.0837352 0.189068 
-0.0283973 0.0871962 0.200614 
-0.0283973 0.0868466 0.191715 
-0.0337918 0.0841793 0.197781 
-0.04351 0.0765642 0.190632 
-0.0388605 0.0806181 0.194438 
-0.0476582 0.0723482 0.194395 
-0.04351 0.0758817 0.182385 
-0.0388605 0.0800624 0.185942 
-0.0476582 0.0712596 0.178452 
-0.0170915 0.0904154 0.186348 
-0.0170915 0.0912856 0.195493 
-0.0227771 0.0893691 0.193862 
-0.0118219 0.0917399 0.187368 
0.059924 0.0311513 0.194211 
0.059924 0.0392427 0.16964 
0.0540581 0.00749993 0.234533 
0.0168597 -0.0556329 0.0537538 
0.0168597 -0.057145 0.0449164 
0.0110918 -0.0585313 0.044813 
0.0110918 -0.0570195 0.0535381 
0.0226045 -0.0536266 0.0540663 
0.0475404 -0.0361496 0.0464805 
0.0469097 -0.0374094 0.037 
0.0469097 -0.0374094 0.0169999 
0.0374094 -0.0469097 0.0169999 
0.0590279 -0.00949996 0.197943 
0.0282297 -0.052501 0.0452622 
0.0334507 -0.0493972 0.037 
0.0566896 0.0304314 0.224342 
0.059445 0.0432028 0.198495 
0.059924 0.034021 0.190438 
0.059924 0.0364451 0.185932 
0.0583706 0.0528674 0.18036 
0.059445 0.0475575 0.187157 
0.059445 0.0458477 0.193079 
0.059924 0.0382084 0.180824 
0.059445 0.0482557 0.181002 
0.059924 0.0391614 0.175316 
0.0583706 0.0497759 0.199381 
0.0566896 0.0537221 0.205711 
-0.0593966 0.0231523 0.213851 
-0.0593966 0.0277023 0.212121 
-0.0593966 0.0185232 0.215607 
-0.0582863 0.033831 0.216635 
-0.0540581 -0.026033 0.037 
-0.0540581 -0.026033 0.0169999 
-0.0469097 -0.0374094 0.037 
-0.0513421 -0.0306267 0.0468925 
-0.0477753 -0.0358755 0.0465012 
-0.0469097 -0.0374094 0.0169999 
0.0287316 0.0856854 0.182707 
0.0287316 0.0866698 0.191569 
0.0341094 0.0835223 0.188892 
0.0231223 0.0883094 0.184728 
0.0231223 0.0867527 0.175795 
0.0341094 0.0807922 0.171639 
0.0391553 0.0786594 0.177296 
0.0341094 0.0824588 0.180222 
0.026033 0.0540581 0.0169999 
0.0287316 0.0840794 0.173931 
-0.05994 0.0312948 0.194625 
-0.05994 0.0342049 0.190853 
-0.05994 0.0281752 0.197616 
-0.05994 0.0387868 0.164282 
-0.05994 0.0366678 0.18634 
-0.0542191 0.0610389 0.169756 
-0.0582863 0.0501497 0.160492 
-0.0565675 0.0556299 0.165154 
0.00151074 0.0402927 0.268488 
0.0182468 -0.00949997 0.265858 
0.026033 0.00749993 0.262558 
0.032202 0.00749993 0.259327 
0.0231223 0.0214792 0.263741 
0.0287316 0.0385042 0.260481 
0.0287316 0.0213089 0.260976 
0.026033 0.0124999 0.262558 
-0.0584956 -0.0133512 0.037 
-0.0566289 -0.0194059 0.0477284 
-0.0590279 -0.00949998 0.197943 
-0.0584956 -0.0133512 0.0169999 
-0.0285646 -0.0523409 0.0452744 
-0.0229498 -0.0534948 0.0540929 
-0.0172095 -0.0555366 0.0537733 
-0.0229498 -0.0550135 0.0450752 
-0.0388605 0.036803 0.252865 
-0.0388605 0.0443508 0.25201 
-0.0476582 0.0652343 0.224163 
-0.0476582 0.0688627 0.217182 
-0.0337918 0.0535674 0.25417 
-0.0283973 0.0811904 0.234572 
-0.0170915 0.0796438 0.247285 
-0.04351 0.0725186 0.222338 
-0.04351 0.0569889 0.240992 
-0.0388605 0.0592667 0.246005 
-0.04351 0.0500455 0.244755 
-0.0476582 0.0544704 0.23545 
-0.0283973 0.0549629 0.257899 
-0.0227771 0.0643374 0.257162 
-0.0283973 0.0299314 0.260918 
-0.026033 0.0124999 0.262558 
-0.0337918 0.0294312 0.257444 
-0.0337918 0.037748 0.257095 
-0.032202 0.00749993 0.259327 
-0.0227771 0.0476238 0.263015 
-0.0170915 0.0482978 0.265281 
-0.0227771 0.0391977 0.263585 
-0.0283973 0.0385485 0.260679 
-0.0283973 0.0467366 0.260032 
-0.0227771 0.0560942 0.260923 
0.00354605 0.0745891 0.256841 
0.00151073 0.0781258 0.25356 
-0.00299038 0.0706889 0.259638 
0.00151073 0.0707405 0.259742 
-0.00299038 0.0745274 0.256726 
-0.00734628 0.0743529 0.256402 
0.00151073 0.0745828 0.25683 
-0.0118219 0.0701219 0.258494 
-0.0118219 0.0618671 0.263103 
-0.0118219 0.0575333 0.264767 
-0.0170915 0.0569538 0.26322 
-0.00299038 0.0666075 0.262156 
-0.0118219 0.0660851 0.261007 
-0.0170915 0.0653815 0.259459 
-0.00299038 0.0579636 0.265916 
-0.00299038 0.0623436 0.264253 
0.00151073 0.0666552 0.262261 
-0.0283973 0.0860138 0.218229 
-0.0283973 0.0843496 0.226492 
-0.0337918 0.0817075 0.223161 
-0.0227771 0.0882708 0.220807 
-0.0283973 0.0869135 0.209477 
-0.0227771 0.0892704 0.211917 
0.0231223 0.0830671 0.237229 
0.0231223 0.0863705 0.229047 
0.0287316 0.0810413 0.234373 
0.0173844 0.0846172 0.239414 
0.0231223 0.0781572 0.244906 
0.0173844 0.0880339 0.231143 
0.0287316 0.0763139 0.24195 
-0.0170915 0.0881187 0.231245 
-0.0170915 0.0899855 0.222766 
-0.0227771 0.0864915 0.229193 
-0.0170915 0.0847002 0.239524 
-0.0227771 0.083185 0.237386 
0.00151073 0.0901037 0.23375 
-0.00299038 0.0900294 0.233656 
0.00354605 0.0920865 0.225164 
-0.00734628 0.0917534 0.224784 
-0.00734628 0.0897963 0.233361 
-0.0118219 0.0892153 0.232628 
-0.0118219 0.091141 0.224085 
-0.0118219 0.0922676 0.21502 
0.00151073 0.0932449 0.216033 
0.00151073 0.0937667 0.206785 
0.00354605 0.0937765 0.206795 
0.00354605 0.0932542 0.216043 
-0.00299038 0.0931632 0.215948 
0.00151073 0.0920774 0.225154 
-0.00299038 0.091999 0.225065 
0.0341094 0.0838013 0.206257 
0.0341094 0.0839688 0.197592 
0.0437764 0.0756059 0.182158 
0.0391553 0.0803747 0.194219 
0.0391553 0.0798163 0.185739 
0.059445 0.0317916 0.209769 
0.059924 0.0280592 0.197217 
0.0583706 0.0427777 0.209709 
0.0566896 0.045765 0.216283 
0.0566896 0.0501685 0.211444 
0.0583706 0.0466777 0.204955 
0.0583706 0.0383574 0.213479 
0.059445 0.0398042 0.203165 
0.059445 0.0359102 0.206936 
0.0116147 0.0660728 0.260978 
0.0173844 0.0653271 0.259337 
0.0231223 0.0560334 0.260749 
0.0116147 0.0400182 0.267259 
0.041877 0.00749993 0.251669 
0.0374094 0.0124999 0.25541 
0.0391553 0.0208533 0.253571 
0.0374094 0.00749993 0.25541 
0.034765 -0.00949997 0.257602 
0.0437764 0.0427836 0.246734 
0.0374094 0.0469097 0.0169999 
-0.0227771 0.0884503 0.184834 
-0.0374094 0.0469097 0.0169999 
-0.0388605 0.0789077 0.177484 
-0.04351 0.0746212 0.174182 
-0.0469097 0.0374094 0.0169999 
0.0387127 -0.0453911 0.045792 
0.0336328 -0.049242 0.045505 
0.0566688 -0.00949997 0.228413 
0.0433761 -0.0410039 0.0461189 
0.0374094 -0.0469097 0.037 
-0.0114403 -0.0584725 0.0448174 
-0.00589954 -0.0597093 0.037 
0.0583706 0.0239738 0.219578 
0.0583706 0.0188589 0.221145 
0.0583706 0.0160378 0.221935 
0.0584956 0.0124999 0.221851 
0.0584956 0.00749994 0.221851 
0.0566896 0.0575458 0.192713 
0.0583706 0.0528904 0.186845 
0.0583706 0.0518748 0.193246 
0.0566896 0.0562118 0.199362 
0.0566896 0.0577726 0.185963 
0.0543796 0.0626194 0.1915 
-0.0582863 0.0385063 0.213906 
-0.0593966 0.0360574 0.207359 
-0.0512428 0.0616516 0.218415 
-0.05994 0.0395294 0.169984 
-0.0593966 0.047517 0.168685 
-0.0593966 0.0478444 0.187537 
-0.05994 0.0384657 0.181217 
-0.05994 0.0394422 0.175687 
-0.0118219 0.0400231 0.267281 
-0.0118219 0.048752 0.266808 
-0.0118219 0.0531464 0.265998 
-0.0339509 -0.0490487 0.0455197 
-0.0436435 -0.0407525 0.0461379 
-0.0390082 -0.0451669 0.045809 
-0.0540581 0.0124999 0.234533 
-0.052961 0.00749993 0.236899 
-0.0540581 0.00749993 0.234533 
-0.0566688 -0.00949997 0.228413 
-0.04351 0.0428805 0.247066 
-0.0460729 0.00749993 0.247136 
-0.0514388 -0.00949997 0.239588 
-0.039609 -0.00949997 0.253768 
-0.04351 0.020595 0.249314 
-0.0374094 0.0124999 0.25541 
-0.0542191 0.0196093 0.233275 
-0.0565675 0.0161964 0.228145 
-0.0565675 0.01925 0.22743 
-0.0565675 0.0305172 0.224723 
-0.0283973 0.0702705 0.248811 
-0.0337918 0.0612679 0.250408 
-0.0337918 0.0682899 0.245129 
-0.0283973 0.0629631 0.254138 
-0.0227771 0.071876 0.251796 
-0.0283973 0.0764505 0.24216 
-0.0227771 0.0782652 0.245072 
-0.0388605 0.0715691 0.234327 
-0.0337918 0.0742118 0.238568 
-0.0388605 0.0659519 0.240782 
-0.04351 0.0632904 0.235834 
-0.04351 0.0685606 0.2295 
-0.0388605 0.0758251 0.227003 
-0.0337918 0.0787298 0.2311 
-0.04351 0.0766675 0.198867 
-0.0476582 0.0720669 0.202298 
-0.0476582 0.0711136 0.209803 
-0.0388605 0.0799435 0.211296 
-0.0388605 0.0785888 0.219228 
-0.0337918 0.0832298 0.215049 
-0.0337918 0.0840062 0.206466 
-0.0388605 0.0805742 0.202912 
-0.04351 0.0762028 0.207023 
-0.04351 0.0750386 0.214752 
0.00354605 0.0580078 0.266033 
0.00151073 0.0623873 0.264358 
0.00151073 0.0580031 0.266021 
0.00354605 0.0666606 0.262273 
0.00354606 0.0491239 0.268058 
0.0391553 0.0797206 0.211036 
0.0391553 0.0803373 0.20267 
0.0437764 0.0747999 0.214463 
0.0478921 0.0686095 0.216844 
0.0437764 0.0759529 0.206732 
0.0478921 0.0720589 0.194099 
0.0437764 0.0762914 0.190386 
0.0437764 0.0764021 0.198596 
0.0478921 0.070959 0.178204 
0.0514408 0.0673882 0.189264 
0.0287316 0.0548859 0.257679 
0.0341094 0.0455678 0.256097 
0.0391553 0.0442643 0.251714 
0.0173844 0.0482635 0.265163 
0.0116147 0.0487446 0.266782 
0.0173844 0.0396663 0.265684 
0.0231223 0.0391624 0.263429 
0.0231223 0.0475747 0.262847 
0.0173844 0.0569113 0.263097 
0.0116147 0.0575247 0.264739 
0.04799 -0.00949997 0.244713 
0.0469097 0.0124999 0.245909 
0.0437764 0.0205733 0.249021 
0.0437764 0.0166811 0.24934 
0.0391553 0.0367411 0.252589 
0.0469097 0.0374094 0.0169999 
0.0540581 0.026033 0.0169999 
-0.0283973 0.0842635 0.174056 
-0.0283973 0.0858638 0.182842 
-0.0337918 0.0810139 0.17179 
-0.0337918 0.0826735 0.180384 
-0.0133512 0.0584956 0.0169999 
-0.0227771 0.0868981 0.175894 
-0.0170915 0.0888997 0.17729 
-0.026033 0.0540581 0.0169999 
-0.0118219 0.0902488 0.178231 
-5.24537e-09 0.06 0.0169999 
0.059445 0.015902 0.216138 
0.059821 0.00749994 0.213331 
-0.0565675 0.0459542 0.216709 
-0.0542191 0.0538405 0.218266 
-0.0593966 0.0399925 0.203589 
-0.0582863 0.0429682 0.210138 
-0.0565675 0.0503968 0.211863 
-0.0593966 0.0482908 0.175139 
-0.0582863 0.0526207 0.17397 
-0.0593966 0.0485492 0.181355 
-0.0565675 0.0580814 0.186323 
-0.0542191 0.062797 0.184506 
-0.0565675 0.0577421 0.179272 
-0.0582863 0.0531778 0.180721 
-0.0582863 0.0531871 0.187202 
-0.00299037 0.0490894 0.267942 
-0.00734627 0.0489927 0.267617 
-0.00299037 0.0535307 0.267141 
0.00151074 0.0535661 0.267245 
0.00151074 0.0491201 0.268046 
-0.00299037 0.0402701 0.268386 
-0.00734627 0.0401993 0.26807 
-0.0512428 0.0395042 0.235713 
-0.0542191 0.0319088 0.230953 
-0.0542191 0.0376604 0.229513 
-0.0512428 0.0332575 0.236991 
-0.0512428 0.0457402 0.233246 
-0.0476582 0.0412549 0.2416 
-0.0476582 0.0479726 0.239214 
0.0514408 0.0666093 0.204139 
0.0478921 0.0717946 0.201981 
0.0514408 0.0673227 0.196873 
0.0478921 0.0708535 0.209489 
0.0514408 0.0646555 0.211269 
0.0543796 0.0621456 0.198512 
0.0543796 0.060497 0.205405 
0.0341094 0.0534748 0.253905 
0.0287316 0.0628649 0.253917 
0.0287316 0.070152 0.248594 
0.0478921 0.0202646 0.244 
0.0514408 0.0164403 0.239094 
0.0478921 0.0344627 0.242389 
0.0478921 0.0165651 0.244403 
0.0437764 0.0356581 0.24774 
0.0584956 0.0133512 0.0169999 
-0.0171056 -0.0571819 0.037 
-0.0133512 -0.0584956 0.037 
-0.0172095 -0.0570533 0.0449233 
-0.0228562 -0.0551697 0.037 
-0.0133512 -0.0584956 0.0169999 
0.059445 0.0230961 0.213485 
0.059445 0.0276173 0.211744 
0.0583706 0.0290213 0.218029 
0.059445 0.0184963 0.215247 
-0.0582863 0.0500414 0.199788 
-0.0582863 0.0469077 0.205377 
-0.0582863 0.0521646 0.19363 
-0.0593966 0.0461106 0.193482 
-0.0593966 0.0434303 0.198912 
-0.0542191 0.0578787 0.212361 
-0.0565675 0.0539858 0.206116 
-0.0512428 0.0649251 0.211628 
-0.0476582 0.0202881 0.24432 
-0.0476582 0.0345381 0.242725 
-0.04351 0.0357275 0.248049 
-0.0469097 0.0124999 0.245909 
-0.0512428 0.0199575 0.23894 
0.0391553 0.0591301 0.245697 
0.0341094 0.0611495 0.250142 
0.0391553 0.051813 0.249461 
0.0437764 0.0499252 0.244412 
0.0437764 0.0568358 0.240648 
0.0391553 0.0657872 0.24048 
0.0341094 0.0681474 0.244867 
-0.0542191 0.0624341 0.19886 
-0.0542191 0.0607783 0.205779 
-0.0512428 0.0668862 0.204473 
-0.0512428 0.0676125 0.19721 
-0.0542191 0.0629215 0.191851 
-0.0565675 0.0578409 0.193069 
-0.0565675 0.0564997 0.199744 
0.06 0.0124999 0.2085 
0.06 5.24537e-09 0.037 
0.06 0.00749994 0.2085 
0.06 5.24537e-09 0.0169999 
0.0133512 -0.0584956 0.037 
0.026033 -0.0540581 0.037 
0.026033 -0.0540581 0.0169999 
0.0133512 -0.0584956 0.0169999 
-0.06 0.00749992 0.2085 
-0.06 0.0124999 0.2085 
-0.06 -5.24537e-09 0.0169999 
-0.06 -5.24537e-09 0.037 
-0.0374094 -0.0469097 0.037 
-0.026033 -0.0540581 0.037 
-0.026033 -0.0540581 0.0169999 
-0.0374094 -0.0469097 0.0169999 
0.0491142 0.00936901 0 
0.0124345 -0.0484291 0 
0.0240875 -0.0438153 0 
0.0342273 -0.0364483 0 
-0.0422164 -0.0267913 0 
-0.0475528 -0.0154507 0 
0.0475528 -0.0154507 0 
0.0422164 -0.0267913 0 
-0.0491142 0.00936901 0 
-0.0452412 0.0212889 0 
-0.0385256 0.0318711 0 
-0.0293893 0.0404508 0 
-0.0499012 -0.00313944 0 
0.0499012 -0.00313944 0 
-0.0124345 -0.0484291 0 
-0.0240875 -0.0438153 0 
-0.0184062 0.0464888 0 
4.37113e-09 -0.0499999 0 
-0.0342273 -0.0364483 0 
0.0184062 0.0464888 0 
0.00626665 0.0496056 0 
-0.00626665 0.0496056 0 
-4.37113e-09 0.0499999 0 
0.0293893 0.0404508 0 
0.0385256 0.0318711 0 
0.0452412 0.0212889 0