ply
format ascii 1.0
comment VCGLIB generated
element vertex 622
property float x
property float y
property float z
element face 0
property list uchar int vertex_indices
end_header
-0.0227771 -0.0868981 0.0326064 
0.0566896 -0.0577726 0.0225366 
0.0566896 -0.0575458 0.0157865 
0.0514408 -0.0659616 0.034547 
0.0543796 -0.0624759 0.0243222 
0.0543796 -0.0607057 0.0390183 
0.0391553 -0.0786595 0.0312043 
0.0437764 -0.074343 0.0345287 
0.042828 -0.0422055 0.20856 
-0.00734626 -0.0924419 0.0205908 
-0.0227771 -0.0884503 0.0236658 
-0.0170915 -0.0888997 0.0312103 
-0.0118219 -0.0902488 0.0302693 
0.00151075 -0.0913423 0.0295059 
-0.00299036 -0.0912506 0.0295702 
-0.00174692 -0.0601593 0.208587 
0.00354607 -0.0913531 0.0294983 
-0.0512428 -0.0672551 0.0266076 
-0.0512428 -0.0668862 0.00402665 
-0.056071 0.0211438 0.191463 
-0.0499658 -0.00203953 0.2085 
-0.0583287 0.013637 0.160342 
0.0374094 0.0469097 0.1915 
0.0582434 0.0139466 0.160365 
0.059924 0.00255782 0.159516 
0.0442128 0.0231655 0.208462 
0.00375085 0.0496743 0.208422 
0.0584956 0.0133512 0.1915 
0.0584956 0.0133512 0.1715 
0.0587718 0.0118659 0.191479 
0.0593158 0.00884947 0.208483 
0.0540581 0.026033 0.1915 
0.0475404 0.0361496 0.162019 
0.0511431 0.0293913 0.150653 
0.0499999 0.00949997 0 
0.0387127 0.0438733 0.152913 
0.0433761 0.0394834 0.152228 
0.0387127 0.0453911 0.162708 
0.0475404 0.0346263 0.15147 
0.026033 0.0540581 0.1915 
0.0283769 0.0526815 0.208416 
0.0199029 0.0563927 0.19141 
0.0334507 0.0493972 0.1715 
0.0169629 0.0573675 0.208408 
0.0173844 -0.090317 0.0222264 
0.0116147 -0.0917194 0.0211465 
0.0173844 -0.088798 0.0312794 
0.0116147 -0.0902269 0.0302833 
0.0566896 -0.0552893 0.0436261 
0.0583706 -0.0528674 0.0281403 
0.0566896 -0.0574137 0.029563 
0.0374094 -0.0124999 -0.0469097 
0.0341094 -0.0210997 -0.0490748 
0.0374094 -0.00749993 -0.0469097 
-0.00299036 -0.0927237 0.0203735 
-0.00734626 -0.0932616 0.0113253 
0.0173844 -0.0569113 -0.0545973 
0.0287316 -0.0466745 -0.0513194 
0.0231223 -0.0830671 -0.0287288 
0.0478921 -0.0709591 0.0302955 
0.0514408 -0.0669386 0.0268925 
0.0437764 -0.0762914 0.0181138 
0.0437764 -0.075606 0.0263423 
0.0478921 -0.071785 0.0223436 
-0.0283973 -0.0871962 0.00788599 
-0.0170915 -0.0912856 0.0130074 
-0.0170915 -0.0904154 0.0221518 
-0.0227771 -0.0893691 0.0146383 
-0.0118219 -0.0925772 0.0119081 
-0.0118219 -0.0917399 0.0211316 
-0.0227771 -0.089642 0.00558943 
-0.0512428 -0.0662815 0.0342831 
-0.0542191 -0.0610389 0.0387436 
-0.0582863 -0.0501497 0.0480081 
-0.0565675 -0.0556299 0.0433456 
-0.0283973 -0.0842636 0.0344437 
-0.0199029 -0.0567875 0.208581 
0.0116147 -0.0487446 -0.0582817 
-0.0177302 0.00949997 -0.0467508 
-0.0512428 -0.0676125 0.0112899 
-0.0512428 -0.0676961 0.0189214 
-0.0542191 -0.0629215 0.0166485 
-0.0582863 -0.0429682 -0.0016377 
-0.0565675 -0.0409637 -0.0119765 
-0.0476582 -0.0711136 -0.00130302 
-0.04351 -0.0750386 -0.00625187 
-0.0476582 -0.0652343 -0.0156628 
-0.0512428 -0.0649251 -0.00312781 
-0.0476582 -0.0688627 -0.00868171 
-0.0542997 0.0251023 0.161196 
-0.0542997 0.0235576 0.149729 
-0.0540581 0.026033 0.1715 
-0.0566289 0.0194059 0.160771 
-0.0540581 0.026033 0.1915 
-0.0513421 0.0290863 0.150592 
-0.0593966 -0.0446886 0.0526546 
-0.0584956 0.0133512 0.1715 
-0.0584956 0.0133512 0.1915 
-0.057096 0.0182544 0.208469 
-0.0572188 -0.0182383 0.208524 
0.0433761 0.0410039 0.162381 
0.0374094 0.0469097 0.1715 
0.059924 -0.038487 0.0445676 
0.059924 -0.0392427 0.0388603 
0.059445 -0.047984 0.0337189 
0.0583706 -0.0522905 0.0348676 
0.0541382 0.0254053 0.161219 
0.0540581 0.026033 0.1715 
0.0565057 0.0197149 0.160795 
0.0541382 0.0238752 0.149792 
0.0511431 0.0309181 0.16163 
0.0284032 0.00949997 -0.0411491 
0.0060268 0.00949997 -0.0496354 
-0.0060268 0.00949997 -0.0496354 
0.0177302 0.00949997 -0.0467508 
0.0336328 0.049242 0.162995 
0.0336328 0.0477265 0.153514 
0.0442728 0.00949997 -0.0232361 
0.048547 0.00949997 -0.0119657 
0.0374254 0.00949997 -0.033156 
0.0469097 -0.00749993 -0.0374094 
0.0110918 0.0585313 0.163687 
0.0110918 0.0570195 0.154962 
0.0168597 0.0556329 0.154746 
-0.000167803 0.0580569 0.155122 
0.00539726 0.0578128 0.155085 
0.0231223 -0.0892294 0.0147535 
0.0287316 -0.0870212 0.00804341 
0.0543796 -0.060497 0.00309509 
0.0540581 -0.00749993 -0.026033 
0.0566896 -0.0562118 0.00913793 
0.0173844 -0.0482635 -0.0566633 
0.0231223 -0.0475747 -0.0543467 
0.0287316 -0.0385042 -0.0519812 
0.00151075 -0.0936241 0.0110162 
-0.00299036 -0.0935363 0.0110913 
0.00151075 -0.092814 0.0203038 
0.00354607 -0.0928246 0.0202956 
0.00354607 -0.0936344 0.0110073 
-0.00299036 -0.0936819 0.00179481 
0.0287316 -0.0841965 -0.0178071 
0.0437764 -0.0568358 -0.0321475 
0.0437764 -0.0499252 -0.0359119 
0.0287316 -0.0858536 -0.0095427 
0.0287316 -0.0867432 -0.000802402 
0.0437764 -0.0764021 0.00990385 
0.0391553 -0.0803373 0.00582957 
0.0341094 -0.0838013 0.00224334 
0.0437764 -0.0759529 0.00176793 
0.0478921 -0.0686095 -0.00834453 
0.0514408 -0.0646555 -0.00276887 
0.0478921 -0.0708535 -0.000988666 
0.0173844 -0.0914032 0.0039314 
0.0173844 -0.0911878 0.0130876 
0.0231223 -0.0895037 0.0057137 
0.0231223 -0.0891358 -0.00327933 
0.0116147 -0.092556 0.0119241 
0.0116147 -0.0927303 0.00268626 
0.0173844 -0.0898968 -0.0141621 
0.0173844 -0.0909666 -0.0051747 
0.0231223 -0.0881442 -0.0121595 
0.0173844 -0.0880339 -0.0226431 
0.0116147 -0.0911212 -0.0155612 
0.0116147 -0.0922457 -0.00649881 
0.0231223 -0.0863705 -0.020547 
0.0478921 -0.0650024 -0.0153066 
0.0478921 -0.0601466 -0.021494 
0.00151075 -0.0937667 0.00171459 
0.00354607 -0.0937765 0.00170511 
-0.0337918 -0.0826735 0.0281155 
-0.0283973 -0.0868466 0.0167847 
-0.0283973 -0.0858638 0.0256581 
-0.04351 -0.0762028 0.0014773 
-0.0476582 -0.0720669 0.00620156 
-0.04351 -0.0746212 0.0343179 
-0.0476582 -0.0712596 0.0300475 
-0.045201 -0.0396415 0.208557 
-0.0361738 -0.0480533 0.208568 
-0.0388605 -0.0789077 0.0310162 
-0.0170915 -0.0915001 0.00384456 
-0.0565675 -0.0569263 0.0363038 
-0.0542191 -0.062797 0.0239939 
-0.0542191 -0.0621713 0.0313799 
-0.05994 -0.0394422 0.0328124 
-0.0593966 -0.0478444 0.0209628 
-0.0582863 -0.0531778 0.0277787 
-0.0582863 -0.053187 0.0212978 
-0.0565675 -0.0580814 0.0221771 
-0.0565675 -0.0577421 0.0292277 
-0.0582863 -0.0526207 0.0345303 
-0.0593966 -0.0482908 0.033361 
-0.0593966 -0.0485492 0.0271447 
-0.0374094 -0.00749993 -0.0469097 
-0.0565675 -0.0357582 -0.0146164 
-0.0584956 -0.0124999 -0.0133513 
-0.0584956 -0.00749994 -0.0133513 
-0.0593966 -0.0185232 -0.00710672 
-0.0582863 -0.018886 -0.013008 
-0.0593966 -0.0159248 -0.00802368 
-0.0582863 -0.0291073 -0.00991124 
-0.05994 -0.0384657 0.027283 
-0.0593966 -0.0461106 0.0150185 
-0.05994 -0.0281752 0.0108839 
-0.0593966 -0.0231523 -0.00535124 
-0.0593966 -0.0319103 -0.00167674 
-0.0593966 -0.0360574 0.00114095 
-0.0582863 -0.0385063 -0.00540656 
-0.0582863 -0.033831 -0.00813544 
-0.0593966 -0.0277023 -0.0036211 
-0.00299037 -0.0535307 -0.0586412 
0.00151074 -0.0535661 -0.0587453 
0.0231223 -0.0781572 -0.0364063 
-0.0582863 -0.0521646 0.0148696 
-0.0565675 -0.0578409 0.0154305 
-0.0542191 -0.0624341 0.00963962 
-0.0565675 -0.0539858 0.00238413 
-0.0582863 -0.0500414 0.00871217 
-0.0582863 -0.0469077 0.00312316 
-0.0565675 -0.0564997 0.00875562 
-0.0542191 -0.0607783 0.00272107 
-0.0512428 -0.0517581 -0.020981 
-0.0542191 -0.0433893 -0.0184612 
-0.0476582 -0.0544704 -0.0269499 
-0.0476582 -0.0603476 -0.0218632 
-0.0542191 -0.0538405 -0.00976574 
-0.0565675 -0.0503968 -0.00336343 
-0.0565675 -0.0459542 -0.00820905 
-0.0542191 -0.0489014 -0.0146948 
-0.0542191 -0.0578787 -0.00386143 
-0.0512428 -0.0571783 -0.0159711 
-0.0512428 -0.0616516 -0.00991488 
-0.0388605 -0.0288406 -0.0448432 
-0.04351 -0.0632904 -0.0273339 
-0.04351 -0.0569889 -0.032492 
-0.0388605 -0.0758251 -0.0185027 
-0.04351 -0.0725186 -0.0138384 
-0.04351 -0.0685606 -0.0209998 
-0.0469097 0.0374094 0.1715 
-0.0469097 0.0374094 0.1915 
-0.0513421 0.0306267 0.161608 
-0.0374094 0.0469097 0.1915 
-0.044934 0.0395755 0.208437 
-0.0374094 0.0469097 0.1715 
-0.026033 0.0540581 0.1915 
-0.035851 0.0479265 0.208424 
-0.0339509 0.047524 0.153473 
-0.0339509 0.0490487 0.16298 
-0.0390082 0.0436389 0.152866 
-0.0477753 0.0343394 0.151413 
-0.0477753 0.0358755 0.161999 
-0.0499999 0.00949997 0 
-0.0284032 0.00949997 -0.0411491 
-0.0374254 0.00949997 -0.033156 
-0.0442728 0.00949997 -0.0232361 
-0.0135851 0.0582573 0.208408 
-0.00134305 0.0598005 0.208406 
-0.0593966 -0.047517 0.0398146 
-0.05994 -0.037591 0.0500917 
-0.0599298 -0.00309721 0.191502 
-0.05994 -0.0387868 0.0442178 
-0.05994 -0.0395294 0.0385156 
-0.059661 0.00618545 0.208486 
0.0469097 0.0374094 0.1915 
0.0469097 0.0374094 0.1715 
0.0507339 0.0318465 0.208448 
0.0452009 0.0392468 0.191437 
0.0385899 0.0457585 0.208427 
0.059445 -0.04435 0.0529327 
0.059924 -0.0372714 0.0504177 
0.059445 -0.0471902 0.0401481 
0.05869 -0.0126809 0.191515 
0.056071 -0.0215382 0.208528 
0.0583706 -0.0498074 0.04829 
0.0478921 -0.0165651 -0.0359035 
0.0469097 -0.0124999 -0.0374094 
0.0437764 -0.0205733 -0.0405211 
0.0478921 -0.0344627 -0.0338885 
0.0478921 -0.0202646 -0.0354999 
0.0437764 -0.0356581 -0.0392402 
0.0437764 -0.0427836 -0.0382337 
0.0478921 -0.0411494 -0.032738 
0.0173844 -0.0306288 -0.0572688 
0.0173844 -0.0396663 -0.0571836 
0.0133512 -0.0124999 -0.0584956 
0.0133512 -0.00749993 -0.0584956 
0.0226045 0.0551396 0.163434 
0.0282297 0.0509871 0.154022 
0.0226045 0.0536266 0.154434 
0.0282297 0.052501 0.163238 
0.0168597 0.057145 0.163584 
0.026033 0.0540581 0.1715 
-0.00573845 0.0577831 0.155079 
-0.0114403 0.0569577 0.154949 
-0.000167803 0.0595694 0.163764 
0.02802 -0.0532392 0.208577 
0.0231223 -0.0883094 0.0237723 
0.0231223 -0.0867527 0.0327052 
0.0341094 -0.0835223 0.019608 
0.0287316 -0.0866698 0.0169306 
0.0341094 -0.0839688 0.0109081 
0.0391553 -0.0798163 0.0227606 
0.0341094 -0.0824588 0.0282782 
0.0287316 -0.0856854 0.0257932 
0.0391553 -0.0803747 0.0142814 
0.0514408 -0.0569642 -0.0155779 
0.0514408 -0.0614046 -0.00953561 
0.0566896 -0.0192231 -0.018568 
0.0540581 -0.0124999 -0.026033 
0.0514408 -0.0199323 -0.0300999 
0.0514408 -0.0164403 -0.0305944 
0.0514408 -0.045601 -0.024348 
0.0543796 -0.0432442 -0.018046 
0.0514408 -0.0515803 -0.0205813 
0.0478921 -0.0478416 -0.0303401 
0.0514408 -0.0393921 -0.0268276 
0.0543796 -0.0375436 -0.0206116 
0.0478921 -0.0543035 -0.0265746 
0.0391553 -0.0208533 -0.0450705 
0.0391553 -0.0367411 -0.0440889 
0.0437764 -0.0166811 -0.0408401 
0.0391553 -0.0167864 -0.0453132 
0.0341094 -0.0376945 -0.0483567 
0.026033 -0.0124999 -0.0540581 
0.0231223 -0.0214792 -0.0552412 
0.026033 -0.00749993 -0.0540581 
0.0231223 -0.0391624 -0.0549286 
0.0287316 -0.0213089 -0.0524758 
0.0287316 -0.0810413 -0.025873 
0.0287316 -0.0763139 -0.0334501 
0.0514408 -0.0673227 0.011627 
0.0478921 -0.0717946 0.00651842 
0.0514408 -0.0666093 0.00436121 
0.0543796 -0.0626194 0.0169999 
0.0514408 -0.0673882 0.0192361 
0.0478921 -0.0720589 0.0144005 
0.0543796 -0.0621456 0.00998807 
0.0391553 -0.0783757 -0.0104704 
0.0437764 -0.0747999 -0.00596333 
0.0391553 -0.0797206 -0.00253612 
0.0341094 -0.083037 -0.00632489 
0.0341094 -0.0815233 -0.0144378 
0.0437764 -0.0722863 -0.013529 
-0.0388605 -0.0805742 0.0055874 
-0.0337918 -0.0841793 0.0107186 
-0.0337918 -0.0837352 0.0194324 
-0.04351 -0.0765642 0.0178682 
-0.0476582 -0.0723482 0.0141047 
-0.0476582 -0.0720823 0.0220759 
-0.04351 -0.0766675 0.00963247 
-0.04351 -0.0758817 0.0261148 
-0.0388605 -0.0806181 0.0140621 
-0.0388605 -0.0800624 0.0225574 
-0.0227771 -0.0892704 -0.00341696 
-0.0118219 -0.0927523 0.00266844 
-0.00734626 -0.0934157 0.00204515 
-0.00734626 -0.0929068 -0.0071826 
-0.0337918 -0.0832298 -0.00654924 
-0.0283973 -0.0860139 -0.00972921 
-0.0337918 -0.0817075 -0.0146604 
-0.0388605 -0.0799436 -0.00279558 
-0.0388605 -0.0785888 -0.0107281 
-0.0337918 -0.0840062 0.00203377 
-0.0283973 -0.0869135 -0.000976477 
-0.04351 -0.0500455 -0.0362553 
-0.0476582 -0.0345381 -0.034225 
-0.0469097 -0.0124999 -0.0374094 
-0.0476582 -0.0202881 -0.0358196 
-0.04351 -0.020595 -0.0408143 
-0.0469097 -0.00749993 -0.0374094 
-0.0565675 -0.01925 -0.01893 
-0.0565675 -0.0305172 -0.0162231 
-0.0582863 -0.0160605 -0.0138242 
-0.0512428 -0.0395042 -0.0272127 
-0.0542191 -0.0376604 -0.021013 
-0.0512428 -0.0457402 -0.0247462 
-0.0476582 -0.0412549 -0.0330998 
-0.0476582 -0.0479726 -0.0307143 
-0.0542191 -0.0196093 -0.0247748 
-0.0542191 -0.0319088 -0.022453 
-0.0512428 -0.0332575 -0.0284911 
-0.0540581 -0.0124999 -0.026033 
-0.0565675 -0.0161964 -0.0196446 
-0.0540581 -0.00749993 -0.026033 
-0.0542191 -0.0163307 -0.0253894 
-0.0512428 -0.0164608 -0.0309572 
-0.05994 -0.0342049 0.0176473 
-0.05994 -0.0312948 0.0138748 
-0.05994 -0.0366678 0.02216 
-0.0593966 -0.0434303 0.00958771 
-0.0593966 -0.0399925 0.00491089 
-0.00734627 -0.0578402 -0.0570874 
-0.0118219 -0.0531464 -0.0574981 
-0.0170915 -0.0482978 -0.0567812 
-0.026033 -0.00749993 -0.0540581 
-0.00299037 -0.0447157 -0.0598334 
-0.00299037 -0.0490894 -0.059442 
0.00151074 -0.0491201 -0.0595454 
-0.0283973 -0.0299314 -0.052418 
-0.0374094 -0.0124999 -0.0469097 
-0.0282707 -0.0124999 -0.0526521 
-0.0337918 -0.0294312 -0.0489439 
-0.0388605 -0.0443508 -0.0435098 
-0.0388605 -0.036803 -0.0443644 
-0.04351 -0.0357275 -0.0395489 
-0.04351 -0.0428805 -0.0385659 
-0.0283973 -0.0467366 -0.0515322 
-0.0227771 -0.0476238 -0.0545151 
-0.0283973 -0.0385485 -0.052179 
-0.0337918 -0.037748 -0.048595 
-0.0337918 -0.0456424 -0.047853 
-0.0337918 -0.0535674 -0.0456696 
-0.0388605 -0.0519204 -0.0412669 
-0.0388605 -0.0715691 -0.0258271 
-0.0283973 -0.0843496 -0.017992 
-0.0337918 -0.0787298 -0.0226002 
-0.0436435 0.0392204 0.152176 
-0.048547 0.00949997 -0.0119657 
-0.0436435 0.0407525 0.162362 
-0.0390082 0.0451669 0.162691 
-0.0285646 0.0523409 0.163226 
-0.0285646 0.0508192 0.153988 
-0.05994 0.00226228 0.159494 
0.059924 -0.0280592 0.0112829 
0.059924 -0.0311513 0.0142885 
0.059924 -0.034021 0.0180623 
0.059924 -0.0364451 0.0225682 
0.0116147 -0.0308489 -0.0587958 
0.0116147 -0.0400182 -0.0587588 
0.00354606 -0.0310224 -0.0599988 
0.00354606 -0.0491239 -0.0595574 
0.00151074 -0.0447416 -0.0599363 
0.0110679 0.0587529 0.1715 
0.00539726 0.0593247 0.163746 
0.0133512 0.0584956 0.1715 
0.0133512 0.0584956 0.1915 
-0.00569714 0.0593581 0.1715 
-0.00573845 0.0592967 0.163744 
-5.24537e-09 0.06 0.1715 
-5.24537e-09 0.06 0.1915 
-0.0133512 0.0584956 0.1915 
0.0543796 -0.0195831 -0.0244206 
0.0543796 -0.0163093 -0.0250112 
0.0514408 -0.033177 -0.0281333 
0.0543796 -0.0318248 -0.0220801 
0.0566896 -0.0161743 -0.0192577 
0.0583706 -0.0188589 -0.0126445 
0.0583706 -0.0160378 -0.0134345 
0.0584956 -0.0124999 -0.0133513 
0.0584956 -0.00749992 -0.0133513 
0.0566896 -0.0408156 -0.0115518 
0.0543796 -0.0487162 -0.0142782 
0.0391553 -0.0713792 -0.0255353 
0.0341094 -0.0785505 -0.0223612 
0.0391553 -0.0756178 -0.0182266 
0.0341094 -0.0740475 -0.0298151 
0.0437764 -0.0683478 -0.0206729 
0.0391553 -0.0657872 -0.0319797 
0.0437764 -0.0631059 -0.0269952 
0.0231223 -0.0642598 -0.0484874 
0.0231223 -0.0717824 -0.0431243 
0.0231223 -0.0560334 -0.0522485 
0.0287316 -0.0548859 -0.0491788 
0.0341094 -0.0455678 -0.0475967 
0.0391553 -0.0442643 -0.0432134 
0.0341094 -0.0611495 -0.041642 
0.0287316 -0.070152 -0.0400937 
0.0341094 -0.0681474 -0.0363672 
0.0287316 -0.0628649 -0.0454171 
0.0391553 -0.0591301 -0.0371972 
0.0341094 -0.0534748 -0.0454046 
0.0391553 -0.051813 -0.0409606 
-0.00299036 -0.0931632 -0.0074482 
-0.0118219 -0.0892153 -0.0241283 
-0.0170915 -0.0899855 -0.0142654 
-0.0227771 -0.0882708 -0.0123069 
-0.0170915 -0.091061 -0.00527108 
-0.0118219 -0.0922676 -0.00652045 
-0.0118219 -0.091141 -0.0155852 
0.00151075 -0.0580031 -0.0575206 
-0.00299036 -0.0579636 -0.0574161 
-0.0118219 -0.0660851 -0.0525073 
-0.00734626 -0.0664579 -0.0533274 
-0.0118219 -0.0575333 -0.0562674 
-0.0170915 -0.0569538 -0.0547195 
-0.00734626 -0.0743529 -0.0479017 
0.0173844 -0.0653271 -0.0508367 
0.0173844 -0.0730299 -0.0454433 
-0.0227771 -0.030337 -0.0552346 
-0.026033 -0.0124999 -0.0540581 
-0.0227771 -0.0391977 -0.0550849 
0.00151074 -0.0402927 -0.0599879 
0.00354606 -0.0402955 -0.0599999 
-0.00299037 -0.0310069 -0.0598887 
6.55665e-10 -0.00749993 -0.06 
-0.00299037 -0.0402701 -0.0598863 
1.09278e-09 -0.0124999 -0.06 
-0.0133512 -0.00749993 -0.0584956 
-0.0337918 -0.0682899 -0.0366288 
-0.0337918 -0.0612679 -0.0419078 
-0.0337918 -0.0742118 -0.0300676 
-0.0388605 -0.0659519 -0.0322821 
-0.0388605 -0.0592667 -0.0375046 
-0.0118219 -0.0739176 -0.0470921 
-0.00734626 -0.0810645 -0.0410656 
-0.00734626 -0.0862619 -0.033228 
-0.0227771 -0.0643374 -0.048662 
-0.0283973 -0.0629631 -0.0456381 
-0.0227771 -0.0560942 -0.0524227 
-0.0170915 -0.0653815 -0.0509593 
-0.0283973 -0.0549629 -0.0493991 
-0.0283973 -0.0811904 -0.0260713 
-0.0227771 -0.0864915 -0.020693 
-0.0170915 -0.0881187 -0.0227452 
-0.0229498 0.0534948 0.154407 
-0.0172095 0.0555366 0.154727 
-0.0229498 0.0550135 0.163425 
-0.0114403 0.0584725 0.163682 
-0.026033 0.0540581 0.1715 
0.059445 -0.0432028 0.0100049 
0.0583706 -0.0497759 0.00911873 
0.059445 -0.0475575 0.0213427 
0.059445 -0.0458477 0.0154205 
0.059924 -0.0382084 0.0276762 
0.059924 -0.0391614 0.0331836 
0.059445 -0.0482557 0.0274978 
0.0583706 -0.0518748 0.015254 
0.0583706 -0.0528904 0.0216553 
0.059445 -0.0317916 -0.00126863 
0.0583706 -0.0239738 -0.0110776 
0.0566896 -0.0356387 -0.0142059 
0.0566896 -0.0304314 -0.0158422 
0.0543796 -0.0536172 -0.00935596 
0.0543796 -0.057621 -0.00346601 
0.0566896 -0.0537221 0.00278842 
0.00151075 -0.0932449 -0.00753289 
0.00354607 -0.0920865 -0.0166643 
0.00354607 -0.0932542 -0.00754273 
-0.00299036 -0.091999 -0.0165648 
-0.00734626 -0.0917534 -0.0162844 
0.00151075 -0.0920774 -0.0166541 
-0.00299036 -0.0623436 -0.0557531 
-0.00299036 -0.0666075 -0.0536562 
0.00151075 -0.0745828 -0.0483295 
-0.00299036 -0.0745274 -0.0482261 
-0.00299036 -0.0706889 -0.0511376 
-0.00299036 -0.0812615 -0.0413824 
-0.00299036 -0.0780668 -0.0449581 
0.00354607 -0.081331 -0.0414948 
0.00151075 -0.081324 -0.0414833 
0.00151075 -0.0781258 -0.0450601 
0.0116147 -0.0739017 -0.0470636 
0.0116147 -0.0857006 -0.0324405 
0.0116147 -0.0805535 -0.0402489 
0.0116147 -0.0891961 -0.0241075 
0.0173844 -0.0846172 -0.0309138 
0.0173844 -0.0795678 -0.0386684 
0.00354607 -0.0901123 -0.0252614 
0.00151075 -0.0865472 -0.0336322 
0.00151075 -0.0885344 -0.0294812 
0.00354607 -0.0865549 -0.0336437 
-0.00299036 -0.0864785 -0.0335343 
0.00151075 -0.0841389 -0.037653 
-0.00299036 -0.0840732 -0.0375536 
-0.0118219 -0.0400231 -0.0587807 
-0.0133512 -0.0124999 -0.0584956 
-0.0170915 -0.0306451 -0.0573745 
-0.0118219 -0.0308527 -0.0588169 
-0.0170915 -0.0396908 -0.0572926 
-0.0118219 -0.048752 -0.0583083 
-0.00734627 -0.0401993 -0.0595694 
-0.00734627 -0.0489927 -0.0591174 
-0.0227771 -0.083185 -0.0288856 
-0.0283973 -0.0764505 -0.03366 
-0.0283973 -0.0702705 -0.040311 
-0.0171056 0.0571819 0.1715 
-0.0172095 0.0570533 0.163577 
-0.0133512 0.0584956 0.1715 
-0.0228562 0.0551697 0.1715 
-0.0224169 0.0554448 0.191412 
0.0583706 -0.0427777 -0.00120896 
0.0583706 -0.0466777 0.00354487 
0.059445 -0.0398042 0.00533527 
0.0583706 -0.0383574 -0.00497919 
0.059445 -0.0359102 0.00156385 
0.0566896 -0.045765 -0.00778288 
0.0566896 -0.0501685 -0.00294423 
0.059445 -0.015902 -0.00763768 
-0.00299036 -0.0900294 -0.025156 
-0.00299036 -0.0911804 -0.0209314 
-0.00734626 -0.0897963 -0.0248615 
-0.00299036 -0.0884628 -0.029385 
0.00151075 -0.0901037 -0.0252503 
0.00151075 -0.091257 -0.0210238 
0.00354607 -0.0666606 -0.0537726 
0.00151075 -0.0666552 -0.0537606 
0.00151075 -0.0707405 -0.0512418 
0.00354607 -0.0745891 -0.0483414 
0.0116147 -0.0660728 -0.0524783 
0.00151075 -0.0623873 -0.0558577 
0.00354607 -0.0580078 -0.0575325 
0.0116147 -0.0575247 -0.0562386 
-0.0170915 -0.0796438 -0.0387847 
-0.0227771 -0.0782652 -0.0365721 
-0.0170915 -0.0847002 -0.0310237 
-0.0118219 -0.0857211 -0.0324646 
-0.0118219 -0.0805726 -0.0402756 
-0.0170915 -0.0730957 -0.0455639 
-0.0227771 -0.071876 -0.0432961 
0.059445 -0.0230961 -0.00498533 
0.059445 -0.0276173 -0.00324357 
0.0597093 -0.0124999 -0.00589955 
0.059445 -0.0184963 -0.00674748 
0.0583706 -0.0290213 -0.00952881 
0.0583706 -0.0337108 -0.0077228 
0.06 5.24537e-09 0.1715 
0.06 -0.0124999 0 
0.06 5.24537e-09 0.1915 
0.06 -0.00749992 0 
-0.06 -5.24537e-09 0.1715 
-0.06 -5.24537e-09 0.1915 
-0.06 -0.0124999 0 
-0.06 -0.00749994 0 
