ply
format ascii 1.0
comment VCGLIB generated
element vertex 152
property float x
property float y
property float z
end_header
-0.0315655 -0.0245684 -0.0209998 
-0.0270913 -0.0294288 -0.016 
-0.0270913 -0.0294288 -0.0209998 
-0.0315655 -0.0245684 -0.016 
-0.0315655 0.0245684 -0.0209998 
-0.0270913 0.0294288 -0.016 
-0.0270913 0.0294288 -0.0209998 
-0.0315655 0.0245684 -0.016 
-0.0394544 -0.00658375 -0.016 
-0.0394544 -0.00658375 -0.0209998 
-0.0378326 -0.012988 -0.0209998 
-0.0378326 -0.012988 -0.016 
-0.04 0 -0.0209998 
-0.04 0 -0.016 
-0.0351788 -0.0190378 -0.016 
-0.0351788 -0.0190378 -0.0209998 
-0.0394544 0.00658375 -0.0209998 
-0.0394544 0.00658375 -0.016 
-0.0378326 0.012988 -0.0209998 
-0.0378326 0.012988 -0.016 
0.0315655 -0.0245684 -0.0209998 
0.0270913 -0.0294288 -0.016 
0.0270913 -0.0294288 -0.0209998 
0.0315655 -0.0245684 -0.016 
0.0394544 -0.00658375 -0.016 
0.0394544 -0.00658375 -0.0209998 
0.0378326 -0.012988 -0.0209998 
0.0378326 -0.012988 -0.016 
-0.00330317 -0.0398632 -0.016 
-0.00330317 -0.0398632 -0.0209998 
-0.00981939 -0.038776 -0.0209998 
-0.00981939 -0.038776 -0.016 
0.00330317 -0.0398632 -0.0209998 
0.00330317 -0.0398632 -0.016 
0.00290638 -0.0313656 0 
-0.00290638 -0.0313656 0 
-0.0351788 0.0190379 -0.016 
-0.0351788 0.0190379 -0.0209998 
-0.0218779 -0.0334867 -0.016 
-0.0218779 -0.0334867 -0.0209998 
0.0351788 -0.0190378 -0.0209998 
0.0351788 -0.0190378 -0.016 
0.04 0 -0.016 
0.04 0 -0.0209998 
0.00981939 -0.038776 -0.016 
0.00981939 -0.038776 -0.0209998 
0.0160678 -0.0366308 -0.0209998 
0.0160678 -0.0366308 -0.016 
-0.00330317 0.0398632 -0.016 
-0.00330317 0.0398632 -0.0209998 
-0.00981939 0.038776 -0.0209998 
-0.00981939 0.038776 -0.016 
0.00330317 0.0398632 -0.0209998 
0.00330317 0.0398632 -0.016 
0.00290638 0.0313656 0 
-0.00290638 0.0313656 0 
-0.0218779 0.0334866 -0.016 
-0.0218779 0.0334866 -0.0209998 
-0.0160678 -0.0366308 -0.016 
-0.0160678 -0.0366308 -0.0209998 
0.0218779 -0.0334867 -0.016 
0.0218779 -0.0334867 -0.0209998 
0.0315655 0.0245684 -0.0209998 
0.0270913 0.0294288 -0.0209998 
0.0270913 0.0294288 -0.016 
0.0315655 0.0245684 -0.016 
0.0394544 0.00658375 -0.016 
0.0394544 0.00658375 -0.0209998 
0.0378326 0.012988 -0.0209998 
0.0378326 0.012988 -0.016 
0.0351788 0.0190379 -0.016 
0.0351788 0.0190379 -0.0209998 
0.00981939 0.038776 -0.016 
0.00981939 0.038776 -0.0209998 
0.0160678 0.0366308 -0.0209998 
0.0160678 0.0366308 -0.016 
-0.0160678 0.0366308 -0.016 
-0.0160678 0.0366308 -0.0209998 
0.0218779 0.0334866 -0.016 
0.0218779 0.0334866 -0.0209998 
0.0182137 0.0256138 0 
0.00862038 -0.0302973 0 
-0.0182137 0.0256138 0 
-0.0189828 0.0251375 0 
-0.0309635 0.00578803 0 
-0.0293729 0.0113791 0 
0.0232788 -0.0212213 0 
0.0189828 -0.0251375 0 
-0.0309635 -0.00578803 0 
-0.0293729 -0.0113791 0 
-0.0267817 -0.0165825 0 
0.0309635 -0.00578803 0 
0.0293729 -0.0113791 0 
-0.0267817 0.0165825 0 
-0.0315 0 0 
-0.0232788 -0.0212213 0 
0.00862038 0.0302973 0 
-0.00883883 0.0302128 0 
-0.00862038 0.0302973 0 
0.0267817 -0.0165825 0 
-0.0232788 0.0212213 0 
0.0182137 -0.0256138 0 
-0.00862038 -0.0302973 0 
-0.0189828 -0.0251375 0 
-0.00883883 -0.0302128 0 
0.00883883 -0.0302128 0 
0.0140406 -0.0281976 0 
0.0309635 0.00578803 0 
0.0293729 0.0113791 0 
0.0267817 0.0165825 0 
-0.0140406 -0.0281976 0 
-0.0182137 -0.0256138 0 
0.0315 0 0 
0.0232788 0.0212213 0 
0.0189828 0.0251375 0 
-0.0140406 0.0281976 0 
0.0140406 0.0281976 0 
0.00883883 0.0302128 0 
-0.009812 -0.02835 -0.0309998 
0.021712 0.0207024 -0.0309998 
0.0252376 0.0162191 -0.0309998 
-0.0196458 -0.0226725 -0.0309998 
-0.0149999 -0.0259807 -0.0309998 
0.027851 0.0111498 -0.0309998 
-0.0235816 -0.0185447 -0.0309998 
0.0174017 0.0244371 -0.0309998 
0.0294577 0.00567752 -0.0309998 
-0.026665 -0.0137467 -0.0309998 
0.0124623 0.0272889 -0.0309998 
0.03 0 -0.0309998 
-0.0287848 -0.00845194 -0.0309998 
0.00707269 0.0291543 -0.0309998 
0.0294577 -0.00567752 -0.0309998 
-0.0298641 -0.00285167 -0.0309998 
0.00142741 0.0299659 -0.0309998 
-0.03 0 -0.0309998 
0.027851 -0.0111498 -0.0309998 
-0.00426942 0.0296945 -0.0309998 
0.0252376 -0.0162191 -0.0309998 
-0.009812 0.02835 -0.0309998 
0.021712 -0.0207024 -0.0309998 
-0.0149999 0.0259807 -0.0309998 
0.0174017 -0.0244371 -0.0309998 
-0.0196458 0.0226725 -0.0309998 
0.0124623 -0.0272889 -0.0309998 
-0.0235816 0.0185447 -0.0309998 
0.00707269 -0.0291543 -0.0309998 
-0.026665 0.0137467 -0.0309998 
0.00142741 -0.0299659 -0.0309998 
-0.0287848 0.00845194 -0.0309998 
-0.00426942 -0.0296945 -0.0309998 
-0.0298641 0.00285167 -0.0309998 